<svg xmlns="http://www.w3.org/2000/svg" xmlns:xlink="http://www.w3.org/1999/xlink" width="300" zoomAndPan="magnify" viewBox="0 0 224.87999 374.999991" height="500" preserveAspectRatio="xMidYMid meet" version="1.0"><defs><g/><clipPath id="c910ce663c"><path d="M 20 126 L 120 126 L 120 226 L 20 226 Z M 20 126 " clip-rule="nonzero"/></clipPath><clipPath id="e8fa751928"><path d="M 84.777344 108.15625 L 152.621094 176.003906 L 84.777344 243.851562 L 16.929688 176.003906 Z M 84.777344 108.15625 " clip-rule="nonzero"/></clipPath><clipPath id="5623be4f39"><path d="M 84.777344 108.15625 L 152.621094 176.003906 L 84.777344 243.851562 L 16.929688 176.003906 Z M 84.777344 108.15625 " clip-rule="nonzero"/></clipPath><clipPath id="53cc22b21f"><path d="M 72 73 L 173 73 L 173 173 L 72 173 Z M 72 73 " clip-rule="nonzero"/></clipPath><clipPath id="d3c77d1384"><path d="M 137.582031 55.351562 L 205.429688 123.195312 L 137.582031 191.042969 L 69.738281 123.195312 Z M 137.582031 55.351562 " clip-rule="nonzero"/></clipPath><clipPath id="c4e4d521e7"><path d="M 137.582031 55.351562 L 205.429688 123.195312 L 137.582031 191.042969 L 69.738281 123.195312 Z M 137.582031 55.351562 " clip-rule="nonzero"/></clipPath><clipPath id="7ce0afd391"><path d="M 21 126 L 122 126 L 122 226 L 21 226 Z M 21 126 " clip-rule="nonzero"/></clipPath><clipPath id="ed623cf5dd"><path d="M 86.234375 108.15625 L 154.078125 176.003906 L 86.234375 243.851562 L 18.386719 176.003906 Z M 86.234375 108.15625 " clip-rule="nonzero"/></clipPath><clipPath id="a3ef75b241"><path d="M 86.234375 108.15625 L 154.078125 176.003906 L 86.234375 243.851562 L 18.386719 176.003906 Z M 86.234375 108.15625 " clip-rule="nonzero"/></clipPath><clipPath id="abc1a878c7"><path d="M 63.4375 161.300781 L 98.667969 161.300781 L 98.667969 188.289062 L 63.4375 188.289062 Z M 63.4375 161.300781 " clip-rule="nonzero"/></clipPath><clipPath id="ceb7d245f4"><path d="M 63.4375 161.300781 L 98.667969 161.300781 L 98.667969 175 L 63.4375 175 Z M 63.4375 161.300781 " clip-rule="nonzero"/></clipPath><clipPath id="beb27e8239"><path d="M 74 73 L 175 73 L 175 173 L 74 173 Z M 74 73 " clip-rule="nonzero"/></clipPath><clipPath id="e5a59c5436"><path d="M 139.730469 55.351562 L 207.574219 123.195312 L 139.730469 191.042969 L 71.882812 123.195312 Z M 139.730469 55.351562 " clip-rule="nonzero"/></clipPath><clipPath id="cf11caae51"><path d="M 139.730469 55.351562 L 207.574219 123.195312 L 139.730469 191.042969 L 71.882812 123.195312 Z M 139.730469 55.351562 " clip-rule="nonzero"/></clipPath><clipPath id="59519f9e6e"><path d="M 113.351562 125 L 159.828125 125 L 159.828125 143.347656 L 113.351562 143.347656 Z M 113.351562 125 " clip-rule="nonzero"/></clipPath><clipPath id="4c9791830b"><path d="M 126 96.871094 L 147 96.871094 L 147 116 L 126 116 Z M 126 96.871094 " clip-rule="nonzero"/></clipPath><clipPath id="16bf449cfd"><path d="M 113.351562 126 L 159.828125 126 L 159.828125 144 L 113.351562 144 Z M 113.351562 126 " clip-rule="nonzero"/></clipPath><clipPath id="9cd787fc8a"><path d="M 126 97.6875 L 147 97.6875 L 147 117 L 126 117 Z M 126 97.6875 " clip-rule="nonzero"/></clipPath><clipPath id="ded9745999"><rect x="0" width="174" y="0" height="63"/></clipPath><clipPath id="03e52ebdee"><rect x="0" width="53" y="0" height="53"/></clipPath></defs><g clip-path="url(#c910ce663c)"><g clip-path="url(#e8fa751928)"><g clip-path="url(#5623be4f39)"><path fill="#121256" d="M 111.457031 203.503906 C 110.1875 202.238281 108.664062 201.386719 107.046875 200.945312 C 106.429688 200.78125 105.796875 200.671875 105.15625 200.625 C 103.632812 200.21875 101.660156 199.320312 101.195312 197.34375 L 117.582031 180.957031 C 120.347656 178.191406 120.347656 173.699219 117.582031 170.929688 L 100.988281 154.335938 C 101.558594 152.757812 103.144531 151.953125 104.503906 151.539062 C 106.9375 151.460938 109.347656 150.492188 111.207031 148.632812 C 115.085938 144.753906 115.089844 138.464844 111.207031 134.582031 C 107.324219 130.699219 101.035156 130.703125 97.15625 134.582031 C 95.890625 135.847656 95.039062 137.375 94.597656 138.988281 C 94.429688 139.609375 94.320312 140.242188 94.273438 140.882812 C 93.898438 142.304688 93.089844 144.109375 91.378906 144.726562 L 74.859375 128.207031 C 72.089844 125.441406 67.597656 125.441406 64.828125 128.207031 L 48.445312 144.59375 C 48.910156 146.570312 50.882812 147.46875 52.40625 147.875 C 53.046875 147.917969 53.679688 148.027344 54.300781 148.199219 C 55.914062 148.636719 57.4375 149.488281 58.707031 150.753906 C 62.589844 154.636719 62.585938 160.929688 58.710938 164.808594 C 54.828125 168.691406 48.535156 168.691406 44.652344 164.808594 C 42.792969 162.949219 41.832031 160.539062 41.753906 158.105469 C 41.308594 156.640625 40.402344 154.90625 38.566406 154.472656 L 22.109375 170.929688 C 19.339844 173.699219 19.339844 178.191406 22.109375 180.957031 L 38.496094 197.34375 C 40.46875 196.875 41.371094 194.90625 41.777344 193.382812 C 41.820312 192.742188 41.925781 192.113281 42.097656 191.492188 C 42.539062 189.875 43.386719 188.351562 44.65625 187.082031 C 48.535156 183.203125 54.824219 183.203125 58.707031 187.082031 C 62.585938 190.964844 62.585938 197.253906 58.707031 201.132812 C 56.847656 202.992188 54.441406 203.957031 52.003906 204.039062 C 50.539062 204.480469 48.808594 205.382812 48.371094 207.222656 L 64.828125 223.679688 C 67.597656 226.449219 72.089844 226.449219 74.859375 223.679688 L 91.316406 207.222656 C 93.15625 207.660156 94.058594 209.390625 94.503906 210.855469 C 94.582031 213.292969 95.542969 215.703125 97.402344 217.558594 C 101.28125 221.441406 107.578125 221.441406 111.460938 217.558594 C 115.335938 213.679688 115.335938 207.386719 111.457031 203.503906 " fill-opacity="1" fill-rule="nonzero"/></g></g></g><g clip-path="url(#53cc22b21f)"><g clip-path="url(#d3c77d1384)"><g clip-path="url(#c4e4d521e7)"><path fill="#121256" d="M 164.265625 150.695312 C 162.996094 149.429688 161.472656 148.578125 159.855469 148.136719 C 159.238281 147.972656 158.605469 147.863281 157.964844 147.816406 C 156.441406 147.410156 154.46875 146.511719 154.003906 144.535156 L 170.386719 128.152344 C 173.15625 125.382812 173.15625 120.890625 170.386719 118.121094 L 153.796875 101.53125 C 154.367188 99.949219 155.953125 99.144531 157.3125 98.730469 C 159.746094 98.652344 162.15625 97.683594 164.015625 95.824219 C 167.894531 91.945312 167.894531 85.65625 164.015625 81.773438 C 160.132812 77.890625 153.839844 77.894531 149.964844 81.773438 C 148.695312 83.039062 147.847656 84.566406 147.40625 86.179688 C 147.234375 86.800781 147.128906 87.433594 147.082031 88.074219 C 146.707031 89.496094 145.898438 91.300781 144.1875 91.917969 L 127.667969 75.398438 C 124.898438 72.632812 120.40625 72.632812 117.636719 75.398438 L 101.25 91.785156 C 101.71875 93.761719 103.6875 94.660156 105.214844 95.066406 C 105.855469 95.113281 106.488281 95.222656 107.109375 95.390625 C 108.722656 95.828125 110.246094 96.679688 111.515625 97.945312 C 115.398438 101.832031 115.394531 108.121094 111.515625 112 C 107.636719 115.882812 101.34375 115.886719 97.460938 112 C 95.601562 110.144531 94.640625 107.734375 94.5625 105.296875 C 94.117188 103.832031 93.210938 102.101562 91.375 101.664062 L 74.917969 118.121094 C 72.148438 120.890625 72.148438 125.382812 74.917969 128.152344 L 91.304688 144.535156 C 93.277344 144.066406 94.179688 142.097656 94.585938 140.574219 C 94.628906 139.933594 94.734375 139.304688 94.90625 138.683594 C 95.347656 137.066406 96.195312 135.542969 97.460938 134.273438 C 101.34375 130.394531 107.632812 130.394531 111.515625 134.273438 C 115.394531 138.15625 115.394531 144.445312 111.515625 148.328125 C 109.65625 150.183594 107.25 151.148438 104.8125 151.230469 C 103.347656 151.671875 101.617188 152.578125 101.179688 154.414062 L 117.636719 170.871094 C 120.40625 173.640625 124.898438 173.640625 127.667969 170.871094 L 144.125 154.414062 C 145.960938 154.851562 146.867188 156.582031 147.3125 158.046875 C 147.390625 160.484375 148.351562 162.894531 150.210938 164.75 C 154.089844 168.632812 160.386719 168.632812 164.265625 164.75 C 168.144531 160.871094 168.144531 154.578125 164.265625 150.695312 " fill-opacity="1" fill-rule="nonzero"/></g></g></g><g clip-path="url(#7ce0afd391)"><g clip-path="url(#ed623cf5dd)"><g clip-path="url(#a3ef75b241)"><path fill="#5ca3ff" d="M 112.914062 203.503906 C 111.648438 202.238281 110.121094 201.386719 108.507812 200.945312 C 107.886719 200.78125 107.253906 200.671875 106.613281 200.625 C 105.089844 200.21875 103.121094 199.320312 102.652344 197.34375 L 119.039062 180.957031 C 121.804688 178.191406 121.804688 173.699219 119.039062 170.929688 L 102.445312 154.335938 C 103.015625 152.757812 104.601562 151.953125 105.964844 151.539062 C 108.398438 151.460938 110.808594 150.492188 112.664062 148.632812 C 116.542969 144.753906 116.546875 138.464844 112.664062 134.582031 C 108.78125 130.699219 102.492188 130.703125 98.613281 134.582031 C 97.347656 135.847656 96.496094 137.375 96.054688 138.988281 C 95.886719 139.609375 95.78125 140.242188 95.730469 140.882812 C 95.355469 142.304688 94.546875 144.109375 92.835938 144.726562 L 76.316406 128.207031 C 73.546875 125.441406 69.054688 125.441406 66.289062 128.207031 L 49.902344 144.59375 C 50.367188 146.570312 52.339844 147.46875 53.863281 147.875 C 54.503906 147.917969 55.136719 148.027344 55.757812 148.199219 C 57.371094 148.636719 58.898438 149.488281 60.164062 150.753906 C 64.046875 154.636719 64.042969 160.929688 60.167969 164.808594 C 56.285156 168.691406 49.992188 168.691406 46.109375 164.808594 C 44.25 162.949219 43.289062 160.539062 43.210938 158.105469 C 42.765625 156.640625 41.863281 154.90625 40.023438 154.472656 L 23.566406 170.929688 C 20.796875 173.699219 20.796875 178.191406 23.566406 180.957031 L 39.953125 197.34375 C 41.925781 196.875 42.828125 194.90625 43.234375 193.382812 C 43.277344 192.742188 43.382812 192.113281 43.554688 191.492188 C 43.996094 189.875 44.84375 188.351562 46.113281 187.082031 C 49.992188 183.203125 56.28125 183.203125 60.164062 187.082031 C 64.042969 190.964844 64.042969 197.253906 60.164062 201.132812 C 58.304688 202.992188 55.898438 203.957031 53.460938 204.039062 C 51.996094 204.480469 50.265625 205.382812 49.828125 207.222656 L 66.289062 223.679688 C 69.054688 226.449219 73.546875 226.449219 76.316406 223.679688 L 92.777344 207.222656 C 94.613281 207.660156 95.515625 209.390625 95.960938 210.855469 C 96.039062 213.292969 97 215.703125 98.859375 217.558594 C 102.742188 221.441406 109.035156 221.441406 112.917969 217.558594 C 116.796875 213.679688 116.796875 207.386719 112.914062 203.503906 " fill-opacity="1" fill-rule="nonzero"/></g></g></g><g clip-path="url(#abc1a878c7)"><path fill="#3679ed" d="M 98.625 174.792969 C 98.625 174.792969 89.210938 188.007812 77.097656 188.042969 C 73.550781 188.289062 69.925781 187.003906 67.21875 184.183594 C 64.722656 181.589844 63.480469 178.191406 63.480469 174.792969 C 63.480469 171.394531 64.722656 167.996094 67.21875 165.402344 C 69.925781 162.582031 73.554688 161.296875 77.097656 161.542969 C 89.222656 161.578125 98.625 174.792969 98.625 174.792969 Z M 98.625 174.792969 " fill-opacity="1" fill-rule="nonzero"/></g><g clip-path="url(#ceb7d245f4)"><path fill="#1d67db" d="M 98.625 174.792969 L 63.480469 174.792969 C 63.480469 171.394531 64.722656 167.996094 67.21875 165.402344 C 69.925781 162.582031 73.554688 161.296875 77.097656 161.542969 C 89.222656 161.578125 98.625 174.792969 98.625 174.792969 Z M 98.625 174.792969 " fill-opacity="1" fill-rule="nonzero"/></g><path fill="#ffffff" d="M 87.6875 174.777344 C 87.6875 175.457031 87.621094 176.128906 87.488281 176.792969 C 87.355469 177.457031 87.160156 178.101562 86.902344 178.730469 C 86.644531 179.355469 86.324219 179.949219 85.949219 180.511719 C 85.574219 181.078125 85.148438 181.597656 84.667969 182.078125 C 84.1875 182.554688 83.667969 182.984375 83.105469 183.359375 C 82.542969 183.738281 81.949219 184.054688 81.324219 184.316406 C 80.699219 184.574219 80.054688 184.769531 79.390625 184.902344 C 78.726562 185.035156 78.054688 185.101562 77.378906 185.101562 C 76.699219 185.101562 76.03125 185.035156 75.367188 184.902344 C 74.703125 184.769531 74.058594 184.574219 73.433594 184.316406 C 72.804688 184.054688 72.210938 183.738281 71.648438 183.359375 C 71.085938 182.984375 70.566406 182.554688 70.085938 182.078125 C 69.609375 181.597656 69.179688 181.078125 68.804688 180.511719 C 68.429688 179.949219 68.109375 179.355469 67.851562 178.730469 C 67.59375 178.101562 67.398438 177.457031 67.265625 176.792969 C 67.132812 176.128906 67.066406 175.457031 67.066406 174.777344 C 67.066406 174.101562 67.132812 173.429688 67.265625 172.765625 C 67.398438 172.101562 67.59375 171.457031 67.851562 170.828125 C 68.109375 170.203125 68.429688 169.609375 68.804688 169.042969 C 69.179688 168.480469 69.609375 167.960938 70.085938 167.480469 C 70.566406 167 71.085938 166.574219 71.648438 166.195312 C 72.210938 165.820312 72.804688 165.503906 73.433594 165.242188 C 74.058594 164.984375 74.703125 164.789062 75.367188 164.65625 C 76.03125 164.523438 76.699219 164.457031 77.378906 164.457031 C 78.054688 164.457031 78.726562 164.523438 79.390625 164.65625 C 80.054688 164.789062 80.699219 164.984375 81.324219 165.242188 C 81.949219 165.503906 82.542969 165.820312 83.105469 166.195312 C 83.667969 166.574219 84.1875 167 84.667969 167.480469 C 85.148438 167.960938 85.574219 168.480469 85.949219 169.042969 C 86.324219 169.609375 86.644531 170.203125 86.902344 170.828125 C 87.160156 171.457031 87.355469 172.101562 87.488281 172.765625 C 87.621094 173.429688 87.6875 174.101562 87.6875 174.777344 Z M 87.6875 174.777344 " fill-opacity="1" fill-rule="nonzero"/><path fill="#121256" d="M 73.542969 180.832031 L 77.6875 173.9375 C 78.027344 173.359375 78.253906 172.925781 78.359375 172.636719 C 78.464844 172.34375 78.515625 172.054688 78.515625 171.773438 C 78.515625 171.464844 78.429688 171.214844 78.261719 171.027344 C 78.09375 170.839844 77.871094 170.742188 77.59375 170.742188 C 77.257812 170.742188 77 170.878906 76.824219 171.148438 C 76.648438 171.417969 76.558594 171.800781 76.558594 172.300781 L 76.558594 172.5625 L 73.984375 172.5625 L 73.984375 172.269531 C 73.984375 171.128906 74.296875 170.261719 74.925781 169.660156 C 75.550781 169.058594 76.453125 168.757812 77.632812 168.757812 C 78.8125 168.757812 79.648438 169.019531 80.265625 169.546875 C 80.886719 170.074219 81.195312 170.820312 81.195312 171.789062 C 81.195312 172.304688 81.101562 172.816406 80.917969 173.328125 C 80.730469 173.835938 80.34375 174.535156 79.753906 175.421875 L 77.632812 178.644531 L 80.828125 178.644531 L 80.828125 180.832031 Z M 73.542969 180.832031 " fill-opacity="1" fill-rule="nonzero"/><g clip-path="url(#beb27e8239)"><g clip-path="url(#e5a59c5436)"><g clip-path="url(#cf11caae51)"><path fill="#5ca3ff" d="M 166.410156 150.695312 C 165.144531 149.429688 163.617188 148.578125 162.003906 148.136719 C 161.386719 147.972656 160.75 147.863281 160.113281 147.816406 C 158.585938 147.410156 156.617188 146.511719 156.148438 144.535156 L 172.535156 128.152344 C 175.304688 125.382812 175.304688 120.890625 172.535156 118.121094 L 155.945312 101.53125 C 156.511719 99.949219 158.097656 99.144531 159.460938 98.730469 C 161.894531 98.652344 164.304688 97.683594 166.160156 95.824219 C 170.039062 91.945312 170.042969 85.65625 166.160156 81.773438 C 162.28125 77.890625 155.988281 77.894531 152.109375 81.773438 C 150.84375 83.039062 149.992188 84.566406 149.554688 86.179688 C 149.382812 86.800781 149.277344 87.433594 149.226562 88.074219 C 148.851562 89.496094 148.042969 91.300781 146.332031 91.917969 L 129.8125 75.398438 C 127.046875 72.632812 122.554688 72.632812 119.785156 75.398438 L 103.398438 91.785156 C 103.867188 93.761719 105.835938 94.660156 107.363281 95.066406 C 108 95.113281 108.632812 95.222656 109.257812 95.390625 C 110.867188 95.828125 112.394531 96.679688 113.660156 97.945312 C 117.542969 101.832031 117.542969 108.121094 113.664062 112 C 109.78125 115.882812 103.488281 115.886719 99.605469 112 C 97.75 110.144531 96.785156 107.734375 96.707031 105.296875 C 96.261719 103.832031 95.359375 102.101562 93.523438 101.664062 L 77.0625 118.121094 C 74.296875 120.890625 74.296875 125.382812 77.0625 128.152344 L 93.449219 144.535156 C 95.421875 144.066406 96.324219 142.097656 96.730469 140.574219 C 96.773438 139.933594 96.882812 139.304688 97.050781 138.683594 C 97.492188 137.066406 98.34375 135.542969 99.609375 134.273438 C 103.488281 130.394531 109.777344 130.394531 113.660156 134.273438 C 117.542969 138.15625 117.542969 144.445312 113.660156 148.328125 C 111.804688 150.183594 109.394531 151.148438 106.957031 151.230469 C 105.492188 151.671875 103.761719 152.578125 103.328125 154.414062 L 119.785156 170.871094 C 122.554688 173.640625 127.046875 173.640625 129.8125 170.871094 L 146.273438 154.414062 C 148.109375 154.851562 149.011719 156.582031 149.457031 158.046875 C 149.535156 160.484375 150.5 162.894531 152.355469 164.75 C 156.238281 168.632812 162.53125 168.632812 166.414062 164.75 C 170.292969 160.871094 170.292969 154.578125 166.410156 150.695312 " fill-opacity="1" fill-rule="nonzero"/></g></g></g><g clip-path="url(#59519f9e6e)"><path fill="#121256" d="M 159.5 126.648438 C 159.597656 126.414062 159.566406 126.144531 159.425781 125.929688 C 159.28125 125.71875 159.042969 125.589844 158.785156 125.589844 L 114.152344 125.589844 C 113.894531 125.589844 113.65625 125.71875 113.511719 125.929688 C 113.367188 126.144531 113.339844 126.414062 113.433594 126.648438 L 119.8125 142.589844 C 119.925781 142.882812 120.210938 143.074219 120.527344 143.074219 L 152.410156 143.074219 C 152.726562 143.074219 153.007812 142.882812 153.125 142.589844 Z M 115.289062 127.136719 L 121.050781 141.53125 L 151.886719 141.53125 L 157.644531 127.136719 Z M 115.289062 127.136719 " fill-opacity="1" fill-rule="evenodd"/></g><path fill="#121256" d="M 141.058594 132.992188 C 141.140625 132.753906 141.105469 132.496094 140.957031 132.292969 C 140.8125 132.089844 140.582031 131.96875 140.332031 131.96875 L 132.605469 131.96875 C 132.355469 131.96875 132.121094 132.089844 131.976562 132.292969 C 131.832031 132.496094 131.792969 132.753906 131.878906 132.992188 L 132.980469 136.179688 C 133.085938 136.492188 133.378906 136.699219 133.707031 136.699219 L 139.226562 136.699219 C 139.554688 136.699219 139.847656 136.492188 139.957031 136.179688 Z M 133.6875 133.511719 L 134.257812 135.15625 L 138.675781 135.15625 L 139.25 133.511719 Z M 133.6875 133.511719 " fill-opacity="1" fill-rule="evenodd"/><path fill="#121256" d="M 153.179688 126.359375 C 153.179688 119.773438 147.839844 114.433594 141.253906 114.433594 C 138.152344 114.433594 134.785156 114.433594 131.683594 114.433594 C 125.09375 114.433594 119.753906 119.773438 119.753906 126.359375 C 119.753906 126.363281 119.753906 126.363281 119.753906 126.363281 C 119.753906 126.789062 120.101562 127.136719 120.527344 127.136719 L 152.410156 127.136719 C 152.835938 127.136719 153.179688 126.789062 153.179688 126.363281 Z M 151.609375 125.589844 C 151.214844 120.214844 146.730469 115.976562 141.253906 115.976562 C 138.152344 115.976562 134.785156 115.976562 131.683594 115.976562 C 126.207031 115.976562 121.71875 120.214844 121.324219 125.589844 Z M 151.609375 125.589844 " fill-opacity="1" fill-rule="evenodd"/><g clip-path="url(#4c9791830b)"><path fill="#121256" d="M 136.46875 96.898438 C 131.203125 96.898438 126.929688 101.171875 126.929688 106.4375 C 126.929688 111.703125 131.203125 115.976562 136.46875 115.976562 C 141.734375 115.976562 146.007812 111.703125 146.007812 106.4375 C 146.007812 101.171875 141.734375 96.898438 136.46875 96.898438 Z M 136.46875 98.441406 C 140.882812 98.441406 144.464844 102.023438 144.464844 106.4375 C 144.464844 110.851562 140.882812 114.433594 136.46875 114.433594 C 132.054688 114.433594 128.472656 110.851562 128.472656 106.4375 C 128.472656 102.023438 132.054688 98.441406 136.46875 98.441406 Z M 136.46875 98.441406 " fill-opacity="1" fill-rule="evenodd"/></g><g clip-path="url(#16bf449cfd)"><path fill="#ffffff" d="M 159.5 127.464844 C 159.597656 127.226562 159.566406 126.957031 159.425781 126.746094 C 159.28125 126.535156 159.042969 126.40625 158.785156 126.40625 L 114.152344 126.40625 C 113.894531 126.40625 113.65625 126.535156 113.511719 126.746094 C 113.367188 126.957031 113.339844 127.226562 113.433594 127.464844 L 119.8125 143.40625 C 119.925781 143.699219 120.210938 143.890625 120.527344 143.890625 L 152.410156 143.890625 C 152.726562 143.890625 153.007812 143.699219 153.125 143.40625 Z M 115.289062 127.949219 L 121.050781 142.347656 L 151.886719 142.347656 L 157.644531 127.949219 Z M 115.289062 127.949219 " fill-opacity="1" fill-rule="evenodd"/></g><path fill="#ffffff" d="M 141.058594 133.808594 C 141.140625 133.570312 141.105469 133.3125 140.957031 133.105469 C 140.8125 132.90625 140.582031 132.785156 140.332031 132.785156 L 132.605469 132.785156 C 132.355469 132.785156 132.121094 132.90625 131.976562 133.105469 C 131.832031 133.3125 131.792969 133.570312 131.878906 133.808594 L 132.980469 136.996094 C 133.085938 137.304688 133.378906 137.515625 133.707031 137.515625 L 139.226562 137.515625 C 139.554688 137.515625 139.847656 137.304688 139.957031 136.996094 Z M 133.6875 134.328125 L 134.257812 135.972656 L 138.675781 135.972656 L 139.25 134.328125 Z M 133.6875 134.328125 " fill-opacity="1" fill-rule="evenodd"/><path fill="#ffffff" d="M 153.179688 127.175781 C 153.179688 120.589844 147.839844 115.25 141.253906 115.25 C 138.152344 115.25 134.785156 115.25 131.683594 115.25 C 125.09375 115.25 119.753906 120.589844 119.753906 127.175781 C 119.753906 127.175781 119.753906 127.179688 119.753906 127.179688 C 119.753906 127.605469 120.101562 127.949219 120.527344 127.949219 L 152.410156 127.949219 C 152.835938 127.949219 153.179688 127.605469 153.179688 127.179688 Z M 151.609375 126.40625 C 151.214844 121.03125 146.730469 116.792969 141.253906 116.792969 C 138.152344 116.792969 134.785156 116.792969 131.683594 116.792969 C 126.207031 116.792969 121.71875 121.03125 121.324219 126.40625 Z M 151.609375 126.40625 " fill-opacity="1" fill-rule="evenodd"/><g clip-path="url(#9cd787fc8a)"><path fill="#ffffff" d="M 136.46875 97.714844 C 131.203125 97.714844 126.929688 101.988281 126.929688 107.253906 C 126.929688 112.515625 131.203125 116.792969 136.46875 116.792969 C 141.734375 116.792969 146.007812 112.515625 146.007812 107.253906 C 146.007812 101.988281 141.734375 97.714844 136.46875 97.714844 Z M 136.46875 99.257812 C 140.882812 99.257812 144.464844 102.839844 144.464844 107.253906 C 144.464844 111.667969 140.882812 115.25 136.46875 115.25 C 132.054688 115.25 128.472656 111.667969 128.472656 107.253906 C 128.472656 102.839844 132.054688 99.257812 136.46875 99.257812 Z M 136.46875 99.257812 " fill-opacity="1" fill-rule="evenodd"/></g><g transform="matrix(1, 0, 0, 1, 19, 263)"><g clip-path="url(#ded9745999)"><g fill="#1c4790" fill-opacity="1"><g transform="translate(1.189631, 14.888777)"><g><path d="M 7.515625 -2.9375 L 2.8125 -2.9375 L 1.75 0 L 0.21875 0 L 4.515625 -11.25 L 5.8125 -11.25 L 10.109375 0 L 8.59375 0 Z M 3.25 -4.15625 L 7.078125 -4.15625 L 5.15625 -9.421875 Z M 3.25 -4.15625 "/></g></g><g transform="translate(11.514021, 14.888777)"><g><path d="M 8.140625 -4.09375 C 8.140625 -2.8125 7.847656 -1.78125 7.265625 -1 C 6.691406 -0.226562 5.90625 0.15625 4.90625 0.15625 C 3.894531 0.15625 3.097656 -0.164062 2.515625 -0.8125 L 2.515625 3.21875 L 1.078125 3.21875 L 1.078125 -8.359375 L 2.390625 -8.359375 L 2.453125 -7.4375 C 3.035156 -8.15625 3.847656 -8.515625 4.890625 -8.515625 C 5.890625 -8.515625 6.679688 -8.132812 7.265625 -7.375 C 7.847656 -6.625 8.140625 -5.570312 8.140625 -4.21875 Z M 6.71875 -4.25 C 6.71875 -5.195312 6.515625 -5.941406 6.109375 -6.484375 C 5.710938 -7.023438 5.160156 -7.296875 4.453125 -7.296875 C 3.585938 -7.296875 2.941406 -6.914062 2.515625 -6.15625 L 2.515625 -2.15625 C 2.941406 -1.394531 3.59375 -1.015625 4.46875 -1.015625 C 5.15625 -1.015625 5.703125 -1.285156 6.109375 -1.828125 C 6.515625 -2.367188 6.71875 -3.175781 6.71875 -4.25 Z M 6.71875 -4.25 "/></g></g><g transform="translate(20.393306, 14.888777)"><g><path d="M 8.140625 -4.09375 C 8.140625 -2.8125 7.847656 -1.78125 7.265625 -1 C 6.691406 -0.226562 5.90625 0.15625 4.90625 0.15625 C 3.894531 0.15625 3.097656 -0.164062 2.515625 -0.8125 L 2.515625 3.21875 L 1.078125 3.21875 L 1.078125 -8.359375 L 2.390625 -8.359375 L 2.453125 -7.4375 C 3.035156 -8.15625 3.847656 -8.515625 4.890625 -8.515625 C 5.890625 -8.515625 6.679688 -8.132812 7.265625 -7.375 C 7.847656 -6.625 8.140625 -5.570312 8.140625 -4.21875 Z M 6.71875 -4.25 C 6.71875 -5.195312 6.515625 -5.941406 6.109375 -6.484375 C 5.710938 -7.023438 5.160156 -7.296875 4.453125 -7.296875 C 3.585938 -7.296875 2.941406 -6.914062 2.515625 -6.15625 L 2.515625 -2.15625 C 2.941406 -1.394531 3.59375 -1.015625 4.46875 -1.015625 C 5.15625 -1.015625 5.703125 -1.285156 6.109375 -1.828125 C 6.515625 -2.367188 6.71875 -3.175781 6.71875 -4.25 Z M 6.71875 -4.25 "/></g></g><g transform="translate(29.272591, 14.888777)"><g><path d="M 2.640625 0 L 1.203125 0 L 1.203125 -11.875 L 2.640625 -11.875 Z M 2.640625 0 "/></g></g><g transform="translate(33.113326, 14.888777)"><g><path d="M 3.8125 -2.09375 L 5.765625 -8.359375 L 7.296875 -8.359375 L 3.9375 1.296875 C 3.414062 2.679688 2.585938 3.375 1.453125 3.375 L 1.1875 3.359375 L 0.65625 3.25 L 0.65625 2.09375 L 1.03125 2.125 C 1.519531 2.125 1.898438 2.023438 2.171875 1.828125 C 2.441406 1.628906 2.664062 1.269531 2.84375 0.75 L 3.15625 -0.09375 L 0.171875 -8.359375 L 1.734375 -8.359375 Z M 3.8125 -2.09375 "/></g></g><g transform="translate(40.6016, 14.888777)"><g/></g><g transform="translate(44.519614, 14.888777)"><g><path d="M 3.8125 -2.09375 L 5.765625 -8.359375 L 7.296875 -8.359375 L 3.9375 1.296875 C 3.414062 2.679688 2.585938 3.375 1.453125 3.375 L 1.1875 3.359375 L 0.65625 3.25 L 0.65625 2.09375 L 1.03125 2.125 C 1.519531 2.125 1.898438 2.023438 2.171875 1.828125 C 2.441406 1.628906 2.664062 1.269531 2.84375 0.75 L 3.15625 -0.09375 L 0.171875 -8.359375 L 1.734375 -8.359375 Z M 3.8125 -2.09375 "/></g></g><g transform="translate(52.007888, 14.888777)"><g><path d="M 0.703125 -4.265625 C 0.703125 -5.078125 0.863281 -5.8125 1.1875 -6.46875 C 1.507812 -7.125 1.957031 -7.628906 2.53125 -7.984375 C 3.101562 -8.335938 3.757812 -8.515625 4.5 -8.515625 C 5.632812 -8.515625 6.550781 -8.117188 7.25 -7.328125 C 7.957031 -6.546875 8.3125 -5.5 8.3125 -4.1875 L 8.3125 -4.09375 C 8.3125 -3.28125 8.15625 -2.546875 7.84375 -1.890625 C 7.53125 -1.242188 7.082031 -0.738281 6.5 -0.375 C 5.925781 -0.0195312 5.265625 0.15625 4.515625 0.15625 C 3.378906 0.15625 2.457031 -0.234375 1.75 -1.015625 C 1.050781 -1.804688 0.703125 -2.851562 0.703125 -4.15625 Z M 2.140625 -4.09375 C 2.140625 -3.164062 2.351562 -2.421875 2.78125 -1.859375 C 3.21875 -1.296875 3.796875 -1.015625 4.515625 -1.015625 C 5.242188 -1.015625 5.820312 -1.296875 6.25 -1.859375 C 6.675781 -2.429688 6.890625 -3.234375 6.890625 -4.265625 C 6.890625 -5.179688 6.671875 -5.921875 6.234375 -6.484375 C 5.796875 -7.054688 5.21875 -7.34375 4.5 -7.34375 C 3.789062 -7.34375 3.21875 -7.0625 2.78125 -6.5 C 2.351562 -5.9375 2.140625 -5.132812 2.140625 -4.09375 Z M 2.140625 -4.09375 "/></g></g><g transform="translate(61.034002, 14.888777)"><g><path d="M 6.25 -0.828125 C 5.6875 -0.171875 4.867188 0.15625 3.796875 0.15625 C 2.898438 0.15625 2.21875 -0.101562 1.75 -0.625 C 1.289062 -1.144531 1.054688 -1.910156 1.046875 -2.921875 L 1.046875 -8.359375 L 2.484375 -8.359375 L 2.484375 -2.953125 C 2.484375 -1.691406 3 -1.0625 4.03125 -1.0625 C 5.125 -1.0625 5.847656 -1.46875 6.203125 -2.28125 L 6.203125 -8.359375 L 7.640625 -8.359375 L 7.640625 0 L 6.28125 0 Z M 6.25 -0.828125 "/></g></g><g transform="translate(69.75873, 14.888777)"><g><path d="M 5.125 -7.078125 C 4.90625 -7.117188 4.671875 -7.140625 4.421875 -7.140625 C 3.484375 -7.140625 2.847656 -6.738281 2.515625 -5.9375 L 2.515625 0 L 1.078125 0 L 1.078125 -8.359375 L 2.46875 -8.359375 L 2.5 -7.390625 C 2.96875 -8.140625 3.628906 -8.515625 4.484375 -8.515625 C 4.765625 -8.515625 4.976562 -8.476562 5.125 -8.40625 Z M 5.125 -7.078125 "/></g></g><g transform="translate(75.114121, 14.888777)"><g/></g><g transform="translate(79.032135, 14.888777)"><g><path d="M 5.953125 -2.21875 C 5.953125 -2.601562 5.804688 -2.898438 5.515625 -3.109375 C 5.222656 -3.328125 4.710938 -3.515625 3.984375 -3.671875 C 3.265625 -3.828125 2.691406 -4.007812 2.265625 -4.21875 C 1.835938 -4.4375 1.519531 -4.695312 1.3125 -5 C 1.113281 -5.300781 1.015625 -5.65625 1.015625 -6.0625 C 1.015625 -6.75 1.304688 -7.328125 1.890625 -7.796875 C 2.472656 -8.273438 3.210938 -8.515625 4.109375 -8.515625 C 5.054688 -8.515625 5.820312 -8.269531 6.40625 -7.78125 C 7 -7.289062 7.296875 -6.664062 7.296875 -5.90625 L 5.859375 -5.90625 C 5.859375 -6.289062 5.691406 -6.625 5.359375 -6.90625 C 5.035156 -7.195312 4.617188 -7.34375 4.109375 -7.34375 C 3.585938 -7.34375 3.179688 -7.226562 2.890625 -7 C 2.597656 -6.769531 2.453125 -6.472656 2.453125 -6.109375 C 2.453125 -5.765625 2.585938 -5.503906 2.859375 -5.328125 C 3.128906 -5.148438 3.617188 -4.984375 4.328125 -4.828125 C 5.046875 -4.671875 5.625 -4.476562 6.0625 -4.25 C 6.507812 -4.03125 6.835938 -3.765625 7.046875 -3.453125 C 7.265625 -3.140625 7.375 -2.757812 7.375 -2.3125 C 7.375 -1.570312 7.078125 -0.972656 6.484375 -0.515625 C 5.890625 -0.0664062 5.113281 0.15625 4.15625 0.15625 C 3.488281 0.15625 2.894531 0.0351562 2.375 -0.203125 C 1.863281 -0.441406 1.460938 -0.769531 1.171875 -1.1875 C 0.878906 -1.613281 0.734375 -2.078125 0.734375 -2.578125 L 2.15625 -2.578125 C 2.1875 -2.097656 2.378906 -1.71875 2.734375 -1.4375 C 3.097656 -1.15625 3.570312 -1.015625 4.15625 -1.015625 C 4.695312 -1.015625 5.128906 -1.125 5.453125 -1.34375 C 5.785156 -1.5625 5.953125 -1.851562 5.953125 -2.21875 Z M 5.953125 -2.21875 "/></g></g><g transform="translate(87.192731, 14.888777)"><g><path d="M 3.421875 -3.875 L 2.515625 -2.9375 L 2.515625 0 L 1.09375 0 L 1.09375 -11.875 L 2.515625 -11.875 L 2.515625 -4.6875 L 3.28125 -5.609375 L 5.890625 -8.359375 L 7.625 -8.359375 L 4.375 -4.875 L 8 0 L 6.328125 0 Z M 3.421875 -3.875 "/></g></g><g transform="translate(95.214226, 14.888777)"><g><path d="M 2.640625 0 L 1.203125 0 L 1.203125 -8.359375 L 2.640625 -8.359375 Z M 1.09375 -10.578125 C 1.09375 -10.804688 1.160156 -11 1.296875 -11.15625 C 1.441406 -11.320312 1.648438 -11.40625 1.921875 -11.40625 C 2.203125 -11.40625 2.414062 -11.320312 2.5625 -11.15625 C 2.707031 -11 2.78125 -10.804688 2.78125 -10.578125 C 2.78125 -10.347656 2.707031 -10.15625 2.5625 -10 C 2.414062 -9.84375 2.203125 -9.765625 1.921875 -9.765625 C 1.648438 -9.765625 1.441406 -9.84375 1.296875 -10 C 1.160156 -10.15625 1.09375 -10.347656 1.09375 -10.578125 Z M 1.09375 -10.578125 "/></g></g><g transform="translate(99.054961, 14.888777)"><g><path d="M 2.640625 0 L 1.203125 0 L 1.203125 -11.875 L 2.640625 -11.875 Z M 2.640625 0 "/></g></g><g transform="translate(102.895696, 14.888777)"><g><path d="M 2.640625 0 L 1.203125 0 L 1.203125 -11.875 L 2.640625 -11.875 Z M 2.640625 0 "/></g></g><g transform="translate(106.736431, 14.888777)"><g><path d="M 5.953125 -2.21875 C 5.953125 -2.601562 5.804688 -2.898438 5.515625 -3.109375 C 5.222656 -3.328125 4.710938 -3.515625 3.984375 -3.671875 C 3.265625 -3.828125 2.691406 -4.007812 2.265625 -4.21875 C 1.835938 -4.4375 1.519531 -4.695312 1.3125 -5 C 1.113281 -5.300781 1.015625 -5.65625 1.015625 -6.0625 C 1.015625 -6.75 1.304688 -7.328125 1.890625 -7.796875 C 2.472656 -8.273438 3.210938 -8.515625 4.109375 -8.515625 C 5.054688 -8.515625 5.820312 -8.269531 6.40625 -7.78125 C 7 -7.289062 7.296875 -6.664062 7.296875 -5.90625 L 5.859375 -5.90625 C 5.859375 -6.289062 5.691406 -6.625 5.359375 -6.90625 C 5.035156 -7.195312 4.617188 -7.34375 4.109375 -7.34375 C 3.585938 -7.34375 3.179688 -7.226562 2.890625 -7 C 2.597656 -6.769531 2.453125 -6.472656 2.453125 -6.109375 C 2.453125 -5.765625 2.585938 -5.503906 2.859375 -5.328125 C 3.128906 -5.148438 3.617188 -4.984375 4.328125 -4.828125 C 5.046875 -4.671875 5.625 -4.476562 6.0625 -4.25 C 6.507812 -4.03125 6.835938 -3.765625 7.046875 -3.453125 C 7.265625 -3.140625 7.375 -2.757812 7.375 -2.3125 C 7.375 -1.570312 7.078125 -0.972656 6.484375 -0.515625 C 5.890625 -0.0664062 5.113281 0.15625 4.15625 0.15625 C 3.488281 0.15625 2.894531 0.0351562 2.375 -0.203125 C 1.863281 -0.441406 1.460938 -0.769531 1.171875 -1.1875 C 0.878906 -1.613281 0.734375 -2.078125 0.734375 -2.578125 L 2.15625 -2.578125 C 2.1875 -2.097656 2.378906 -1.71875 2.734375 -1.4375 C 3.097656 -1.15625 3.570312 -1.015625 4.15625 -1.015625 C 4.695312 -1.015625 5.128906 -1.125 5.453125 -1.34375 C 5.785156 -1.5625 5.953125 -1.851562 5.953125 -2.21875 Z M 5.953125 -2.21875 "/></g></g><g transform="translate(114.897027, 14.888777)"><g/></g><g transform="translate(118.815041, 14.888777)"><g><path d="M 3.015625 -10.390625 L 3.015625 -8.359375 L 4.578125 -8.359375 L 4.578125 -7.25 L 3.015625 -7.25 L 3.015625 -2.078125 C 3.015625 -1.734375 3.082031 -1.476562 3.21875 -1.3125 C 3.363281 -1.144531 3.601562 -1.0625 3.9375 -1.0625 C 4.101562 -1.0625 4.332031 -1.09375 4.625 -1.15625 L 4.625 0 C 4.25 0.101562 3.882812 0.15625 3.53125 0.15625 C 2.882812 0.15625 2.398438 -0.0351562 2.078125 -0.421875 C 1.753906 -0.804688 1.59375 -1.359375 1.59375 -2.078125 L 1.59375 -7.25 L 0.0625 -7.25 L 0.0625 -8.359375 L 1.59375 -8.359375 L 1.59375 -10.390625 Z M 3.015625 -10.390625 "/></g></g><g transform="translate(123.984964, 14.888777)"><g><path d="M 2.515625 -7.34375 C 3.148438 -8.125 3.972656 -8.515625 4.984375 -8.515625 C 6.753906 -8.515625 7.644531 -7.519531 7.65625 -5.53125 L 7.65625 0 L 6.234375 0 L 6.234375 -5.53125 C 6.222656 -6.132812 6.082031 -6.578125 5.8125 -6.859375 C 5.539062 -7.148438 5.117188 -7.296875 4.546875 -7.296875 C 4.085938 -7.296875 3.679688 -7.171875 3.328125 -6.921875 C 2.984375 -6.679688 2.710938 -6.359375 2.515625 -5.953125 L 2.515625 0 L 1.078125 0 L 1.078125 -11.875 L 2.515625 -11.875 Z M 2.515625 -7.34375 "/></g></g><g transform="translate(132.701964, 14.888777)"><g><path d="M 5.125 -7.078125 C 4.90625 -7.117188 4.671875 -7.140625 4.421875 -7.140625 C 3.484375 -7.140625 2.847656 -6.738281 2.515625 -5.9375 L 2.515625 0 L 1.078125 0 L 1.078125 -8.359375 L 2.46875 -8.359375 L 2.5 -7.390625 C 2.96875 -8.140625 3.628906 -8.515625 4.484375 -8.515625 C 4.765625 -8.515625 4.976562 -8.476562 5.125 -8.40625 Z M 5.125 -7.078125 "/></g></g><g transform="translate(138.057356, 14.888777)"><g><path d="M 0.703125 -4.265625 C 0.703125 -5.078125 0.863281 -5.8125 1.1875 -6.46875 C 1.507812 -7.125 1.957031 -7.628906 2.53125 -7.984375 C 3.101562 -8.335938 3.757812 -8.515625 4.5 -8.515625 C 5.632812 -8.515625 6.550781 -8.117188 7.25 -7.328125 C 7.957031 -6.546875 8.3125 -5.5 8.3125 -4.1875 L 8.3125 -4.09375 C 8.3125 -3.28125 8.15625 -2.546875 7.84375 -1.890625 C 7.53125 -1.242188 7.082031 -0.738281 6.5 -0.375 C 5.925781 -0.0195312 5.265625 0.15625 4.515625 0.15625 C 3.378906 0.15625 2.457031 -0.234375 1.75 -1.015625 C 1.050781 -1.804688 0.703125 -2.851562 0.703125 -4.15625 Z M 2.140625 -4.09375 C 2.140625 -3.164062 2.351562 -2.421875 2.78125 -1.859375 C 3.21875 -1.296875 3.796875 -1.015625 4.515625 -1.015625 C 5.242188 -1.015625 5.820312 -1.296875 6.25 -1.859375 C 6.675781 -2.429688 6.890625 -3.234375 6.890625 -4.265625 C 6.890625 -5.179688 6.671875 -5.921875 6.234375 -6.484375 C 5.796875 -7.054688 5.21875 -7.34375 4.5 -7.34375 C 3.789062 -7.34375 3.21875 -7.0625 2.78125 -6.5 C 2.351562 -5.9375 2.140625 -5.132812 2.140625 -4.09375 Z M 2.140625 -4.09375 "/></g></g><g transform="translate(147.083469, 14.888777)"><g><path d="M 6.25 -0.828125 C 5.6875 -0.171875 4.867188 0.15625 3.796875 0.15625 C 2.898438 0.15625 2.21875 -0.101562 1.75 -0.625 C 1.289062 -1.144531 1.054688 -1.910156 1.046875 -2.921875 L 1.046875 -8.359375 L 2.484375 -8.359375 L 2.484375 -2.953125 C 2.484375 -1.691406 3 -1.0625 4.03125 -1.0625 C 5.125 -1.0625 5.847656 -1.46875 6.203125 -2.28125 L 6.203125 -8.359375 L 7.640625 -8.359375 L 7.640625 0 L 6.28125 0 Z M 6.25 -0.828125 "/></g></g><g transform="translate(155.808198, 14.888777)"><g><path d="M 0.734375 -4.25 C 0.734375 -5.550781 1.035156 -6.585938 1.640625 -7.359375 C 2.242188 -8.128906 3.046875 -8.515625 4.046875 -8.515625 C 5.066406 -8.515625 5.863281 -8.15625 6.4375 -7.4375 L 6.5 -8.359375 L 7.8125 -8.359375 L 7.8125 -0.203125 C 7.8125 0.878906 7.488281 1.734375 6.84375 2.359375 C 6.195312 2.984375 5.335938 3.296875 4.265625 3.296875 C 3.660156 3.296875 3.066406 3.164062 2.484375 2.90625 C 1.910156 2.644531 1.472656 2.289062 1.171875 1.84375 L 1.90625 0.984375 C 2.519531 1.742188 3.269531 2.125 4.15625 2.125 C 4.851562 2.125 5.394531 1.925781 5.78125 1.53125 C 6.175781 1.144531 6.375 0.597656 6.375 -0.109375 L 6.375 -0.828125 C 5.800781 -0.171875 5.019531 0.15625 4.03125 0.15625 C 3.050781 0.15625 2.253906 -0.234375 1.640625 -1.015625 C 1.035156 -1.804688 0.734375 -2.882812 0.734375 -4.25 Z M 2.171875 -4.09375 C 2.171875 -3.144531 2.363281 -2.398438 2.75 -1.859375 C 3.144531 -1.328125 3.6875 -1.0625 4.375 -1.0625 C 5.28125 -1.0625 5.945312 -1.46875 6.375 -2.28125 L 6.375 -6.109375 C 5.9375 -6.898438 5.273438 -7.296875 4.390625 -7.296875 C 3.703125 -7.296875 3.160156 -7.023438 2.765625 -6.484375 C 2.367188 -5.953125 2.171875 -5.15625 2.171875 -4.09375 Z M 2.171875 -4.09375 "/></g></g><g transform="translate(164.687483, 14.888777)"><g><path d="M 2.515625 -7.34375 C 3.148438 -8.125 3.972656 -8.515625 4.984375 -8.515625 C 6.753906 -8.515625 7.644531 -7.519531 7.65625 -5.53125 L 7.65625 0 L 6.234375 0 L 6.234375 -5.53125 C 6.222656 -6.132812 6.082031 -6.578125 5.8125 -6.859375 C 5.539062 -7.148438 5.117188 -7.296875 4.546875 -7.296875 C 4.085938 -7.296875 3.679688 -7.171875 3.328125 -6.921875 C 2.984375 -6.679688 2.710938 -6.359375 2.515625 -5.953125 L 2.515625 0 L 1.078125 0 L 1.078125 -11.875 L 2.515625 -11.875 Z M 2.515625 -7.34375 "/></g></g></g><g fill="#1c4790" fill-opacity="1"><g transform="translate(9.906631, 36.650366)"><g><path d="M 5.125 -7.078125 C 4.90625 -7.117188 4.671875 -7.140625 4.421875 -7.140625 C 3.484375 -7.140625 2.847656 -6.738281 2.515625 -5.9375 L 2.515625 0 L 1.078125 0 L 1.078125 -8.359375 L 2.46875 -8.359375 L 2.5 -7.390625 C 2.96875 -8.140625 3.628906 -8.515625 4.484375 -8.515625 C 4.765625 -8.515625 4.976562 -8.476562 5.125 -8.40625 Z M 5.125 -7.078125 "/></g></g><g transform="translate(15.262022, 36.650366)"><g><path d="M 4.546875 0.15625 C 3.421875 0.15625 2.5 -0.210938 1.78125 -0.953125 C 1.070312 -1.703125 0.71875 -2.703125 0.71875 -3.953125 L 0.71875 -4.21875 C 0.71875 -5.039062 0.875 -5.773438 1.1875 -6.421875 C 1.507812 -7.078125 1.953125 -7.585938 2.515625 -7.953125 C 3.085938 -8.328125 3.707031 -8.515625 4.375 -8.515625 C 5.457031 -8.515625 6.300781 -8.15625 6.90625 -7.4375 C 7.507812 -6.726562 7.8125 -5.703125 7.8125 -4.359375 L 7.8125 -3.765625 L 2.15625 -3.765625 C 2.164062 -2.941406 2.398438 -2.273438 2.859375 -1.765625 C 3.328125 -1.265625 3.914062 -1.015625 4.625 -1.015625 C 5.132812 -1.015625 5.5625 -1.113281 5.90625 -1.3125 C 6.257812 -1.519531 6.566406 -1.796875 6.828125 -2.140625 L 7.703125 -1.453125 C 7.003906 -0.378906 5.953125 0.15625 4.546875 0.15625 Z M 4.375 -7.34375 C 3.800781 -7.34375 3.316406 -7.128906 2.921875 -6.703125 C 2.523438 -6.285156 2.28125 -5.703125 2.1875 -4.953125 L 6.390625 -4.953125 L 6.390625 -5.046875 C 6.347656 -5.773438 6.148438 -6.335938 5.796875 -6.734375 C 5.441406 -7.140625 4.96875 -7.34375 4.375 -7.34375 Z M 4.375 -7.34375 "/></g></g><g transform="translate(23.646726, 36.650366)"><g><path d="M 6.25 0 C 6.164062 -0.164062 6.097656 -0.457031 6.046875 -0.875 C 5.378906 -0.1875 4.582031 0.15625 3.65625 0.15625 C 2.832031 0.15625 2.15625 -0.078125 1.625 -0.546875 C 1.101562 -1.015625 0.84375 -1.601562 0.84375 -2.3125 C 0.84375 -3.1875 1.171875 -3.863281 1.828125 -4.34375 C 2.492188 -4.820312 3.425781 -5.0625 4.625 -5.0625 L 6.015625 -5.0625 L 6.015625 -5.734375 C 6.015625 -6.222656 5.863281 -6.613281 5.5625 -6.90625 C 5.269531 -7.207031 4.832031 -7.359375 4.25 -7.359375 C 3.738281 -7.359375 3.3125 -7.226562 2.96875 -6.96875 C 2.625 -6.71875 2.453125 -6.410156 2.453125 -6.046875 L 1.015625 -6.046875 C 1.015625 -6.460938 1.160156 -6.863281 1.453125 -7.25 C 1.753906 -7.644531 2.15625 -7.953125 2.65625 -8.171875 C 3.164062 -8.398438 3.722656 -8.515625 4.328125 -8.515625 C 5.296875 -8.515625 6.050781 -8.273438 6.59375 -7.796875 C 7.144531 -7.316406 7.429688 -6.648438 7.453125 -5.796875 L 7.453125 -1.953125 C 7.453125 -1.179688 7.550781 -0.570312 7.75 -0.125 L 7.75 0 Z M 3.875 -1.09375 C 4.320312 -1.09375 4.742188 -1.207031 5.140625 -1.4375 C 5.546875 -1.664062 5.835938 -1.96875 6.015625 -2.34375 L 6.015625 -4.0625 L 4.90625 -4.0625 C 3.144531 -4.0625 2.265625 -3.546875 2.265625 -2.515625 C 2.265625 -2.066406 2.414062 -1.71875 2.71875 -1.46875 C 3.019531 -1.21875 3.40625 -1.09375 3.875 -1.09375 Z M 3.875 -1.09375 "/></g></g><g transform="translate(32.255536, 36.650366)"><g><path d="M 2.640625 0 L 1.203125 0 L 1.203125 -11.875 L 2.640625 -11.875 Z M 2.640625 0 "/></g></g><g transform="translate(36.096271, 36.650366)"><g><path d="M 4.0625 -4.203125 L 0.28125 -4.203125 L 0.28125 -5.359375 L 4.0625 -5.359375 Z M 4.0625 -4.203125 "/></g></g><g transform="translate(40.462499, 36.650366)"><g><path d="M 2.640625 0 L 1.203125 0 L 1.203125 -11.875 L 2.640625 -11.875 Z M 2.640625 0 "/></g></g><g transform="translate(44.303235, 36.650366)"><g><path d="M 2.640625 0 L 1.203125 0 L 1.203125 -8.359375 L 2.640625 -8.359375 Z M 1.09375 -10.578125 C 1.09375 -10.804688 1.160156 -11 1.296875 -11.15625 C 1.441406 -11.320312 1.648438 -11.40625 1.921875 -11.40625 C 2.203125 -11.40625 2.414062 -11.320312 2.5625 -11.15625 C 2.707031 -11 2.78125 -10.804688 2.78125 -10.578125 C 2.78125 -10.347656 2.707031 -10.15625 2.5625 -10 C 2.414062 -9.84375 2.203125 -9.765625 1.921875 -9.765625 C 1.648438 -9.765625 1.441406 -9.84375 1.296875 -10 C 1.160156 -10.15625 1.09375 -10.347656 1.09375 -10.578125 Z M 1.09375 -10.578125 "/></g></g><g transform="translate(48.14397, 36.650366)"><g><path d="M 1.78125 0 L 1.78125 -7.25 L 0.46875 -7.25 L 0.46875 -8.359375 L 1.78125 -8.359375 L 1.78125 -9.21875 C 1.78125 -10.113281 2.019531 -10.804688 2.5 -11.296875 C 2.976562 -11.785156 3.65625 -12.03125 4.53125 -12.03125 C 4.863281 -12.03125 5.191406 -11.988281 5.515625 -11.90625 L 5.4375 -10.75 C 5.195312 -10.789062 4.941406 -10.8125 4.671875 -10.8125 C 4.203125 -10.8125 3.84375 -10.675781 3.59375 -10.40625 C 3.34375 -10.132812 3.21875 -9.75 3.21875 -9.25 L 3.21875 -8.359375 L 5 -8.359375 L 5 -7.25 L 3.21875 -7.25 L 3.21875 0 Z M 1.78125 0 "/></g></g><g transform="translate(53.638462, 36.650366)"><g><path d="M 4.546875 0.15625 C 3.421875 0.15625 2.5 -0.210938 1.78125 -0.953125 C 1.070312 -1.703125 0.71875 -2.703125 0.71875 -3.953125 L 0.71875 -4.21875 C 0.71875 -5.039062 0.875 -5.773438 1.1875 -6.421875 C 1.507812 -7.078125 1.953125 -7.585938 2.515625 -7.953125 C 3.085938 -8.328125 3.707031 -8.515625 4.375 -8.515625 C 5.457031 -8.515625 6.300781 -8.15625 6.90625 -7.4375 C 7.507812 -6.726562 7.8125 -5.703125 7.8125 -4.359375 L 7.8125 -3.765625 L 2.15625 -3.765625 C 2.164062 -2.941406 2.398438 -2.273438 2.859375 -1.765625 C 3.328125 -1.265625 3.914062 -1.015625 4.625 -1.015625 C 5.132812 -1.015625 5.5625 -1.113281 5.90625 -1.3125 C 6.257812 -1.519531 6.566406 -1.796875 6.828125 -2.140625 L 7.703125 -1.453125 C 7.003906 -0.378906 5.953125 0.15625 4.546875 0.15625 Z M 4.375 -7.34375 C 3.800781 -7.34375 3.316406 -7.128906 2.921875 -6.703125 C 2.523438 -6.285156 2.28125 -5.703125 2.1875 -4.953125 L 6.390625 -4.953125 L 6.390625 -5.046875 C 6.347656 -5.773438 6.148438 -6.335938 5.796875 -6.734375 C 5.441406 -7.140625 4.96875 -7.34375 4.375 -7.34375 Z M 4.375 -7.34375 "/></g></g><g transform="translate(62.023165, 36.650366)"><g/></g><g transform="translate(65.941179, 36.650366)"><g><path d="M 5.953125 -2.21875 C 5.953125 -2.601562 5.804688 -2.898438 5.515625 -3.109375 C 5.222656 -3.328125 4.710938 -3.515625 3.984375 -3.671875 C 3.265625 -3.828125 2.691406 -4.007812 2.265625 -4.21875 C 1.835938 -4.4375 1.519531 -4.695312 1.3125 -5 C 1.113281 -5.300781 1.015625 -5.65625 1.015625 -6.0625 C 1.015625 -6.75 1.304688 -7.328125 1.890625 -7.796875 C 2.472656 -8.273438 3.210938 -8.515625 4.109375 -8.515625 C 5.054688 -8.515625 5.820312 -8.269531 6.40625 -7.78125 C 7 -7.289062 7.296875 -6.664062 7.296875 -5.90625 L 5.859375 -5.90625 C 5.859375 -6.289062 5.691406 -6.625 5.359375 -6.90625 C 5.035156 -7.195312 4.617188 -7.34375 4.109375 -7.34375 C 3.585938 -7.34375 3.179688 -7.226562 2.890625 -7 C 2.597656 -6.769531 2.453125 -6.472656 2.453125 -6.109375 C 2.453125 -5.765625 2.585938 -5.503906 2.859375 -5.328125 C 3.128906 -5.148438 3.617188 -4.984375 4.328125 -4.828125 C 5.046875 -4.671875 5.625 -4.476562 6.0625 -4.25 C 6.507812 -4.03125 6.835938 -3.765625 7.046875 -3.453125 C 7.265625 -3.140625 7.375 -2.757812 7.375 -2.3125 C 7.375 -1.570312 7.078125 -0.972656 6.484375 -0.515625 C 5.890625 -0.0664062 5.113281 0.15625 4.15625 0.15625 C 3.488281 0.15625 2.894531 0.0351562 2.375 -0.203125 C 1.863281 -0.441406 1.460938 -0.769531 1.171875 -1.1875 C 0.878906 -1.613281 0.734375 -2.078125 0.734375 -2.578125 L 2.15625 -2.578125 C 2.1875 -2.097656 2.378906 -1.71875 2.734375 -1.4375 C 3.097656 -1.15625 3.570312 -1.015625 4.15625 -1.015625 C 4.695312 -1.015625 5.128906 -1.125 5.453125 -1.34375 C 5.785156 -1.5625 5.953125 -1.851562 5.953125 -2.21875 Z M 5.953125 -2.21875 "/></g></g><g transform="translate(74.101775, 36.650366)"><g><path d="M 4.4375 -1.015625 C 4.945312 -1.015625 5.390625 -1.164062 5.765625 -1.46875 C 6.148438 -1.78125 6.363281 -2.171875 6.40625 -2.640625 L 7.765625 -2.640625 C 7.734375 -2.160156 7.566406 -1.703125 7.265625 -1.265625 C 6.960938 -0.835938 6.554688 -0.492188 6.046875 -0.234375 C 5.535156 0.0234375 5 0.15625 4.4375 0.15625 C 3.300781 0.15625 2.394531 -0.222656 1.71875 -0.984375 C 1.050781 -1.742188 0.71875 -2.785156 0.71875 -4.109375 L 0.71875 -4.34375 C 0.71875 -5.15625 0.863281 -5.878906 1.15625 -6.515625 C 1.457031 -7.148438 1.882812 -7.640625 2.4375 -7.984375 C 3 -8.335938 3.660156 -8.515625 4.421875 -8.515625 C 5.359375 -8.515625 6.140625 -8.234375 6.765625 -7.671875 C 7.390625 -7.109375 7.722656 -6.378906 7.765625 -5.484375 L 6.40625 -5.484375 C 6.363281 -6.023438 6.15625 -6.46875 5.78125 -6.8125 C 5.414062 -7.164062 4.960938 -7.34375 4.421875 -7.34375 C 3.703125 -7.34375 3.140625 -7.078125 2.734375 -6.546875 C 2.335938 -6.023438 2.140625 -5.273438 2.140625 -4.296875 L 2.140625 -4.015625 C 2.140625 -3.054688 2.335938 -2.316406 2.734375 -1.796875 C 3.128906 -1.273438 3.695312 -1.015625 4.4375 -1.015625 Z M 4.4375 -1.015625 "/></g></g><g transform="translate(82.386016, 36.650366)"><g><path d="M 4.546875 0.15625 C 3.421875 0.15625 2.5 -0.210938 1.78125 -0.953125 C 1.070312 -1.703125 0.71875 -2.703125 0.71875 -3.953125 L 0.71875 -4.21875 C 0.71875 -5.039062 0.875 -5.773438 1.1875 -6.421875 C 1.507812 -7.078125 1.953125 -7.585938 2.515625 -7.953125 C 3.085938 -8.328125 3.707031 -8.515625 4.375 -8.515625 C 5.457031 -8.515625 6.300781 -8.15625 6.90625 -7.4375 C 7.507812 -6.726562 7.8125 -5.703125 7.8125 -4.359375 L 7.8125 -3.765625 L 2.15625 -3.765625 C 2.164062 -2.941406 2.398438 -2.273438 2.859375 -1.765625 C 3.328125 -1.265625 3.914062 -1.015625 4.625 -1.015625 C 5.132812 -1.015625 5.5625 -1.113281 5.90625 -1.3125 C 6.257812 -1.519531 6.566406 -1.796875 6.828125 -2.140625 L 7.703125 -1.453125 C 7.003906 -0.378906 5.953125 0.15625 4.546875 0.15625 Z M 4.375 -7.34375 C 3.800781 -7.34375 3.316406 -7.128906 2.921875 -6.703125 C 2.523438 -6.285156 2.28125 -5.703125 2.1875 -4.953125 L 6.390625 -4.953125 L 6.390625 -5.046875 C 6.347656 -5.773438 6.148438 -6.335938 5.796875 -6.734375 C 5.441406 -7.140625 4.96875 -7.34375 4.375 -7.34375 Z M 4.375 -7.34375 "/></g></g><g transform="translate(90.77072, 36.650366)"><g><path d="M 2.4375 -8.359375 L 2.484375 -7.3125 C 3.117188 -8.113281 3.953125 -8.515625 4.984375 -8.515625 C 6.753906 -8.515625 7.644531 -7.519531 7.65625 -5.53125 L 7.65625 0 L 6.234375 0 L 6.234375 -5.53125 C 6.222656 -6.132812 6.082031 -6.578125 5.8125 -6.859375 C 5.539062 -7.148438 5.117188 -7.296875 4.546875 -7.296875 C 4.085938 -7.296875 3.679688 -7.171875 3.328125 -6.921875 C 2.984375 -6.679688 2.710938 -6.359375 2.515625 -5.953125 L 2.515625 0 L 1.078125 0 L 1.078125 -8.359375 Z M 2.4375 -8.359375 "/></g></g><g transform="translate(99.503176, 36.650366)"><g><path d="M 6.25 0 C 6.164062 -0.164062 6.097656 -0.457031 6.046875 -0.875 C 5.378906 -0.1875 4.582031 0.15625 3.65625 0.15625 C 2.832031 0.15625 2.15625 -0.078125 1.625 -0.546875 C 1.101562 -1.015625 0.84375 -1.601562 0.84375 -2.3125 C 0.84375 -3.1875 1.171875 -3.863281 1.828125 -4.34375 C 2.492188 -4.820312 3.425781 -5.0625 4.625 -5.0625 L 6.015625 -5.0625 L 6.015625 -5.734375 C 6.015625 -6.222656 5.863281 -6.613281 5.5625 -6.90625 C 5.269531 -7.207031 4.832031 -7.359375 4.25 -7.359375 C 3.738281 -7.359375 3.3125 -7.226562 2.96875 -6.96875 C 2.625 -6.71875 2.453125 -6.410156 2.453125 -6.046875 L 1.015625 -6.046875 C 1.015625 -6.460938 1.160156 -6.863281 1.453125 -7.25 C 1.753906 -7.644531 2.15625 -7.953125 2.65625 -8.171875 C 3.164062 -8.398438 3.722656 -8.515625 4.328125 -8.515625 C 5.296875 -8.515625 6.050781 -8.273438 6.59375 -7.796875 C 7.144531 -7.316406 7.429688 -6.648438 7.453125 -5.796875 L 7.453125 -1.953125 C 7.453125 -1.179688 7.550781 -0.570312 7.75 -0.125 L 7.75 0 Z M 3.875 -1.09375 C 4.320312 -1.09375 4.742188 -1.207031 5.140625 -1.4375 C 5.546875 -1.664062 5.835938 -1.96875 6.015625 -2.34375 L 6.015625 -4.0625 L 4.90625 -4.0625 C 3.144531 -4.0625 2.265625 -3.546875 2.265625 -2.515625 C 2.265625 -2.066406 2.414062 -1.71875 2.71875 -1.46875 C 3.019531 -1.21875 3.40625 -1.09375 3.875 -1.09375 Z M 3.875 -1.09375 "/></g></g><g transform="translate(108.111986, 36.650366)"><g><path d="M 5.125 -7.078125 C 4.90625 -7.117188 4.671875 -7.140625 4.421875 -7.140625 C 3.484375 -7.140625 2.847656 -6.738281 2.515625 -5.9375 L 2.515625 0 L 1.078125 0 L 1.078125 -8.359375 L 2.46875 -8.359375 L 2.5 -7.390625 C 2.96875 -8.140625 3.628906 -8.515625 4.484375 -8.515625 C 4.765625 -8.515625 4.976562 -8.476562 5.125 -8.40625 Z M 5.125 -7.078125 "/></g></g><g transform="translate(113.467378, 36.650366)"><g><path d="M 2.640625 0 L 1.203125 0 L 1.203125 -8.359375 L 2.640625 -8.359375 Z M 1.09375 -10.578125 C 1.09375 -10.804688 1.160156 -11 1.296875 -11.15625 C 1.441406 -11.320312 1.648438 -11.40625 1.921875 -11.40625 C 2.203125 -11.40625 2.414062 -11.320312 2.5625 -11.15625 C 2.707031 -11 2.78125 -10.804688 2.78125 -10.578125 C 2.78125 -10.347656 2.707031 -10.15625 2.5625 -10 C 2.414062 -9.84375 2.203125 -9.765625 1.921875 -9.765625 C 1.648438 -9.765625 1.441406 -9.84375 1.296875 -10 C 1.160156 -10.15625 1.09375 -10.347656 1.09375 -10.578125 Z M 1.09375 -10.578125 "/></g></g><g transform="translate(117.308113, 36.650366)"><g><path d="M 0.703125 -4.265625 C 0.703125 -5.078125 0.863281 -5.8125 1.1875 -6.46875 C 1.507812 -7.125 1.957031 -7.628906 2.53125 -7.984375 C 3.101562 -8.335938 3.757812 -8.515625 4.5 -8.515625 C 5.632812 -8.515625 6.550781 -8.117188 7.25 -7.328125 C 7.957031 -6.546875 8.3125 -5.5 8.3125 -4.1875 L 8.3125 -4.09375 C 8.3125 -3.28125 8.15625 -2.546875 7.84375 -1.890625 C 7.53125 -1.242188 7.082031 -0.738281 6.5 -0.375 C 5.925781 -0.0195312 5.265625 0.15625 4.515625 0.15625 C 3.378906 0.15625 2.457031 -0.234375 1.75 -1.015625 C 1.050781 -1.804688 0.703125 -2.851562 0.703125 -4.15625 Z M 2.140625 -4.09375 C 2.140625 -3.164062 2.351562 -2.421875 2.78125 -1.859375 C 3.21875 -1.296875 3.796875 -1.015625 4.515625 -1.015625 C 5.242188 -1.015625 5.820312 -1.296875 6.25 -1.859375 C 6.675781 -2.429688 6.890625 -3.234375 6.890625 -4.265625 C 6.890625 -5.179688 6.671875 -5.921875 6.234375 -6.484375 C 5.796875 -7.054688 5.21875 -7.34375 4.5 -7.34375 C 3.789062 -7.34375 3.21875 -7.0625 2.78125 -6.5 C 2.351562 -5.9375 2.140625 -5.132812 2.140625 -4.09375 Z M 2.140625 -4.09375 "/></g></g><g transform="translate(126.334227, 36.650366)"><g><path d="M 5.953125 -2.21875 C 5.953125 -2.601562 5.804688 -2.898438 5.515625 -3.109375 C 5.222656 -3.328125 4.710938 -3.515625 3.984375 -3.671875 C 3.265625 -3.828125 2.691406 -4.007812 2.265625 -4.21875 C 1.835938 -4.4375 1.519531 -4.695312 1.3125 -5 C 1.113281 -5.300781 1.015625 -5.65625 1.015625 -6.0625 C 1.015625 -6.75 1.304688 -7.328125 1.890625 -7.796875 C 2.472656 -8.273438 3.210938 -8.515625 4.109375 -8.515625 C 5.054688 -8.515625 5.820312 -8.269531 6.40625 -7.78125 C 7 -7.289062 7.296875 -6.664062 7.296875 -5.90625 L 5.859375 -5.90625 C 5.859375 -6.289062 5.691406 -6.625 5.359375 -6.90625 C 5.035156 -7.195312 4.617188 -7.34375 4.109375 -7.34375 C 3.585938 -7.34375 3.179688 -7.226562 2.890625 -7 C 2.597656 -6.769531 2.453125 -6.472656 2.453125 -6.109375 C 2.453125 -5.765625 2.585938 -5.503906 2.859375 -5.328125 C 3.128906 -5.148438 3.617188 -4.984375 4.328125 -4.828125 C 5.046875 -4.671875 5.625 -4.476562 6.0625 -4.25 C 6.507812 -4.03125 6.835938 -3.765625 7.046875 -3.453125 C 7.265625 -3.140625 7.375 -2.757812 7.375 -2.3125 C 7.375 -1.570312 7.078125 -0.972656 6.484375 -0.515625 C 5.890625 -0.0664062 5.113281 0.15625 4.15625 0.15625 C 3.488281 0.15625 2.894531 0.0351562 2.375 -0.203125 C 1.863281 -0.441406 1.460938 -0.769531 1.171875 -1.1875 C 0.878906 -1.613281 0.734375 -2.078125 0.734375 -2.578125 L 2.15625 -2.578125 C 2.1875 -2.097656 2.378906 -1.71875 2.734375 -1.4375 C 3.097656 -1.15625 3.570312 -1.015625 4.15625 -1.015625 C 4.695312 -1.015625 5.128906 -1.125 5.453125 -1.34375 C 5.785156 -1.5625 5.953125 -1.851562 5.953125 -2.21875 Z M 5.953125 -2.21875 "/></g></g><g transform="translate(134.494823, 36.650366)"><g/></g><g transform="translate(138.412836, 36.650366)"><g><path d="M 6.25 0 C 6.164062 -0.164062 6.097656 -0.457031 6.046875 -0.875 C 5.378906 -0.1875 4.582031 0.15625 3.65625 0.15625 C 2.832031 0.15625 2.15625 -0.078125 1.625 -0.546875 C 1.101562 -1.015625 0.84375 -1.601562 0.84375 -2.3125 C 0.84375 -3.1875 1.171875 -3.863281 1.828125 -4.34375 C 2.492188 -4.820312 3.425781 -5.0625 4.625 -5.0625 L 6.015625 -5.0625 L 6.015625 -5.734375 C 6.015625 -6.222656 5.863281 -6.613281 5.5625 -6.90625 C 5.269531 -7.207031 4.832031 -7.359375 4.25 -7.359375 C 3.738281 -7.359375 3.3125 -7.226562 2.96875 -6.96875 C 2.625 -6.71875 2.453125 -6.410156 2.453125 -6.046875 L 1.015625 -6.046875 C 1.015625 -6.460938 1.160156 -6.863281 1.453125 -7.25 C 1.753906 -7.644531 2.15625 -7.953125 2.65625 -8.171875 C 3.164062 -8.398438 3.722656 -8.515625 4.328125 -8.515625 C 5.296875 -8.515625 6.050781 -8.273438 6.59375 -7.796875 C 7.144531 -7.316406 7.429688 -6.648438 7.453125 -5.796875 L 7.453125 -1.953125 C 7.453125 -1.179688 7.550781 -0.570312 7.75 -0.125 L 7.75 0 Z M 3.875 -1.09375 C 4.320312 -1.09375 4.742188 -1.207031 5.140625 -1.4375 C 5.546875 -1.664062 5.835938 -1.96875 6.015625 -2.34375 L 6.015625 -4.0625 L 4.90625 -4.0625 C 3.144531 -4.0625 2.265625 -3.546875 2.265625 -2.515625 C 2.265625 -2.066406 2.414062 -1.71875 2.71875 -1.46875 C 3.019531 -1.21875 3.40625 -1.09375 3.875 -1.09375 Z M 3.875 -1.09375 "/></g></g><g transform="translate(147.021647, 36.650366)"><g><path d="M 2.4375 -8.359375 L 2.484375 -7.3125 C 3.117188 -8.113281 3.953125 -8.515625 4.984375 -8.515625 C 6.753906 -8.515625 7.644531 -7.519531 7.65625 -5.53125 L 7.65625 0 L 6.234375 0 L 6.234375 -5.53125 C 6.222656 -6.132812 6.082031 -6.578125 5.8125 -6.859375 C 5.539062 -7.148438 5.117188 -7.296875 4.546875 -7.296875 C 4.085938 -7.296875 3.679688 -7.171875 3.328125 -6.921875 C 2.984375 -6.679688 2.710938 -6.359375 2.515625 -5.953125 L 2.515625 0 L 1.078125 0 L 1.078125 -8.359375 Z M 2.4375 -8.359375 "/></g></g><g transform="translate(155.754103, 36.650366)"><g><path d="M 0.734375 -4.25 C 0.734375 -5.53125 1.035156 -6.5625 1.640625 -7.34375 C 2.253906 -8.125 3.050781 -8.515625 4.03125 -8.515625 C 5.007812 -8.515625 5.785156 -8.179688 6.359375 -7.515625 L 6.359375 -11.875 L 7.796875 -11.875 L 7.796875 0 L 6.46875 0 L 6.40625 -0.890625 C 5.832031 -0.191406 5.035156 0.15625 4.015625 0.15625 C 3.046875 0.15625 2.253906 -0.238281 1.640625 -1.03125 C 1.035156 -1.820312 0.734375 -2.859375 0.734375 -4.140625 Z M 2.15625 -4.09375 C 2.15625 -3.144531 2.351562 -2.398438 2.75 -1.859375 C 3.144531 -1.328125 3.6875 -1.0625 4.375 -1.0625 C 5.28125 -1.0625 5.941406 -1.46875 6.359375 -2.28125 L 6.359375 -6.125 C 5.929688 -6.90625 5.273438 -7.296875 4.390625 -7.296875 C 3.691406 -7.296875 3.144531 -7.023438 2.75 -6.484375 C 2.351562 -5.953125 2.15625 -5.15625 2.15625 -4.09375 Z M 2.15625 -4.09375 "/></g></g></g><g fill="#1c4790" fill-opacity="1"><g transform="translate(15.213079, 58.411956)"><g><path d="M 2.640625 0 L 1.203125 0 L 1.203125 -8.359375 L 2.640625 -8.359375 Z M 1.09375 -10.578125 C 1.09375 -10.804688 1.160156 -11 1.296875 -11.15625 C 1.441406 -11.320312 1.648438 -11.40625 1.921875 -11.40625 C 2.203125 -11.40625 2.414062 -11.320312 2.5625 -11.15625 C 2.707031 -11 2.78125 -10.804688 2.78125 -10.578125 C 2.78125 -10.347656 2.707031 -10.15625 2.5625 -10 C 2.414062 -9.84375 2.203125 -9.765625 1.921875 -9.765625 C 1.648438 -9.765625 1.441406 -9.84375 1.296875 -10 C 1.160156 -10.15625 1.09375 -10.347656 1.09375 -10.578125 Z M 1.09375 -10.578125 "/></g></g><g transform="translate(19.053814, 58.411956)"><g><path d="M 2.4375 -8.359375 L 2.484375 -7.3125 C 3.117188 -8.113281 3.953125 -8.515625 4.984375 -8.515625 C 6.753906 -8.515625 7.644531 -7.519531 7.65625 -5.53125 L 7.65625 0 L 6.234375 0 L 6.234375 -5.53125 C 6.222656 -6.132812 6.082031 -6.578125 5.8125 -6.859375 C 5.539062 -7.148438 5.117188 -7.296875 4.546875 -7.296875 C 4.085938 -7.296875 3.679688 -7.171875 3.328125 -6.921875 C 2.984375 -6.679688 2.710938 -6.359375 2.515625 -5.953125 L 2.515625 0 L 1.078125 0 L 1.078125 -8.359375 Z M 2.4375 -8.359375 "/></g></g><g transform="translate(27.78627, 58.411956)"><g><path d="M 3.015625 -10.390625 L 3.015625 -8.359375 L 4.578125 -8.359375 L 4.578125 -7.25 L 3.015625 -7.25 L 3.015625 -2.078125 C 3.015625 -1.734375 3.082031 -1.476562 3.21875 -1.3125 C 3.363281 -1.144531 3.601562 -1.0625 3.9375 -1.0625 C 4.101562 -1.0625 4.332031 -1.09375 4.625 -1.15625 L 4.625 0 C 4.25 0.101562 3.882812 0.15625 3.53125 0.15625 C 2.882812 0.15625 2.398438 -0.0351562 2.078125 -0.421875 C 1.753906 -0.804688 1.59375 -1.359375 1.59375 -2.078125 L 1.59375 -7.25 L 0.0625 -7.25 L 0.0625 -8.359375 L 1.59375 -8.359375 L 1.59375 -10.390625 Z M 3.015625 -10.390625 "/></g></g><g transform="translate(32.956193, 58.411956)"><g><path d="M 4.546875 0.15625 C 3.421875 0.15625 2.5 -0.210938 1.78125 -0.953125 C 1.070312 -1.703125 0.71875 -2.703125 0.71875 -3.953125 L 0.71875 -4.21875 C 0.71875 -5.039062 0.875 -5.773438 1.1875 -6.421875 C 1.507812 -7.078125 1.953125 -7.585938 2.515625 -7.953125 C 3.085938 -8.328125 3.707031 -8.515625 4.375 -8.515625 C 5.457031 -8.515625 6.300781 -8.15625 6.90625 -7.4375 C 7.507812 -6.726562 7.8125 -5.703125 7.8125 -4.359375 L 7.8125 -3.765625 L 2.15625 -3.765625 C 2.164062 -2.941406 2.398438 -2.273438 2.859375 -1.765625 C 3.328125 -1.265625 3.914062 -1.015625 4.625 -1.015625 C 5.132812 -1.015625 5.5625 -1.113281 5.90625 -1.3125 C 6.257812 -1.519531 6.566406 -1.796875 6.828125 -2.140625 L 7.703125 -1.453125 C 7.003906 -0.378906 5.953125 0.15625 4.546875 0.15625 Z M 4.375 -7.34375 C 3.800781 -7.34375 3.316406 -7.128906 2.921875 -6.703125 C 2.523438 -6.285156 2.28125 -5.703125 2.1875 -4.953125 L 6.390625 -4.953125 L 6.390625 -5.046875 C 6.347656 -5.773438 6.148438 -6.335938 5.796875 -6.734375 C 5.441406 -7.140625 4.96875 -7.34375 4.375 -7.34375 Z M 4.375 -7.34375 "/></g></g><g transform="translate(41.340897, 58.411956)"><g><path d="M 5.125 -7.078125 C 4.90625 -7.117188 4.671875 -7.140625 4.421875 -7.140625 C 3.484375 -7.140625 2.847656 -6.738281 2.515625 -5.9375 L 2.515625 0 L 1.078125 0 L 1.078125 -8.359375 L 2.46875 -8.359375 L 2.5 -7.390625 C 2.96875 -8.140625 3.628906 -8.515625 4.484375 -8.515625 C 4.765625 -8.515625 4.976562 -8.476562 5.125 -8.40625 Z M 5.125 -7.078125 "/></g></g><g transform="translate(46.696288, 58.411956)"><g><path d="M 6.25 0 C 6.164062 -0.164062 6.097656 -0.457031 6.046875 -0.875 C 5.378906 -0.1875 4.582031 0.15625 3.65625 0.15625 C 2.832031 0.15625 2.15625 -0.078125 1.625 -0.546875 C 1.101562 -1.015625 0.84375 -1.601562 0.84375 -2.3125 C 0.84375 -3.1875 1.171875 -3.863281 1.828125 -4.34375 C 2.492188 -4.820312 3.425781 -5.0625 4.625 -5.0625 L 6.015625 -5.0625 L 6.015625 -5.734375 C 6.015625 -6.222656 5.863281 -6.613281 5.5625 -6.90625 C 5.269531 -7.207031 4.832031 -7.359375 4.25 -7.359375 C 3.738281 -7.359375 3.3125 -7.226562 2.96875 -6.96875 C 2.625 -6.71875 2.453125 -6.410156 2.453125 -6.046875 L 1.015625 -6.046875 C 1.015625 -6.460938 1.160156 -6.863281 1.453125 -7.25 C 1.753906 -7.644531 2.15625 -7.953125 2.65625 -8.171875 C 3.164062 -8.398438 3.722656 -8.515625 4.328125 -8.515625 C 5.296875 -8.515625 6.050781 -8.273438 6.59375 -7.796875 C 7.144531 -7.316406 7.429688 -6.648438 7.453125 -5.796875 L 7.453125 -1.953125 C 7.453125 -1.179688 7.550781 -0.570312 7.75 -0.125 L 7.75 0 Z M 3.875 -1.09375 C 4.320312 -1.09375 4.742188 -1.207031 5.140625 -1.4375 C 5.546875 -1.664062 5.835938 -1.96875 6.015625 -2.34375 L 6.015625 -4.0625 L 4.90625 -4.0625 C 3.144531 -4.0625 2.265625 -3.546875 2.265625 -2.515625 C 2.265625 -2.066406 2.414062 -1.71875 2.71875 -1.46875 C 3.019531 -1.21875 3.40625 -1.09375 3.875 -1.09375 Z M 3.875 -1.09375 "/></g></g><g transform="translate(55.305099, 58.411956)"><g><path d="M 4.4375 -1.015625 C 4.945312 -1.015625 5.390625 -1.164062 5.765625 -1.46875 C 6.148438 -1.78125 6.363281 -2.171875 6.40625 -2.640625 L 7.765625 -2.640625 C 7.734375 -2.160156 7.566406 -1.703125 7.265625 -1.265625 C 6.960938 -0.835938 6.554688 -0.492188 6.046875 -0.234375 C 5.535156 0.0234375 5 0.15625 4.4375 0.15625 C 3.300781 0.15625 2.394531 -0.222656 1.71875 -0.984375 C 1.050781 -1.742188 0.71875 -2.785156 0.71875 -4.109375 L 0.71875 -4.34375 C 0.71875 -5.15625 0.863281 -5.878906 1.15625 -6.515625 C 1.457031 -7.148438 1.882812 -7.640625 2.4375 -7.984375 C 3 -8.335938 3.660156 -8.515625 4.421875 -8.515625 C 5.359375 -8.515625 6.140625 -8.234375 6.765625 -7.671875 C 7.390625 -7.109375 7.722656 -6.378906 7.765625 -5.484375 L 6.40625 -5.484375 C 6.363281 -6.023438 6.15625 -6.46875 5.78125 -6.8125 C 5.414062 -7.164062 4.960938 -7.34375 4.421875 -7.34375 C 3.703125 -7.34375 3.140625 -7.078125 2.734375 -6.546875 C 2.335938 -6.023438 2.140625 -5.273438 2.140625 -4.296875 L 2.140625 -4.015625 C 2.140625 -3.054688 2.335938 -2.316406 2.734375 -1.796875 C 3.128906 -1.273438 3.695312 -1.015625 4.4375 -1.015625 Z M 4.4375 -1.015625 "/></g></g><g transform="translate(63.58934, 58.411956)"><g><path d="M 3.015625 -10.390625 L 3.015625 -8.359375 L 4.578125 -8.359375 L 4.578125 -7.25 L 3.015625 -7.25 L 3.015625 -2.078125 C 3.015625 -1.734375 3.082031 -1.476562 3.21875 -1.3125 C 3.363281 -1.144531 3.601562 -1.0625 3.9375 -1.0625 C 4.101562 -1.0625 4.332031 -1.09375 4.625 -1.15625 L 4.625 0 C 4.25 0.101562 3.882812 0.15625 3.53125 0.15625 C 2.882812 0.15625 2.398438 -0.0351562 2.078125 -0.421875 C 1.753906 -0.804688 1.59375 -1.359375 1.59375 -2.078125 L 1.59375 -7.25 L 0.0625 -7.25 L 0.0625 -8.359375 L 1.59375 -8.359375 L 1.59375 -10.390625 Z M 3.015625 -10.390625 "/></g></g><g transform="translate(68.759263, 58.411956)"><g><path d="M 2.640625 0 L 1.203125 0 L 1.203125 -8.359375 L 2.640625 -8.359375 Z M 1.09375 -10.578125 C 1.09375 -10.804688 1.160156 -11 1.296875 -11.15625 C 1.441406 -11.320312 1.648438 -11.40625 1.921875 -11.40625 C 2.203125 -11.40625 2.414062 -11.320312 2.5625 -11.15625 C 2.707031 -11 2.78125 -10.804688 2.78125 -10.578125 C 2.78125 -10.347656 2.707031 -10.15625 2.5625 -10 C 2.414062 -9.84375 2.203125 -9.765625 1.921875 -9.765625 C 1.648438 -9.765625 1.441406 -9.84375 1.296875 -10 C 1.160156 -10.15625 1.09375 -10.347656 1.09375 -10.578125 Z M 1.09375 -10.578125 "/></g></g><g transform="translate(72.599998, 58.411956)"><g><path d="M 3.84375 -1.9375 L 5.90625 -8.359375 L 7.375 -8.359375 L 4.375 0 L 3.28125 0 L 0.25 -8.359375 L 1.71875 -8.359375 Z M 3.84375 -1.9375 "/></g></g><g transform="translate(80.266013, 58.411956)"><g><path d="M 4.546875 0.15625 C 3.421875 0.15625 2.5 -0.210938 1.78125 -0.953125 C 1.070312 -1.703125 0.71875 -2.703125 0.71875 -3.953125 L 0.71875 -4.21875 C 0.71875 -5.039062 0.875 -5.773438 1.1875 -6.421875 C 1.507812 -7.078125 1.953125 -7.585938 2.515625 -7.953125 C 3.085938 -8.328125 3.707031 -8.515625 4.375 -8.515625 C 5.457031 -8.515625 6.300781 -8.15625 6.90625 -7.4375 C 7.507812 -6.726562 7.8125 -5.703125 7.8125 -4.359375 L 7.8125 -3.765625 L 2.15625 -3.765625 C 2.164062 -2.941406 2.398438 -2.273438 2.859375 -1.765625 C 3.328125 -1.265625 3.914062 -1.015625 4.625 -1.015625 C 5.132812 -1.015625 5.5625 -1.113281 5.90625 -1.3125 C 6.257812 -1.519531 6.566406 -1.796875 6.828125 -2.140625 L 7.703125 -1.453125 C 7.003906 -0.378906 5.953125 0.15625 4.546875 0.15625 Z M 4.375 -7.34375 C 3.800781 -7.34375 3.316406 -7.128906 2.921875 -6.703125 C 2.523438 -6.285156 2.28125 -5.703125 2.1875 -4.953125 L 6.390625 -4.953125 L 6.390625 -5.046875 C 6.347656 -5.773438 6.148438 -6.335938 5.796875 -6.734375 C 5.441406 -7.140625 4.96875 -7.34375 4.375 -7.34375 Z M 4.375 -7.34375 "/></g></g><g transform="translate(88.650716, 58.411956)"><g/></g><g transform="translate(92.56873, 58.411956)"><g><path d="M 4.546875 0.15625 C 3.421875 0.15625 2.5 -0.210938 1.78125 -0.953125 C 1.070312 -1.703125 0.71875 -2.703125 0.71875 -3.953125 L 0.71875 -4.21875 C 0.71875 -5.039062 0.875 -5.773438 1.1875 -6.421875 C 1.507812 -7.078125 1.953125 -7.585938 2.515625 -7.953125 C 3.085938 -8.328125 3.707031 -8.515625 4.375 -8.515625 C 5.457031 -8.515625 6.300781 -8.15625 6.90625 -7.4375 C 7.507812 -6.726562 7.8125 -5.703125 7.8125 -4.359375 L 7.8125 -3.765625 L 2.15625 -3.765625 C 2.164062 -2.941406 2.398438 -2.273438 2.859375 -1.765625 C 3.328125 -1.265625 3.914062 -1.015625 4.625 -1.015625 C 5.132812 -1.015625 5.5625 -1.113281 5.90625 -1.3125 C 6.257812 -1.519531 6.566406 -1.796875 6.828125 -2.140625 L 7.703125 -1.453125 C 7.003906 -0.378906 5.953125 0.15625 4.546875 0.15625 Z M 4.375 -7.34375 C 3.800781 -7.34375 3.316406 -7.128906 2.921875 -6.703125 C 2.523438 -6.285156 2.28125 -5.703125 2.1875 -4.953125 L 6.390625 -4.953125 L 6.390625 -5.046875 C 6.347656 -5.773438 6.148438 -6.335938 5.796875 -6.734375 C 5.441406 -7.140625 4.96875 -7.34375 4.375 -7.34375 Z M 4.375 -7.34375 "/></g></g><g transform="translate(100.953433, 58.411956)"><g><path d="M 3.890625 -5.3125 L 5.75 -8.359375 L 7.40625 -8.359375 L 4.671875 -4.234375 L 7.5 0 L 5.84375 0 L 3.90625 -3.125 L 1.984375 0 L 0.3125 0 L 3.140625 -4.234375 L 0.40625 -8.359375 L 2.0625 -8.359375 Z M 3.890625 -5.3125 "/></g></g><g transform="translate(108.797188, 58.411956)"><g><path d="M 4.546875 0.15625 C 3.421875 0.15625 2.5 -0.210938 1.78125 -0.953125 C 1.070312 -1.703125 0.71875 -2.703125 0.71875 -3.953125 L 0.71875 -4.21875 C 0.71875 -5.039062 0.875 -5.773438 1.1875 -6.421875 C 1.507812 -7.078125 1.953125 -7.585938 2.515625 -7.953125 C 3.085938 -8.328125 3.707031 -8.515625 4.375 -8.515625 C 5.457031 -8.515625 6.300781 -8.15625 6.90625 -7.4375 C 7.507812 -6.726562 7.8125 -5.703125 7.8125 -4.359375 L 7.8125 -3.765625 L 2.15625 -3.765625 C 2.164062 -2.941406 2.398438 -2.273438 2.859375 -1.765625 C 3.328125 -1.265625 3.914062 -1.015625 4.625 -1.015625 C 5.132812 -1.015625 5.5625 -1.113281 5.90625 -1.3125 C 6.257812 -1.519531 6.566406 -1.796875 6.828125 -2.140625 L 7.703125 -1.453125 C 7.003906 -0.378906 5.953125 0.15625 4.546875 0.15625 Z M 4.375 -7.34375 C 3.800781 -7.34375 3.316406 -7.128906 2.921875 -6.703125 C 2.523438 -6.285156 2.28125 -5.703125 2.1875 -4.953125 L 6.390625 -4.953125 L 6.390625 -5.046875 C 6.347656 -5.773438 6.148438 -6.335938 5.796875 -6.734375 C 5.441406 -7.140625 4.96875 -7.34375 4.375 -7.34375 Z M 4.375 -7.34375 "/></g></g><g transform="translate(117.181892, 58.411956)"><g><path d="M 5.125 -7.078125 C 4.90625 -7.117188 4.671875 -7.140625 4.421875 -7.140625 C 3.484375 -7.140625 2.847656 -6.738281 2.515625 -5.9375 L 2.515625 0 L 1.078125 0 L 1.078125 -8.359375 L 2.46875 -8.359375 L 2.5 -7.390625 C 2.96875 -8.140625 3.628906 -8.515625 4.484375 -8.515625 C 4.765625 -8.515625 4.976562 -8.476562 5.125 -8.40625 Z M 5.125 -7.078125 "/></g></g><g transform="translate(122.537283, 58.411956)"><g><path d="M 4.4375 -1.015625 C 4.945312 -1.015625 5.390625 -1.164062 5.765625 -1.46875 C 6.148438 -1.78125 6.363281 -2.171875 6.40625 -2.640625 L 7.765625 -2.640625 C 7.734375 -2.160156 7.566406 -1.703125 7.265625 -1.265625 C 6.960938 -0.835938 6.554688 -0.492188 6.046875 -0.234375 C 5.535156 0.0234375 5 0.15625 4.4375 0.15625 C 3.300781 0.15625 2.394531 -0.222656 1.71875 -0.984375 C 1.050781 -1.742188 0.71875 -2.785156 0.71875 -4.109375 L 0.71875 -4.34375 C 0.71875 -5.15625 0.863281 -5.878906 1.15625 -6.515625 C 1.457031 -7.148438 1.882812 -7.640625 2.4375 -7.984375 C 3 -8.335938 3.660156 -8.515625 4.421875 -8.515625 C 5.359375 -8.515625 6.140625 -8.234375 6.765625 -7.671875 C 7.390625 -7.109375 7.722656 -6.378906 7.765625 -5.484375 L 6.40625 -5.484375 C 6.363281 -6.023438 6.15625 -6.46875 5.78125 -6.8125 C 5.414062 -7.164062 4.960938 -7.34375 4.421875 -7.34375 C 3.703125 -7.34375 3.140625 -7.078125 2.734375 -6.546875 C 2.335938 -6.023438 2.140625 -5.273438 2.140625 -4.296875 L 2.140625 -4.015625 C 2.140625 -3.054688 2.335938 -2.316406 2.734375 -1.796875 C 3.128906 -1.273438 3.695312 -1.015625 4.4375 -1.015625 Z M 4.4375 -1.015625 "/></g></g><g transform="translate(130.821524, 58.411956)"><g><path d="M 2.640625 0 L 1.203125 0 L 1.203125 -8.359375 L 2.640625 -8.359375 Z M 1.09375 -10.578125 C 1.09375 -10.804688 1.160156 -11 1.296875 -11.15625 C 1.441406 -11.320312 1.648438 -11.40625 1.921875 -11.40625 C 2.203125 -11.40625 2.414062 -11.320312 2.5625 -11.15625 C 2.707031 -11 2.78125 -10.804688 2.78125 -10.578125 C 2.78125 -10.347656 2.707031 -10.15625 2.5625 -10 C 2.414062 -9.84375 2.203125 -9.765625 1.921875 -9.765625 C 1.648438 -9.765625 1.441406 -9.84375 1.296875 -10 C 1.160156 -10.15625 1.09375 -10.347656 1.09375 -10.578125 Z M 1.09375 -10.578125 "/></g></g><g transform="translate(134.662259, 58.411956)"><g><path d="M 5.953125 -2.21875 C 5.953125 -2.601562 5.804688 -2.898438 5.515625 -3.109375 C 5.222656 -3.328125 4.710938 -3.515625 3.984375 -3.671875 C 3.265625 -3.828125 2.691406 -4.007812 2.265625 -4.21875 C 1.835938 -4.4375 1.519531 -4.695312 1.3125 -5 C 1.113281 -5.300781 1.015625 -5.65625 1.015625 -6.0625 C 1.015625 -6.75 1.304688 -7.328125 1.890625 -7.796875 C 2.472656 -8.273438 3.210938 -8.515625 4.109375 -8.515625 C 5.054688 -8.515625 5.820312 -8.269531 6.40625 -7.78125 C 7 -7.289062 7.296875 -6.664062 7.296875 -5.90625 L 5.859375 -5.90625 C 5.859375 -6.289062 5.691406 -6.625 5.359375 -6.90625 C 5.035156 -7.195312 4.617188 -7.34375 4.109375 -7.34375 C 3.585938 -7.34375 3.179688 -7.226562 2.890625 -7 C 2.597656 -6.769531 2.453125 -6.472656 2.453125 -6.109375 C 2.453125 -5.765625 2.585938 -5.503906 2.859375 -5.328125 C 3.128906 -5.148438 3.617188 -4.984375 4.328125 -4.828125 C 5.046875 -4.671875 5.625 -4.476562 6.0625 -4.25 C 6.507812 -4.03125 6.835938 -3.765625 7.046875 -3.453125 C 7.265625 -3.140625 7.375 -2.757812 7.375 -2.3125 C 7.375 -1.570312 7.078125 -0.972656 6.484375 -0.515625 C 5.890625 -0.0664062 5.113281 0.15625 4.15625 0.15625 C 3.488281 0.15625 2.894531 0.0351562 2.375 -0.203125 C 1.863281 -0.441406 1.460938 -0.769531 1.171875 -1.1875 C 0.878906 -1.613281 0.734375 -2.078125 0.734375 -2.578125 L 2.15625 -2.578125 C 2.1875 -2.097656 2.378906 -1.71875 2.734375 -1.4375 C 3.097656 -1.15625 3.570312 -1.015625 4.15625 -1.015625 C 4.695312 -1.015625 5.128906 -1.125 5.453125 -1.34375 C 5.785156 -1.5625 5.953125 -1.851562 5.953125 -2.21875 Z M 5.953125 -2.21875 "/></g></g><g transform="translate(142.822855, 58.411956)"><g><path d="M 4.546875 0.15625 C 3.421875 0.15625 2.5 -0.210938 1.78125 -0.953125 C 1.070312 -1.703125 0.71875 -2.703125 0.71875 -3.953125 L 0.71875 -4.21875 C 0.71875 -5.039062 0.875 -5.773438 1.1875 -6.421875 C 1.507812 -7.078125 1.953125 -7.585938 2.515625 -7.953125 C 3.085938 -8.328125 3.707031 -8.515625 4.375 -8.515625 C 5.457031 -8.515625 6.300781 -8.15625 6.90625 -7.4375 C 7.507812 -6.726562 7.8125 -5.703125 7.8125 -4.359375 L 7.8125 -3.765625 L 2.15625 -3.765625 C 2.164062 -2.941406 2.398438 -2.273438 2.859375 -1.765625 C 3.328125 -1.265625 3.914062 -1.015625 4.625 -1.015625 C 5.132812 -1.015625 5.5625 -1.113281 5.90625 -1.3125 C 6.257812 -1.519531 6.566406 -1.796875 6.828125 -2.140625 L 7.703125 -1.453125 C 7.003906 -0.378906 5.953125 0.15625 4.546875 0.15625 Z M 4.375 -7.34375 C 3.800781 -7.34375 3.316406 -7.128906 2.921875 -6.703125 C 2.523438 -6.285156 2.28125 -5.703125 2.1875 -4.953125 L 6.390625 -4.953125 L 6.390625 -5.046875 C 6.347656 -5.773438 6.148438 -6.335938 5.796875 -6.734375 C 5.441406 -7.140625 4.96875 -7.34375 4.375 -7.34375 Z M 4.375 -7.34375 "/></g></g><g transform="translate(151.207559, 58.411956)"><g><path d="M 5.953125 -2.21875 C 5.953125 -2.601562 5.804688 -2.898438 5.515625 -3.109375 C 5.222656 -3.328125 4.710938 -3.515625 3.984375 -3.671875 C 3.265625 -3.828125 2.691406 -4.007812 2.265625 -4.21875 C 1.835938 -4.4375 1.519531 -4.695312 1.3125 -5 C 1.113281 -5.300781 1.015625 -5.65625 1.015625 -6.0625 C 1.015625 -6.75 1.304688 -7.328125 1.890625 -7.796875 C 2.472656 -8.273438 3.210938 -8.515625 4.109375 -8.515625 C 5.054688 -8.515625 5.820312 -8.269531 6.40625 -7.78125 C 7 -7.289062 7.296875 -6.664062 7.296875 -5.90625 L 5.859375 -5.90625 C 5.859375 -6.289062 5.691406 -6.625 5.359375 -6.90625 C 5.035156 -7.195312 4.617188 -7.34375 4.109375 -7.34375 C 3.585938 -7.34375 3.179688 -7.226562 2.890625 -7 C 2.597656 -6.769531 2.453125 -6.472656 2.453125 -6.109375 C 2.453125 -5.765625 2.585938 -5.503906 2.859375 -5.328125 C 3.128906 -5.148438 3.617188 -4.984375 4.328125 -4.828125 C 5.046875 -4.671875 5.625 -4.476562 6.0625 -4.25 C 6.507812 -4.03125 6.835938 -3.765625 7.046875 -3.453125 C 7.265625 -3.140625 7.375 -2.757812 7.375 -2.3125 C 7.375 -1.570312 7.078125 -0.972656 6.484375 -0.515625 C 5.890625 -0.0664062 5.113281 0.15625 4.15625 0.15625 C 3.488281 0.15625 2.894531 0.0351562 2.375 -0.203125 C 1.863281 -0.441406 1.460938 -0.769531 1.171875 -1.1875 C 0.878906 -1.613281 0.734375 -2.078125 0.734375 -2.578125 L 2.15625 -2.578125 C 2.1875 -2.097656 2.378906 -1.71875 2.734375 -1.4375 C 3.097656 -1.15625 3.570312 -1.015625 4.15625 -1.015625 C 4.695312 -1.015625 5.128906 -1.125 5.453125 -1.34375 C 5.785156 -1.5625 5.953125 -1.851562 5.953125 -2.21875 Z M 5.953125 -2.21875 "/></g></g></g></g></g><g transform="matrix(1, 0, 0, 1, 69, 51)"><g clip-path="url(#03e52ebdee)"><g fill="#ffffff" fill-opacity="0.4"><g transform="translate(12.882178, 49.930289)"><g><path d="M 1.09375 -3.9375 L 4.828125 -7.671875 L 6.25 -6.25 L 0.765625 -0.765625 L -7.765625 -9.296875 L -6.015625 -11.046875 Z M 1.09375 -3.9375 "/></g></g></g><g fill="#ffffff" fill-opacity="0.4"><g transform="translate(19.376857, 43.43561)"><g><path d="M 2.1875 -9.59375 L -1.1875 -6.21875 L 1.09375 -3.9375 L 5.046875 -7.890625 L 6.46875 -6.46875 L 0.765625 -0.765625 L -7.765625 -9.296875 L -2.0625 -15 L -0.640625 -13.578125 L -4.59375 -9.625 L -2.5625 -7.59375 L 0.8125 -10.96875 Z M 2.1875 -9.59375 "/></g></g></g><g fill="#ffffff" fill-opacity="0.4"><g transform="translate(26.123356, 36.689111)"><g><path d="M 3.828125 -7.328125 L 0.75 -4.25 L 1.90625 -1.90625 L 0.046875 -0.046875 L -5.3125 -11.75 L -3.6875 -13.375 L 8.046875 -8.046875 L 6.171875 -6.171875 Z M -0.21875 -6.15625 L 1.921875 -8.296875 L -2.34375 -10.40625 Z M -0.21875 -6.15625 "/></g></g></g><g fill="#ffffff" fill-opacity="0.4"><g transform="translate(34.193386, 28.619081)"><g><path d="M 0.796875 -7.046875 L -0.609375 -5.640625 L 2.515625 -2.515625 L 0.765625 -0.765625 L -7.765625 -9.296875 L -4.59375 -12.46875 C -3.582031 -13.476562 -2.582031 -14.03125 -1.59375 -14.125 C -0.601562 -14.21875 0.300781 -13.851562 1.125 -13.03125 C 1.707031 -12.445312 2.066406 -11.832031 2.203125 -11.1875 C 2.347656 -10.550781 2.28125 -9.863281 2 -9.125 L 7.328125 -7.484375 L 7.40625 -7.40625 L 5.53125 -5.53125 Z M -2.03125 -7.0625 L -0.609375 -8.484375 C -0.171875 -8.921875 0.0546875 -9.375 0.078125 -9.84375 C 0.0976562 -10.3125 -0.0859375 -10.742188 -0.484375 -11.140625 C -0.890625 -11.546875 -1.320312 -11.75 -1.78125 -11.75 C -2.238281 -11.75 -2.703125 -11.515625 -3.171875 -11.046875 L -4.59375 -9.625 Z M -2.03125 -7.0625 "/></g></g></g><g fill="#ffffff" fill-opacity="0.4"><g transform="translate(41.84762, 20.964847)"><g><path d="M 7.703125 -7.703125 L 5.9375 -5.9375 L -3.09375 -8.125 L 2.515625 -2.515625 L 0.765625 -0.765625 L -7.765625 -9.296875 L -6.015625 -11.046875 L 3.03125 -8.84375 L -2.59375 -14.46875 L -0.828125 -16.234375 Z M 7.703125 -7.703125 "/></g></g></g><g fill="#1c4790" fill-opacity="1"><g transform="translate(11.821743, 49.930289)"><g><path d="M 1.09375 -3.9375 L 4.828125 -7.671875 L 6.25 -6.25 L 0.765625 -0.765625 L -7.765625 -9.296875 L -6.015625 -11.046875 Z M 1.09375 -3.9375 "/></g></g></g><g fill="#1c4790" fill-opacity="1"><g transform="translate(18.316422, 43.43561)"><g><path d="M 2.1875 -9.59375 L -1.1875 -6.21875 L 1.09375 -3.9375 L 5.046875 -7.890625 L 6.46875 -6.46875 L 0.765625 -0.765625 L -7.765625 -9.296875 L -2.0625 -15 L -0.640625 -13.578125 L -4.59375 -9.625 L -2.5625 -7.59375 L 0.8125 -10.96875 Z M 2.1875 -9.59375 "/></g></g></g><g fill="#1c4790" fill-opacity="1"><g transform="translate(25.062921, 36.689111)"><g><path d="M 3.828125 -7.328125 L 0.75 -4.25 L 1.90625 -1.90625 L 0.046875 -0.046875 L -5.3125 -11.75 L -3.6875 -13.375 L 8.046875 -8.046875 L 6.171875 -6.171875 Z M -0.21875 -6.15625 L 1.921875 -8.296875 L -2.34375 -10.40625 Z M -0.21875 -6.15625 "/></g></g></g><g fill="#1c4790" fill-opacity="1"><g transform="translate(33.132951, 28.619081)"><g><path d="M 0.796875 -7.046875 L -0.609375 -5.640625 L 2.515625 -2.515625 L 0.765625 -0.765625 L -7.765625 -9.296875 L -4.59375 -12.46875 C -3.582031 -13.476562 -2.582031 -14.03125 -1.59375 -14.125 C -0.601562 -14.21875 0.300781 -13.851562 1.125 -13.03125 C 1.707031 -12.445312 2.066406 -11.832031 2.203125 -11.1875 C 2.347656 -10.550781 2.28125 -9.863281 2 -9.125 L 7.328125 -7.484375 L 7.40625 -7.40625 L 5.53125 -5.53125 Z M -2.03125 -7.0625 L -0.609375 -8.484375 C -0.171875 -8.921875 0.0546875 -9.375 0.078125 -9.84375 C 0.0976562 -10.3125 -0.0859375 -10.742188 -0.484375 -11.140625 C -0.890625 -11.546875 -1.320312 -11.75 -1.78125 -11.75 C -2.238281 -11.75 -2.703125 -11.515625 -3.171875 -11.046875 L -4.59375 -9.625 Z M -2.03125 -7.0625 "/></g></g></g><g fill="#1c4790" fill-opacity="1"><g transform="translate(40.787185, 20.964847)"><g><path d="M 7.703125 -7.703125 L 5.9375 -5.9375 L -3.09375 -8.125 L 2.515625 -2.515625 L 0.765625 -0.765625 L -7.765625 -9.296875 L -6.015625 -11.046875 L 3.03125 -8.84375 L -2.59375 -14.46875 L -0.828125 -16.234375 Z M 7.703125 -7.703125 "/></g></g></g></g></g></svg>