<svg xmlns="http://www.w3.org/2000/svg" xmlns:xlink="http://www.w3.org/1999/xlink" width="300" zoomAndPan="magnify" viewBox="0 0 224.87999 374.999991" height="500" preserveAspectRatio="xMidYMid meet" version="1.0"><defs><g/><clipPath id="fb78978f58"><path d="M 27 121 L 130 121 L 130 224 L 27 224 Z M 27 121 " clip-rule="nonzero"/></clipPath><clipPath id="9c84a9235e"><path d="M 93.992188 103.238281 L 163.429688 172.675781 L 93.992188 242.109375 L 24.558594 172.675781 Z M 93.992188 103.238281 " clip-rule="nonzero"/></clipPath><clipPath id="05284f4f0b"><path d="M 93.992188 103.238281 L 163.429688 172.675781 L 93.992188 242.109375 L 24.558594 172.675781 Z M 93.992188 103.238281 " clip-rule="nonzero"/></clipPath><clipPath id="4e405f1bcf"><path d="M 81 67 L 184 67 L 184 170 L 81 170 Z M 81 67 " clip-rule="nonzero"/></clipPath><clipPath id="cb0902e7e3"><path d="M 147.996094 49.238281 L 217.429688 118.671875 L 147.996094 188.109375 L 78.558594 118.671875 Z M 147.996094 49.238281 " clip-rule="nonzero"/></clipPath><clipPath id="b37d6a163f"><path d="M 147.996094 49.238281 L 217.429688 118.671875 L 147.996094 188.109375 L 78.558594 118.671875 Z M 147.996094 49.238281 " clip-rule="nonzero"/></clipPath><clipPath id="9150195d3f"><path d="M 29 122 L 132 122 L 132 224 L 29 224 Z M 29 122 " clip-rule="nonzero"/></clipPath><clipPath id="4504c56a4e"><path d="M 96.121094 103.726562 L 165.558594 173.164062 L 96.121094 242.601562 L 26.683594 173.164062 Z M 96.121094 103.726562 " clip-rule="nonzero"/></clipPath><clipPath id="87c35df2b3"><path d="M 96.121094 103.726562 L 165.558594 173.164062 L 96.121094 242.601562 L 26.683594 173.164062 Z M 96.121094 103.726562 " clip-rule="nonzero"/></clipPath><clipPath id="c5a8e0733c"><path d="M 71.800781 157.394531 L 107.78125 157.394531 L 107.78125 185 L 71.800781 185 Z M 71.800781 157.394531 " clip-rule="nonzero"/></clipPath><clipPath id="afb1640e77"><path d="M 71.800781 157.394531 L 107.78125 157.394531 L 107.78125 172 L 71.800781 172 Z M 71.800781 157.394531 " clip-rule="nonzero"/></clipPath><clipPath id="e6746fb8ae"><path d="M 83 68 L 186 68 L 186 170 L 83 170 Z M 83 68 " clip-rule="nonzero"/></clipPath><clipPath id="5085799108"><path d="M 149.855469 49.746094 L 219.292969 119.179688 L 149.855469 188.617188 L 80.417969 119.179688 Z M 149.855469 49.746094 " clip-rule="nonzero"/></clipPath><clipPath id="7fd70b8cd6"><path d="M 149.855469 49.746094 L 219.292969 119.179688 L 149.855469 188.617188 L 80.417969 119.179688 Z M 149.855469 49.746094 " clip-rule="nonzero"/></clipPath><clipPath id="14220b4b2b"><path d="M 130.027344 95.039062 L 161 95.039062 L 161 140 L 130.027344 140 Z M 130.027344 95.039062 " clip-rule="nonzero"/></clipPath><clipPath id="2f7227d9fe"><path d="M 130.78125 95.683594 L 162 95.683594 L 162 140.660156 L 130.78125 140.660156 Z M 130.78125 95.683594 " clip-rule="nonzero"/></clipPath><clipPath id="bc3e509c13"><path d="M 154 108 L 172.761719 108 L 172.761719 133 L 154 133 Z M 154 108 " clip-rule="nonzero"/></clipPath><clipPath id="5be502516a"><rect x="0" width="145" y="0" height="65"/></clipPath><clipPath id="d5fb82227f"><rect x="0" width="47" y="0" height="48"/></clipPath></defs><g clip-path="url(#fb78978f58)"><g clip-path="url(#9c84a9235e)"><g clip-path="url(#05284f4f0b)"><path fill="#121256" d="M 121.277344 200.734375 C 119.984375 199.4375 118.421875 198.570312 116.769531 198.121094 C 116.140625 197.949219 115.488281 197.835938 114.835938 197.792969 C 113.277344 197.375 111.261719 196.457031 110.785156 194.4375 L 127.539062 177.679688 C 130.371094 174.851562 130.371094 170.257812 127.539062 167.425781 L 110.574219 150.460938 C 111.160156 148.84375 112.777344 148.023438 114.171875 147.597656 C 116.660156 147.519531 119.125 146.527344 121.023438 144.628906 C 124.988281 140.664062 124.992188 134.230469 121.023438 130.261719 C 117.054688 126.292969 110.621094 126.296875 106.65625 130.261719 C 105.359375 131.554688 104.492188 133.117188 104.039062 134.769531 C 103.867188 135.402344 103.757812 136.050781 103.710938 136.707031 C 103.324219 138.15625 102.5 140.003906 100.75 140.636719 L 83.859375 123.746094 C 81.027344 120.914062 76.433594 120.914062 73.601562 123.746094 L 56.847656 140.5 C 57.324219 142.519531 59.339844 143.4375 60.898438 143.855469 C 61.554688 143.898438 62.203125 144.011719 62.835938 144.183594 C 64.484375 144.632812 66.046875 145.5 67.339844 146.796875 C 71.3125 150.769531 71.308594 157.203125 67.34375 161.167969 C 63.375 165.136719 56.941406 165.140625 52.96875 161.167969 C 51.070312 159.269531 50.085938 156.804688 50.007812 154.316406 C 49.550781 152.8125 48.628906 151.042969 46.75 150.597656 L 29.921875 167.425781 C 27.089844 170.257812 27.089844 174.851562 29.921875 177.679688 L 46.675781 194.4375 C 48.695312 193.953125 49.613281 191.945312 50.03125 190.382812 C 50.074219 189.730469 50.183594 189.085938 50.359375 188.449219 C 50.808594 186.800781 51.679688 185.238281 52.972656 183.945312 C 56.941406 179.976562 63.371094 179.976562 67.339844 183.945312 C 71.308594 187.914062 71.308594 194.34375 67.339844 198.3125 C 65.441406 200.210938 62.980469 201.199219 60.488281 201.28125 C 58.992188 201.730469 57.222656 202.65625 56.773438 204.535156 L 73.601562 221.363281 C 76.433594 224.195312 81.027344 224.195312 83.859375 221.363281 L 100.6875 204.535156 C 102.5625 204.980469 103.488281 206.75 103.941406 208.253906 C 104.023438 210.742188 105.007812 213.207031 106.90625 215.105469 C 110.875 219.074219 117.3125 219.074219 121.28125 215.105469 C 125.246094 211.140625 125.246094 204.703125 121.277344 200.734375 " fill-opacity="1" fill-rule="nonzero"/></g></g></g><g clip-path="url(#4e405f1bcf)"><g clip-path="url(#cb0902e7e3)"><g clip-path="url(#b37d6a163f)"><path fill="#121256" d="M 175.277344 146.730469 C 173.984375 145.4375 172.421875 144.566406 170.773438 144.117188 C 170.140625 143.945312 169.492188 143.835938 168.839844 143.789062 C 167.277344 143.375 165.265625 142.457031 164.785156 140.433594 L 181.542969 123.679688 C 184.371094 120.847656 184.371094 116.253906 181.542969 113.425781 L 164.578125 96.460938 C 165.160156 94.84375 166.78125 94.019531 168.171875 93.597656 C 170.660156 93.519531 173.125 92.527344 175.023438 90.628906 C 178.988281 86.664062 178.992188 80.230469 175.023438 76.261719 C 171.054688 72.292969 164.621094 72.292969 160.65625 76.261719 C 159.363281 77.554688 158.492188 79.117188 158.042969 80.765625 C 157.867188 81.402344 157.757812 82.046875 157.710938 82.703125 C 157.328125 84.15625 156.5 86.003906 154.75 86.632812 L 137.859375 69.742188 C 135.027344 66.914062 130.433594 66.914062 127.605469 69.742188 L 110.847656 86.5 C 111.328125 88.519531 113.339844 89.4375 114.902344 89.851562 C 115.554688 89.898438 116.203125 90.007812 116.839844 90.183594 C 118.488281 90.632812 120.046875 91.5 121.34375 92.796875 C 125.3125 96.765625 125.3125 103.199219 121.34375 107.167969 C 117.375 111.136719 110.945312 111.136719 106.972656 107.167969 C 105.070312 105.265625 104.085938 102.804688 104.007812 100.3125 C 103.554688 98.8125 102.628906 97.042969 100.75 96.597656 L 83.921875 113.425781 C 81.089844 116.253906 81.089844 120.847656 83.921875 123.679688 L 100.675781 140.433594 C 102.695312 139.953125 103.617188 137.941406 104.03125 136.382812 C 104.078125 135.730469 104.1875 135.085938 104.359375 134.449219 C 104.808594 132.796875 105.679688 131.238281 106.972656 129.941406 C 110.945312 125.972656 117.375 125.972656 121.34375 129.941406 C 125.3125 133.910156 125.3125 140.339844 121.34375 144.308594 C 119.441406 146.207031 116.980469 147.195312 114.488281 147.28125 C 112.992188 147.730469 111.222656 148.65625 110.777344 150.535156 L 127.605469 167.363281 C 130.433594 170.191406 135.027344 170.191406 137.859375 167.363281 L 154.6875 150.535156 C 156.566406 150.980469 157.492188 152.75 157.945312 154.25 C 158.023438 156.738281 159.007812 159.203125 160.910156 161.101562 C 164.878906 165.070312 171.3125 165.070312 175.28125 161.101562 C 179.246094 157.136719 179.246094 150.699219 175.277344 146.730469 " fill-opacity="1" fill-rule="nonzero"/></g></g></g><g clip-path="url(#9150195d3f)"><g clip-path="url(#4504c56a4e)"><g clip-path="url(#87c35df2b3)"><path fill="#99c5ff" d="M 123.40625 201.222656 C 122.109375 199.929688 120.550781 199.058594 118.898438 198.609375 C 118.265625 198.4375 117.617188 198.324219 116.964844 198.28125 C 115.40625 197.863281 113.390625 196.945312 112.914062 194.925781 L 129.667969 178.171875 C 132.5 175.339844 132.5 170.746094 129.667969 167.914062 L 112.703125 150.949219 C 113.285156 149.335938 114.90625 148.511719 116.296875 148.089844 C 118.789062 148.007812 121.25 147.015625 123.152344 145.117188 C 127.117188 141.152344 127.121094 134.71875 123.152344 130.75 C 119.183594 126.78125 112.75 126.785156 108.78125 130.75 C 107.488281 132.046875 106.617188 133.605469 106.167969 135.257812 C 105.996094 135.890625 105.886719 136.539062 105.835938 137.195312 C 105.453125 138.648438 104.625 140.492188 102.878906 141.125 L 85.984375 124.234375 C 83.15625 121.402344 78.5625 121.402344 75.730469 124.234375 L 58.976562 140.988281 C 59.453125 143.011719 61.46875 143.929688 63.027344 144.34375 C 63.679688 144.386719 64.328125 144.5 64.964844 144.675781 C 66.613281 145.121094 68.171875 145.992188 69.46875 147.285156 C 73.441406 151.257812 73.4375 157.691406 69.472656 161.65625 C 65.503906 165.625 59.070312 165.628906 55.097656 161.65625 C 53.199219 159.757812 52.214844 157.292969 52.132812 154.804688 C 51.679688 153.304688 50.753906 151.535156 48.878906 151.085938 L 32.046875 167.914062 C 29.21875 170.746094 29.21875 175.339844 32.046875 178.171875 L 48.804688 194.925781 C 50.820312 194.445312 51.742188 192.433594 52.160156 190.875 C 52.203125 190.21875 52.3125 189.574219 52.488281 188.9375 C 52.9375 187.289062 53.804688 185.726562 55.101562 184.433594 C 59.070312 180.464844 65.5 180.464844 69.46875 184.433594 C 73.4375 188.402344 73.4375 194.832031 69.46875 198.800781 C 67.570312 200.699219 65.109375 201.6875 62.617188 201.769531 C 61.117188 202.222656 59.347656 203.144531 58.902344 205.023438 L 75.730469 221.851562 C 78.5625 224.683594 83.15625 224.683594 85.984375 221.851562 L 102.8125 205.023438 C 104.691406 205.472656 105.617188 207.242188 106.070312 208.742188 C 106.152344 211.230469 107.136719 213.695312 109.035156 215.59375 C 113.003906 219.5625 119.441406 219.5625 123.410156 215.59375 C 127.375 211.628906 127.375 205.191406 123.40625 201.222656 " fill-opacity="1" fill-rule="nonzero"/></g></g></g><g clip-path="url(#c5a8e0733c)"><path fill="#3679ed" d="M 107.738281 171.257812 C 107.738281 171.257812 98.121094 184.839844 85.75 184.878906 C 82.128906 185.128906 78.429688 183.808594 75.664062 180.910156 C 73.117188 178.246094 71.84375 174.753906 71.84375 171.257812 C 71.84375 167.765625 73.117188 164.273438 75.664062 161.609375 C 78.429688 158.710938 82.132812 157.386719 85.75 157.640625 C 98.132812 157.679688 107.738281 171.261719 107.738281 171.261719 Z M 107.738281 171.257812 " fill-opacity="1" fill-rule="nonzero"/></g><g clip-path="url(#afb1640e77)"><path fill="#1d67db" d="M 107.738281 171.257812 L 71.84375 171.257812 C 71.84375 167.765625 73.117188 164.273438 75.664062 161.609375 C 78.429688 158.710938 82.132812 157.386719 85.75 157.640625 C 98.132812 157.679688 107.738281 171.261719 107.738281 171.261719 Z M 107.738281 171.257812 " fill-opacity="1" fill-rule="nonzero"/></g><path fill="#ffffff" d="M 96.566406 171.246094 C 96.566406 171.941406 96.5 172.632812 96.363281 173.316406 C 96.230469 173.996094 96.03125 174.660156 95.765625 175.304688 C 95.5 175.949219 95.175781 176.558594 94.792969 177.140625 C 94.410156 177.71875 93.972656 178.253906 93.484375 178.746094 C 92.996094 179.238281 92.460938 179.679688 91.886719 180.066406 C 91.3125 180.453125 90.707031 180.78125 90.066406 181.046875 C 89.429688 181.3125 88.769531 181.515625 88.09375 181.648438 C 87.414062 181.785156 86.730469 181.855469 86.039062 181.855469 C 85.347656 181.855469 84.660156 181.785156 83.984375 181.648438 C 83.304688 181.515625 82.648438 181.3125 82.007812 181.046875 C 81.371094 180.78125 80.761719 180.453125 80.1875 180.066406 C 79.613281 179.679688 79.082031 179.238281 78.59375 178.746094 C 78.105469 178.253906 77.667969 177.71875 77.285156 177.140625 C 76.898438 176.558594 76.574219 175.949219 76.3125 175.304688 C 76.046875 174.660156 75.847656 173.996094 75.710938 173.316406 C 75.578125 172.632812 75.507812 171.941406 75.507812 171.246094 C 75.507812 170.546875 75.578125 169.859375 75.710938 169.175781 C 75.847656 168.492188 76.046875 167.828125 76.3125 167.1875 C 76.574219 166.542969 76.898438 165.929688 77.285156 165.351562 C 77.667969 164.773438 78.105469 164.238281 78.59375 163.742188 C 79.082031 163.25 79.613281 162.8125 80.1875 162.425781 C 80.761719 162.039062 81.371094 161.710938 82.007812 161.445312 C 82.648438 161.179688 83.304688 160.976562 83.984375 160.839844 C 84.660156 160.703125 85.347656 160.636719 86.039062 160.636719 C 86.730469 160.636719 87.414062 160.703125 88.09375 160.839844 C 88.769531 160.976562 89.429688 161.179688 90.066406 161.445312 C 90.707031 161.710938 91.3125 162.039062 91.886719 162.425781 C 92.460938 162.8125 92.996094 163.25 93.484375 163.742188 C 93.972656 164.238281 94.410156 164.773438 94.792969 165.351562 C 95.175781 165.929688 95.5 166.542969 95.765625 167.1875 C 96.03125 167.828125 96.230469 168.492188 96.363281 169.175781 C 96.5 169.859375 96.566406 170.546875 96.566406 171.246094 Z M 96.566406 171.246094 " fill-opacity="1" fill-rule="nonzero"/><path fill="#121256" d="M 82.0625 173.242188 L 84.679688 173.242188 L 84.679688 173.449219 C 84.679688 174.113281 84.773438 174.609375 84.960938 174.9375 C 85.148438 175.269531 85.425781 175.433594 85.792969 175.433594 C 86.1875 175.433594 86.488281 175.242188 86.703125 174.855469 C 86.914062 174.46875 87.019531 173.921875 87.019531 173.210938 C 87.019531 172.5 86.921875 171.917969 86.722656 171.5625 C 86.527344 171.207031 86.222656 171.027344 85.8125 171.027344 C 85.660156 171.027344 85.5 171.0625 85.332031 171.128906 C 85.167969 171.195312 84.988281 171.292969 84.800781 171.429688 L 83.667969 170.339844 L 86.0625 167.167969 L 82.625 167.167969 L 82.625 165.03125 L 89.988281 165.03125 L 86.835938 169.332031 C 86.859375 169.332031 86.902344 169.328125 86.957031 169.316406 C 87.171875 169.28125 87.3125 169.265625 87.378906 169.265625 C 88.054688 169.265625 88.613281 169.609375 89.058594 170.292969 C 89.5 170.980469 89.722656 171.871094 89.722656 172.964844 C 89.722656 174.394531 89.363281 175.507812 88.652344 176.296875 C 87.941406 177.085938 86.9375 177.480469 85.648438 177.480469 C 84.507812 177.480469 83.617188 177.148438 82.988281 176.476562 C 82.359375 175.808594 82.042969 174.867188 82.042969 173.652344 C 82.042969 173.601562 82.046875 173.535156 82.054688 173.445312 C 82.058594 173.359375 82.0625 173.289062 82.0625 173.242188 Z M 82.0625 173.242188 " fill-opacity="1" fill-rule="nonzero"/><g clip-path="url(#e6746fb8ae)"><g clip-path="url(#5085799108)"><g clip-path="url(#7fd70b8cd6)"><path fill="#99c5ff" d="M 177.140625 147.238281 C 175.84375 145.945312 174.285156 145.074219 172.632812 144.625 C 172.003906 144.453125 171.351562 144.34375 170.699219 144.296875 C 169.140625 143.882812 167.125 142.964844 166.648438 140.941406 L 183.402344 124.1875 C 186.234375 121.355469 186.234375 116.761719 183.402344 113.933594 L 166.4375 96.96875 C 167.019531 95.351562 168.640625 94.527344 170.035156 94.105469 C 172.523438 94.023438 174.988281 93.035156 176.886719 91.136719 C 180.851562 87.167969 180.855469 80.738281 176.886719 76.765625 C 172.917969 72.796875 166.484375 72.800781 162.519531 76.765625 C 161.222656 78.0625 160.355469 79.621094 159.902344 81.273438 C 159.730469 81.910156 159.621094 82.554688 159.570312 83.210938 C 159.1875 84.664062 158.359375 86.511719 156.613281 87.140625 L 139.722656 70.25 C 136.890625 67.417969 132.296875 67.417969 129.464844 70.25 L 112.710938 87.003906 C 113.1875 89.027344 115.203125 89.945312 116.761719 90.359375 C 117.414062 90.40625 118.066406 90.515625 118.699219 90.691406 C 120.347656 91.136719 121.910156 92.007812 123.203125 93.300781 C 127.175781 97.273438 127.171875 103.707031 123.207031 107.671875 C 119.238281 111.640625 112.804688 111.644531 108.832031 107.671875 C 106.933594 105.773438 105.949219 103.308594 105.867188 100.820312 C 105.414062 99.320312 104.488281 97.550781 102.613281 97.105469 L 85.785156 113.933594 C 82.953125 116.761719 82.953125 121.355469 85.785156 124.1875 L 102.539062 140.941406 C 104.554688 140.460938 105.476562 138.449219 105.894531 136.890625 C 105.9375 136.238281 106.046875 135.589844 106.222656 134.957031 C 106.671875 133.304688 107.539062 131.746094 108.835938 130.449219 C 112.804688 126.480469 119.234375 126.480469 123.203125 130.449219 C 127.171875 134.417969 127.171875 140.847656 123.203125 144.816406 C 121.304688 146.714844 118.84375 147.703125 116.351562 147.789062 C 114.855469 148.238281 113.082031 149.164062 112.636719 151.039062 L 129.464844 167.871094 C 132.296875 170.699219 136.890625 170.699219 139.722656 167.871094 L 156.550781 151.039062 C 158.425781 151.488281 159.351562 153.257812 159.804688 154.757812 C 159.886719 157.246094 160.871094 159.710938 162.769531 161.609375 C 166.738281 165.578125 173.175781 165.578125 177.144531 161.609375 C 181.109375 157.644531 181.109375 151.207031 177.140625 147.238281 " fill-opacity="1" fill-rule="nonzero"/></g></g></g><g clip-path="url(#14220b4b2b)"><path fill="#121256" d="M 145.441406 95.039062 C 144.007812 95.039062 142.851562 96.121094 142.675781 97.488281 L 137.746094 97.488281 C 136.976562 97.488281 136.34375 98.117188 136.34375 98.886719 L 136.34375 99.9375 L 132.183594 99.9375 C 130.992188 99.9375 130.046875 100.878906 130.046875 102.070312 L 130.046875 137.679688 C 130.046875 138.871094 130.992188 139.816406 132.183594 139.816406 L 158.699219 139.816406 C 159.886719 139.816406 160.832031 138.871094 160.832031 137.679688 L 160.832031 128.832031 C 160.832031 128.832031 160.796875 128.832031 160.796875 128.867188 L 159.433594 129.742188 L 159.433594 137.679688 C 159.433594 138.101562 159.117188 138.417969 158.699219 138.417969 L 132.183594 138.417969 C 131.761719 138.417969 131.449219 138.101562 131.449219 137.679688 L 131.449219 102.070312 C 131.449219 101.648438 131.761719 101.335938 132.183594 101.335938 L 136.34375 101.335938 L 136.34375 102.382812 C 136.34375 103.152344 136.976562 103.785156 137.746094 103.785156 L 153.136719 103.785156 C 153.90625 103.785156 154.535156 103.152344 154.535156 102.382812 L 154.535156 101.335938 L 158.699219 101.335938 C 159.117188 101.335938 159.433594 101.648438 159.433594 102.070312 L 159.433594 116.097656 L 160.832031 114.070312 L 160.832031 102.070312 C 160.832031 100.878906 159.886719 99.9375 158.699219 99.9375 L 154.535156 99.9375 L 154.535156 98.886719 C 154.535156 98.117188 153.90625 97.488281 153.136719 97.488281 L 148.203125 97.488281 C 148.027344 96.121094 146.875 95.039062 145.441406 95.039062 Z M 153.136719 102.382812 L 137.746094 102.382812 L 137.746094 98.886719 L 143.375 98.886719 C 143.585938 98.886719 143.796875 98.78125 143.902344 98.640625 C 144.007812 98.5 144.074219 98.257812 144.042969 98.082031 C 144.042969 97.976562 144.042969 97.90625 144.042969 97.835938 C 144.042969 97.066406 144.671875 96.4375 145.441406 96.4375 C 146.210938 96.4375 146.839844 97.066406 146.839844 97.835938 C 146.839844 97.90625 146.839844 97.976562 146.804688 98.046875 C 146.769531 98.257812 146.804688 98.464844 146.945312 98.605469 C 147.085938 98.746094 147.257812 98.851562 147.46875 98.851562 L 153.136719 98.886719 Z M 153.136719 102.382812 " fill-opacity="1" fill-rule="nonzero"/></g><path fill="#121256" d="M 170.3125 108.542969 L 169.824219 108.15625 C 169.261719 107.738281 168.597656 107.5625 167.933594 107.667969 C 167.269531 107.773438 166.675781 108.121094 166.21875 108.679688 L 155.796875 123.828125 C 155.796875 123.863281 155.761719 123.863281 155.761719 123.898438 C 155.726562 123.933594 155.726562 123.933594 155.691406 123.96875 C 155.691406 123.96875 155.691406 124.003906 155.65625 124.003906 C 155.585938 124.074219 155.550781 124.144531 155.515625 124.25 L 153.519531 130.511719 C 153.417969 130.789062 153.519531 131.105469 153.765625 131.28125 C 153.90625 131.382812 154.046875 131.417969 154.1875 131.417969 C 154.324219 131.417969 154.464844 131.382812 154.570312 131.316406 L 160.027344 127.675781 C 160.132812 127.605469 160.238281 127.5 160.273438 127.398438 C 160.308594 127.363281 160.378906 127.328125 160.414062 127.257812 L 170.800781 112.144531 C 171.640625 110.988281 171.433594 109.382812 170.3125 108.542969 Z M 156.949219 128.0625 L 156.003906 127.363281 L 156.667969 125.261719 C 156.703125 125.261719 156.773438 125.261719 156.808594 125.261719 C 156.84375 125.261719 156.914062 125.261719 156.914062 125.261719 L 156.949219 125.296875 C 156.949219 125.296875 156.984375 125.367188 156.984375 125.402344 C 157.054688 125.613281 157.125 125.960938 157.542969 126.277344 C 157.964844 126.59375 158.3125 126.59375 158.523438 126.59375 C 158.558594 126.59375 158.628906 126.59375 158.628906 126.59375 L 158.664062 126.628906 C 158.664062 126.628906 158.699219 126.695312 158.699219 126.730469 C 158.699219 126.765625 158.734375 126.800781 158.734375 126.871094 Z M 155.550781 128.761719 L 155.691406 128.867188 L 155.445312 129.039062 Z M 159.746094 125.71875 C 159.679688 125.648438 159.609375 125.542969 159.503906 125.472656 C 159.082031 125.15625 158.734375 125.15625 158.523438 125.15625 C 158.488281 125.15625 158.417969 125.15625 158.417969 125.15625 L 158.382812 125.121094 C 158.382812 125.121094 158.347656 125.054688 158.347656 125.019531 C 158.277344 124.808594 158.207031 124.457031 157.789062 124.144531 C 157.648438 124.039062 157.542969 123.96875 157.402344 123.933594 L 165.066406 112.808594 L 167.375 114.628906 Z M 169.683594 111.304688 L 168.179688 113.507812 L 165.871094 111.691406 L 167.375 109.519531 C 167.550781 109.277344 167.828125 109.101562 168.144531 109.066406 C 168.457031 109.03125 168.738281 109.101562 168.984375 109.277344 L 169.472656 109.660156 C 169.960938 110.011719 170.066406 110.746094 169.683594 111.304688 Z M 169.683594 111.304688 " fill-opacity="1" fill-rule="nonzero"/><path fill="#121256" d="M 136.273438 115.117188 C 136.414062 115.257812 136.589844 115.328125 136.765625 115.328125 C 136.941406 115.328125 137.113281 115.257812 137.253906 115.117188 L 138.164062 114.207031 L 139.074219 115.117188 C 139.214844 115.257812 139.386719 115.328125 139.5625 115.328125 C 139.738281 115.328125 139.914062 115.257812 140.054688 115.117188 C 140.332031 114.839844 140.332031 114.417969 140.054688 114.136719 L 139.179688 113.230469 L 140.089844 112.320312 C 140.367188 112.039062 140.367188 111.621094 140.089844 111.339844 C 139.808594 111.058594 139.386719 111.058594 139.109375 111.339844 L 138.199219 112.25 L 137.289062 111.339844 C 137.011719 111.058594 136.589844 111.058594 136.308594 111.339844 C 136.03125 111.621094 136.03125 112.039062 136.308594 112.320312 L 137.21875 113.230469 L 136.308594 114.136719 C 136.03125 114.417969 136.03125 114.839844 136.273438 115.117188 Z M 136.273438 115.117188 " fill-opacity="1" fill-rule="nonzero"/><path fill="#121256" d="M 150.582031 123.234375 C 150.304688 122.953125 149.882812 122.953125 149.601562 123.234375 L 148.695312 124.144531 L 147.785156 123.234375 C 147.503906 122.953125 147.085938 122.953125 146.804688 123.234375 C 146.523438 123.515625 146.523438 123.933594 146.804688 124.214844 L 147.714844 125.121094 L 146.804688 126.03125 C 146.523438 126.3125 146.523438 126.730469 146.804688 127.011719 C 146.945312 127.152344 147.121094 127.222656 147.292969 127.222656 C 147.46875 127.222656 147.644531 127.152344 147.785156 127.011719 L 148.695312 126.101562 L 149.601562 127.011719 C 149.742188 127.152344 149.917969 127.222656 150.09375 127.222656 C 150.269531 127.222656 150.441406 127.152344 150.582031 127.011719 C 150.863281 126.730469 150.863281 126.3125 150.582031 126.03125 L 149.671875 125.121094 L 150.582031 124.214844 C 150.828125 123.933594 150.828125 123.515625 150.582031 123.234375 Z M 150.582031 123.234375 " fill-opacity="1" fill-rule="nonzero"/><path fill="#121256" d="M 142.816406 120.820312 C 145.476562 119.070312 148.484375 117.113281 147.925781 111.515625 L 148.796875 112.285156 C 148.9375 112.390625 149.078125 112.460938 149.253906 112.460938 C 149.464844 112.460938 149.636719 112.390625 149.777344 112.214844 C 150.023438 111.933594 149.988281 111.480469 149.707031 111.234375 L 147.46875 109.277344 C 147.398438 109.207031 147.328125 109.171875 147.257812 109.136719 C 147.15625 109.101562 147.050781 109.066406 146.945312 109.101562 C 146.839844 109.101562 146.734375 109.136719 146.628906 109.207031 C 146.558594 109.242188 146.488281 109.277344 146.453125 109.347656 L 144.496094 111.585938 C 144.25 111.863281 144.285156 112.320312 144.566406 112.5625 C 144.707031 112.667969 144.847656 112.738281 145.019531 112.738281 C 145.230469 112.738281 145.40625 112.667969 145.546875 112.496094 L 146.453125 111.445312 C 147.015625 116.34375 144.671875 117.882812 141.976562 119.628906 C 139.492188 121.273438 136.660156 123.128906 136.941406 127.992188 C 135.996094 128.339844 135.296875 129.285156 135.296875 130.371094 C 135.296875 131.734375 136.378906 132.820312 137.746094 132.820312 C 139.109375 132.820312 140.191406 131.734375 140.191406 130.371094 C 140.191406 129.25 139.421875 128.304688 138.410156 128.027344 C 138.164062 123.898438 140.332031 122.464844 142.816406 120.820312 Z M 138.792969 130.371094 C 138.792969 130.964844 138.339844 131.417969 137.746094 131.417969 C 137.148438 131.417969 136.695312 130.964844 136.695312 130.371094 C 136.695312 129.777344 137.148438 129.320312 137.746094 129.320312 C 138.339844 129.320312 138.792969 129.777344 138.792969 130.371094 Z M 138.792969 130.371094 " fill-opacity="1" fill-rule="nonzero"/><path fill="#121256" d="M 152.4375 109.382812 C 152.4375 110.746094 153.519531 111.828125 154.886719 111.828125 C 156.25 111.828125 157.335938 110.746094 157.335938 109.382812 C 157.335938 108.015625 156.25 106.933594 154.886719 106.933594 C 153.519531 106.933594 152.4375 108.015625 152.4375 109.382812 Z M 155.933594 109.382812 C 155.933594 109.976562 155.480469 110.429688 154.886719 110.429688 C 154.289062 110.429688 153.835938 109.976562 153.835938 109.382812 C 153.835938 108.785156 154.289062 108.332031 154.886719 108.332031 C 155.480469 108.332031 155.933594 108.785156 155.933594 109.382812 Z M 155.933594 109.382812 " fill-opacity="1" fill-rule="nonzero"/><g clip-path="url(#2f7227d9fe)"><path fill="#ffffff" d="M 146.195312 95.683594 C 144.761719 95.683594 143.609375 96.769531 143.433594 98.132812 L 138.5 98.132812 C 137.730469 98.132812 137.101562 98.761719 137.101562 99.53125 L 137.101562 100.582031 L 132.9375 100.582031 C 131.75 100.582031 130.804688 101.527344 130.804688 102.714844 L 130.804688 138.328125 C 130.804688 139.515625 131.75 140.460938 132.9375 140.460938 L 159.457031 140.460938 C 160.644531 140.460938 161.589844 139.515625 161.589844 138.328125 L 161.589844 129.476562 C 161.589844 129.476562 161.554688 129.476562 161.554688 129.511719 L 160.191406 130.386719 L 160.191406 138.328125 C 160.191406 138.746094 159.875 139.0625 159.457031 139.0625 L 132.9375 139.0625 C 132.519531 139.0625 132.203125 138.746094 132.203125 138.328125 L 132.203125 102.714844 C 132.203125 102.296875 132.519531 101.980469 132.9375 101.980469 L 137.101562 101.980469 L 137.101562 103.03125 C 137.101562 103.800781 137.730469 104.429688 138.5 104.429688 L 153.894531 104.429688 C 154.664062 104.429688 155.292969 103.800781 155.292969 103.03125 L 155.292969 101.980469 L 159.457031 101.980469 C 159.875 101.980469 160.191406 102.296875 160.191406 102.714844 L 160.191406 116.742188 L 161.589844 114.714844 L 161.589844 102.714844 C 161.589844 101.527344 160.644531 100.582031 159.457031 100.582031 L 155.292969 100.582031 L 155.292969 99.53125 C 155.292969 98.761719 154.664062 98.132812 153.894531 98.132812 L 148.960938 98.132812 C 148.785156 96.769531 147.632812 95.683594 146.195312 95.683594 Z M 153.894531 103.03125 L 138.5 103.03125 L 138.5 99.53125 L 144.132812 99.53125 C 144.34375 99.53125 144.554688 99.425781 144.65625 99.289062 C 144.761719 99.148438 144.832031 98.902344 144.796875 98.726562 C 144.796875 98.621094 144.796875 98.554688 144.796875 98.484375 C 144.796875 97.714844 145.425781 97.082031 146.195312 97.082031 C 146.96875 97.082031 147.597656 97.714844 147.597656 98.484375 C 147.597656 98.554688 147.597656 98.621094 147.5625 98.691406 C 147.527344 98.902344 147.5625 99.113281 147.703125 99.253906 C 147.839844 99.390625 148.015625 99.496094 148.226562 99.496094 L 153.894531 99.53125 Z M 153.894531 103.03125 " fill-opacity="1" fill-rule="nonzero"/></g><g clip-path="url(#bc3e509c13)"><path fill="#ffffff" d="M 171.070312 109.1875 L 170.578125 108.800781 C 170.019531 108.382812 169.355469 108.207031 168.691406 108.3125 C 168.027344 108.417969 167.429688 108.765625 166.976562 109.328125 L 156.550781 124.472656 C 156.550781 124.507812 156.515625 124.507812 156.515625 124.542969 C 156.480469 124.578125 156.480469 124.578125 156.445312 124.613281 C 156.445312 124.613281 156.445312 124.648438 156.410156 124.648438 C 156.34375 124.71875 156.308594 124.789062 156.273438 124.894531 L 154.277344 131.15625 C 154.171875 131.4375 154.277344 131.75 154.523438 131.925781 C 154.664062 132.03125 154.804688 132.066406 154.941406 132.066406 C 155.082031 132.066406 155.222656 132.03125 155.328125 131.960938 L 160.785156 128.324219 C 160.890625 128.253906 160.996094 128.148438 161.03125 128.042969 C 161.066406 128.007812 161.132812 127.972656 161.167969 127.902344 L 171.558594 112.789062 C 172.398438 111.636719 172.1875 110.027344 171.070312 109.1875 Z M 157.707031 128.707031 L 156.761719 128.007812 L 157.425781 125.910156 C 157.460938 125.910156 157.53125 125.910156 157.566406 125.910156 C 157.601562 125.910156 157.671875 125.910156 157.671875 125.910156 L 157.707031 125.945312 C 157.707031 125.945312 157.742188 126.011719 157.742188 126.046875 C 157.8125 126.257812 157.882812 126.609375 158.300781 126.921875 C 158.722656 127.238281 159.070312 127.238281 159.28125 127.238281 C 159.316406 127.238281 159.386719 127.238281 159.386719 127.238281 L 159.421875 127.273438 C 159.421875 127.273438 159.457031 127.34375 159.457031 127.378906 C 159.457031 127.414062 159.492188 127.449219 159.492188 127.519531 Z M 156.308594 129.40625 L 156.445312 129.511719 L 156.203125 129.6875 Z M 160.503906 126.363281 C 160.433594 126.292969 160.363281 126.1875 160.261719 126.117188 C 159.839844 125.804688 159.492188 125.804688 159.28125 125.804688 C 159.246094 125.804688 159.175781 125.804688 159.175781 125.804688 L 159.140625 125.769531 C 159.140625 125.769531 159.105469 125.699219 159.105469 125.664062 C 159.035156 125.453125 158.964844 125.105469 158.546875 124.789062 C 158.40625 124.683594 158.300781 124.613281 158.160156 124.578125 L 165.820312 113.453125 L 168.132812 115.273438 Z M 170.441406 111.949219 L 168.933594 114.15625 L 166.625 112.335938 L 168.132812 110.167969 C 168.304688 109.921875 168.585938 109.746094 168.902344 109.710938 C 169.214844 109.675781 169.496094 109.746094 169.738281 109.921875 L 170.230469 110.308594 C 170.71875 110.65625 170.824219 111.390625 170.441406 111.949219 Z M 170.441406 111.949219 " fill-opacity="1" fill-rule="nonzero"/></g><path fill="#ffffff" d="M 137.03125 115.765625 C 137.171875 115.902344 137.347656 115.972656 137.523438 115.972656 C 137.695312 115.972656 137.871094 115.902344 138.011719 115.765625 L 138.921875 114.855469 L 139.832031 115.765625 C 139.96875 115.902344 140.144531 115.972656 140.320312 115.972656 C 140.496094 115.972656 140.671875 115.902344 140.808594 115.765625 C 141.089844 115.484375 141.089844 115.0625 140.808594 114.785156 L 139.933594 113.875 L 140.84375 112.964844 C 141.125 112.683594 141.125 112.265625 140.84375 111.984375 C 140.566406 111.707031 140.144531 111.707031 139.867188 111.984375 L 138.957031 112.894531 L 138.046875 111.984375 C 137.765625 111.707031 137.347656 111.707031 137.066406 111.984375 C 136.785156 112.265625 136.785156 112.683594 137.066406 112.964844 L 137.976562 113.875 L 137.066406 114.785156 C 136.785156 115.0625 136.785156 115.484375 137.03125 115.765625 Z M 137.03125 115.765625 " fill-opacity="1" fill-rule="nonzero"/><path fill="#ffffff" d="M 151.339844 123.878906 C 151.058594 123.601562 150.640625 123.601562 150.359375 123.878906 L 149.449219 124.789062 L 148.539062 123.878906 C 148.261719 123.601562 147.839844 123.601562 147.5625 123.878906 C 147.28125 124.160156 147.28125 124.578125 147.5625 124.859375 L 148.472656 125.769531 L 147.5625 126.679688 C 147.28125 126.957031 147.28125 127.378906 147.5625 127.65625 C 147.703125 127.796875 147.875 127.867188 148.050781 127.867188 C 148.226562 127.867188 148.402344 127.796875 148.539062 127.65625 L 149.449219 126.75 L 150.359375 127.65625 C 150.5 127.796875 150.675781 127.867188 150.851562 127.867188 C 151.023438 127.867188 151.199219 127.796875 151.339844 127.65625 C 151.621094 127.378906 151.621094 126.957031 151.339844 126.679688 L 150.429688 125.769531 L 151.339844 124.859375 C 151.585938 124.578125 151.585938 124.160156 151.339844 123.878906 Z M 151.339844 123.878906 " fill-opacity="1" fill-rule="nonzero"/><path fill="#ffffff" d="M 143.574219 121.464844 C 146.230469 119.71875 149.242188 117.757812 148.679688 112.160156 L 149.554688 112.929688 C 149.695312 113.035156 149.835938 113.105469 150.011719 113.105469 C 150.21875 113.105469 150.394531 113.035156 150.535156 112.859375 C 150.78125 112.582031 150.746094 112.125 150.464844 111.882812 L 148.226562 109.921875 C 148.15625 109.851562 148.085938 109.816406 148.015625 109.78125 C 147.910156 109.746094 147.804688 109.710938 147.703125 109.746094 C 147.597656 109.746094 147.492188 109.78125 147.386719 109.851562 C 147.316406 109.886719 147.246094 109.921875 147.210938 109.992188 L 145.253906 112.230469 C 145.007812 112.511719 145.042969 112.964844 145.324219 113.210938 C 145.460938 113.316406 145.601562 113.386719 145.777344 113.386719 C 145.988281 113.386719 146.164062 113.316406 146.300781 113.140625 L 147.210938 112.089844 C 147.769531 116.988281 145.425781 118.527344 142.734375 120.277344 C 140.25 121.921875 137.417969 123.773438 137.695312 128.636719 C 136.753906 128.988281 136.050781 129.929688 136.050781 131.015625 C 136.050781 132.378906 137.136719 133.464844 138.5 133.464844 C 139.867188 133.464844 140.949219 132.378906 140.949219 131.015625 C 140.949219 129.898438 140.179688 128.953125 139.164062 128.671875 C 138.921875 124.542969 141.089844 123.109375 143.574219 121.464844 Z M 139.550781 131.015625 C 139.550781 131.609375 139.097656 132.066406 138.5 132.066406 C 137.90625 132.066406 137.453125 131.609375 137.453125 131.015625 C 137.453125 130.421875 137.90625 129.964844 138.5 129.964844 C 139.097656 129.964844 139.550781 130.421875 139.550781 131.015625 Z M 139.550781 131.015625 " fill-opacity="1" fill-rule="nonzero"/><path fill="#ffffff" d="M 153.195312 110.027344 C 153.195312 111.390625 154.277344 112.476562 155.640625 112.476562 C 157.007812 112.476562 158.089844 111.390625 158.089844 110.027344 C 158.089844 108.664062 157.007812 107.578125 155.640625 107.578125 C 154.277344 107.578125 153.195312 108.664062 153.195312 110.027344 Z M 156.691406 110.027344 C 156.691406 110.621094 156.238281 111.078125 155.640625 111.078125 C 155.046875 111.078125 154.59375 110.621094 154.59375 110.027344 C 154.59375 109.433594 155.046875 108.976562 155.640625 108.976562 C 156.238281 108.976562 156.691406 109.433594 156.691406 110.027344 Z M 156.691406 110.027344 " fill-opacity="1" fill-rule="nonzero"/><g transform="matrix(1, 0, 0, 1, 39, 261)"><g clip-path="url(#5be502516a)"><g fill="#1c4790" fill-opacity="1"><g transform="translate(8.394907, 15.806875)"><g><path d="M 9.828125 -1.515625 C 9.441406 -0.953125 8.898438 -0.53125 8.203125 -0.25 C 7.503906 0.0195312 6.691406 0.15625 5.765625 0.15625 C 4.828125 0.15625 3.992188 -0.0625 3.265625 -0.5 C 2.535156 -0.9375 1.972656 -1.5625 1.578125 -2.375 C 1.179688 -3.1875 0.976562 -4.128906 0.96875 -5.203125 L 0.96875 -6.203125 C 0.96875 -7.941406 1.367188 -9.285156 2.171875 -10.234375 C 2.984375 -11.191406 4.125 -11.671875 5.59375 -11.671875 C 6.789062 -11.671875 7.753906 -11.363281 8.484375 -10.75 C 9.222656 -10.132812 9.671875 -9.265625 9.828125 -8.140625 L 8.3125 -8.140625 C 8.03125 -9.660156 7.125 -10.421875 5.59375 -10.421875 C 4.582031 -10.421875 3.8125 -10.0625 3.28125 -9.34375 C 2.757812 -8.632812 2.492188 -7.601562 2.484375 -6.25 L 2.484375 -5.296875 C 2.484375 -4.003906 2.78125 -2.976562 3.375 -2.21875 C 3.96875 -1.457031 4.765625 -1.078125 5.765625 -1.078125 C 6.335938 -1.078125 6.835938 -1.140625 7.265625 -1.265625 C 7.691406 -1.398438 8.046875 -1.613281 8.328125 -1.90625 L 8.328125 -4.5 L 5.65625 -4.5 L 5.65625 -5.734375 L 9.828125 -5.734375 Z M 9.828125 -1.515625 "/></g></g><g transform="translate(19.418836, 15.806875)"><g><path d="M 4.65625 0.15625 C 3.5 0.15625 2.554688 -0.222656 1.828125 -0.984375 C 1.097656 -1.742188 0.734375 -2.757812 0.734375 -4.03125 L 0.734375 -4.3125 C 0.734375 -5.15625 0.894531 -5.910156 1.21875 -6.578125 C 1.539062 -7.242188 1.992188 -7.765625 2.578125 -8.140625 C 3.160156 -8.515625 3.789062 -8.703125 4.46875 -8.703125 C 5.582031 -8.703125 6.445312 -8.335938 7.0625 -7.609375 C 7.675781 -6.878906 7.984375 -5.832031 7.984375 -4.46875 L 7.984375 -3.859375 L 2.203125 -3.859375 C 2.222656 -3.015625 2.46875 -2.332031 2.9375 -1.8125 C 3.40625 -1.289062 4.003906 -1.03125 4.734375 -1.03125 C 5.253906 -1.03125 5.691406 -1.132812 6.046875 -1.34375 C 6.398438 -1.5625 6.710938 -1.84375 6.984375 -2.1875 L 7.875 -1.5 C 7.164062 -0.394531 6.09375 0.15625 4.65625 0.15625 Z M 4.46875 -7.515625 C 3.882812 -7.515625 3.390625 -7.296875 2.984375 -6.859375 C 2.585938 -6.429688 2.34375 -5.832031 2.25 -5.0625 L 6.53125 -5.0625 L 6.53125 -5.171875 C 6.488281 -5.910156 6.285156 -6.484375 5.921875 -6.890625 C 5.566406 -7.304688 5.082031 -7.515625 4.46875 -7.515625 Z M 4.46875 -7.515625 "/></g></g><g transform="translate(27.993003, 15.806875)"><g><path d="M 3.09375 -10.625 L 3.09375 -8.546875 L 4.6875 -8.546875 L 4.6875 -7.421875 L 3.09375 -7.421875 L 3.09375 -2.125 C 3.09375 -1.78125 3.160156 -1.519531 3.296875 -1.34375 C 3.441406 -1.175781 3.6875 -1.09375 4.03125 -1.09375 C 4.195312 -1.09375 4.429688 -1.125 4.734375 -1.1875 L 4.734375 0 C 4.347656 0.101562 3.972656 0.15625 3.609375 0.15625 C 2.953125 0.15625 2.457031 -0.0390625 2.125 -0.4375 C 1.789062 -0.832031 1.625 -1.394531 1.625 -2.125 L 1.625 -7.421875 L 0.078125 -7.421875 L 0.078125 -8.546875 L 1.625 -8.546875 L 1.625 -10.625 Z M 3.09375 -10.625 "/></g></g><g transform="translate(33.279747, 15.806875)"><g/></g><g transform="translate(37.286293, 15.806875)"><g><path d="M 6.390625 0 C 6.304688 -0.164062 6.238281 -0.46875 6.1875 -0.90625 C 5.5 -0.195312 4.6875 0.15625 3.75 0.15625 C 2.90625 0.15625 2.210938 -0.078125 1.671875 -0.546875 C 1.128906 -1.023438 0.859375 -1.632812 0.859375 -2.375 C 0.859375 -3.257812 1.195312 -3.945312 1.875 -4.4375 C 2.550781 -4.9375 3.503906 -5.1875 4.734375 -5.1875 L 6.15625 -5.1875 L 6.15625 -5.859375 C 6.15625 -6.367188 6 -6.773438 5.6875 -7.078125 C 5.382812 -7.378906 4.9375 -7.53125 4.34375 -7.53125 C 3.820312 -7.53125 3.382812 -7.394531 3.03125 -7.125 C 2.675781 -6.863281 2.5 -6.550781 2.5 -6.1875 L 1.03125 -6.1875 C 1.03125 -6.613281 1.179688 -7.023438 1.484375 -7.421875 C 1.785156 -7.816406 2.195312 -8.128906 2.71875 -8.359375 C 3.238281 -8.585938 3.8125 -8.703125 4.4375 -8.703125 C 5.414062 -8.703125 6.1875 -8.457031 6.75 -7.96875 C 7.3125 -7.476562 7.601562 -6.800781 7.625 -5.9375 L 7.625 -2 C 7.625 -1.21875 7.722656 -0.59375 7.921875 -0.125 L 7.921875 0 Z M 3.953125 -1.109375 C 4.410156 -1.109375 4.84375 -1.226562 5.25 -1.46875 C 5.664062 -1.707031 5.96875 -2.015625 6.15625 -2.390625 L 6.15625 -4.15625 L 5.015625 -4.15625 C 3.222656 -4.15625 2.328125 -3.628906 2.328125 -2.578125 C 2.328125 -2.117188 2.476562 -1.757812 2.78125 -1.5 C 3.082031 -1.238281 3.472656 -1.109375 3.953125 -1.109375 Z M 3.953125 -1.109375 "/></g></g><g transform="translate(46.089631, 15.806875)"><g/></g><g transform="translate(50.096177, 15.806875)"><g><path d="M 6.09375 -2.265625 C 6.09375 -2.660156 5.941406 -2.96875 5.640625 -3.1875 C 5.335938 -3.40625 4.816406 -3.59375 4.078125 -3.75 C 3.335938 -3.90625 2.75 -4.09375 2.3125 -4.3125 C 1.882812 -4.539062 1.566406 -4.804688 1.359375 -5.109375 C 1.148438 -5.421875 1.046875 -5.785156 1.046875 -6.203125 C 1.046875 -6.898438 1.34375 -7.488281 1.9375 -7.96875 C 2.53125 -8.457031 3.285156 -8.703125 4.203125 -8.703125 C 5.171875 -8.703125 5.957031 -8.453125 6.5625 -7.953125 C 7.164062 -7.453125 7.46875 -6.8125 7.46875 -6.03125 L 6 -6.03125 C 6 -6.4375 5.828125 -6.785156 5.484375 -7.078125 C 5.148438 -7.367188 4.722656 -7.515625 4.203125 -7.515625 C 3.671875 -7.515625 3.253906 -7.394531 2.953125 -7.15625 C 2.648438 -6.925781 2.5 -6.625 2.5 -6.25 C 2.5 -5.894531 2.640625 -5.628906 2.921875 -5.453125 C 3.203125 -5.273438 3.707031 -5.101562 4.4375 -4.9375 C 5.164062 -4.769531 5.753906 -4.570312 6.203125 -4.34375 C 6.660156 -4.125 7 -3.851562 7.21875 -3.53125 C 7.4375 -3.21875 7.546875 -2.832031 7.546875 -2.375 C 7.546875 -1.601562 7.238281 -0.988281 6.625 -0.53125 C 6.019531 -0.0703125 5.226562 0.15625 4.25 0.15625 C 3.5625 0.15625 2.953125 0.0351562 2.421875 -0.203125 C 1.898438 -0.441406 1.488281 -0.78125 1.1875 -1.21875 C 0.894531 -1.65625 0.75 -2.125 0.75 -2.625 L 2.21875 -2.625 C 2.238281 -2.132812 2.429688 -1.742188 2.796875 -1.453125 C 3.160156 -1.171875 3.644531 -1.03125 4.25 -1.03125 C 4.800781 -1.03125 5.242188 -1.140625 5.578125 -1.359375 C 5.921875 -1.585938 6.09375 -1.890625 6.09375 -2.265625 Z M 6.09375 -2.265625 "/></g></g><g transform="translate(58.441173, 15.806875)"><g><path d="M 2.484375 -8.546875 L 2.515625 -7.609375 C 3.148438 -8.335938 4 -8.703125 5.0625 -8.703125 C 6.257812 -8.703125 7.070312 -8.242188 7.5 -7.328125 C 7.78125 -7.742188 8.148438 -8.078125 8.609375 -8.328125 C 9.066406 -8.578125 9.609375 -8.703125 10.234375 -8.703125 C 12.109375 -8.703125 13.0625 -7.710938 13.09375 -5.734375 L 13.09375 0 L 11.625 0 L 11.625 -5.640625 C 11.625 -6.253906 11.484375 -6.710938 11.203125 -7.015625 C 10.921875 -7.316406 10.453125 -7.46875 9.796875 -7.46875 C 9.253906 -7.46875 8.800781 -7.304688 8.4375 -6.984375 C 8.082031 -6.660156 7.878906 -6.222656 7.828125 -5.671875 L 7.828125 0 L 6.359375 0 L 6.359375 -5.609375 C 6.359375 -6.847656 5.75 -7.46875 4.53125 -7.46875 C 3.570312 -7.46875 2.914062 -7.0625 2.5625 -6.25 L 2.5625 0 L 1.09375 0 L 1.09375 -8.546875 Z M 2.484375 -8.546875 "/></g></g><g transform="translate(72.626085, 15.806875)"><g><path d="M 6.390625 0 C 6.304688 -0.164062 6.238281 -0.46875 6.1875 -0.90625 C 5.5 -0.195312 4.6875 0.15625 3.75 0.15625 C 2.90625 0.15625 2.210938 -0.078125 1.671875 -0.546875 C 1.128906 -1.023438 0.859375 -1.632812 0.859375 -2.375 C 0.859375 -3.257812 1.195312 -3.945312 1.875 -4.4375 C 2.550781 -4.9375 3.503906 -5.1875 4.734375 -5.1875 L 6.15625 -5.1875 L 6.15625 -5.859375 C 6.15625 -6.367188 6 -6.773438 5.6875 -7.078125 C 5.382812 -7.378906 4.9375 -7.53125 4.34375 -7.53125 C 3.820312 -7.53125 3.382812 -7.394531 3.03125 -7.125 C 2.675781 -6.863281 2.5 -6.550781 2.5 -6.1875 L 1.03125 -6.1875 C 1.03125 -6.613281 1.179688 -7.023438 1.484375 -7.421875 C 1.785156 -7.816406 2.195312 -8.128906 2.71875 -8.359375 C 3.238281 -8.585938 3.8125 -8.703125 4.4375 -8.703125 C 5.414062 -8.703125 6.1875 -8.457031 6.75 -7.96875 C 7.3125 -7.476562 7.601562 -6.800781 7.625 -5.9375 L 7.625 -2 C 7.625 -1.21875 7.722656 -0.59375 7.921875 -0.125 L 7.921875 0 Z M 3.953125 -1.109375 C 4.410156 -1.109375 4.84375 -1.226562 5.25 -1.46875 C 5.664062 -1.707031 5.96875 -2.015625 6.15625 -2.390625 L 6.15625 -4.15625 L 5.015625 -4.15625 C 3.222656 -4.15625 2.328125 -3.628906 2.328125 -2.578125 C 2.328125 -2.117188 2.476562 -1.757812 2.78125 -1.5 C 3.082031 -1.238281 3.472656 -1.109375 3.953125 -1.109375 Z M 3.953125 -1.109375 "/></g></g><g transform="translate(81.429423, 15.806875)"><g><path d="M 5.234375 -7.234375 C 5.015625 -7.273438 4.773438 -7.296875 4.515625 -7.296875 C 3.554688 -7.296875 2.90625 -6.890625 2.5625 -6.078125 L 2.5625 0 L 1.109375 0 L 1.109375 -8.546875 L 2.53125 -8.546875 L 2.546875 -7.5625 C 3.023438 -8.320312 3.707031 -8.703125 4.59375 -8.703125 C 4.875 -8.703125 5.085938 -8.664062 5.234375 -8.59375 Z M 5.234375 -7.234375 "/></g></g><g transform="translate(86.905826, 15.806875)"><g><path d="M 3.09375 -10.625 L 3.09375 -8.546875 L 4.6875 -8.546875 L 4.6875 -7.421875 L 3.09375 -7.421875 L 3.09375 -2.125 C 3.09375 -1.78125 3.160156 -1.519531 3.296875 -1.34375 C 3.441406 -1.175781 3.6875 -1.09375 4.03125 -1.09375 C 4.195312 -1.09375 4.429688 -1.125 4.734375 -1.1875 L 4.734375 0 C 4.347656 0.101562 3.972656 0.15625 3.609375 0.15625 C 2.953125 0.15625 2.457031 -0.0390625 2.125 -0.4375 C 1.789062 -0.832031 1.625 -1.394531 1.625 -2.125 L 1.625 -7.421875 L 0.078125 -7.421875 L 0.078125 -8.546875 L 1.625 -8.546875 L 1.625 -10.625 Z M 3.09375 -10.625 "/></g></g><g transform="translate(92.192571, 15.806875)"><g/></g><g transform="translate(96.199117, 15.806875)"><g><path d="M 6.09375 -2.265625 C 6.09375 -2.660156 5.941406 -2.96875 5.640625 -3.1875 C 5.335938 -3.40625 4.816406 -3.59375 4.078125 -3.75 C 3.335938 -3.90625 2.75 -4.09375 2.3125 -4.3125 C 1.882812 -4.539062 1.566406 -4.804688 1.359375 -5.109375 C 1.148438 -5.421875 1.046875 -5.785156 1.046875 -6.203125 C 1.046875 -6.898438 1.34375 -7.488281 1.9375 -7.96875 C 2.53125 -8.457031 3.285156 -8.703125 4.203125 -8.703125 C 5.171875 -8.703125 5.957031 -8.453125 6.5625 -7.953125 C 7.164062 -7.453125 7.46875 -6.8125 7.46875 -6.03125 L 6 -6.03125 C 6 -6.4375 5.828125 -6.785156 5.484375 -7.078125 C 5.148438 -7.367188 4.722656 -7.515625 4.203125 -7.515625 C 3.671875 -7.515625 3.253906 -7.394531 2.953125 -7.15625 C 2.648438 -6.925781 2.5 -6.625 2.5 -6.25 C 2.5 -5.894531 2.640625 -5.628906 2.921875 -5.453125 C 3.203125 -5.273438 3.707031 -5.101562 4.4375 -4.9375 C 5.164062 -4.769531 5.753906 -4.570312 6.203125 -4.34375 C 6.660156 -4.125 7 -3.851562 7.21875 -3.53125 C 7.4375 -3.21875 7.546875 -2.832031 7.546875 -2.375 C 7.546875 -1.601562 7.238281 -0.988281 6.625 -0.53125 C 6.019531 -0.0703125 5.226562 0.15625 4.25 0.15625 C 3.5625 0.15625 2.953125 0.0351562 2.421875 -0.203125 C 1.898438 -0.441406 1.488281 -0.78125 1.1875 -1.21875 C 0.894531 -1.65625 0.75 -2.125 0.75 -2.625 L 2.21875 -2.625 C 2.238281 -2.132812 2.429688 -1.742188 2.796875 -1.453125 C 3.160156 -1.171875 3.644531 -1.03125 4.25 -1.03125 C 4.800781 -1.03125 5.242188 -1.140625 5.578125 -1.359375 C 5.921875 -1.585938 6.09375 -1.890625 6.09375 -2.265625 Z M 6.09375 -2.265625 "/></g></g><g transform="translate(104.544113, 15.806875)"><g><path d="M 3.09375 -10.625 L 3.09375 -8.546875 L 4.6875 -8.546875 L 4.6875 -7.421875 L 3.09375 -7.421875 L 3.09375 -2.125 C 3.09375 -1.78125 3.160156 -1.519531 3.296875 -1.34375 C 3.441406 -1.175781 3.6875 -1.09375 4.03125 -1.09375 C 4.195312 -1.09375 4.429688 -1.125 4.734375 -1.1875 L 4.734375 0 C 4.347656 0.101562 3.972656 0.15625 3.609375 0.15625 C 2.953125 0.15625 2.457031 -0.0390625 2.125 -0.4375 C 1.789062 -0.832031 1.625 -1.394531 1.625 -2.125 L 1.625 -7.421875 L 0.078125 -7.421875 L 0.078125 -8.546875 L 1.625 -8.546875 L 1.625 -10.625 Z M 3.09375 -10.625 "/></g></g><g transform="translate(109.830857, 15.806875)"><g><path d="M 6.390625 -0.84375 C 5.816406 -0.175781 4.976562 0.15625 3.875 0.15625 C 2.96875 0.15625 2.273438 -0.109375 1.796875 -0.640625 C 1.316406 -1.171875 1.078125 -1.953125 1.078125 -2.984375 L 1.078125 -8.546875 L 2.53125 -8.546875 L 2.53125 -3.03125 C 2.53125 -1.726562 3.0625 -1.078125 4.125 -1.078125 C 5.238281 -1.078125 5.976562 -1.492188 6.34375 -2.328125 L 6.34375 -8.546875 L 7.8125 -8.546875 L 7.8125 0 L 6.421875 0 Z M 6.390625 -0.84375 "/></g></g><g transform="translate(118.752732, 15.806875)"><g><path d="M 0.75 -4.34375 C 0.75 -5.65625 1.054688 -6.707031 1.671875 -7.5 C 2.296875 -8.300781 3.113281 -8.703125 4.125 -8.703125 C 5.125 -8.703125 5.914062 -8.363281 6.5 -7.6875 L 6.5 -12.140625 L 7.96875 -12.140625 L 7.96875 0 L 6.625 0 L 6.546875 -0.921875 C 5.960938 -0.203125 5.148438 0.15625 4.109375 0.15625 C 3.117188 0.15625 2.3125 -0.25 1.6875 -1.0625 C 1.0625 -1.875 0.75 -2.929688 0.75 -4.234375 Z M 2.21875 -4.1875 C 2.21875 -3.21875 2.414062 -2.457031 2.8125 -1.90625 C 3.21875 -1.351562 3.769531 -1.078125 4.46875 -1.078125 C 5.394531 -1.078125 6.070312 -1.492188 6.5 -2.328125 L 6.5 -6.265625 C 6.0625 -7.066406 5.390625 -7.46875 4.484375 -7.46875 C 3.773438 -7.46875 3.21875 -7.191406 2.8125 -6.640625 C 2.414062 -6.085938 2.21875 -5.269531 2.21875 -4.1875 Z M 2.21875 -4.1875 "/></g></g><g transform="translate(127.880071, 15.806875)"><g><path d="M 3.90625 -2.140625 L 5.890625 -8.546875 L 7.46875 -8.546875 L 4.015625 1.3125 C 3.484375 2.738281 2.640625 3.453125 1.484375 3.453125 L 1.203125 3.4375 L 0.65625 3.328125 L 0.65625 2.140625 L 1.0625 2.171875 C 1.550781 2.171875 1.929688 2.070312 2.203125 1.875 C 2.484375 1.675781 2.71875 1.3125 2.90625 0.78125 L 3.21875 -0.09375 L 0.171875 -8.546875 L 1.765625 -8.546875 Z M 3.90625 -2.140625 "/></g></g></g><g fill="#1c4790" fill-opacity="1"><g transform="translate(0.502986, 38.060197)"><g><path d="M 8.328125 -4.1875 C 8.328125 -2.882812 8.03125 -1.832031 7.4375 -1.03125 C 6.84375 -0.238281 6.035156 0.15625 5.015625 0.15625 C 3.984375 0.15625 3.164062 -0.171875 2.5625 -0.828125 L 2.5625 3.28125 L 1.109375 3.28125 L 1.109375 -8.546875 L 2.4375 -8.546875 L 2.515625 -7.609375 C 3.109375 -8.335938 3.9375 -8.703125 5 -8.703125 C 6.019531 -8.703125 6.828125 -8.316406 7.421875 -7.546875 C 8.023438 -6.773438 8.328125 -5.695312 8.328125 -4.3125 Z M 6.875 -4.34375 C 6.875 -5.3125 6.664062 -6.070312 6.25 -6.625 C 5.84375 -7.1875 5.28125 -7.46875 4.5625 -7.46875 C 3.675781 -7.46875 3.007812 -7.078125 2.5625 -6.296875 L 2.5625 -2.203125 C 3 -1.421875 3.671875 -1.03125 4.578125 -1.03125 C 5.273438 -1.03125 5.832031 -1.304688 6.25 -1.859375 C 6.664062 -2.421875 6.875 -3.25 6.875 -4.34375 Z M 6.875 -4.34375 "/></g></g><g transform="translate(9.58291, 38.060197)"><g><path d="M 2.6875 0 L 1.234375 0 L 1.234375 -12.140625 L 2.6875 -12.140625 Z M 2.6875 0 "/></g></g><g transform="translate(13.510432, 38.060197)"><g><path d="M 6.390625 0 C 6.304688 -0.164062 6.238281 -0.46875 6.1875 -0.90625 C 5.5 -0.195312 4.6875 0.15625 3.75 0.15625 C 2.90625 0.15625 2.210938 -0.078125 1.671875 -0.546875 C 1.128906 -1.023438 0.859375 -1.632812 0.859375 -2.375 C 0.859375 -3.257812 1.195312 -3.945312 1.875 -4.4375 C 2.550781 -4.9375 3.503906 -5.1875 4.734375 -5.1875 L 6.15625 -5.1875 L 6.15625 -5.859375 C 6.15625 -6.367188 6 -6.773438 5.6875 -7.078125 C 5.382812 -7.378906 4.9375 -7.53125 4.34375 -7.53125 C 3.820312 -7.53125 3.382812 -7.394531 3.03125 -7.125 C 2.675781 -6.863281 2.5 -6.550781 2.5 -6.1875 L 1.03125 -6.1875 C 1.03125 -6.613281 1.179688 -7.023438 1.484375 -7.421875 C 1.785156 -7.816406 2.195312 -8.128906 2.71875 -8.359375 C 3.238281 -8.585938 3.8125 -8.703125 4.4375 -8.703125 C 5.414062 -8.703125 6.1875 -8.457031 6.75 -7.96875 C 7.3125 -7.476562 7.601562 -6.800781 7.625 -5.9375 L 7.625 -2 C 7.625 -1.21875 7.722656 -0.59375 7.921875 -0.125 L 7.921875 0 Z M 3.953125 -1.109375 C 4.410156 -1.109375 4.84375 -1.226562 5.25 -1.46875 C 5.664062 -1.707031 5.96875 -2.015625 6.15625 -2.390625 L 6.15625 -4.15625 L 5.015625 -4.15625 C 3.222656 -4.15625 2.328125 -3.628906 2.328125 -2.578125 C 2.328125 -2.117188 2.476562 -1.757812 2.78125 -1.5 C 3.082031 -1.238281 3.472656 -1.109375 3.953125 -1.109375 Z M 3.953125 -1.109375 "/></g></g><g transform="translate(22.31377, 38.060197)"><g><path d="M 2.484375 -8.546875 L 2.53125 -7.484375 C 3.1875 -8.296875 4.039062 -8.703125 5.09375 -8.703125 C 6.90625 -8.703125 7.816406 -7.6875 7.828125 -5.65625 L 7.828125 0 L 6.375 0 L 6.375 -5.65625 C 6.363281 -6.269531 6.21875 -6.722656 5.9375 -7.015625 C 5.664062 -7.316406 5.238281 -7.46875 4.65625 -7.46875 C 4.175781 -7.46875 3.757812 -7.335938 3.40625 -7.078125 C 3.050781 -6.828125 2.769531 -6.5 2.5625 -6.09375 L 2.5625 0 L 1.109375 0 L 1.109375 -8.546875 Z M 2.484375 -8.546875 "/></g></g><g transform="translate(31.243547, 38.060197)"><g/></g><g transform="translate(35.250093, 38.060197)"><g><path d="M 3.09375 -10.625 L 3.09375 -8.546875 L 4.6875 -8.546875 L 4.6875 -7.421875 L 3.09375 -7.421875 L 3.09375 -2.125 C 3.09375 -1.78125 3.160156 -1.519531 3.296875 -1.34375 C 3.441406 -1.175781 3.6875 -1.09375 4.03125 -1.09375 C 4.195312 -1.09375 4.429688 -1.125 4.734375 -1.1875 L 4.734375 0 C 4.347656 0.101562 3.972656 0.15625 3.609375 0.15625 C 2.953125 0.15625 2.457031 -0.0390625 2.125 -0.4375 C 1.789062 -0.832031 1.625 -1.394531 1.625 -2.125 L 1.625 -7.421875 L 0.078125 -7.421875 L 0.078125 -8.546875 L 1.625 -8.546875 L 1.625 -10.625 Z M 3.09375 -10.625 "/></g></g><g transform="translate(40.536838, 38.060197)"><g><path d="M 6.390625 0 C 6.304688 -0.164062 6.238281 -0.46875 6.1875 -0.90625 C 5.5 -0.195312 4.6875 0.15625 3.75 0.15625 C 2.90625 0.15625 2.210938 -0.078125 1.671875 -0.546875 C 1.128906 -1.023438 0.859375 -1.632812 0.859375 -2.375 C 0.859375 -3.257812 1.195312 -3.945312 1.875 -4.4375 C 2.550781 -4.9375 3.503906 -5.1875 4.734375 -5.1875 L 6.15625 -5.1875 L 6.15625 -5.859375 C 6.15625 -6.367188 6 -6.773438 5.6875 -7.078125 C 5.382812 -7.378906 4.9375 -7.53125 4.34375 -7.53125 C 3.820312 -7.53125 3.382812 -7.394531 3.03125 -7.125 C 2.675781 -6.863281 2.5 -6.550781 2.5 -6.1875 L 1.03125 -6.1875 C 1.03125 -6.613281 1.179688 -7.023438 1.484375 -7.421875 C 1.785156 -7.816406 2.195312 -8.128906 2.71875 -8.359375 C 3.238281 -8.585938 3.8125 -8.703125 4.4375 -8.703125 C 5.414062 -8.703125 6.1875 -8.457031 6.75 -7.96875 C 7.3125 -7.476562 7.601562 -6.800781 7.625 -5.9375 L 7.625 -2 C 7.625 -1.21875 7.722656 -0.59375 7.921875 -0.125 L 7.921875 0 Z M 3.953125 -1.109375 C 4.410156 -1.109375 4.84375 -1.226562 5.25 -1.46875 C 5.664062 -1.707031 5.96875 -2.015625 6.15625 -2.390625 L 6.15625 -4.15625 L 5.015625 -4.15625 C 3.222656 -4.15625 2.328125 -3.628906 2.328125 -2.578125 C 2.328125 -2.117188 2.476562 -1.757812 2.78125 -1.5 C 3.082031 -1.238281 3.472656 -1.109375 3.953125 -1.109375 Z M 3.953125 -1.109375 "/></g></g><g transform="translate(49.340176, 38.060197)"><g><path d="M 2.6875 0 L 1.234375 0 L 1.234375 -8.546875 L 2.6875 -8.546875 Z M 1.109375 -10.828125 C 1.109375 -11.054688 1.179688 -11.253906 1.328125 -11.421875 C 1.472656 -11.585938 1.6875 -11.671875 1.96875 -11.671875 C 2.257812 -11.671875 2.476562 -11.585938 2.625 -11.421875 C 2.769531 -11.253906 2.84375 -11.050781 2.84375 -10.8125 C 2.84375 -10.582031 2.769531 -10.382812 2.625 -10.21875 C 2.476562 -10.0625 2.257812 -9.984375 1.96875 -9.984375 C 1.6875 -9.984375 1.472656 -10.0625 1.328125 -10.21875 C 1.179688 -10.382812 1.109375 -10.585938 1.109375 -10.828125 Z M 1.109375 -10.828125 "/></g></g><g transform="translate(53.267697, 38.060197)"><g><path d="M 2.6875 0 L 1.234375 0 L 1.234375 -12.140625 L 2.6875 -12.140625 Z M 2.6875 0 "/></g></g><g transform="translate(57.195219, 38.060197)"><g><path d="M 0.71875 -4.359375 C 0.71875 -5.191406 0.878906 -5.941406 1.203125 -6.609375 C 1.535156 -7.285156 1.992188 -7.800781 2.578125 -8.15625 C 3.171875 -8.519531 3.84375 -8.703125 4.59375 -8.703125 C 5.757812 -8.703125 6.703125 -8.300781 7.421875 -7.5 C 8.140625 -6.695312 8.5 -5.625 8.5 -4.28125 L 8.5 -4.1875 C 8.5 -3.351562 8.335938 -2.601562 8.015625 -1.9375 C 7.703125 -1.28125 7.25 -0.765625 6.65625 -0.390625 C 6.0625 -0.0234375 5.378906 0.15625 4.609375 0.15625 C 3.453125 0.15625 2.515625 -0.242188 1.796875 -1.046875 C 1.078125 -1.859375 0.71875 -2.925781 0.71875 -4.25 Z M 2.1875 -4.1875 C 2.1875 -3.238281 2.40625 -2.472656 2.84375 -1.890625 C 3.289062 -1.316406 3.878906 -1.03125 4.609375 -1.03125 C 5.359375 -1.03125 5.953125 -1.320312 6.390625 -1.90625 C 6.828125 -2.488281 7.046875 -3.304688 7.046875 -4.359375 C 7.046875 -5.296875 6.820312 -6.054688 6.375 -6.640625 C 5.925781 -7.222656 5.332031 -7.515625 4.59375 -7.515625 C 3.875 -7.515625 3.289062 -7.222656 2.84375 -6.640625 C 2.40625 -6.066406 2.1875 -5.25 2.1875 -4.1875 Z M 2.1875 -4.1875 "/></g></g><g transform="translate(66.42529, 38.060197)"><g><path d="M 5.234375 -7.234375 C 5.015625 -7.273438 4.773438 -7.296875 4.515625 -7.296875 C 3.554688 -7.296875 2.90625 -6.890625 2.5625 -6.078125 L 2.5625 0 L 1.109375 0 L 1.109375 -8.546875 L 2.53125 -8.546875 L 2.546875 -7.5625 C 3.023438 -8.320312 3.707031 -8.703125 4.59375 -8.703125 C 4.875 -8.703125 5.085938 -8.664062 5.234375 -8.59375 Z M 5.234375 -7.234375 "/></g></g><g transform="translate(71.901693, 38.060197)"><g><path d="M 4.65625 0.15625 C 3.5 0.15625 2.554688 -0.222656 1.828125 -0.984375 C 1.097656 -1.742188 0.734375 -2.757812 0.734375 -4.03125 L 0.734375 -4.3125 C 0.734375 -5.15625 0.894531 -5.910156 1.21875 -6.578125 C 1.539062 -7.242188 1.992188 -7.765625 2.578125 -8.140625 C 3.160156 -8.515625 3.789062 -8.703125 4.46875 -8.703125 C 5.582031 -8.703125 6.445312 -8.335938 7.0625 -7.609375 C 7.675781 -6.878906 7.984375 -5.832031 7.984375 -4.46875 L 7.984375 -3.859375 L 2.203125 -3.859375 C 2.222656 -3.015625 2.46875 -2.332031 2.9375 -1.8125 C 3.40625 -1.289062 4.003906 -1.03125 4.734375 -1.03125 C 5.253906 -1.03125 5.691406 -1.132812 6.046875 -1.34375 C 6.398438 -1.5625 6.710938 -1.84375 6.984375 -2.1875 L 7.875 -1.5 C 7.164062 -0.394531 6.09375 0.15625 4.65625 0.15625 Z M 4.46875 -7.515625 C 3.882812 -7.515625 3.390625 -7.296875 2.984375 -6.859375 C 2.585938 -6.429688 2.34375 -5.832031 2.25 -5.0625 L 6.53125 -5.0625 L 6.53125 -5.171875 C 6.488281 -5.910156 6.285156 -6.484375 5.921875 -6.890625 C 5.566406 -7.304688 5.082031 -7.515625 4.46875 -7.515625 Z M 4.46875 -7.515625 "/></g></g><g transform="translate(80.47586, 38.060197)"><g><path d="M 0.75 -4.34375 C 0.75 -5.65625 1.054688 -6.707031 1.671875 -7.5 C 2.296875 -8.300781 3.113281 -8.703125 4.125 -8.703125 C 5.125 -8.703125 5.914062 -8.363281 6.5 -7.6875 L 6.5 -12.140625 L 7.96875 -12.140625 L 7.96875 0 L 6.625 0 L 6.546875 -0.921875 C 5.960938 -0.203125 5.148438 0.15625 4.109375 0.15625 C 3.117188 0.15625 2.3125 -0.25 1.6875 -1.0625 C 1.0625 -1.875 0.75 -2.929688 0.75 -4.234375 Z M 2.21875 -4.1875 C 2.21875 -3.21875 2.414062 -2.457031 2.8125 -1.90625 C 3.21875 -1.351562 3.769531 -1.078125 4.46875 -1.078125 C 5.394531 -1.078125 6.070312 -1.492188 6.5 -2.328125 L 6.5 -6.265625 C 6.0625 -7.066406 5.390625 -7.46875 4.484375 -7.46875 C 3.773438 -7.46875 3.21875 -7.191406 2.8125 -6.640625 C 2.414062 -6.085938 2.21875 -5.269531 2.21875 -4.1875 Z M 2.21875 -4.1875 "/></g></g><g transform="translate(89.603199, 38.060197)"><g/></g><g transform="translate(93.609745, 38.060197)"><g><path d="M 3.09375 -10.625 L 3.09375 -8.546875 L 4.6875 -8.546875 L 4.6875 -7.421875 L 3.09375 -7.421875 L 3.09375 -2.125 C 3.09375 -1.78125 3.160156 -1.519531 3.296875 -1.34375 C 3.441406 -1.175781 3.6875 -1.09375 4.03125 -1.09375 C 4.195312 -1.09375 4.429688 -1.125 4.734375 -1.1875 L 4.734375 0 C 4.347656 0.101562 3.972656 0.15625 3.609375 0.15625 C 2.953125 0.15625 2.457031 -0.0390625 2.125 -0.4375 C 1.789062 -0.832031 1.625 -1.394531 1.625 -2.125 L 1.625 -7.421875 L 0.078125 -7.421875 L 0.078125 -8.546875 L 1.625 -8.546875 L 1.625 -10.625 Z M 3.09375 -10.625 "/></g></g><g transform="translate(98.896489, 38.060197)"><g><path d="M 0.71875 -4.359375 C 0.71875 -5.191406 0.878906 -5.941406 1.203125 -6.609375 C 1.535156 -7.285156 1.992188 -7.800781 2.578125 -8.15625 C 3.171875 -8.519531 3.84375 -8.703125 4.59375 -8.703125 C 5.757812 -8.703125 6.703125 -8.300781 7.421875 -7.5 C 8.140625 -6.695312 8.5 -5.625 8.5 -4.28125 L 8.5 -4.1875 C 8.5 -3.351562 8.335938 -2.601562 8.015625 -1.9375 C 7.703125 -1.28125 7.25 -0.765625 6.65625 -0.390625 C 6.0625 -0.0234375 5.378906 0.15625 4.609375 0.15625 C 3.453125 0.15625 2.515625 -0.242188 1.796875 -1.046875 C 1.078125 -1.859375 0.71875 -2.925781 0.71875 -4.25 Z M 2.1875 -4.1875 C 2.1875 -3.238281 2.40625 -2.472656 2.84375 -1.890625 C 3.289062 -1.316406 3.878906 -1.03125 4.609375 -1.03125 C 5.359375 -1.03125 5.953125 -1.320312 6.390625 -1.90625 C 6.828125 -2.488281 7.046875 -3.304688 7.046875 -4.359375 C 7.046875 -5.296875 6.820312 -6.054688 6.375 -6.640625 C 5.925781 -7.222656 5.332031 -7.515625 4.59375 -7.515625 C 3.875 -7.515625 3.289062 -7.222656 2.84375 -6.640625 C 2.40625 -6.066406 2.1875 -5.25 2.1875 -4.1875 Z M 2.1875 -4.1875 "/></g></g><g transform="translate(108.12656, 38.060197)"><g/></g><g transform="translate(112.133106, 38.060197)"><g><path d="M 3.90625 -2.140625 L 5.890625 -8.546875 L 7.46875 -8.546875 L 4.015625 1.3125 C 3.484375 2.738281 2.640625 3.453125 1.484375 3.453125 L 1.203125 3.4375 L 0.65625 3.328125 L 0.65625 2.140625 L 1.0625 2.171875 C 1.550781 2.171875 1.929688 2.070312 2.203125 1.875 C 2.484375 1.675781 2.71875 1.3125 2.90625 0.78125 L 3.21875 -0.09375 L 0.171875 -8.546875 L 1.765625 -8.546875 Z M 3.90625 -2.140625 "/></g></g><g transform="translate(119.790588, 38.060197)"><g><path d="M 0.71875 -4.359375 C 0.71875 -5.191406 0.878906 -5.941406 1.203125 -6.609375 C 1.535156 -7.285156 1.992188 -7.800781 2.578125 -8.15625 C 3.171875 -8.519531 3.84375 -8.703125 4.59375 -8.703125 C 5.757812 -8.703125 6.703125 -8.300781 7.421875 -7.5 C 8.140625 -6.695312 8.5 -5.625 8.5 -4.28125 L 8.5 -4.1875 C 8.5 -3.351562 8.335938 -2.601562 8.015625 -1.9375 C 7.703125 -1.28125 7.25 -0.765625 6.65625 -0.390625 C 6.0625 -0.0234375 5.378906 0.15625 4.609375 0.15625 C 3.453125 0.15625 2.515625 -0.242188 1.796875 -1.046875 C 1.078125 -1.859375 0.71875 -2.925781 0.71875 -4.25 Z M 2.1875 -4.1875 C 2.1875 -3.238281 2.40625 -2.472656 2.84375 -1.890625 C 3.289062 -1.316406 3.878906 -1.03125 4.609375 -1.03125 C 5.359375 -1.03125 5.953125 -1.320312 6.390625 -1.90625 C 6.828125 -2.488281 7.046875 -3.304688 7.046875 -4.359375 C 7.046875 -5.296875 6.820312 -6.054688 6.375 -6.640625 C 5.925781 -7.222656 5.332031 -7.515625 4.59375 -7.515625 C 3.875 -7.515625 3.289062 -7.222656 2.84375 -6.640625 C 2.40625 -6.066406 2.1875 -5.25 2.1875 -4.1875 Z M 2.1875 -4.1875 "/></g></g><g transform="translate(129.020659, 38.060197)"><g><path d="M 6.390625 -0.84375 C 5.816406 -0.175781 4.976562 0.15625 3.875 0.15625 C 2.96875 0.15625 2.273438 -0.109375 1.796875 -0.640625 C 1.316406 -1.171875 1.078125 -1.953125 1.078125 -2.984375 L 1.078125 -8.546875 L 2.53125 -8.546875 L 2.53125 -3.03125 C 2.53125 -1.726562 3.0625 -1.078125 4.125 -1.078125 C 5.238281 -1.078125 5.976562 -1.492188 6.34375 -2.328125 L 6.34375 -8.546875 L 7.8125 -8.546875 L 7.8125 0 L 6.421875 0 Z M 6.390625 -0.84375 "/></g></g><g transform="translate(137.942534, 38.060197)"><g><path d="M 5.234375 -7.234375 C 5.015625 -7.273438 4.773438 -7.296875 4.515625 -7.296875 C 3.554688 -7.296875 2.90625 -6.890625 2.5625 -6.078125 L 2.5625 0 L 1.109375 0 L 1.109375 -8.546875 L 2.53125 -8.546875 L 2.546875 -7.5625 C 3.023438 -8.320312 3.707031 -8.703125 4.59375 -8.703125 C 4.875 -8.703125 5.085938 -8.664062 5.234375 -8.59375 Z M 5.234375 -7.234375 "/></g></g></g><g fill="#1c4790" fill-opacity="1"><g transform="translate(18.847225, 60.313518)"><g><path d="M 3.09375 -10.625 L 3.09375 -8.546875 L 4.6875 -8.546875 L 4.6875 -7.421875 L 3.09375 -7.421875 L 3.09375 -2.125 C 3.09375 -1.78125 3.160156 -1.519531 3.296875 -1.34375 C 3.441406 -1.175781 3.6875 -1.09375 4.03125 -1.09375 C 4.195312 -1.09375 4.429688 -1.125 4.734375 -1.1875 L 4.734375 0 C 4.347656 0.101562 3.972656 0.15625 3.609375 0.15625 C 2.953125 0.15625 2.457031 -0.0390625 2.125 -0.4375 C 1.789062 -0.832031 1.625 -1.394531 1.625 -2.125 L 1.625 -7.421875 L 0.078125 -7.421875 L 0.078125 -8.546875 L 1.625 -8.546875 L 1.625 -10.625 Z M 3.09375 -10.625 "/></g></g><g transform="translate(24.133969, 60.313518)"><g><path d="M 2.6875 0 L 1.234375 0 L 1.234375 -8.546875 L 2.6875 -8.546875 Z M 1.109375 -10.828125 C 1.109375 -11.054688 1.179688 -11.253906 1.328125 -11.421875 C 1.472656 -11.585938 1.6875 -11.671875 1.96875 -11.671875 C 2.257812 -11.671875 2.476562 -11.585938 2.625 -11.421875 C 2.769531 -11.253906 2.84375 -11.050781 2.84375 -10.8125 C 2.84375 -10.582031 2.769531 -10.382812 2.625 -10.21875 C 2.476562 -10.0625 2.257812 -9.984375 1.96875 -9.984375 C 1.6875 -9.984375 1.472656 -10.0625 1.328125 -10.21875 C 1.179688 -10.382812 1.109375 -10.585938 1.109375 -10.828125 Z M 1.109375 -10.828125 "/></g></g><g transform="translate(28.061491, 60.313518)"><g><path d="M 2.484375 -8.546875 L 2.515625 -7.609375 C 3.148438 -8.335938 4 -8.703125 5.0625 -8.703125 C 6.257812 -8.703125 7.070312 -8.242188 7.5 -7.328125 C 7.78125 -7.742188 8.148438 -8.078125 8.609375 -8.328125 C 9.066406 -8.578125 9.609375 -8.703125 10.234375 -8.703125 C 12.109375 -8.703125 13.0625 -7.710938 13.09375 -5.734375 L 13.09375 0 L 11.625 0 L 11.625 -5.640625 C 11.625 -6.253906 11.484375 -6.710938 11.203125 -7.015625 C 10.921875 -7.316406 10.453125 -7.46875 9.796875 -7.46875 C 9.253906 -7.46875 8.800781 -7.304688 8.4375 -6.984375 C 8.082031 -6.660156 7.878906 -6.222656 7.828125 -5.671875 L 7.828125 0 L 6.359375 0 L 6.359375 -5.609375 C 6.359375 -6.847656 5.75 -7.46875 4.53125 -7.46875 C 3.570312 -7.46875 2.914062 -7.0625 2.5625 -6.25 L 2.5625 0 L 1.09375 0 L 1.09375 -8.546875 Z M 2.484375 -8.546875 "/></g></g><g transform="translate(42.246403, 60.313518)"><g><path d="M 4.65625 0.15625 C 3.5 0.15625 2.554688 -0.222656 1.828125 -0.984375 C 1.097656 -1.742188 0.734375 -2.757812 0.734375 -4.03125 L 0.734375 -4.3125 C 0.734375 -5.15625 0.894531 -5.910156 1.21875 -6.578125 C 1.539062 -7.242188 1.992188 -7.765625 2.578125 -8.140625 C 3.160156 -8.515625 3.789062 -8.703125 4.46875 -8.703125 C 5.582031 -8.703125 6.445312 -8.335938 7.0625 -7.609375 C 7.675781 -6.878906 7.984375 -5.832031 7.984375 -4.46875 L 7.984375 -3.859375 L 2.203125 -3.859375 C 2.222656 -3.015625 2.46875 -2.332031 2.9375 -1.8125 C 3.40625 -1.289062 4.003906 -1.03125 4.734375 -1.03125 C 5.253906 -1.03125 5.691406 -1.132812 6.046875 -1.34375 C 6.398438 -1.5625 6.710938 -1.84375 6.984375 -2.1875 L 7.875 -1.5 C 7.164062 -0.394531 6.09375 0.15625 4.65625 0.15625 Z M 4.46875 -7.515625 C 3.882812 -7.515625 3.390625 -7.296875 2.984375 -6.859375 C 2.585938 -6.429688 2.34375 -5.832031 2.25 -5.0625 L 6.53125 -5.0625 L 6.53125 -5.171875 C 6.488281 -5.910156 6.285156 -6.484375 5.921875 -6.890625 C 5.566406 -7.304688 5.082031 -7.515625 4.46875 -7.515625 Z M 4.46875 -7.515625 "/></g></g><g transform="translate(50.82057, 60.313518)"><g/></g><g transform="translate(54.827116, 60.313518)"><g><path d="M 6.390625 0 C 6.304688 -0.164062 6.238281 -0.46875 6.1875 -0.90625 C 5.5 -0.195312 4.6875 0.15625 3.75 0.15625 C 2.90625 0.15625 2.210938 -0.078125 1.671875 -0.546875 C 1.128906 -1.023438 0.859375 -1.632812 0.859375 -2.375 C 0.859375 -3.257812 1.195312 -3.945312 1.875 -4.4375 C 2.550781 -4.9375 3.503906 -5.1875 4.734375 -5.1875 L 6.15625 -5.1875 L 6.15625 -5.859375 C 6.15625 -6.367188 6 -6.773438 5.6875 -7.078125 C 5.382812 -7.378906 4.9375 -7.53125 4.34375 -7.53125 C 3.820312 -7.53125 3.382812 -7.394531 3.03125 -7.125 C 2.675781 -6.863281 2.5 -6.550781 2.5 -6.1875 L 1.03125 -6.1875 C 1.03125 -6.613281 1.179688 -7.023438 1.484375 -7.421875 C 1.785156 -7.816406 2.195312 -8.128906 2.71875 -8.359375 C 3.238281 -8.585938 3.8125 -8.703125 4.4375 -8.703125 C 5.414062 -8.703125 6.1875 -8.457031 6.75 -7.96875 C 7.3125 -7.476562 7.601562 -6.800781 7.625 -5.9375 L 7.625 -2 C 7.625 -1.21875 7.722656 -0.59375 7.921875 -0.125 L 7.921875 0 Z M 3.953125 -1.109375 C 4.410156 -1.109375 4.84375 -1.226562 5.25 -1.46875 C 5.664062 -1.707031 5.96875 -2.015625 6.15625 -2.390625 L 6.15625 -4.15625 L 5.015625 -4.15625 C 3.222656 -4.15625 2.328125 -3.628906 2.328125 -2.578125 C 2.328125 -2.117188 2.476562 -1.757812 2.78125 -1.5 C 3.082031 -1.238281 3.472656 -1.109375 3.953125 -1.109375 Z M 3.953125 -1.109375 "/></g></g><g transform="translate(63.630454, 60.313518)"><g><path d="M 2.484375 -8.546875 L 2.53125 -7.484375 C 3.1875 -8.296875 4.039062 -8.703125 5.09375 -8.703125 C 6.90625 -8.703125 7.816406 -7.6875 7.828125 -5.65625 L 7.828125 0 L 6.375 0 L 6.375 -5.65625 C 6.363281 -6.269531 6.21875 -6.722656 5.9375 -7.015625 C 5.664062 -7.316406 5.238281 -7.46875 4.65625 -7.46875 C 4.175781 -7.46875 3.757812 -7.335938 3.40625 -7.078125 C 3.050781 -6.828125 2.769531 -6.5 2.5625 -6.09375 L 2.5625 0 L 1.109375 0 L 1.109375 -8.546875 Z M 2.484375 -8.546875 "/></g></g><g transform="translate(72.560231, 60.313518)"><g><path d="M 0.75 -4.34375 C 0.75 -5.65625 1.054688 -6.707031 1.671875 -7.5 C 2.296875 -8.300781 3.113281 -8.703125 4.125 -8.703125 C 5.125 -8.703125 5.914062 -8.363281 6.5 -7.6875 L 6.5 -12.140625 L 7.96875 -12.140625 L 7.96875 0 L 6.625 0 L 6.546875 -0.921875 C 5.960938 -0.203125 5.148438 0.15625 4.109375 0.15625 C 3.117188 0.15625 2.3125 -0.25 1.6875 -1.0625 C 1.0625 -1.875 0.75 -2.929688 0.75 -4.234375 Z M 2.21875 -4.1875 C 2.21875 -3.21875 2.414062 -2.457031 2.8125 -1.90625 C 3.21875 -1.351562 3.769531 -1.078125 4.46875 -1.078125 C 5.394531 -1.078125 6.070312 -1.492188 6.5 -2.328125 L 6.5 -6.265625 C 6.0625 -7.066406 5.390625 -7.46875 4.484375 -7.46875 C 3.773438 -7.46875 3.21875 -7.191406 2.8125 -6.640625 C 2.414062 -6.085938 2.21875 -5.269531 2.21875 -4.1875 Z M 2.21875 -4.1875 "/></g></g><g transform="translate(81.68757, 60.313518)"><g/></g><g transform="translate(85.694116, 60.313518)"><g><path d="M 0.765625 -4.34375 C 0.765625 -5.675781 1.070312 -6.734375 1.6875 -7.515625 C 2.300781 -8.304688 3.117188 -8.703125 4.140625 -8.703125 C 5.179688 -8.703125 5.992188 -8.335938 6.578125 -7.609375 L 6.640625 -8.546875 L 7.984375 -8.546875 L 7.984375 -0.203125 C 7.984375 0.898438 7.65625 1.769531 7 2.40625 C 6.34375 3.039062 5.460938 3.359375 4.359375 3.359375 C 3.742188 3.359375 3.140625 3.226562 2.546875 2.96875 C 1.953125 2.707031 1.5 2.347656 1.1875 1.890625 L 1.953125 1.015625 C 2.578125 1.785156 3.34375 2.171875 4.25 2.171875 C 4.957031 2.171875 5.507812 1.96875 5.90625 1.5625 C 6.3125 1.164062 6.515625 0.601562 6.515625 -0.125 L 6.515625 -0.859375 C 5.929688 -0.179688 5.132812 0.15625 4.125 0.15625 C 3.113281 0.15625 2.300781 -0.242188 1.6875 -1.046875 C 1.070312 -1.859375 0.765625 -2.957031 0.765625 -4.34375 Z M 2.234375 -4.1875 C 2.234375 -3.21875 2.429688 -2.457031 2.828125 -1.90625 C 3.222656 -1.351562 3.773438 -1.078125 4.484375 -1.078125 C 5.398438 -1.078125 6.078125 -1.5 6.515625 -2.34375 L 6.515625 -6.25 C 6.066406 -7.0625 5.394531 -7.46875 4.5 -7.46875 C 3.789062 -7.46875 3.234375 -7.191406 2.828125 -6.640625 C 2.429688 -6.085938 2.234375 -5.269531 2.234375 -4.1875 Z M 2.234375 -4.1875 "/></g></g><g transform="translate(94.77404, 60.313518)"><g><path d="M 0.71875 -4.359375 C 0.71875 -5.191406 0.878906 -5.941406 1.203125 -6.609375 C 1.535156 -7.285156 1.992188 -7.800781 2.578125 -8.15625 C 3.171875 -8.519531 3.84375 -8.703125 4.59375 -8.703125 C 5.757812 -8.703125 6.703125 -8.300781 7.421875 -7.5 C 8.140625 -6.695312 8.5 -5.625 8.5 -4.28125 L 8.5 -4.1875 C 8.5 -3.351562 8.335938 -2.601562 8.015625 -1.9375 C 7.703125 -1.28125 7.25 -0.765625 6.65625 -0.390625 C 6.0625 -0.0234375 5.378906 0.15625 4.609375 0.15625 C 3.453125 0.15625 2.515625 -0.242188 1.796875 -1.046875 C 1.078125 -1.859375 0.71875 -2.925781 0.71875 -4.25 Z M 2.1875 -4.1875 C 2.1875 -3.238281 2.40625 -2.472656 2.84375 -1.890625 C 3.289062 -1.316406 3.878906 -1.03125 4.609375 -1.03125 C 5.359375 -1.03125 5.953125 -1.320312 6.390625 -1.90625 C 6.828125 -2.488281 7.046875 -3.304688 7.046875 -4.359375 C 7.046875 -5.296875 6.820312 -6.054688 6.375 -6.640625 C 5.925781 -7.222656 5.332031 -7.515625 4.59375 -7.515625 C 3.875 -7.515625 3.289062 -7.222656 2.84375 -6.640625 C 2.40625 -6.066406 2.1875 -5.25 2.1875 -4.1875 Z M 2.1875 -4.1875 "/></g></g><g transform="translate(104.004111, 60.313518)"><g><path d="M 6.390625 0 C 6.304688 -0.164062 6.238281 -0.46875 6.1875 -0.90625 C 5.5 -0.195312 4.6875 0.15625 3.75 0.15625 C 2.90625 0.15625 2.210938 -0.078125 1.671875 -0.546875 C 1.128906 -1.023438 0.859375 -1.632812 0.859375 -2.375 C 0.859375 -3.257812 1.195312 -3.945312 1.875 -4.4375 C 2.550781 -4.9375 3.503906 -5.1875 4.734375 -5.1875 L 6.15625 -5.1875 L 6.15625 -5.859375 C 6.15625 -6.367188 6 -6.773438 5.6875 -7.078125 C 5.382812 -7.378906 4.9375 -7.53125 4.34375 -7.53125 C 3.820312 -7.53125 3.382812 -7.394531 3.03125 -7.125 C 2.675781 -6.863281 2.5 -6.550781 2.5 -6.1875 L 1.03125 -6.1875 C 1.03125 -6.613281 1.179688 -7.023438 1.484375 -7.421875 C 1.785156 -7.816406 2.195312 -8.128906 2.71875 -8.359375 C 3.238281 -8.585938 3.8125 -8.703125 4.4375 -8.703125 C 5.414062 -8.703125 6.1875 -8.457031 6.75 -7.96875 C 7.3125 -7.476562 7.601562 -6.800781 7.625 -5.9375 L 7.625 -2 C 7.625 -1.21875 7.722656 -0.59375 7.921875 -0.125 L 7.921875 0 Z M 3.953125 -1.109375 C 4.410156 -1.109375 4.84375 -1.226562 5.25 -1.46875 C 5.664062 -1.707031 5.96875 -2.015625 6.15625 -2.390625 L 6.15625 -4.15625 L 5.015625 -4.15625 C 3.222656 -4.15625 2.328125 -3.628906 2.328125 -2.578125 C 2.328125 -2.117188 2.476562 -1.757812 2.78125 -1.5 C 3.082031 -1.238281 3.472656 -1.109375 3.953125 -1.109375 Z M 3.953125 -1.109375 "/></g></g><g transform="translate(112.807449, 60.313518)"><g><path d="M 2.6875 0 L 1.234375 0 L 1.234375 -12.140625 L 2.6875 -12.140625 Z M 2.6875 0 "/></g></g><g transform="translate(116.734971, 60.313518)"><g><path d="M 6.09375 -2.265625 C 6.09375 -2.660156 5.941406 -2.96875 5.640625 -3.1875 C 5.335938 -3.40625 4.816406 -3.59375 4.078125 -3.75 C 3.335938 -3.90625 2.75 -4.09375 2.3125 -4.3125 C 1.882812 -4.539062 1.566406 -4.804688 1.359375 -5.109375 C 1.148438 -5.421875 1.046875 -5.785156 1.046875 -6.203125 C 1.046875 -6.898438 1.34375 -7.488281 1.9375 -7.96875 C 2.53125 -8.457031 3.285156 -8.703125 4.203125 -8.703125 C 5.171875 -8.703125 5.957031 -8.453125 6.5625 -7.953125 C 7.164062 -7.453125 7.46875 -6.8125 7.46875 -6.03125 L 6 -6.03125 C 6 -6.4375 5.828125 -6.785156 5.484375 -7.078125 C 5.148438 -7.367188 4.722656 -7.515625 4.203125 -7.515625 C 3.671875 -7.515625 3.253906 -7.394531 2.953125 -7.15625 C 2.648438 -6.925781 2.5 -6.625 2.5 -6.25 C 2.5 -5.894531 2.640625 -5.628906 2.921875 -5.453125 C 3.203125 -5.273438 3.707031 -5.101562 4.4375 -4.9375 C 5.164062 -4.769531 5.753906 -4.570312 6.203125 -4.34375 C 6.660156 -4.125 7 -3.851562 7.21875 -3.53125 C 7.4375 -3.21875 7.546875 -2.832031 7.546875 -2.375 C 7.546875 -1.601562 7.238281 -0.988281 6.625 -0.53125 C 6.019531 -0.0703125 5.226562 0.15625 4.25 0.15625 C 3.5625 0.15625 2.953125 0.0351562 2.421875 -0.203125 C 1.898438 -0.441406 1.488281 -0.78125 1.1875 -1.21875 C 0.894531 -1.65625 0.75 -2.125 0.75 -2.625 L 2.21875 -2.625 C 2.238281 -2.132812 2.429688 -1.742188 2.796875 -1.453125 C 3.160156 -1.171875 3.644531 -1.03125 4.25 -1.03125 C 4.800781 -1.03125 5.242188 -1.140625 5.578125 -1.359375 C 5.921875 -1.585938 6.09375 -1.890625 6.09375 -2.265625 Z M 6.09375 -2.265625 "/></g></g></g></g></g><g transform="matrix(1, 0, 0, 1, 78, 52)"><g clip-path="url(#d5fb82227f)"><g fill="#ffffff" fill-opacity="0.4"><g transform="translate(12.965784, 43.851273)"><g><path d="M -0.5 -5.65625 L 2.578125 -2.578125 L 0.765625 -0.765625 L -7.953125 -9.484375 L -4.546875 -12.890625 C -3.890625 -13.546875 -3.191406 -14.003906 -2.453125 -14.265625 C -1.710938 -14.523438 -0.988281 -14.566406 -0.28125 -14.390625 C 0.425781 -14.210938 1.0625 -13.84375 1.625 -13.28125 C 2.476562 -12.425781 2.859375 -11.460938 2.765625 -10.390625 C 2.671875 -9.316406 2.109375 -8.265625 1.078125 -7.234375 Z M -1.953125 -7.109375 L -0.359375 -8.703125 C 0.117188 -9.179688 0.375 -9.65625 0.40625 -10.125 C 0.4375 -10.59375 0.238281 -11.039062 -0.1875 -11.46875 C -0.613281 -11.894531 -1.082031 -12.113281 -1.59375 -12.125 C -2.101562 -12.132812 -2.585938 -11.921875 -3.046875 -11.484375 L -4.6875 -9.84375 Z M -1.953125 -7.109375 "/></g></g></g><g fill="#ffffff" fill-opacity="0.4"><g transform="translate(20.876817, 35.94024)"><g><path d="M 1.125 -4.03125 L 4.9375 -7.84375 L 6.390625 -6.390625 L 0.765625 -0.765625 L -7.953125 -9.484375 L -6.140625 -11.296875 Z M 1.125 -4.03125 "/></g></g></g><g fill="#ffffff" fill-opacity="0.4"><g transform="translate(27.518252, 29.298805)"><g><path d="M 3.90625 -7.5 L 0.75 -4.34375 L 1.953125 -1.953125 L 0.046875 -0.046875 L -5.421875 -12.015625 L -3.765625 -13.671875 L 8.21875 -8.21875 L 6.3125 -6.3125 Z M -0.21875 -6.28125 L 1.96875 -8.46875 L -2.390625 -10.640625 Z M -0.21875 -6.28125 "/></g></g></g><g fill="#ffffff" fill-opacity="0.4"><g transform="translate(35.770635, 21.046422)"><g><path d="M 7.859375 -7.859375 L 6.078125 -6.078125 L -3.15625 -8.3125 L 2.578125 -2.578125 L 0.765625 -0.765625 L -7.953125 -9.484375 L -6.140625 -11.296875 L 3.109375 -9.046875 L -2.640625 -14.796875 L -0.859375 -16.578125 Z M 7.859375 -7.859375 "/></g></g></g><g fill="#1c4790" fill-opacity="1"><g transform="translate(11.881382, 43.851273)"><g><path d="M -0.5 -5.65625 L 2.578125 -2.578125 L 0.765625 -0.765625 L -7.953125 -9.484375 L -4.546875 -12.890625 C -3.890625 -13.546875 -3.191406 -14.003906 -2.453125 -14.265625 C -1.710938 -14.523438 -0.988281 -14.566406 -0.28125 -14.390625 C 0.425781 -14.210938 1.0625 -13.84375 1.625 -13.28125 C 2.476562 -12.425781 2.859375 -11.460938 2.765625 -10.390625 C 2.671875 -9.316406 2.109375 -8.265625 1.078125 -7.234375 Z M -1.953125 -7.109375 L -0.359375 -8.703125 C 0.117188 -9.179688 0.375 -9.65625 0.40625 -10.125 C 0.4375 -10.59375 0.238281 -11.039062 -0.1875 -11.46875 C -0.613281 -11.894531 -1.082031 -12.113281 -1.59375 -12.125 C -2.101562 -12.132812 -2.585938 -11.921875 -3.046875 -11.484375 L -4.6875 -9.84375 Z M -1.953125 -7.109375 "/></g></g></g><g fill="#1c4790" fill-opacity="1"><g transform="translate(19.792415, 35.94024)"><g><path d="M 1.125 -4.03125 L 4.9375 -7.84375 L 6.390625 -6.390625 L 0.765625 -0.765625 L -7.953125 -9.484375 L -6.140625 -11.296875 Z M 1.125 -4.03125 "/></g></g></g><g fill="#1c4790" fill-opacity="1"><g transform="translate(26.43385, 29.298805)"><g><path d="M 3.90625 -7.5 L 0.75 -4.34375 L 1.953125 -1.953125 L 0.046875 -0.046875 L -5.421875 -12.015625 L -3.765625 -13.671875 L 8.21875 -8.21875 L 6.3125 -6.3125 Z M -0.21875 -6.28125 L 1.96875 -8.46875 L -2.390625 -10.640625 Z M -0.21875 -6.28125 "/></g></g></g><g fill="#1c4790" fill-opacity="1"><g transform="translate(34.686234, 21.046422)"><g><path d="M 7.859375 -7.859375 L 6.078125 -6.078125 L -3.15625 -8.3125 L 2.578125 -2.578125 L 0.765625 -0.765625 L -7.953125 -9.484375 L -6.140625 -11.296875 L 3.109375 -9.046875 L -2.640625 -14.796875 L -0.859375 -16.578125 Z M 7.859375 -7.859375 "/></g></g></g></g></g></svg>