<svg xmlns="http://www.w3.org/2000/svg" xmlns:xlink="http://www.w3.org/1999/xlink" width="300" zoomAndPan="magnify" viewBox="0 0 224.87999 374.999991" height="500" preserveAspectRatio="xMidYMid meet" version="1.0"><defs><g/><clipPath id="fba5e1d9dd"><path d="M 26 130 L 125 130 L 125 229 L 26 229 Z M 26 130 " clip-rule="nonzero"/></clipPath><clipPath id="c2015bbedd"><path d="M 90.328125 113.074219 L 157.113281 179.859375 L 90.859375 246.117188 L 24.070312 179.328125 Z M 90.328125 113.074219 " clip-rule="nonzero"/></clipPath><clipPath id="6fddfca70c"><path d="M 90.328125 113.074219 L 157.113281 179.859375 L 90.859375 246.117188 L 24.070312 179.328125 Z M 90.328125 113.074219 " clip-rule="nonzero"/></clipPath><clipPath id="0349630498"><path d="M 76 78 L 175 78 L 175 177 L 76 177 Z M 76 78 " clip-rule="nonzero"/></clipPath><clipPath id="4bb1991292"><path d="M 140.058594 60.875 L 206.847656 127.664062 L 140.589844 193.917969 L 73.804688 127.132812 Z M 140.058594 60.875 " clip-rule="nonzero"/></clipPath><clipPath id="06ca7da5d6"><path d="M 140.058594 60.875 L 206.847656 127.664062 L 140.589844 193.917969 L 73.804688 127.132812 Z M 140.058594 60.875 " clip-rule="nonzero"/></clipPath><clipPath id="2fb8fad568"><path d="M 77 79 L 176 79 L 176 178 L 77 178 Z M 77 79 " clip-rule="nonzero"/></clipPath><clipPath id="b0e632b078"><path d="M 140.875 61.832031 L 207.660156 128.617188 L 141.40625 194.875 L 74.621094 128.085938 Z M 140.875 61.832031 " clip-rule="nonzero"/></clipPath><clipPath id="7b798e893a"><path d="M 140.875 61.832031 L 207.660156 128.617188 L 141.40625 194.875 L 74.621094 128.085938 Z M 140.875 61.832031 " clip-rule="nonzero"/></clipPath><clipPath id="19b6c37b66"><path d="M 117 103 L 161.414062 103 L 161.414062 145.027344 L 117 145.027344 Z M 117 103 " clip-rule="nonzero"/></clipPath><clipPath id="289fd2b574"><path d="M 118 103 L 162.691406 103 L 162.691406 145.351562 L 118 145.351562 Z M 118 103 " clip-rule="nonzero"/></clipPath><clipPath id="7df6d623e4"><path d="M 27 132 L 125 132 L 125 230 L 27 230 Z M 27 132 " clip-rule="nonzero"/></clipPath><clipPath id="177ff111da"><path d="M 90.796875 114.425781 L 157.582031 181.214844 L 91.328125 247.46875 L 24.539062 180.683594 Z M 90.796875 114.425781 " clip-rule="nonzero"/></clipPath><clipPath id="5226d5f756"><path d="M 90.796875 114.425781 L 157.582031 181.214844 L 91.328125 247.46875 L 24.539062 180.683594 Z M 90.796875 114.425781 " clip-rule="nonzero"/></clipPath><clipPath id="5737f05076"><path d="M 69.164062 164.480469 L 103.644531 164.480469 L 103.644531 190.71875 L 69.164062 190.71875 Z M 69.164062 164.480469 " clip-rule="nonzero"/></clipPath><clipPath id="5fc92dd7fd"><path d="M 69.164062 164.480469 L 103.644531 164.480469 L 103.644531 178 L 69.164062 178 Z M 69.164062 164.480469 " clip-rule="nonzero"/></clipPath><clipPath id="c1314e1362"><rect x="0" width="170" y="0" height="62"/></clipPath><clipPath id="2cc7d5a87e"><rect x="0" width="56" y="0" height="56"/></clipPath></defs><g clip-path="url(#fba5e1d9dd)"><g clip-path="url(#c2015bbedd)"><g clip-path="url(#6fddfca70c)"><path fill="#121256" d="M 116.464844 206.464844 C 115.222656 205.222656 113.730469 204.390625 112.148438 203.960938 C 111.542969 203.796875 110.921875 203.6875 110.292969 203.644531 C 108.800781 203.246094 106.871094 202.367188 106.414062 200.433594 L 122.460938 184.382812 C 125.175781 181.671875 125.175781 177.269531 122.460938 174.558594 L 106.210938 158.308594 C 106.769531 156.761719 108.320312 155.972656 109.65625 155.566406 C 112.039062 155.488281 114.402344 154.539062 116.21875 152.722656 C 120.019531 148.921875 120.023438 142.761719 116.21875 138.957031 C 112.417969 135.15625 106.253906 135.160156 102.457031 138.957031 C 101.214844 140.199219 100.382812 141.695312 99.953125 143.277344 C 99.785156 143.882812 99.683594 144.503906 99.636719 145.132812 C 99.265625 146.523438 98.476562 148.292969 96.800781 148.894531 L 80.621094 132.714844 C 77.90625 130.003906 73.507812 130.003906 70.796875 132.714844 L 54.746094 148.765625 C 55.203125 150.703125 57.132812 151.582031 58.628906 151.980469 C 59.253906 152.023438 59.875 152.128906 60.484375 152.296875 C 62.0625 152.726562 63.558594 153.558594 64.796875 154.796875 C 68.601562 158.601562 68.597656 164.765625 64.800781 168.5625 C 61 172.367188 54.835938 172.367188 51.03125 168.5625 C 49.210938 166.746094 48.269531 164.382812 48.191406 162 C 47.757812 160.5625 46.871094 158.867188 45.074219 158.4375 L 28.953125 174.558594 C 26.242188 177.269531 26.242188 181.671875 28.953125 184.382812 L 45.003906 200.433594 C 46.933594 199.972656 47.816406 198.046875 48.214844 196.550781 C 48.257812 195.925781 48.363281 195.308594 48.53125 194.699219 C 48.960938 193.117188 49.792969 191.621094 51.035156 190.382812 C 54.835938 186.578125 60.996094 186.578125 64.796875 190.382812 C 68.597656 194.183594 68.597656 200.34375 64.796875 204.144531 C 62.976562 205.964844 60.621094 206.910156 58.234375 206.988281 C 56.800781 207.421875 55.105469 208.308594 54.675781 210.105469 L 70.796875 226.226562 C 73.507812 228.9375 77.90625 228.9375 80.621094 226.226562 L 96.738281 210.105469 C 98.539062 210.535156 99.425781 212.230469 99.859375 213.667969 C 99.9375 216.050781 100.878906 218.410156 102.699219 220.230469 C 106.5 224.03125 112.664062 224.03125 116.46875 220.230469 C 120.265625 216.433594 120.265625 210.265625 116.464844 206.464844 " fill-opacity="1" fill-rule="nonzero"/></g></g></g><g clip-path="url(#0349630498)"><g clip-path="url(#4bb1991292)"><g clip-path="url(#06ca7da5d6)"><path fill="#121256" d="M 166.195312 154.265625 C 164.957031 153.027344 163.460938 152.195312 161.878906 151.761719 C 161.273438 151.597656 160.652344 151.492188 160.027344 151.449219 C 158.53125 151.050781 156.601562 150.171875 156.144531 148.234375 L 172.195312 132.1875 C 174.90625 129.472656 174.90625 125.074219 172.195312 122.363281 L 155.945312 106.113281 C 156.503906 104.5625 158.054688 103.773438 159.386719 103.371094 C 161.773438 103.292969 164.132812 102.34375 165.953125 100.523438 C 169.75 96.726562 169.753906 90.5625 165.953125 86.761719 C 162.152344 82.960938 155.988281 82.964844 152.191406 86.761719 C 150.949219 88.003906 150.117188 89.496094 149.683594 91.078125 C 149.519531 91.6875 149.414062 92.304688 149.367188 92.933594 C 149 94.324219 148.207031 96.09375 146.53125 96.699219 L 130.351562 80.519531 C 127.640625 77.808594 123.238281 77.808594 120.527344 80.519531 L 104.480469 96.570312 C 104.9375 98.503906 106.867188 99.382812 108.359375 99.78125 C 108.984375 99.824219 109.609375 99.933594 110.214844 100.101562 C 111.792969 100.527344 113.289062 101.359375 114.53125 102.601562 C 118.335938 106.40625 118.332031 112.570312 114.53125 116.367188 C 110.730469 120.167969 104.570312 120.171875 100.765625 116.367188 C 98.945312 114.546875 98 112.1875 97.925781 109.804688 C 97.492188 108.367188 96.605469 106.671875 94.804688 106.242188 L 78.683594 122.363281 C 75.972656 125.074219 75.972656 129.472656 78.683594 132.1875 L 94.734375 148.234375 C 96.667969 147.773438 97.550781 145.847656 97.949219 144.351562 C 97.992188 143.726562 98.09375 143.109375 98.261719 142.5 C 98.695312 140.917969 99.527344 139.425781 100.765625 138.183594 C 104.570312 134.382812 110.726562 134.382812 114.53125 138.183594 C 118.332031 141.984375 118.332031 148.144531 114.53125 151.945312 C 112.710938 153.765625 110.355469 154.710938 107.964844 154.792969 C 106.53125 155.222656 104.835938 156.109375 104.410156 157.910156 L 120.527344 174.027344 C 123.238281 176.742188 127.640625 176.742188 130.351562 174.027344 L 146.472656 157.910156 C 148.269531 158.335938 149.15625 160.03125 149.589844 161.46875 C 149.667969 163.855469 150.613281 166.214844 152.429688 168.035156 C 156.230469 171.835938 162.398438 171.835938 166.199219 168.035156 C 170 164.234375 170 158.070312 166.195312 154.265625 " fill-opacity="1" fill-rule="nonzero"/></g></g></g><g clip-path="url(#2fb8fad568)"><g clip-path="url(#b0e632b078)"><g clip-path="url(#7b798e893a)"><path fill="#ff66c4" d="M 167.011719 155.222656 C 165.769531 153.980469 164.277344 153.148438 162.695312 152.71875 C 162.089844 152.554688 161.46875 152.445312 160.84375 152.402344 C 159.347656 152.003906 157.417969 151.125 156.960938 149.191406 L 173.007812 133.140625 C 175.722656 130.429688 175.722656 126.027344 173.007812 123.316406 L 156.757812 107.066406 C 157.316406 105.519531 158.871094 104.730469 160.203125 104.324219 C 162.585938 104.246094 164.949219 103.296875 166.765625 101.480469 C 170.566406 97.679688 170.570312 91.519531 166.765625 87.714844 C 162.964844 83.914062 156.804688 83.917969 153.003906 87.714844 C 151.765625 88.957031 150.929688 90.453125 150.5 92.035156 C 150.332031 92.640625 150.230469 93.261719 150.183594 93.890625 C 149.816406 95.28125 149.023438 97.046875 147.347656 97.652344 L 131.167969 81.472656 C 128.457031 78.761719 124.054688 78.761719 121.34375 81.472656 L 105.292969 97.523438 C 105.75 99.460938 107.679688 100.339844 109.175781 100.738281 C 109.800781 100.78125 110.421875 100.886719 111.03125 101.054688 C 112.609375 101.484375 114.105469 102.316406 115.34375 103.554688 C 119.148438 107.359375 119.144531 113.523438 115.347656 117.320312 C 111.546875 121.125 105.382812 121.125 101.578125 117.320312 C 99.757812 115.503906 98.816406 113.140625 98.738281 110.757812 C 98.304688 109.320312 97.417969 107.625 95.621094 107.195312 L 79.5 123.316406 C 76.789062 126.027344 76.789062 130.429688 79.5 133.140625 L 95.550781 149.191406 C 97.484375 148.730469 98.367188 146.804688 98.761719 145.308594 C 98.804688 144.683594 98.910156 144.0625 99.078125 143.457031 C 99.507812 141.875 100.339844 140.378906 101.582031 139.140625 C 105.382812 135.335938 111.542969 135.335938 115.34375 139.140625 C 119.144531 142.941406 119.144531 149.101562 115.34375 152.902344 C 113.527344 154.71875 111.167969 155.667969 108.78125 155.746094 C 107.347656 156.179688 105.652344 157.066406 105.222656 158.863281 L 121.34375 174.984375 C 124.054688 177.695312 128.457031 177.695312 131.167969 174.984375 L 147.285156 158.863281 C 149.085938 159.292969 149.972656 160.988281 150.40625 162.425781 C 150.484375 164.808594 151.425781 167.167969 153.246094 168.988281 C 157.046875 172.789062 163.210938 172.789062 167.015625 168.988281 C 170.8125 165.191406 170.8125 159.023438 167.011719 155.222656 " fill-opacity="1" fill-rule="nonzero"/></g></g></g><g clip-path="url(#19b6c37b66)"><path fill="#121256" d="M 159.480469 113.789062 C 157.753906 110.152344 154.675781 107.175781 151.058594 105.4375 C 143.007812 101.550781 133.105469 103.695312 126.503906 109.445312 C 120.261719 114.855469 116.453125 123.617188 117.792969 131.902344 C 118.429688 135.855469 120.304688 139.492188 123.539062 141.941406 C 126.617188 144.265625 130.613281 145.261719 134.429688 145.070312 C 138.640625 144.871094 142.648438 143.242188 146.085938 140.863281 C 146.703125 140.433594 147.296875 139.984375 147.882812 139.527344 C 149.53125 138.617188 151.09375 137.570312 152.554688 136.425781 C 155.976562 133.71875 158.761719 130.195312 160.144531 126.019531 C 161.480469 122 161.324219 117.640625 159.480469 113.789062 Z M 121.789062 137.179688 C 117.824219 130.855469 119.542969 122.359375 123.28125 116.375 C 127.324219 109.894531 134.757812 105.492188 142.46875 105.671875 C 143.964844 105.707031 145.46875 105.898438 146.929688 106.246094 C 146.46875 106.707031 146.558594 107.683594 147.386719 107.761719 C 149.050781 107.917969 150.667969 108.660156 152.046875 109.570312 C 153.519531 110.535156 154.742188 111.835938 155.628906 113.351562 C 157.753906 116.980469 157.574219 121.472656 156.167969 125.3125 C 154.800781 129.082031 152.476562 132.316406 149.703125 135.179688 C 148.523438 136.402344 147.253906 137.550781 145.894531 138.570312 C 139.753906 141.804688 131.667969 143.90625 126.257812 138.707031 C 123.785156 136.324219 122.449219 132.890625 122.148438 129.519531 C 121.832031 125.996094 122.597656 122.4375 124.179688 119.28125 C 125.773438 116.105469 128.175781 113.429688 131.152344 111.5 C 134.261719 109.492188 137.992188 108.492188 141.683594 108.503906 C 144.953125 108.511719 148.367188 109.3125 151.273438 110.792969 C 151.777344 111.050781 152.195312 110.207031 151.722656 109.917969 C 149.871094 108.761719 147.847656 107.90625 145.703125 107.457031 C 143.683594 107.042969 141.605469 106.90625 139.550781 107.078125 C 135.441406 107.425781 131.410156 108.90625 128.222656 111.554688 C 122.25 116.554688 119.09375 124.863281 121.003906 132.507812 C 121.933594 136.222656 124.125 139.695312 127.46875 141.660156 C 128.164062 142.0625 128.894531 142.398438 129.636719 142.65625 C 126.449219 141.851562 123.5625 140.007812 121.789062 137.179688 Z M 156.707031 128.992188 C 156.527344 129.296875 156.347656 129.601562 156.144531 129.890625 C 158 126.476562 159 122.707031 158.671875 118.777344 C 158.59375 117.765625 158.4375 116.789062 158.199219 115.824219 C 158.46875 116.542969 158.683594 117.269531 158.839844 118.023438 C 159.605469 121.785156 158.605469 125.726562 156.707031 128.992188 Z M 156.707031 128.992188 " fill-opacity="1" fill-rule="nonzero"/></g><path fill="#121256" d="M 141.796875 129.8125 C 141.617188 129.09375 141.425781 128.386719 141.246094 127.667969 C 140.945312 126.511719 140.652344 125.355469 140.347656 124.1875 C 140.785156 123.996094 141.101562 123.761719 141.472656 123.3125 C 141.820312 122.875 141.492188 122.03125 140.945312 121.941406 C 140.484375 121.863281 140.136719 121.875 139.777344 121.953125 C 139.101562 119.257812 138.484375 116.542969 137.609375 113.914062 C 137.472656 113.5 136.933594 113.242188 136.519531 113.261719 C 136.035156 113.296875 135.710938 113.578125 135.507812 114.003906 C 134.027344 117.160156 132.589844 120.324219 131.367188 123.59375 C 131.199219 124.042969 131.039062 124.480469 130.871094 124.929688 C 130.535156 125.0625 130.230469 125.230469 129.960938 125.457031 C 129.660156 125.714844 129.671875 126.332031 130.121094 126.457031 C 130.1875 126.476562 130.253906 126.488281 130.320312 126.5 C 130.0625 127.242188 129.816406 127.984375 129.582031 128.722656 C 129.007812 130.507812 128.355469 132.382812 128.210938 134.269531 C 128.164062 134.921875 129.132812 135.238281 129.445312 134.640625 C 130.277344 133.046875 130.726562 131.226562 131.296875 129.53125 C 131.65625 128.464844 132.039062 127.410156 132.445312 126.367188 C 132.632812 126.320312 132.824219 126.277344 133.015625 126.242188 C 133.882812 126.0625 134.746094 125.859375 135.609375 125.648438 C 136.339844 125.46875 137.070312 125.277344 137.800781 125.0625 C 138.035156 126.097656 138.269531 127.128906 138.519531 128.164062 C 138.6875 128.902344 138.855469 129.644531 139.035156 130.386719 C 139.28125 131.429688 139.449219 132.652344 140.191406 133.449219 C 140.742188 134.046875 141.910156 133.96875 142.144531 133.082031 C 142.414062 131.96875 142.066406 130.890625 141.796875 129.8125 Z M 135.273438 123.546875 C 134.609375 123.773438 133.949219 123.996094 133.285156 124.210938 C 134.152344 122.066406 135.058594 119.910156 136.070312 117.820312 C 136.441406 119.503906 136.867188 121.167969 137.273438 122.839844 C 136.609375 123.078125 135.945312 123.324219 135.273438 123.546875 Z M 135.273438 123.546875 " fill-opacity="1" fill-rule="nonzero"/><path fill="#121256" d="M 153.25 119.203125 C 153.136719 118.820312 152.84375 118.777344 152.519531 118.6875 C 152.105469 118.5625 151.578125 118.777344 151.171875 118.878906 C 150.824219 118.96875 150.476562 119.058594 150.140625 119.167969 C 149.890625 119.246094 149.644531 119.324219 149.398438 119.414062 C 149.308594 118.574219 149.195312 117.730469 149.050781 116.902344 C 148.894531 115.914062 147.207031 115.992188 147.277344 117.023438 C 147.34375 118.058594 147.421875 119.078125 147.5 120.113281 C 146.46875 120.515625 145.445312 120.964844 144.46875 121.503906 C 143.875 121.839844 144.164062 122.929688 144.882812 122.707031 C 145.804688 122.414062 146.703125 122.089844 147.613281 121.773438 C 147.625 121.917969 147.636719 122.078125 147.648438 122.222656 C 147.691406 123.042969 147.726562 123.875 147.757812 124.691406 C 147.78125 125.535156 147.648438 126.636719 148.355469 127.230469 C 148.601562 127.433594 149.050781 127.488281 149.308594 127.265625 C 150.070312 126.601562 149.871094 125.457031 149.8125 124.535156 C 149.769531 123.695312 149.710938 122.851562 149.644531 122.007812 C 149.621094 121.71875 149.601562 121.4375 149.566406 121.144531 C 150.0625 121 150.566406 120.863281 151.058594 120.71875 C 151.675781 120.527344 152.394531 120.4375 152.933594 120.042969 C 153.195312 119.84375 153.351562 119.527344 153.25 119.203125 Z M 153.25 119.203125 " fill-opacity="1" fill-rule="nonzero"/><g clip-path="url(#289fd2b574)"><path fill="#ffffff" d="M 160.757812 114.113281 C 159.027344 110.476562 155.953125 107.5 152.335938 105.757812 C 144.285156 101.875 134.382812 104.019531 127.78125 109.765625 C 121.539062 115.179688 117.730469 123.9375 119.066406 132.222656 C 119.707031 136.175781 121.582031 139.8125 124.816406 142.261719 C 127.894531 144.585938 131.890625 145.585938 135.707031 145.394531 C 139.917969 145.191406 143.925781 143.5625 147.363281 141.183594 C 147.980469 140.757812 148.574219 140.308594 149.160156 139.847656 C 150.808594 138.9375 152.371094 137.894531 153.832031 136.75 C 157.253906 134.042969 160.039062 130.515625 161.421875 126.339844 C 162.757812 122.320312 162.597656 117.964844 160.757812 114.113281 Z M 123.066406 137.5 C 119.101562 131.179688 120.820312 122.679688 124.558594 116.695312 C 128.601562 110.214844 136.035156 105.816406 143.746094 105.996094 C 145.242188 106.027344 146.746094 106.21875 148.207031 106.566406 C 147.746094 107.027344 147.835938 108.003906 148.664062 108.082031 C 150.328125 108.242188 151.945312 108.980469 153.324219 109.890625 C 154.796875 110.855469 156.019531 112.160156 156.90625 113.675781 C 159.027344 117.300781 158.847656 121.792969 157.445312 125.632812 C 156.074219 129.40625 153.75 132.640625 150.976562 135.503906 C 149.800781 136.726562 148.53125 137.871094 147.171875 138.894531 C 141.03125 142.125 132.945312 144.226562 127.535156 139.027344 C 125.0625 136.648438 123.726562 133.210938 123.425781 129.84375 C 123.109375 126.316406 123.875 122.757812 125.457031 119.601562 C 127.050781 116.425781 129.453125 113.753906 132.429688 111.820312 C 135.539062 109.8125 139.265625 108.8125 142.960938 108.824219 C 146.230469 108.835938 149.640625 109.632812 152.550781 111.113281 C 153.054688 111.371094 153.472656 110.53125 153 110.238281 C 151.148438 109.082031 149.125 108.230469 146.980469 107.78125 C 144.960938 107.363281 142.882812 107.230469 140.828125 107.398438 C 136.71875 107.746094 132.6875 109.226562 129.5 111.878906 C 123.527344 116.875 120.371094 125.183594 122.28125 132.828125 C 123.210938 136.546875 125.402344 140.015625 128.746094 141.980469 C 129.441406 142.386719 130.171875 142.722656 130.914062 142.980469 C 127.726562 142.171875 124.839844 140.332031 123.066406 137.5 Z M 157.984375 129.316406 C 157.804688 129.617188 157.625 129.921875 157.421875 130.214844 C 159.277344 126.800781 160.273438 123.027344 159.949219 119.097656 C 159.871094 118.085938 159.714844 117.109375 159.476562 116.144531 C 159.746094 116.863281 159.960938 117.59375 160.117188 118.34375 C 160.882812 122.105469 159.882812 126.046875 157.984375 129.316406 Z M 157.984375 129.316406 " fill-opacity="1" fill-rule="nonzero"/></g><path fill="#ffffff" d="M 143.074219 130.136719 C 142.894531 129.417969 142.703125 128.710938 142.523438 127.992188 C 142.21875 126.835938 141.929688 125.675781 141.625 124.511719 C 142.0625 124.320312 142.378906 124.082031 142.75 123.632812 C 143.097656 123.195312 142.769531 122.355469 142.21875 122.265625 C 141.761719 122.1875 141.414062 122.195312 141.054688 122.277344 C 140.378906 119.582031 139.761719 116.863281 138.886719 114.234375 C 138.75 113.820312 138.210938 113.5625 137.796875 113.585938 C 137.3125 113.617188 136.988281 113.898438 136.785156 114.324219 C 135.304688 117.480469 133.867188 120.648438 132.644531 123.914062 C 132.472656 124.363281 132.316406 124.800781 132.148438 125.25 C 131.8125 125.386719 131.507812 125.554688 131.238281 125.777344 C 130.9375 126.035156 130.949219 126.65625 131.398438 126.777344 C 131.464844 126.800781 131.53125 126.8125 131.597656 126.824219 C 131.339844 127.5625 131.09375 128.304688 130.859375 129.046875 C 130.285156 130.832031 129.632812 132.707031 129.488281 134.59375 C 129.441406 135.242188 130.410156 135.558594 130.722656 134.964844 C 131.554688 133.367188 132.003906 131.550781 132.574219 129.855469 C 132.933594 128.789062 133.316406 127.730469 133.722656 126.6875 C 133.910156 126.644531 134.101562 126.597656 134.292969 126.566406 C 135.15625 126.386719 136.023438 126.183594 136.886719 125.96875 C 137.617188 125.789062 138.347656 125.597656 139.078125 125.386719 C 139.3125 126.417969 139.546875 127.453125 139.796875 128.484375 C 139.964844 129.226562 140.132812 129.964844 140.3125 130.707031 C 140.558594 131.753906 140.726562 132.976562 141.46875 133.773438 C 142.019531 134.367188 143.1875 134.289062 143.421875 133.402344 C 143.691406 132.289062 143.34375 131.214844 143.074219 130.136719 Z M 136.550781 123.871094 C 135.886719 124.09375 135.226562 124.320312 134.5625 124.53125 C 135.425781 122.386719 136.335938 120.230469 137.347656 118.144531 C 137.71875 119.828125 138.144531 121.488281 138.550781 123.164062 C 137.886719 123.398438 137.222656 123.644531 136.550781 123.871094 Z M 136.550781 123.871094 " fill-opacity="1" fill-rule="nonzero"/><path fill="#ffffff" d="M 154.527344 119.523438 C 154.414062 119.144531 154.121094 119.097656 153.796875 119.007812 C 153.382812 118.882812 152.855469 119.097656 152.449219 119.199219 C 152.101562 119.289062 151.753906 119.378906 151.417969 119.492188 C 151.167969 119.570312 150.921875 119.648438 150.675781 119.738281 C 150.585938 118.894531 150.472656 118.054688 150.328125 117.222656 C 150.171875 116.234375 148.484375 116.3125 148.554688 117.347656 C 148.621094 118.378906 148.699219 119.402344 148.777344 120.433594 C 147.746094 120.839844 146.722656 121.289062 145.746094 121.828125 C 145.152344 122.164062 145.441406 123.253906 146.160156 123.027344 C 147.082031 122.734375 147.980469 122.410156 148.890625 122.097656 C 148.902344 122.242188 148.914062 122.398438 148.921875 122.546875 C 148.96875 123.363281 149.003906 124.195312 149.035156 125.015625 C 149.058594 125.855469 148.921875 126.957031 149.632812 127.550781 C 149.878906 127.753906 150.328125 127.8125 150.585938 127.585938 C 151.347656 126.925781 151.148438 125.777344 151.089844 124.859375 C 151.046875 124.015625 150.988281 123.171875 150.921875 122.332031 C 150.898438 122.039062 150.878906 121.757812 150.84375 121.46875 C 151.335938 121.320312 151.84375 121.1875 152.335938 121.039062 C 152.953125 120.847656 153.671875 120.757812 154.210938 120.367188 C 154.46875 120.164062 154.628906 119.851562 154.527344 119.523438 Z M 154.527344 119.523438 " fill-opacity="1" fill-rule="nonzero"/><g clip-path="url(#7df6d623e4)"><g clip-path="url(#177ff111da)"><g clip-path="url(#5226d5f756)"><path fill="#ff99d8" d="M 116.933594 207.820312 C 115.691406 206.578125 114.199219 205.746094 112.617188 205.3125 C 112.011719 205.148438 111.386719 205.042969 110.761719 205 C 109.269531 204.601562 107.339844 203.722656 106.882812 201.785156 L 122.929688 185.738281 C 125.644531 183.023438 125.644531 178.625 122.929688 175.914062 L 106.679688 159.664062 C 107.238281 158.113281 108.789062 157.324219 110.125 156.921875 C 112.507812 156.84375 114.871094 155.894531 116.6875 154.074219 C 120.488281 150.277344 120.488281 144.113281 116.6875 140.3125 C 112.886719 136.511719 106.722656 136.515625 102.925781 140.3125 C 101.683594 141.554688 100.851562 143.046875 100.421875 144.628906 C 100.253906 145.238281 100.152344 145.855469 100.105469 146.484375 C 99.734375 147.875 98.945312 149.644531 97.269531 150.25 L 81.089844 134.070312 C 78.375 131.359375 73.976562 131.359375 71.265625 134.070312 L 55.214844 150.121094 C 55.671875 152.054688 57.601562 152.933594 59.097656 153.332031 C 59.722656 153.375 60.34375 153.484375 60.953125 153.652344 C 62.53125 154.078125 64.023438 154.910156 65.265625 156.152344 C 69.070312 159.957031 69.066406 166.121094 65.269531 169.917969 C 61.46875 173.71875 55.304688 173.722656 51.5 169.917969 C 49.679688 168.097656 48.738281 165.738281 48.660156 163.355469 C 48.226562 161.917969 47.339844 160.222656 45.542969 159.792969 L 29.421875 175.914062 C 26.710938 178.625 26.710938 183.023438 29.421875 185.738281 L 45.472656 201.785156 C 47.402344 201.324219 48.285156 199.398438 48.683594 197.90625 C 48.726562 197.277344 48.832031 196.660156 49 196.050781 C 49.429688 194.46875 50.261719 192.976562 51.503906 191.734375 C 55.304688 187.933594 61.464844 187.933594 65.265625 191.734375 C 69.066406 195.535156 69.066406 201.695312 65.265625 205.496094 C 63.445312 207.316406 61.089844 208.261719 58.703125 208.34375 C 57.269531 208.773438 55.574219 209.660156 55.144531 211.460938 L 71.265625 227.578125 C 73.976562 230.292969 78.375 230.292969 81.089844 227.578125 L 97.207031 211.460938 C 99.007812 211.886719 99.894531 213.582031 100.328125 215.019531 C 100.40625 217.40625 101.347656 219.765625 103.167969 221.585938 C 106.96875 225.386719 113.132812 225.386719 116.9375 221.585938 C 120.734375 217.785156 120.734375 211.621094 116.933594 207.820312 " fill-opacity="1" fill-rule="nonzero"/></g></g></g><g clip-path="url(#5737f05076)"><path fill="#3679ed" d="M 103.601562 177.597656 C 103.601562 177.597656 94.386719 190.445312 82.53125 190.480469 C 79.0625 190.71875 75.511719 189.46875 72.863281 186.726562 C 70.421875 184.203125 69.203125 180.902344 69.203125 177.597656 C 69.203125 174.292969 70.421875 170.988281 72.863281 168.46875 C 75.511719 165.726562 79.0625 164.476562 82.53125 164.714844 C 94.398438 164.75 103.601562 177.597656 103.601562 177.597656 Z M 103.601562 177.597656 " fill-opacity="1" fill-rule="nonzero"/></g><g clip-path="url(#5fc92dd7fd)"><path fill="#1d67db" d="M 103.601562 177.597656 L 69.203125 177.597656 C 69.203125 174.292969 70.421875 170.988281 72.863281 168.46875 C 75.511719 165.726562 79.0625 164.476562 82.53125 164.714844 C 94.398438 164.75 103.601562 177.597656 103.601562 177.597656 Z M 103.601562 177.597656 " fill-opacity="1" fill-rule="nonzero"/></g><path fill="#ffffff" d="M 92.898438 177.582031 C 92.898438 178.242188 92.832031 178.894531 92.703125 179.542969 C 92.574219 180.1875 92.382812 180.816406 92.128906 181.421875 C 91.875 182.03125 91.5625 182.609375 91.195312 183.160156 C 90.828125 183.707031 90.410156 184.214844 89.941406 184.679688 C 89.472656 185.144531 88.960938 185.5625 88.410156 185.925781 C 87.859375 186.292969 87.28125 186.601562 86.667969 186.855469 C 86.054688 187.105469 85.425781 187.296875 84.773438 187.425781 C 84.125 187.554688 83.46875 187.617188 82.804688 187.617188 C 82.144531 187.617188 81.488281 187.554688 80.835938 187.425781 C 80.1875 187.296875 79.554688 187.105469 78.945312 186.855469 C 78.332031 186.601562 77.75 186.292969 77.199219 185.925781 C 76.648438 185.5625 76.140625 185.144531 75.671875 184.679688 C 75.203125 184.214844 74.785156 183.707031 74.414062 183.160156 C 74.046875 182.609375 73.738281 182.03125 73.484375 181.421875 C 73.230469 180.816406 73.039062 180.1875 72.910156 179.542969 C 72.78125 178.894531 72.714844 178.242188 72.714844 177.582031 C 72.714844 176.925781 72.78125 176.273438 72.910156 175.625 C 73.039062 174.980469 73.230469 174.351562 73.484375 173.742188 C 73.738281 173.132812 74.046875 172.554688 74.414062 172.007812 C 74.785156 171.460938 75.203125 170.953125 75.671875 170.488281 C 76.140625 170.023438 76.648438 169.605469 77.199219 169.238281 C 77.75 168.875 78.332031 168.5625 78.945312 168.3125 C 79.554688 168.058594 80.1875 167.871094 80.835938 167.742188 C 81.488281 167.613281 82.144531 167.546875 82.804688 167.546875 C 83.46875 167.546875 84.125 167.613281 84.773438 167.742188 C 85.425781 167.871094 86.054688 168.058594 86.667969 168.3125 C 87.28125 168.5625 87.859375 168.875 88.410156 169.238281 C 88.960938 169.605469 89.472656 170.023438 89.941406 170.488281 C 90.410156 170.953125 90.828125 171.460938 91.195312 172.007812 C 91.5625 172.554688 91.875 173.132812 92.128906 173.742188 C 92.382812 174.351562 92.574219 174.980469 92.703125 175.625 C 92.832031 176.273438 92.898438 176.925781 92.898438 177.582031 Z M 92.898438 177.582031 " fill-opacity="1" fill-rule="nonzero"/><path fill="#121256" d="M 82.027344 183.390625 L 82.027344 181.386719 L 77.976562 181.386719 L 77.976562 179.292969 L 82.027344 171.804688 L 84.46875 171.804688 L 84.46875 179.417969 L 85.625 179.417969 L 85.625 181.386719 L 84.46875 181.386719 L 84.46875 183.390625 Z M 82.027344 179.417969 L 82.027344 177.128906 C 82.027344 176.667969 82.054688 176.175781 82.105469 175.652344 C 82.152344 175.132812 82.230469 174.5625 82.335938 173.945312 C 82.214844 174.238281 82.082031 174.542969 81.941406 174.851562 C 81.800781 175.160156 81.644531 175.472656 81.480469 175.792969 L 79.582031 179.414062 L 82.027344 179.414062 Z M 82.027344 179.417969 " fill-opacity="1" fill-rule="nonzero"/><g transform="matrix(1, 0, 0, 1, 32, 264)"><g clip-path="url(#c1314e1362)"><g fill="#1c4790" fill-opacity="1"><g transform="translate(0.65613, 14.867534)"><g><path d="M 8.890625 -9.828125 L 5.34375 -9.828125 L 5.34375 0 L 3.90625 0 L 3.90625 -9.828125 L 0.375 -9.828125 L 0.375 -11.015625 L 8.890625 -11.015625 Z M 8.890625 -9.828125 "/></g></g><g transform="translate(9.906471, 14.867534)"><g><path d="M 4.453125 0.15625 C 3.347656 0.15625 2.445312 -0.207031 1.75 -0.9375 C 1.050781 -1.664062 0.703125 -2.644531 0.703125 -3.875 L 0.703125 -4.125 C 0.703125 -4.9375 0.859375 -5.660156 1.171875 -6.296875 C 1.484375 -6.941406 1.914062 -7.441406 2.46875 -7.796875 C 3.03125 -8.160156 3.632812 -8.34375 4.28125 -8.34375 C 5.34375 -8.34375 6.171875 -7.988281 6.765625 -7.28125 C 7.359375 -6.582031 7.65625 -5.582031 7.65625 -4.28125 L 7.65625 -3.6875 L 2.109375 -3.6875 C 2.128906 -2.882812 2.363281 -2.234375 2.8125 -1.734375 C 3.257812 -1.234375 3.832031 -0.984375 4.53125 -0.984375 C 5.03125 -0.984375 5.445312 -1.082031 5.78125 -1.28125 C 6.125 -1.488281 6.425781 -1.757812 6.6875 -2.09375 L 7.546875 -1.4375 C 6.859375 -0.375 5.828125 0.15625 4.453125 0.15625 Z M 4.28125 -7.1875 C 3.71875 -7.1875 3.242188 -6.976562 2.859375 -6.5625 C 2.472656 -6.15625 2.238281 -5.582031 2.15625 -4.84375 L 6.25 -4.84375 L 6.25 -4.953125 C 6.207031 -5.660156 6.015625 -6.207031 5.671875 -6.59375 C 5.328125 -6.988281 4.863281 -7.1875 4.28125 -7.1875 Z M 4.28125 -7.1875 "/></g></g><g transform="translate(18.119744, 14.867534)"><g><path d="M 5.828125 -2.171875 C 5.828125 -2.546875 5.679688 -2.835938 5.390625 -3.046875 C 5.109375 -3.265625 4.613281 -3.445312 3.90625 -3.59375 C 3.195312 -3.75 2.632812 -3.929688 2.21875 -4.140625 C 1.800781 -4.347656 1.492188 -4.597656 1.296875 -4.890625 C 1.097656 -5.179688 1 -5.53125 1 -5.9375 C 1 -6.613281 1.28125 -7.179688 1.84375 -7.640625 C 2.414062 -8.109375 3.144531 -8.34375 4.03125 -8.34375 C 4.957031 -8.34375 5.707031 -8.101562 6.28125 -7.625 C 6.863281 -7.144531 7.15625 -6.53125 7.15625 -5.78125 L 5.75 -5.78125 C 5.75 -6.164062 5.582031 -6.492188 5.25 -6.765625 C 4.925781 -7.046875 4.519531 -7.1875 4.03125 -7.1875 C 3.519531 -7.1875 3.117188 -7.078125 2.828125 -6.859375 C 2.546875 -6.640625 2.40625 -6.347656 2.40625 -5.984375 C 2.40625 -5.648438 2.535156 -5.394531 2.796875 -5.21875 C 3.066406 -5.050781 3.550781 -4.890625 4.25 -4.734375 C 4.945312 -4.578125 5.507812 -4.390625 5.9375 -4.171875 C 6.375 -3.953125 6.695312 -3.6875 6.90625 -3.375 C 7.125 -3.070312 7.234375 -2.703125 7.234375 -2.265625 C 7.234375 -1.535156 6.9375 -0.945312 6.34375 -0.5 C 5.757812 -0.0625 5.003906 0.15625 4.078125 0.15625 C 3.421875 0.15625 2.835938 0.0390625 2.328125 -0.1875 C 1.828125 -0.425781 1.429688 -0.753906 1.140625 -1.171875 C 0.859375 -1.585938 0.71875 -2.035156 0.71875 -2.515625 L 2.125 -2.515625 C 2.144531 -2.046875 2.328125 -1.671875 2.671875 -1.390625 C 3.023438 -1.117188 3.492188 -0.984375 4.078125 -0.984375 C 4.597656 -0.984375 5.019531 -1.09375 5.34375 -1.3125 C 5.664062 -1.53125 5.828125 -1.816406 5.828125 -2.171875 Z M 5.828125 -2.171875 "/></g></g><g transform="translate(26.113491, 14.867534)"><g><path d="M 2.953125 -10.171875 L 2.953125 -8.1875 L 4.484375 -8.1875 L 4.484375 -7.109375 L 2.953125 -7.109375 L 2.953125 -2.03125 C 2.953125 -1.695312 3.019531 -1.445312 3.15625 -1.28125 C 3.300781 -1.125 3.535156 -1.046875 3.859375 -1.046875 C 4.023438 -1.046875 4.25 -1.078125 4.53125 -1.140625 L 4.53125 0 C 4.15625 0.101562 3.796875 0.15625 3.453125 0.15625 C 2.828125 0.15625 2.351562 -0.03125 2.03125 -0.40625 C 1.71875 -0.789062 1.5625 -1.332031 1.5625 -2.03125 L 1.5625 -7.109375 L 0.0625 -7.109375 L 0.0625 -8.1875 L 1.5625 -8.1875 L 1.5625 -10.171875 Z M 2.953125 -10.171875 "/></g></g><g transform="translate(31.177712, 14.867534)"><g/></g><g transform="translate(35.01562, 14.867534)"><g><path d="M 3.734375 -2.046875 L 5.640625 -8.1875 L 7.140625 -8.1875 L 3.859375 1.265625 C 3.347656 2.628906 2.535156 3.3125 1.421875 3.3125 L 1.15625 3.28125 L 0.640625 3.1875 L 0.640625 2.046875 L 1.015625 2.078125 C 1.484375 2.078125 1.847656 1.976562 2.109375 1.78125 C 2.378906 1.59375 2.601562 1.242188 2.78125 0.734375 L 3.09375 -0.09375 L 0.171875 -8.1875 L 1.703125 -8.1875 Z M 3.734375 -2.046875 "/></g></g><g transform="translate(42.350791, 14.867534)"><g><path d="M 0.6875 -4.171875 C 0.6875 -4.972656 0.84375 -5.691406 1.15625 -6.328125 C 1.476562 -6.972656 1.921875 -7.46875 2.484375 -7.8125 C 3.046875 -8.164062 3.6875 -8.34375 4.40625 -8.34375 C 5.519531 -8.34375 6.421875 -7.957031 7.109375 -7.1875 C 7.796875 -6.414062 8.140625 -5.390625 8.140625 -4.109375 L 8.140625 -4 C 8.140625 -3.207031 7.988281 -2.492188 7.6875 -1.859375 C 7.382812 -1.222656 6.945312 -0.726562 6.375 -0.375 C 5.8125 -0.0195312 5.160156 0.15625 4.421875 0.15625 C 3.304688 0.15625 2.40625 -0.226562 1.71875 -1 C 1.03125 -1.78125 0.6875 -2.804688 0.6875 -4.078125 Z M 2.09375 -4 C 2.09375 -3.09375 2.300781 -2.363281 2.71875 -1.8125 C 3.144531 -1.257812 3.710938 -0.984375 4.421875 -0.984375 C 5.128906 -0.984375 5.691406 -1.265625 6.109375 -1.828125 C 6.535156 -2.390625 6.75 -3.171875 6.75 -4.171875 C 6.75 -5.066406 6.535156 -5.789062 6.109375 -6.34375 C 5.679688 -6.90625 5.113281 -7.1875 4.40625 -7.1875 C 3.71875 -7.1875 3.160156 -6.910156 2.734375 -6.359375 C 2.304688 -5.816406 2.09375 -5.03125 2.09375 -4 Z M 2.09375 -4 "/></g></g><g transform="translate(51.192361, 14.867534)"><g><path d="M 6.109375 -0.8125 C 5.566406 -0.164062 4.769531 0.15625 3.71875 0.15625 C 2.84375 0.15625 2.175781 -0.0976562 1.71875 -0.609375 C 1.257812 -1.117188 1.03125 -1.867188 1.03125 -2.859375 L 1.03125 -8.1875 L 2.421875 -8.1875 L 2.421875 -2.90625 C 2.421875 -1.65625 2.925781 -1.03125 3.9375 -1.03125 C 5.007812 -1.03125 5.722656 -1.429688 6.078125 -2.234375 L 6.078125 -8.1875 L 7.484375 -8.1875 L 7.484375 0 L 6.140625 0 Z M 6.109375 -0.8125 "/></g></g><g transform="translate(59.738707, 14.867534)"><g><path d="M 5.015625 -6.9375 C 4.804688 -6.96875 4.578125 -6.984375 4.328125 -6.984375 C 3.410156 -6.984375 2.785156 -6.59375 2.453125 -5.8125 L 2.453125 0 L 1.0625 0 L 1.0625 -8.1875 L 2.421875 -8.1875 L 2.4375 -7.25 C 2.90625 -7.976562 3.554688 -8.34375 4.390625 -8.34375 C 4.671875 -8.34375 4.878906 -8.304688 5.015625 -8.234375 Z M 5.015625 -6.9375 "/></g></g><g transform="translate(64.984604, 14.867534)"><g/></g><g transform="translate(68.822511, 14.867534)"><g><path d="M 5.015625 -6.9375 C 4.804688 -6.96875 4.578125 -6.984375 4.328125 -6.984375 C 3.410156 -6.984375 2.785156 -6.59375 2.453125 -5.8125 L 2.453125 0 L 1.0625 0 L 1.0625 -8.1875 L 2.421875 -8.1875 L 2.4375 -7.25 C 2.90625 -7.976562 3.554688 -8.34375 4.390625 -8.34375 C 4.671875 -8.34375 4.878906 -8.304688 5.015625 -8.234375 Z M 5.015625 -6.9375 "/></g></g><g transform="translate(74.068408, 14.867534)"><g><path d="M 4.453125 0.15625 C 3.347656 0.15625 2.445312 -0.207031 1.75 -0.9375 C 1.050781 -1.664062 0.703125 -2.644531 0.703125 -3.875 L 0.703125 -4.125 C 0.703125 -4.9375 0.859375 -5.660156 1.171875 -6.296875 C 1.484375 -6.941406 1.914062 -7.441406 2.46875 -7.796875 C 3.03125 -8.160156 3.632812 -8.34375 4.28125 -8.34375 C 5.34375 -8.34375 6.171875 -7.988281 6.765625 -7.28125 C 7.359375 -6.582031 7.65625 -5.582031 7.65625 -4.28125 L 7.65625 -3.6875 L 2.109375 -3.6875 C 2.128906 -2.882812 2.363281 -2.234375 2.8125 -1.734375 C 3.257812 -1.234375 3.832031 -0.984375 4.53125 -0.984375 C 5.03125 -0.984375 5.445312 -1.082031 5.78125 -1.28125 C 6.125 -1.488281 6.425781 -1.757812 6.6875 -2.09375 L 7.546875 -1.4375 C 6.859375 -0.375 5.828125 0.15625 4.453125 0.15625 Z M 4.28125 -7.1875 C 3.71875 -7.1875 3.242188 -6.976562 2.859375 -6.5625 C 2.472656 -6.15625 2.238281 -5.582031 2.15625 -4.84375 L 6.25 -4.84375 L 6.25 -4.953125 C 6.207031 -5.660156 6.015625 -6.207031 5.671875 -6.59375 C 5.328125 -6.988281 4.863281 -7.1875 4.28125 -7.1875 Z M 4.28125 -7.1875 "/></g></g><g transform="translate(82.281681, 14.867534)"><g><path d="M 6.109375 0 C 6.035156 -0.164062 5.972656 -0.453125 5.921875 -0.859375 C 5.265625 -0.179688 4.488281 0.15625 3.59375 0.15625 C 2.78125 0.15625 2.113281 -0.0703125 1.59375 -0.53125 C 1.082031 -0.988281 0.828125 -1.566406 0.828125 -2.265625 C 0.828125 -3.117188 1.148438 -3.78125 1.796875 -4.25 C 2.441406 -4.726562 3.351562 -4.96875 4.53125 -4.96875 L 5.890625 -4.96875 L 5.890625 -5.609375 C 5.890625 -6.097656 5.742188 -6.488281 5.453125 -6.78125 C 5.160156 -7.070312 4.726562 -7.21875 4.15625 -7.21875 C 3.65625 -7.21875 3.238281 -7.085938 2.90625 -6.828125 C 2.570312 -6.578125 2.40625 -6.273438 2.40625 -5.921875 L 0.984375 -5.921875 C 0.984375 -6.328125 1.128906 -6.71875 1.421875 -7.09375 C 1.710938 -7.476562 2.109375 -7.78125 2.609375 -8 C 3.109375 -8.226562 3.65625 -8.34375 4.25 -8.34375 C 5.1875 -8.34375 5.921875 -8.101562 6.453125 -7.625 C 6.992188 -7.15625 7.273438 -6.507812 7.296875 -5.6875 L 7.296875 -1.921875 C 7.296875 -1.160156 7.390625 -0.5625 7.578125 -0.125 L 7.578125 0 Z M 3.796875 -1.0625 C 4.234375 -1.0625 4.644531 -1.175781 5.03125 -1.40625 C 5.425781 -1.632812 5.710938 -1.929688 5.890625 -2.296875 L 5.890625 -3.96875 L 4.796875 -3.96875 C 3.078125 -3.96875 2.21875 -3.46875 2.21875 -2.46875 C 2.21875 -2.03125 2.363281 -1.6875 2.65625 -1.4375 C 2.957031 -1.1875 3.335938 -1.0625 3.796875 -1.0625 Z M 3.796875 -1.0625 "/></g></g><g transform="translate(90.714479, 14.867534)"><g><path d="M 0.71875 -4.15625 C 0.71875 -5.414062 1.015625 -6.425781 1.609375 -7.1875 C 2.203125 -7.957031 2.984375 -8.34375 3.953125 -8.34375 C 4.910156 -8.34375 5.671875 -8.015625 6.234375 -7.359375 L 6.234375 -11.625 L 7.625 -11.625 L 7.625 0 L 6.34375 0 L 6.28125 -0.875 C 5.71875 -0.1875 4.9375 0.15625 3.9375 0.15625 C 2.988281 0.15625 2.210938 -0.234375 1.609375 -1.015625 C 1.015625 -1.796875 0.71875 -2.8125 0.71875 -4.0625 Z M 2.125 -4 C 2.125 -3.070312 2.3125 -2.34375 2.6875 -1.8125 C 3.070312 -1.289062 3.601562 -1.03125 4.28125 -1.03125 C 5.164062 -1.03125 5.816406 -1.429688 6.234375 -2.234375 L 6.234375 -6 C 5.804688 -6.769531 5.160156 -7.15625 4.296875 -7.15625 C 3.609375 -7.15625 3.070312 -6.890625 2.6875 -6.359375 C 2.3125 -5.828125 2.125 -5.039062 2.125 -4 Z M 2.125 -4 "/></g></g><g transform="translate(99.45764, 14.867534)"><g><path d="M 2.578125 0 L 1.1875 0 L 1.1875 -8.1875 L 2.578125 -8.1875 Z M 1.0625 -10.359375 C 1.0625 -10.585938 1.128906 -10.78125 1.265625 -10.9375 C 1.410156 -11.09375 1.617188 -11.171875 1.890625 -11.171875 C 2.160156 -11.171875 2.363281 -11.09375 2.5 -10.9375 C 2.644531 -10.78125 2.71875 -10.585938 2.71875 -10.359375 C 2.71875 -10.128906 2.644531 -9.9375 2.5 -9.78125 C 2.363281 -9.632812 2.160156 -9.5625 1.890625 -9.5625 C 1.617188 -9.5625 1.410156 -9.632812 1.265625 -9.78125 C 1.128906 -9.9375 1.0625 -10.128906 1.0625 -10.359375 Z M 1.0625 -10.359375 "/></g></g><g transform="translate(103.219849, 14.867534)"><g><path d="M 2.390625 -8.1875 L 2.421875 -7.15625 C 3.054688 -7.945312 3.875 -8.34375 4.875 -8.34375 C 6.613281 -8.34375 7.488281 -7.363281 7.5 -5.40625 L 7.5 0 L 6.09375 0 L 6.09375 -5.421875 C 6.09375 -6.003906 5.957031 -6.4375 5.6875 -6.71875 C 5.425781 -7.007812 5.015625 -7.15625 4.453125 -7.15625 C 4.003906 -7.15625 3.609375 -7.03125 3.265625 -6.78125 C 2.921875 -6.539062 2.648438 -6.222656 2.453125 -5.828125 L 2.453125 0 L 1.0625 0 L 1.0625 -8.1875 Z M 2.390625 -8.1875 "/></g></g><g transform="translate(111.773765, 14.867534)"><g><path d="M 4.453125 0.15625 C 3.347656 0.15625 2.445312 -0.207031 1.75 -0.9375 C 1.050781 -1.664062 0.703125 -2.644531 0.703125 -3.875 L 0.703125 -4.125 C 0.703125 -4.9375 0.859375 -5.660156 1.171875 -6.296875 C 1.484375 -6.941406 1.914062 -7.441406 2.46875 -7.796875 C 3.03125 -8.160156 3.632812 -8.34375 4.28125 -8.34375 C 5.34375 -8.34375 6.171875 -7.988281 6.765625 -7.28125 C 7.359375 -6.582031 7.65625 -5.582031 7.65625 -4.28125 L 7.65625 -3.6875 L 2.109375 -3.6875 C 2.128906 -2.882812 2.363281 -2.234375 2.8125 -1.734375 C 3.257812 -1.234375 3.832031 -0.984375 4.53125 -0.984375 C 5.03125 -0.984375 5.445312 -1.082031 5.78125 -1.28125 C 6.125 -1.488281 6.425781 -1.757812 6.6875 -2.09375 L 7.546875 -1.4375 C 6.859375 -0.375 5.828125 0.15625 4.453125 0.15625 Z M 4.28125 -7.1875 C 3.71875 -7.1875 3.242188 -6.976562 2.859375 -6.5625 C 2.472656 -6.15625 2.238281 -5.582031 2.15625 -4.84375 L 6.25 -4.84375 L 6.25 -4.953125 C 6.207031 -5.660156 6.015625 -6.207031 5.671875 -6.59375 C 5.328125 -6.988281 4.863281 -7.1875 4.28125 -7.1875 Z M 4.28125 -7.1875 "/></g></g><g transform="translate(119.987038, 14.867534)"><g><path d="M 5.828125 -2.171875 C 5.828125 -2.546875 5.679688 -2.835938 5.390625 -3.046875 C 5.109375 -3.265625 4.613281 -3.445312 3.90625 -3.59375 C 3.195312 -3.75 2.632812 -3.929688 2.21875 -4.140625 C 1.800781 -4.347656 1.492188 -4.597656 1.296875 -4.890625 C 1.097656 -5.179688 1 -5.53125 1 -5.9375 C 1 -6.613281 1.28125 -7.179688 1.84375 -7.640625 C 2.414062 -8.109375 3.144531 -8.34375 4.03125 -8.34375 C 4.957031 -8.34375 5.707031 -8.101562 6.28125 -7.625 C 6.863281 -7.144531 7.15625 -6.53125 7.15625 -5.78125 L 5.75 -5.78125 C 5.75 -6.164062 5.582031 -6.492188 5.25 -6.765625 C 4.925781 -7.046875 4.519531 -7.1875 4.03125 -7.1875 C 3.519531 -7.1875 3.117188 -7.078125 2.828125 -6.859375 C 2.546875 -6.640625 2.40625 -6.347656 2.40625 -5.984375 C 2.40625 -5.648438 2.535156 -5.394531 2.796875 -5.21875 C 3.066406 -5.050781 3.550781 -4.890625 4.25 -4.734375 C 4.945312 -4.578125 5.507812 -4.390625 5.9375 -4.171875 C 6.375 -3.953125 6.695312 -3.6875 6.90625 -3.375 C 7.125 -3.070312 7.234375 -2.703125 7.234375 -2.265625 C 7.234375 -1.535156 6.9375 -0.945312 6.34375 -0.5 C 5.757812 -0.0625 5.003906 0.15625 4.078125 0.15625 C 3.421875 0.15625 2.835938 0.0390625 2.328125 -0.1875 C 1.828125 -0.425781 1.429688 -0.753906 1.140625 -1.171875 C 0.859375 -1.585938 0.71875 -2.035156 0.71875 -2.515625 L 2.125 -2.515625 C 2.144531 -2.046875 2.328125 -1.671875 2.671875 -1.390625 C 3.023438 -1.117188 3.492188 -0.984375 4.078125 -0.984375 C 4.597656 -0.984375 5.019531 -1.09375 5.34375 -1.3125 C 5.664062 -1.53125 5.828125 -1.816406 5.828125 -2.171875 Z M 5.828125 -2.171875 "/></g></g><g transform="translate(127.980786, 14.867534)"><g><path d="M 5.828125 -2.171875 C 5.828125 -2.546875 5.679688 -2.835938 5.390625 -3.046875 C 5.109375 -3.265625 4.613281 -3.445312 3.90625 -3.59375 C 3.195312 -3.75 2.632812 -3.929688 2.21875 -4.140625 C 1.800781 -4.347656 1.492188 -4.597656 1.296875 -4.890625 C 1.097656 -5.179688 1 -5.53125 1 -5.9375 C 1 -6.613281 1.28125 -7.179688 1.84375 -7.640625 C 2.414062 -8.109375 3.144531 -8.34375 4.03125 -8.34375 C 4.957031 -8.34375 5.707031 -8.101562 6.28125 -7.625 C 6.863281 -7.144531 7.15625 -6.53125 7.15625 -5.78125 L 5.75 -5.78125 C 5.75 -6.164062 5.582031 -6.492188 5.25 -6.765625 C 4.925781 -7.046875 4.519531 -7.1875 4.03125 -7.1875 C 3.519531 -7.1875 3.117188 -7.078125 2.828125 -6.859375 C 2.546875 -6.640625 2.40625 -6.347656 2.40625 -5.984375 C 2.40625 -5.648438 2.535156 -5.394531 2.796875 -5.21875 C 3.066406 -5.050781 3.550781 -4.890625 4.25 -4.734375 C 4.945312 -4.578125 5.507812 -4.390625 5.9375 -4.171875 C 6.375 -3.953125 6.695312 -3.6875 6.90625 -3.375 C 7.125 -3.070312 7.234375 -2.703125 7.234375 -2.265625 C 7.234375 -1.535156 6.9375 -0.945312 6.34375 -0.5 C 5.757812 -0.0625 5.003906 0.15625 4.078125 0.15625 C 3.421875 0.15625 2.835938 0.0390625 2.328125 -0.1875 C 1.828125 -0.425781 1.429688 -0.753906 1.140625 -1.171875 C 0.859375 -1.585938 0.71875 -2.035156 0.71875 -2.515625 L 2.125 -2.515625 C 2.144531 -2.046875 2.328125 -1.671875 2.671875 -1.390625 C 3.023438 -1.117188 3.492188 -0.984375 4.078125 -0.984375 C 4.597656 -0.984375 5.019531 -1.09375 5.34375 -1.3125 C 5.664062 -1.53125 5.828125 -1.816406 5.828125 -2.171875 Z M 5.828125 -2.171875 "/></g></g><g transform="translate(135.974533, 14.867534)"><g/></g><g transform="translate(139.81244, 14.867534)"><g><path d="M 8.3125 -1.9375 L 9.890625 -8.1875 L 11.28125 -8.1875 L 8.90625 0 L 7.765625 0 L 5.78125 -6.203125 L 3.84375 0 L 2.703125 0 L 0.328125 -8.1875 L 1.71875 -8.1875 L 3.328125 -2.0625 L 5.234375 -8.1875 L 6.359375 -8.1875 Z M 8.3125 -1.9375 "/></g></g><g transform="translate(151.462419, 14.867534)"><g><path d="M 2.578125 0 L 1.1875 0 L 1.1875 -8.1875 L 2.578125 -8.1875 Z M 1.0625 -10.359375 C 1.0625 -10.585938 1.128906 -10.78125 1.265625 -10.9375 C 1.410156 -11.09375 1.617188 -11.171875 1.890625 -11.171875 C 2.160156 -11.171875 2.363281 -11.09375 2.5 -10.9375 C 2.644531 -10.78125 2.71875 -10.585938 2.71875 -10.359375 C 2.71875 -10.128906 2.644531 -9.9375 2.5 -9.78125 C 2.363281 -9.632812 2.160156 -9.5625 1.890625 -9.5625 C 1.617188 -9.5625 1.410156 -9.632812 1.265625 -9.78125 C 1.128906 -9.9375 1.0625 -10.128906 1.0625 -10.359375 Z M 1.0625 -10.359375 "/></g></g><g transform="translate(155.224628, 14.867534)"><g><path d="M 2.953125 -10.171875 L 2.953125 -8.1875 L 4.484375 -8.1875 L 4.484375 -7.109375 L 2.953125 -7.109375 L 2.953125 -2.03125 C 2.953125 -1.695312 3.019531 -1.445312 3.15625 -1.28125 C 3.300781 -1.125 3.535156 -1.046875 3.859375 -1.046875 C 4.023438 -1.046875 4.25 -1.078125 4.53125 -1.140625 L 4.53125 0 C 4.15625 0.101562 3.796875 0.15625 3.453125 0.15625 C 2.828125 0.15625 2.351562 -0.03125 2.03125 -0.40625 C 1.71875 -0.789062 1.5625 -1.332031 1.5625 -2.03125 L 1.5625 -7.109375 L 0.0625 -7.109375 L 0.0625 -8.1875 L 1.5625 -8.1875 L 1.5625 -10.171875 Z M 2.953125 -10.171875 "/></g></g><g transform="translate(160.288849, 14.867534)"><g><path d="M 2.453125 -7.203125 C 3.078125 -7.960938 3.882812 -8.34375 4.875 -8.34375 C 6.613281 -8.34375 7.488281 -7.363281 7.5 -5.40625 L 7.5 0 L 6.09375 0 L 6.09375 -5.421875 C 6.09375 -6.003906 5.957031 -6.4375 5.6875 -6.71875 C 5.425781 -7.007812 5.015625 -7.15625 4.453125 -7.15625 C 4.003906 -7.15625 3.609375 -7.03125 3.265625 -6.78125 C 2.921875 -6.539062 2.648438 -6.222656 2.453125 -5.828125 L 2.453125 0 L 1.0625 0 L 1.0625 -11.625 L 2.453125 -11.625 Z M 2.453125 -7.203125 "/></g></g></g><g fill="#1c4790" fill-opacity="1"><g transform="translate(2.66466, 36.184195)"><g><path d="M 2.375 -8.1875 L 2.421875 -7.28125 C 3.015625 -7.988281 3.820312 -8.34375 4.84375 -8.34375 C 5.988281 -8.34375 6.769531 -7.90625 7.1875 -7.03125 C 7.457031 -7.414062 7.8125 -7.726562 8.25 -7.96875 C 8.6875 -8.21875 9.203125 -8.34375 9.796875 -8.34375 C 11.585938 -8.34375 12.5 -7.390625 12.53125 -5.484375 L 12.53125 0 L 11.140625 0 L 11.140625 -5.40625 C 11.140625 -5.988281 11.003906 -6.425781 10.734375 -6.71875 C 10.460938 -7.007812 10.015625 -7.15625 9.390625 -7.15625 C 8.867188 -7.15625 8.4375 -7 8.09375 -6.6875 C 7.75 -6.375 7.550781 -5.957031 7.5 -5.4375 L 7.5 0 L 6.078125 0 L 6.078125 -5.359375 C 6.078125 -6.554688 5.5 -7.15625 4.34375 -7.15625 C 3.414062 -7.15625 2.785156 -6.765625 2.453125 -5.984375 L 2.453125 0 L 1.046875 0 L 1.046875 -8.1875 Z M 2.375 -8.1875 "/></g></g><g transform="translate(16.252517, 36.184195)"><g><path d="M 0.6875 -4.171875 C 0.6875 -4.972656 0.84375 -5.691406 1.15625 -6.328125 C 1.476562 -6.972656 1.921875 -7.46875 2.484375 -7.8125 C 3.046875 -8.164062 3.6875 -8.34375 4.40625 -8.34375 C 5.519531 -8.34375 6.421875 -7.957031 7.109375 -7.1875 C 7.796875 -6.414062 8.140625 -5.390625 8.140625 -4.109375 L 8.140625 -4 C 8.140625 -3.207031 7.988281 -2.492188 7.6875 -1.859375 C 7.382812 -1.222656 6.945312 -0.726562 6.375 -0.375 C 5.8125 -0.0195312 5.160156 0.15625 4.421875 0.15625 C 3.304688 0.15625 2.40625 -0.226562 1.71875 -1 C 1.03125 -1.78125 0.6875 -2.804688 0.6875 -4.078125 Z M 2.09375 -4 C 2.09375 -3.09375 2.300781 -2.363281 2.71875 -1.8125 C 3.144531 -1.257812 3.710938 -0.984375 4.421875 -0.984375 C 5.128906 -0.984375 5.691406 -1.265625 6.109375 -1.828125 C 6.535156 -2.390625 6.75 -3.171875 6.75 -4.171875 C 6.75 -5.066406 6.535156 -5.789062 6.109375 -6.34375 C 5.679688 -6.90625 5.113281 -7.1875 4.40625 -7.1875 C 3.71875 -7.1875 3.160156 -6.910156 2.734375 -6.359375 C 2.304688 -5.816406 2.09375 -5.03125 2.09375 -4 Z M 2.09375 -4 "/></g></g><g transform="translate(25.094087, 36.184195)"><g><path d="M 4.34375 -0.984375 C 4.84375 -0.984375 5.28125 -1.132812 5.65625 -1.4375 C 6.03125 -1.75 6.238281 -2.128906 6.28125 -2.578125 L 7.59375 -2.578125 C 7.570312 -2.109375 7.410156 -1.660156 7.109375 -1.234375 C 6.816406 -0.816406 6.421875 -0.476562 5.921875 -0.21875 C 5.421875 0.03125 4.894531 0.15625 4.34375 0.15625 C 3.226562 0.15625 2.34375 -0.210938 1.6875 -0.953125 C 1.03125 -1.703125 0.703125 -2.722656 0.703125 -4.015625 L 0.703125 -4.25 C 0.703125 -5.050781 0.847656 -5.757812 1.140625 -6.375 C 1.429688 -7 1.847656 -7.484375 2.390625 -7.828125 C 2.941406 -8.171875 3.59375 -8.34375 4.34375 -8.34375 C 5.257812 -8.34375 6.019531 -8.066406 6.625 -7.515625 C 7.226562 -6.960938 7.550781 -6.25 7.59375 -5.375 L 6.28125 -5.375 C 6.238281 -5.90625 6.035156 -6.335938 5.671875 -6.671875 C 5.304688 -7.015625 4.863281 -7.1875 4.34375 -7.1875 C 3.625 -7.1875 3.066406 -6.929688 2.671875 -6.421875 C 2.285156 -5.910156 2.09375 -5.171875 2.09375 -4.203125 L 2.09375 -3.9375 C 2.09375 -2.988281 2.285156 -2.257812 2.671875 -1.75 C 3.066406 -1.238281 3.625 -0.984375 4.34375 -0.984375 Z M 4.34375 -0.984375 "/></g></g><g transform="translate(33.208952, 36.184195)"><g><path d="M 3.34375 -3.796875 L 2.46875 -2.875 L 2.46875 0 L 1.0625 0 L 1.0625 -11.625 L 2.46875 -11.625 L 2.46875 -4.59375 L 3.21875 -5.5 L 5.765625 -8.1875 L 7.46875 -8.1875 L 4.28125 -4.765625 L 7.84375 0 L 6.203125 0 Z M 3.34375 -3.796875 "/></g></g><g transform="translate(41.066442, 36.184195)"><g/></g><g transform="translate(44.90435, 36.184195)"><g><path d="M 4.453125 0.15625 C 3.347656 0.15625 2.445312 -0.207031 1.75 -0.9375 C 1.050781 -1.664062 0.703125 -2.644531 0.703125 -3.875 L 0.703125 -4.125 C 0.703125 -4.9375 0.859375 -5.660156 1.171875 -6.296875 C 1.484375 -6.941406 1.914062 -7.441406 2.46875 -7.796875 C 3.03125 -8.160156 3.632812 -8.34375 4.28125 -8.34375 C 5.34375 -8.34375 6.171875 -7.988281 6.765625 -7.28125 C 7.359375 -6.582031 7.65625 -5.582031 7.65625 -4.28125 L 7.65625 -3.6875 L 2.109375 -3.6875 C 2.128906 -2.882812 2.363281 -2.234375 2.8125 -1.734375 C 3.257812 -1.234375 3.832031 -0.984375 4.53125 -0.984375 C 5.03125 -0.984375 5.445312 -1.082031 5.78125 -1.28125 C 6.125 -1.488281 6.425781 -1.757812 6.6875 -2.09375 L 7.546875 -1.4375 C 6.859375 -0.375 5.828125 0.15625 4.453125 0.15625 Z M 4.28125 -7.1875 C 3.71875 -7.1875 3.242188 -6.976562 2.859375 -6.5625 C 2.472656 -6.15625 2.238281 -5.582031 2.15625 -4.84375 L 6.25 -4.84375 L 6.25 -4.953125 C 6.207031 -5.660156 6.015625 -6.207031 5.671875 -6.59375 C 5.328125 -6.988281 4.863281 -7.1875 4.28125 -7.1875 Z M 4.28125 -7.1875 "/></g></g><g transform="translate(53.117623, 36.184195)"><g><path d="M 3.8125 -5.203125 L 5.625 -8.1875 L 7.265625 -8.1875 L 4.578125 -4.140625 L 7.34375 0 L 5.71875 0 L 3.828125 -3.0625 L 1.9375 0 L 0.3125 0 L 3.078125 -4.140625 L 0.390625 -8.1875 L 2.015625 -8.1875 Z M 3.8125 -5.203125 "/></g></g><g transform="translate(60.801007, 36.184195)"><g><path d="M 6.109375 0 C 6.035156 -0.164062 5.972656 -0.453125 5.921875 -0.859375 C 5.265625 -0.179688 4.488281 0.15625 3.59375 0.15625 C 2.78125 0.15625 2.113281 -0.0703125 1.59375 -0.53125 C 1.082031 -0.988281 0.828125 -1.566406 0.828125 -2.265625 C 0.828125 -3.117188 1.148438 -3.78125 1.796875 -4.25 C 2.441406 -4.726562 3.351562 -4.96875 4.53125 -4.96875 L 5.890625 -4.96875 L 5.890625 -5.609375 C 5.890625 -6.097656 5.742188 -6.488281 5.453125 -6.78125 C 5.160156 -7.070312 4.726562 -7.21875 4.15625 -7.21875 C 3.65625 -7.21875 3.238281 -7.085938 2.90625 -6.828125 C 2.570312 -6.578125 2.40625 -6.273438 2.40625 -5.921875 L 0.984375 -5.921875 C 0.984375 -6.328125 1.128906 -6.71875 1.421875 -7.09375 C 1.710938 -7.476562 2.109375 -7.78125 2.609375 -8 C 3.109375 -8.226562 3.65625 -8.34375 4.25 -8.34375 C 5.1875 -8.34375 5.921875 -8.101562 6.453125 -7.625 C 6.992188 -7.15625 7.273438 -6.507812 7.296875 -5.6875 L 7.296875 -1.921875 C 7.296875 -1.160156 7.390625 -0.5625 7.578125 -0.125 L 7.578125 0 Z M 3.796875 -1.0625 C 4.234375 -1.0625 4.644531 -1.175781 5.03125 -1.40625 C 5.425781 -1.632812 5.710938 -1.929688 5.890625 -2.296875 L 5.890625 -3.96875 L 4.796875 -3.96875 C 3.078125 -3.96875 2.21875 -3.46875 2.21875 -2.46875 C 2.21875 -2.03125 2.363281 -1.6875 2.65625 -1.4375 C 2.957031 -1.1875 3.335938 -1.0625 3.796875 -1.0625 Z M 3.796875 -1.0625 "/></g></g><g transform="translate(69.233805, 36.184195)"><g><path d="M 2.375 -8.1875 L 2.421875 -7.28125 C 3.015625 -7.988281 3.820312 -8.34375 4.84375 -8.34375 C 5.988281 -8.34375 6.769531 -7.90625 7.1875 -7.03125 C 7.457031 -7.414062 7.8125 -7.726562 8.25 -7.96875 C 8.6875 -8.21875 9.203125 -8.34375 9.796875 -8.34375 C 11.585938 -8.34375 12.5 -7.390625 12.53125 -5.484375 L 12.53125 0 L 11.140625 0 L 11.140625 -5.40625 C 11.140625 -5.988281 11.003906 -6.425781 10.734375 -6.71875 C 10.460938 -7.007812 10.015625 -7.15625 9.390625 -7.15625 C 8.867188 -7.15625 8.4375 -7 8.09375 -6.6875 C 7.75 -6.375 7.550781 -5.957031 7.5 -5.4375 L 7.5 0 L 6.078125 0 L 6.078125 -5.359375 C 6.078125 -6.554688 5.5 -7.15625 4.34375 -7.15625 C 3.414062 -7.15625 2.785156 -6.765625 2.453125 -5.984375 L 2.453125 0 L 1.046875 0 L 1.046875 -8.1875 Z M 2.375 -8.1875 "/></g></g><g transform="translate(82.821662, 36.184195)"><g><path d="M 5.828125 -2.171875 C 5.828125 -2.546875 5.679688 -2.835938 5.390625 -3.046875 C 5.109375 -3.265625 4.613281 -3.445312 3.90625 -3.59375 C 3.195312 -3.75 2.632812 -3.929688 2.21875 -4.140625 C 1.800781 -4.347656 1.492188 -4.597656 1.296875 -4.890625 C 1.097656 -5.179688 1 -5.53125 1 -5.9375 C 1 -6.613281 1.28125 -7.179688 1.84375 -7.640625 C 2.414062 -8.109375 3.144531 -8.34375 4.03125 -8.34375 C 4.957031 -8.34375 5.707031 -8.101562 6.28125 -7.625 C 6.863281 -7.144531 7.15625 -6.53125 7.15625 -5.78125 L 5.75 -5.78125 C 5.75 -6.164062 5.582031 -6.492188 5.25 -6.765625 C 4.925781 -7.046875 4.519531 -7.1875 4.03125 -7.1875 C 3.519531 -7.1875 3.117188 -7.078125 2.828125 -6.859375 C 2.546875 -6.640625 2.40625 -6.347656 2.40625 -5.984375 C 2.40625 -5.648438 2.535156 -5.394531 2.796875 -5.21875 C 3.066406 -5.050781 3.550781 -4.890625 4.25 -4.734375 C 4.945312 -4.578125 5.507812 -4.390625 5.9375 -4.171875 C 6.375 -3.953125 6.695312 -3.6875 6.90625 -3.375 C 7.125 -3.070312 7.234375 -2.703125 7.234375 -2.265625 C 7.234375 -1.535156 6.9375 -0.945312 6.34375 -0.5 C 5.757812 -0.0625 5.003906 0.15625 4.078125 0.15625 C 3.421875 0.15625 2.835938 0.0390625 2.328125 -0.1875 C 1.828125 -0.425781 1.429688 -0.753906 1.140625 -1.171875 C 0.859375 -1.585938 0.71875 -2.035156 0.71875 -2.515625 L 2.125 -2.515625 C 2.144531 -2.046875 2.328125 -1.671875 2.671875 -1.390625 C 3.023438 -1.117188 3.492188 -0.984375 4.078125 -0.984375 C 4.597656 -0.984375 5.019531 -1.09375 5.34375 -1.3125 C 5.664062 -1.53125 5.828125 -1.816406 5.828125 -2.171875 Z M 5.828125 -2.171875 "/></g></g><g transform="translate(90.81541, 36.184195)"><g/></g><g transform="translate(94.653317, 36.184195)"><g><path d="M 5.828125 -2.171875 C 5.828125 -2.546875 5.679688 -2.835938 5.390625 -3.046875 C 5.109375 -3.265625 4.613281 -3.445312 3.90625 -3.59375 C 3.195312 -3.75 2.632812 -3.929688 2.21875 -4.140625 C 1.800781 -4.347656 1.492188 -4.597656 1.296875 -4.890625 C 1.097656 -5.179688 1 -5.53125 1 -5.9375 C 1 -6.613281 1.28125 -7.179688 1.84375 -7.640625 C 2.414062 -8.109375 3.144531 -8.34375 4.03125 -8.34375 C 4.957031 -8.34375 5.707031 -8.101562 6.28125 -7.625 C 6.863281 -7.144531 7.15625 -6.53125 7.15625 -5.78125 L 5.75 -5.78125 C 5.75 -6.164062 5.582031 -6.492188 5.25 -6.765625 C 4.925781 -7.046875 4.519531 -7.1875 4.03125 -7.1875 C 3.519531 -7.1875 3.117188 -7.078125 2.828125 -6.859375 C 2.546875 -6.640625 2.40625 -6.347656 2.40625 -5.984375 C 2.40625 -5.648438 2.535156 -5.394531 2.796875 -5.21875 C 3.066406 -5.050781 3.550781 -4.890625 4.25 -4.734375 C 4.945312 -4.578125 5.507812 -4.390625 5.9375 -4.171875 C 6.375 -3.953125 6.695312 -3.6875 6.90625 -3.375 C 7.125 -3.070312 7.234375 -2.703125 7.234375 -2.265625 C 7.234375 -1.535156 6.9375 -0.945312 6.34375 -0.5 C 5.757812 -0.0625 5.003906 0.15625 4.078125 0.15625 C 3.421875 0.15625 2.835938 0.0390625 2.328125 -0.1875 C 1.828125 -0.425781 1.429688 -0.753906 1.140625 -1.171875 C 0.859375 -1.585938 0.71875 -2.035156 0.71875 -2.515625 L 2.125 -2.515625 C 2.144531 -2.046875 2.328125 -1.671875 2.671875 -1.390625 C 3.023438 -1.117188 3.492188 -0.984375 4.078125 -0.984375 C 4.597656 -0.984375 5.019531 -1.09375 5.34375 -1.3125 C 5.664062 -1.53125 5.828125 -1.816406 5.828125 -2.171875 Z M 5.828125 -2.171875 "/></g></g><g transform="translate(102.647065, 36.184195)"><g><path d="M 2.578125 0 L 1.1875 0 L 1.1875 -8.1875 L 2.578125 -8.1875 Z M 1.0625 -10.359375 C 1.0625 -10.585938 1.128906 -10.78125 1.265625 -10.9375 C 1.410156 -11.09375 1.617188 -11.171875 1.890625 -11.171875 C 2.160156 -11.171875 2.363281 -11.09375 2.5 -10.9375 C 2.644531 -10.78125 2.71875 -10.585938 2.71875 -10.359375 C 2.71875 -10.128906 2.644531 -9.9375 2.5 -9.78125 C 2.363281 -9.632812 2.160156 -9.5625 1.890625 -9.5625 C 1.617188 -9.5625 1.410156 -9.632812 1.265625 -9.78125 C 1.128906 -9.9375 1.0625 -10.128906 1.0625 -10.359375 Z M 1.0625 -10.359375 "/></g></g><g transform="translate(106.409274, 36.184195)"><g><path d="M 2.375 -8.1875 L 2.421875 -7.28125 C 3.015625 -7.988281 3.820312 -8.34375 4.84375 -8.34375 C 5.988281 -8.34375 6.769531 -7.90625 7.1875 -7.03125 C 7.457031 -7.414062 7.8125 -7.726562 8.25 -7.96875 C 8.6875 -8.21875 9.203125 -8.34375 9.796875 -8.34375 C 11.585938 -8.34375 12.5 -7.390625 12.53125 -5.484375 L 12.53125 0 L 11.140625 0 L 11.140625 -5.40625 C 11.140625 -5.988281 11.003906 -6.425781 10.734375 -6.71875 C 10.460938 -7.007812 10.015625 -7.15625 9.390625 -7.15625 C 8.867188 -7.15625 8.4375 -7 8.09375 -6.6875 C 7.75 -6.375 7.550781 -5.957031 7.5 -5.4375 L 7.5 0 L 6.078125 0 L 6.078125 -5.359375 C 6.078125 -6.554688 5.5 -7.15625 4.34375 -7.15625 C 3.414062 -7.15625 2.785156 -6.765625 2.453125 -5.984375 L 2.453125 0 L 1.046875 0 L 1.046875 -8.1875 Z M 2.375 -8.1875 "/></g></g><g transform="translate(119.997131, 36.184195)"><g><path d="M 6.109375 -0.8125 C 5.566406 -0.164062 4.769531 0.15625 3.71875 0.15625 C 2.84375 0.15625 2.175781 -0.0976562 1.71875 -0.609375 C 1.257812 -1.117188 1.03125 -1.867188 1.03125 -2.859375 L 1.03125 -8.1875 L 2.421875 -8.1875 L 2.421875 -2.90625 C 2.421875 -1.65625 2.925781 -1.03125 3.9375 -1.03125 C 5.007812 -1.03125 5.722656 -1.429688 6.078125 -2.234375 L 6.078125 -8.1875 L 7.484375 -8.1875 L 7.484375 0 L 6.140625 0 Z M 6.109375 -0.8125 "/></g></g><g transform="translate(128.543476, 36.184195)"><g><path d="M 2.578125 0 L 1.1875 0 L 1.1875 -11.625 L 2.578125 -11.625 Z M 2.578125 0 "/></g></g><g transform="translate(132.305685, 36.184195)"><g><path d="M 6.109375 0 C 6.035156 -0.164062 5.972656 -0.453125 5.921875 -0.859375 C 5.265625 -0.179688 4.488281 0.15625 3.59375 0.15625 C 2.78125 0.15625 2.113281 -0.0703125 1.59375 -0.53125 C 1.082031 -0.988281 0.828125 -1.566406 0.828125 -2.265625 C 0.828125 -3.117188 1.148438 -3.78125 1.796875 -4.25 C 2.441406 -4.726562 3.351562 -4.96875 4.53125 -4.96875 L 5.890625 -4.96875 L 5.890625 -5.609375 C 5.890625 -6.097656 5.742188 -6.488281 5.453125 -6.78125 C 5.160156 -7.070312 4.726562 -7.21875 4.15625 -7.21875 C 3.65625 -7.21875 3.238281 -7.085938 2.90625 -6.828125 C 2.570312 -6.578125 2.40625 -6.273438 2.40625 -5.921875 L 0.984375 -5.921875 C 0.984375 -6.328125 1.128906 -6.71875 1.421875 -7.09375 C 1.710938 -7.476562 2.109375 -7.78125 2.609375 -8 C 3.109375 -8.226562 3.65625 -8.34375 4.25 -8.34375 C 5.1875 -8.34375 5.921875 -8.101562 6.453125 -7.625 C 6.992188 -7.15625 7.273438 -6.507812 7.296875 -5.6875 L 7.296875 -1.921875 C 7.296875 -1.160156 7.390625 -0.5625 7.578125 -0.125 L 7.578125 0 Z M 3.796875 -1.0625 C 4.234375 -1.0625 4.644531 -1.175781 5.03125 -1.40625 C 5.425781 -1.632812 5.710938 -1.929688 5.890625 -2.296875 L 5.890625 -3.96875 L 4.796875 -3.96875 C 3.078125 -3.96875 2.21875 -3.46875 2.21875 -2.46875 C 2.21875 -2.03125 2.363281 -1.6875 2.65625 -1.4375 C 2.957031 -1.1875 3.335938 -1.0625 3.796875 -1.0625 Z M 3.796875 -1.0625 "/></g></g><g transform="translate(140.738483, 36.184195)"><g><path d="M 2.953125 -10.171875 L 2.953125 -8.1875 L 4.484375 -8.1875 L 4.484375 -7.109375 L 2.953125 -7.109375 L 2.953125 -2.03125 C 2.953125 -1.695312 3.019531 -1.445312 3.15625 -1.28125 C 3.300781 -1.125 3.535156 -1.046875 3.859375 -1.046875 C 4.023438 -1.046875 4.25 -1.078125 4.53125 -1.140625 L 4.53125 0 C 4.15625 0.101562 3.796875 0.15625 3.453125 0.15625 C 2.828125 0.15625 2.351562 -0.03125 2.03125 -0.40625 C 1.71875 -0.789062 1.5625 -1.332031 1.5625 -2.03125 L 1.5625 -7.109375 L 0.0625 -7.109375 L 0.0625 -8.1875 L 1.5625 -8.1875 L 1.5625 -10.171875 Z M 2.953125 -10.171875 "/></g></g><g transform="translate(145.802704, 36.184195)"><g><path d="M 2.578125 0 L 1.1875 0 L 1.1875 -8.1875 L 2.578125 -8.1875 Z M 1.0625 -10.359375 C 1.0625 -10.585938 1.128906 -10.78125 1.265625 -10.9375 C 1.410156 -11.09375 1.617188 -11.171875 1.890625 -11.171875 C 2.160156 -11.171875 2.363281 -11.09375 2.5 -10.9375 C 2.644531 -10.78125 2.71875 -10.585938 2.71875 -10.359375 C 2.71875 -10.128906 2.644531 -9.9375 2.5 -9.78125 C 2.363281 -9.632812 2.160156 -9.5625 1.890625 -9.5625 C 1.617188 -9.5625 1.410156 -9.632812 1.265625 -9.78125 C 1.128906 -9.9375 1.0625 -10.128906 1.0625 -10.359375 Z M 1.0625 -10.359375 "/></g></g><g transform="translate(149.564913, 36.184195)"><g><path d="M 2.390625 -8.1875 L 2.421875 -7.15625 C 3.054688 -7.945312 3.875 -8.34375 4.875 -8.34375 C 6.613281 -8.34375 7.488281 -7.363281 7.5 -5.40625 L 7.5 0 L 6.09375 0 L 6.09375 -5.421875 C 6.09375 -6.003906 5.957031 -6.4375 5.6875 -6.71875 C 5.425781 -7.007812 5.015625 -7.15625 4.453125 -7.15625 C 4.003906 -7.15625 3.609375 -7.03125 3.265625 -6.78125 C 2.921875 -6.539062 2.648438 -6.222656 2.453125 -5.828125 L 2.453125 0 L 1.0625 0 L 1.0625 -8.1875 Z M 2.390625 -8.1875 "/></g></g><g transform="translate(158.118829, 36.184195)"><g><path d="M 0.734375 -4.15625 C 0.734375 -5.4375 1.023438 -6.453125 1.609375 -7.203125 C 2.203125 -7.960938 2.984375 -8.34375 3.953125 -8.34375 C 4.953125 -8.34375 5.734375 -7.988281 6.296875 -7.28125 L 6.359375 -8.1875 L 7.640625 -8.1875 L 7.640625 -0.203125 C 7.640625 0.859375 7.328125 1.691406 6.703125 2.296875 C 6.078125 2.910156 5.234375 3.21875 4.171875 3.21875 C 3.578125 3.21875 3 3.09375 2.4375 2.84375 C 1.875 2.59375 1.441406 2.25 1.140625 1.8125 L 1.875 0.96875 C 2.46875 1.707031 3.203125 2.078125 4.078125 2.078125 C 4.753906 2.078125 5.28125 1.882812 5.65625 1.5 C 6.039062 1.125 6.234375 0.585938 6.234375 -0.109375 L 6.234375 -0.8125 C 5.671875 -0.164062 4.90625 0.15625 3.9375 0.15625 C 2.976562 0.15625 2.203125 -0.226562 1.609375 -1 C 1.023438 -1.78125 0.734375 -2.832031 0.734375 -4.15625 Z M 2.140625 -4 C 2.140625 -3.082031 2.328125 -2.359375 2.703125 -1.828125 C 3.078125 -1.296875 3.609375 -1.03125 4.296875 -1.03125 C 5.171875 -1.03125 5.816406 -1.429688 6.234375 -2.234375 L 6.234375 -5.984375 C 5.804688 -6.765625 5.164062 -7.15625 4.3125 -7.15625 C 3.625 -7.15625 3.085938 -6.890625 2.703125 -6.359375 C 2.328125 -5.828125 2.140625 -5.039062 2.140625 -4 Z M 2.140625 -4 "/></g></g></g><g fill="#1c4790" fill-opacity="1"><g transform="translate(16.007759, 57.500855)"><g><path d="M 2.953125 -10.171875 L 2.953125 -8.1875 L 4.484375 -8.1875 L 4.484375 -7.109375 L 2.953125 -7.109375 L 2.953125 -2.03125 C 2.953125 -1.695312 3.019531 -1.445312 3.15625 -1.28125 C 3.300781 -1.125 3.535156 -1.046875 3.859375 -1.046875 C 4.023438 -1.046875 4.25 -1.078125 4.53125 -1.140625 L 4.53125 0 C 4.15625 0.101562 3.796875 0.15625 3.453125 0.15625 C 2.828125 0.15625 2.351562 -0.03125 2.03125 -0.40625 C 1.71875 -0.789062 1.5625 -1.332031 1.5625 -2.03125 L 1.5625 -7.109375 L 0.0625 -7.109375 L 0.0625 -8.1875 L 1.5625 -8.1875 L 1.5625 -10.171875 Z M 2.953125 -10.171875 "/></g></g><g transform="translate(21.07198, 57.500855)"><g><path d="M 2.453125 -7.203125 C 3.078125 -7.960938 3.882812 -8.34375 4.875 -8.34375 C 6.613281 -8.34375 7.488281 -7.363281 7.5 -5.40625 L 7.5 0 L 6.09375 0 L 6.09375 -5.421875 C 6.09375 -6.003906 5.957031 -6.4375 5.6875 -6.71875 C 5.425781 -7.007812 5.015625 -7.15625 4.453125 -7.15625 C 4.003906 -7.15625 3.609375 -7.03125 3.265625 -6.78125 C 2.921875 -6.539062 2.648438 -6.222656 2.453125 -5.828125 L 2.453125 0 L 1.0625 0 L 1.0625 -11.625 L 2.453125 -11.625 Z M 2.453125 -7.203125 "/></g></g><g transform="translate(29.610756, 57.500855)"><g><path d="M 4.453125 0.15625 C 3.347656 0.15625 2.445312 -0.207031 1.75 -0.9375 C 1.050781 -1.664062 0.703125 -2.644531 0.703125 -3.875 L 0.703125 -4.125 C 0.703125 -4.9375 0.859375 -5.660156 1.171875 -6.296875 C 1.484375 -6.941406 1.914062 -7.441406 2.46875 -7.796875 C 3.03125 -8.160156 3.632812 -8.34375 4.28125 -8.34375 C 5.34375 -8.34375 6.171875 -7.988281 6.765625 -7.28125 C 7.359375 -6.582031 7.65625 -5.582031 7.65625 -4.28125 L 7.65625 -3.6875 L 2.109375 -3.6875 C 2.128906 -2.882812 2.363281 -2.234375 2.8125 -1.734375 C 3.257812 -1.234375 3.832031 -0.984375 4.53125 -0.984375 C 5.03125 -0.984375 5.445312 -1.082031 5.78125 -1.28125 C 6.125 -1.488281 6.425781 -1.757812 6.6875 -2.09375 L 7.546875 -1.4375 C 6.859375 -0.375 5.828125 0.15625 4.453125 0.15625 Z M 4.28125 -7.1875 C 3.71875 -7.1875 3.242188 -6.976562 2.859375 -6.5625 C 2.472656 -6.15625 2.238281 -5.582031 2.15625 -4.84375 L 6.25 -4.84375 L 6.25 -4.953125 C 6.207031 -5.660156 6.015625 -6.207031 5.671875 -6.59375 C 5.328125 -6.988281 4.863281 -7.1875 4.28125 -7.1875 Z M 4.28125 -7.1875 "/></g></g><g transform="translate(37.824029, 57.500855)"><g/></g><g transform="translate(41.661936, 57.500855)"><g><path d="M 5.015625 -6.9375 C 4.804688 -6.96875 4.578125 -6.984375 4.328125 -6.984375 C 3.410156 -6.984375 2.785156 -6.59375 2.453125 -5.8125 L 2.453125 0 L 1.0625 0 L 1.0625 -8.1875 L 2.421875 -8.1875 L 2.4375 -7.25 C 2.90625 -7.976562 3.554688 -8.34375 4.390625 -8.34375 C 4.671875 -8.34375 4.878906 -8.304688 5.015625 -8.234375 Z M 5.015625 -6.9375 "/></g></g><g transform="translate(46.907833, 57.500855)"><g><path d="M 4.453125 0.15625 C 3.347656 0.15625 2.445312 -0.207031 1.75 -0.9375 C 1.050781 -1.664062 0.703125 -2.644531 0.703125 -3.875 L 0.703125 -4.125 C 0.703125 -4.9375 0.859375 -5.660156 1.171875 -6.296875 C 1.484375 -6.941406 1.914062 -7.441406 2.46875 -7.796875 C 3.03125 -8.160156 3.632812 -8.34375 4.28125 -8.34375 C 5.34375 -8.34375 6.171875 -7.988281 6.765625 -7.28125 C 7.359375 -6.582031 7.65625 -5.582031 7.65625 -4.28125 L 7.65625 -3.6875 L 2.109375 -3.6875 C 2.128906 -2.882812 2.363281 -2.234375 2.8125 -1.734375 C 3.257812 -1.234375 3.832031 -0.984375 4.53125 -0.984375 C 5.03125 -0.984375 5.445312 -1.082031 5.78125 -1.28125 C 6.125 -1.488281 6.425781 -1.757812 6.6875 -2.09375 L 7.546875 -1.4375 C 6.859375 -0.375 5.828125 0.15625 4.453125 0.15625 Z M 4.28125 -7.1875 C 3.71875 -7.1875 3.242188 -6.976562 2.859375 -6.5625 C 2.472656 -6.15625 2.238281 -5.582031 2.15625 -4.84375 L 6.25 -4.84375 L 6.25 -4.953125 C 6.207031 -5.660156 6.015625 -6.207031 5.671875 -6.59375 C 5.328125 -6.988281 4.863281 -7.1875 4.28125 -7.1875 Z M 4.28125 -7.1875 "/></g></g><g transform="translate(55.121106, 57.500855)"><g><path d="M 6.109375 0 C 6.035156 -0.164062 5.972656 -0.453125 5.921875 -0.859375 C 5.265625 -0.179688 4.488281 0.15625 3.59375 0.15625 C 2.78125 0.15625 2.113281 -0.0703125 1.59375 -0.53125 C 1.082031 -0.988281 0.828125 -1.566406 0.828125 -2.265625 C 0.828125 -3.117188 1.148438 -3.78125 1.796875 -4.25 C 2.441406 -4.726562 3.351562 -4.96875 4.53125 -4.96875 L 5.890625 -4.96875 L 5.890625 -5.609375 C 5.890625 -6.097656 5.742188 -6.488281 5.453125 -6.78125 C 5.160156 -7.070312 4.726562 -7.21875 4.15625 -7.21875 C 3.65625 -7.21875 3.238281 -7.085938 2.90625 -6.828125 C 2.570312 -6.578125 2.40625 -6.273438 2.40625 -5.921875 L 0.984375 -5.921875 C 0.984375 -6.328125 1.128906 -6.71875 1.421875 -7.09375 C 1.710938 -7.476562 2.109375 -7.78125 2.609375 -8 C 3.109375 -8.226562 3.65625 -8.34375 4.25 -8.34375 C 5.1875 -8.34375 5.921875 -8.101562 6.453125 -7.625 C 6.992188 -7.15625 7.273438 -6.507812 7.296875 -5.6875 L 7.296875 -1.921875 C 7.296875 -1.160156 7.390625 -0.5625 7.578125 -0.125 L 7.578125 0 Z M 3.796875 -1.0625 C 4.234375 -1.0625 4.644531 -1.175781 5.03125 -1.40625 C 5.425781 -1.632812 5.710938 -1.929688 5.890625 -2.296875 L 5.890625 -3.96875 L 4.796875 -3.96875 C 3.078125 -3.96875 2.21875 -3.46875 2.21875 -2.46875 C 2.21875 -2.03125 2.363281 -1.6875 2.65625 -1.4375 C 2.957031 -1.1875 3.335938 -1.0625 3.796875 -1.0625 Z M 3.796875 -1.0625 "/></g></g><g transform="translate(63.553904, 57.500855)"><g><path d="M 2.578125 0 L 1.1875 0 L 1.1875 -11.625 L 2.578125 -11.625 Z M 2.578125 0 "/></g></g><g transform="translate(67.316113, 57.500855)"><g/></g><g transform="translate(71.154021, 57.500855)"><g><path d="M 4.34375 -0.984375 C 4.84375 -0.984375 5.28125 -1.132812 5.65625 -1.4375 C 6.03125 -1.75 6.238281 -2.128906 6.28125 -2.578125 L 7.59375 -2.578125 C 7.570312 -2.109375 7.410156 -1.660156 7.109375 -1.234375 C 6.816406 -0.816406 6.421875 -0.476562 5.921875 -0.21875 C 5.421875 0.03125 4.894531 0.15625 4.34375 0.15625 C 3.226562 0.15625 2.34375 -0.210938 1.6875 -0.953125 C 1.03125 -1.703125 0.703125 -2.722656 0.703125 -4.015625 L 0.703125 -4.25 C 0.703125 -5.050781 0.847656 -5.757812 1.140625 -6.375 C 1.429688 -7 1.847656 -7.484375 2.390625 -7.828125 C 2.941406 -8.171875 3.59375 -8.34375 4.34375 -8.34375 C 5.257812 -8.34375 6.019531 -8.066406 6.625 -7.515625 C 7.226562 -6.960938 7.550781 -6.25 7.59375 -5.375 L 6.28125 -5.375 C 6.238281 -5.90625 6.035156 -6.335938 5.671875 -6.671875 C 5.304688 -7.015625 4.863281 -7.1875 4.34375 -7.1875 C 3.625 -7.1875 3.066406 -6.929688 2.671875 -6.421875 C 2.285156 -5.910156 2.09375 -5.171875 2.09375 -4.203125 L 2.09375 -3.9375 C 2.09375 -2.988281 2.285156 -2.257812 2.671875 -1.75 C 3.066406 -1.238281 3.625 -0.984375 4.34375 -0.984375 Z M 4.34375 -0.984375 "/></g></g><g transform="translate(79.268886, 57.500855)"><g><path d="M 4.453125 0.15625 C 3.347656 0.15625 2.445312 -0.207031 1.75 -0.9375 C 1.050781 -1.664062 0.703125 -2.644531 0.703125 -3.875 L 0.703125 -4.125 C 0.703125 -4.9375 0.859375 -5.660156 1.171875 -6.296875 C 1.484375 -6.941406 1.914062 -7.441406 2.46875 -7.796875 C 3.03125 -8.160156 3.632812 -8.34375 4.28125 -8.34375 C 5.34375 -8.34375 6.171875 -7.988281 6.765625 -7.28125 C 7.359375 -6.582031 7.65625 -5.582031 7.65625 -4.28125 L 7.65625 -3.6875 L 2.109375 -3.6875 C 2.128906 -2.882812 2.363281 -2.234375 2.8125 -1.734375 C 3.257812 -1.234375 3.832031 -0.984375 4.53125 -0.984375 C 5.03125 -0.984375 5.445312 -1.082031 5.78125 -1.28125 C 6.125 -1.488281 6.425781 -1.757812 6.6875 -2.09375 L 7.546875 -1.4375 C 6.859375 -0.375 5.828125 0.15625 4.453125 0.15625 Z M 4.28125 -7.1875 C 3.71875 -7.1875 3.242188 -6.976562 2.859375 -6.5625 C 2.472656 -6.15625 2.238281 -5.582031 2.15625 -4.84375 L 6.25 -4.84375 L 6.25 -4.953125 C 6.207031 -5.660156 6.015625 -6.207031 5.671875 -6.59375 C 5.328125 -6.988281 4.863281 -7.1875 4.28125 -7.1875 Z M 4.28125 -7.1875 "/></g></g><g transform="translate(87.482159, 57.500855)"><g><path d="M 5.015625 -6.9375 C 4.804688 -6.96875 4.578125 -6.984375 4.328125 -6.984375 C 3.410156 -6.984375 2.785156 -6.59375 2.453125 -5.8125 L 2.453125 0 L 1.0625 0 L 1.0625 -8.1875 L 2.421875 -8.1875 L 2.4375 -7.25 C 2.90625 -7.976562 3.554688 -8.34375 4.390625 -8.34375 C 4.671875 -8.34375 4.878906 -8.304688 5.015625 -8.234375 Z M 5.015625 -6.9375 "/></g></g><g transform="translate(92.728056, 57.500855)"><g><path d="M 2.953125 -10.171875 L 2.953125 -8.1875 L 4.484375 -8.1875 L 4.484375 -7.109375 L 2.953125 -7.109375 L 2.953125 -2.03125 C 2.953125 -1.695312 3.019531 -1.445312 3.15625 -1.28125 C 3.300781 -1.125 3.535156 -1.046875 3.859375 -1.046875 C 4.023438 -1.046875 4.25 -1.078125 4.53125 -1.140625 L 4.53125 0 C 4.15625 0.101562 3.796875 0.15625 3.453125 0.15625 C 2.828125 0.15625 2.351562 -0.03125 2.03125 -0.40625 C 1.71875 -0.789062 1.5625 -1.332031 1.5625 -2.03125 L 1.5625 -7.109375 L 0.0625 -7.109375 L 0.0625 -8.1875 L 1.5625 -8.1875 L 1.5625 -10.171875 Z M 2.953125 -10.171875 "/></g></g><g transform="translate(97.792276, 57.500855)"><g><path d="M 2.578125 0 L 1.1875 0 L 1.1875 -8.1875 L 2.578125 -8.1875 Z M 1.0625 -10.359375 C 1.0625 -10.585938 1.128906 -10.78125 1.265625 -10.9375 C 1.410156 -11.09375 1.617188 -11.171875 1.890625 -11.171875 C 2.160156 -11.171875 2.363281 -11.09375 2.5 -10.9375 C 2.644531 -10.78125 2.71875 -10.585938 2.71875 -10.359375 C 2.71875 -10.128906 2.644531 -9.9375 2.5 -9.78125 C 2.363281 -9.632812 2.160156 -9.5625 1.890625 -9.5625 C 1.617188 -9.5625 1.410156 -9.632812 1.265625 -9.78125 C 1.128906 -9.9375 1.0625 -10.128906 1.0625 -10.359375 Z M 1.0625 -10.359375 "/></g></g><g transform="translate(101.554485, 57.500855)"><g><path d="M 1.75 0 L 1.75 -7.109375 L 0.453125 -7.109375 L 0.453125 -8.1875 L 1.75 -8.1875 L 1.75 -9.03125 C 1.75 -9.90625 1.984375 -10.582031 2.453125 -11.0625 C 2.921875 -11.539062 3.582031 -11.78125 4.4375 -11.78125 C 4.757812 -11.78125 5.082031 -11.738281 5.40625 -11.65625 L 5.328125 -10.515625 C 5.085938 -10.566406 4.835938 -10.59375 4.578125 -10.59375 C 4.117188 -10.59375 3.765625 -10.457031 3.515625 -10.1875 C 3.273438 -9.925781 3.15625 -9.546875 3.15625 -9.046875 L 3.15625 -8.1875 L 4.890625 -8.1875 L 4.890625 -7.109375 L 3.15625 -7.109375 L 3.15625 0 Z M 1.75 0 "/></g></g><g transform="translate(106.936639, 57.500855)"><g><path d="M 2.578125 0 L 1.1875 0 L 1.1875 -8.1875 L 2.578125 -8.1875 Z M 1.0625 -10.359375 C 1.0625 -10.585938 1.128906 -10.78125 1.265625 -10.9375 C 1.410156 -11.09375 1.617188 -11.171875 1.890625 -11.171875 C 2.160156 -11.171875 2.363281 -11.09375 2.5 -10.9375 C 2.644531 -10.78125 2.71875 -10.585938 2.71875 -10.359375 C 2.71875 -10.128906 2.644531 -9.9375 2.5 -9.78125 C 2.363281 -9.632812 2.160156 -9.5625 1.890625 -9.5625 C 1.617188 -9.5625 1.410156 -9.632812 1.265625 -9.78125 C 1.128906 -9.9375 1.0625 -10.128906 1.0625 -10.359375 Z M 1.0625 -10.359375 "/></g></g><g transform="translate(110.698848, 57.500855)"><g><path d="M 4.34375 -0.984375 C 4.84375 -0.984375 5.28125 -1.132812 5.65625 -1.4375 C 6.03125 -1.75 6.238281 -2.128906 6.28125 -2.578125 L 7.59375 -2.578125 C 7.570312 -2.109375 7.410156 -1.660156 7.109375 -1.234375 C 6.816406 -0.816406 6.421875 -0.476562 5.921875 -0.21875 C 5.421875 0.03125 4.894531 0.15625 4.34375 0.15625 C 3.226562 0.15625 2.34375 -0.210938 1.6875 -0.953125 C 1.03125 -1.703125 0.703125 -2.722656 0.703125 -4.015625 L 0.703125 -4.25 C 0.703125 -5.050781 0.847656 -5.757812 1.140625 -6.375 C 1.429688 -7 1.847656 -7.484375 2.390625 -7.828125 C 2.941406 -8.171875 3.59375 -8.34375 4.34375 -8.34375 C 5.257812 -8.34375 6.019531 -8.066406 6.625 -7.515625 C 7.226562 -6.960938 7.550781 -6.25 7.59375 -5.375 L 6.28125 -5.375 C 6.238281 -5.90625 6.035156 -6.335938 5.671875 -6.671875 C 5.304688 -7.015625 4.863281 -7.1875 4.34375 -7.1875 C 3.625 -7.1875 3.066406 -6.929688 2.671875 -6.421875 C 2.285156 -5.910156 2.09375 -5.171875 2.09375 -4.203125 L 2.09375 -3.9375 C 2.09375 -2.988281 2.285156 -2.257812 2.671875 -1.75 C 3.066406 -1.238281 3.625 -0.984375 4.34375 -0.984375 Z M 4.34375 -0.984375 "/></g></g><g transform="translate(118.813713, 57.500855)"><g><path d="M 6.109375 0 C 6.035156 -0.164062 5.972656 -0.453125 5.921875 -0.859375 C 5.265625 -0.179688 4.488281 0.15625 3.59375 0.15625 C 2.78125 0.15625 2.113281 -0.0703125 1.59375 -0.53125 C 1.082031 -0.988281 0.828125 -1.566406 0.828125 -2.265625 C 0.828125 -3.117188 1.148438 -3.78125 1.796875 -4.25 C 2.441406 -4.726562 3.351562 -4.96875 4.53125 -4.96875 L 5.890625 -4.96875 L 5.890625 -5.609375 C 5.890625 -6.097656 5.742188 -6.488281 5.453125 -6.78125 C 5.160156 -7.070312 4.726562 -7.21875 4.15625 -7.21875 C 3.65625 -7.21875 3.238281 -7.085938 2.90625 -6.828125 C 2.570312 -6.578125 2.40625 -6.273438 2.40625 -5.921875 L 0.984375 -5.921875 C 0.984375 -6.328125 1.128906 -6.71875 1.421875 -7.09375 C 1.710938 -7.476562 2.109375 -7.78125 2.609375 -8 C 3.109375 -8.226562 3.65625 -8.34375 4.25 -8.34375 C 5.1875 -8.34375 5.921875 -8.101562 6.453125 -7.625 C 6.992188 -7.15625 7.273438 -6.507812 7.296875 -5.6875 L 7.296875 -1.921875 C 7.296875 -1.160156 7.390625 -0.5625 7.578125 -0.125 L 7.578125 0 Z M 3.796875 -1.0625 C 4.234375 -1.0625 4.644531 -1.175781 5.03125 -1.40625 C 5.425781 -1.632812 5.710938 -1.929688 5.890625 -2.296875 L 5.890625 -3.96875 L 4.796875 -3.96875 C 3.078125 -3.96875 2.21875 -3.46875 2.21875 -2.46875 C 2.21875 -2.03125 2.363281 -1.6875 2.65625 -1.4375 C 2.957031 -1.1875 3.335938 -1.0625 3.796875 -1.0625 Z M 3.796875 -1.0625 "/></g></g><g transform="translate(127.246511, 57.500855)"><g><path d="M 2.953125 -10.171875 L 2.953125 -8.1875 L 4.484375 -8.1875 L 4.484375 -7.109375 L 2.953125 -7.109375 L 2.953125 -2.03125 C 2.953125 -1.695312 3.019531 -1.445312 3.15625 -1.28125 C 3.300781 -1.125 3.535156 -1.046875 3.859375 -1.046875 C 4.023438 -1.046875 4.25 -1.078125 4.53125 -1.140625 L 4.53125 0 C 4.15625 0.101562 3.796875 0.15625 3.453125 0.15625 C 2.828125 0.15625 2.351562 -0.03125 2.03125 -0.40625 C 1.71875 -0.789062 1.5625 -1.332031 1.5625 -2.03125 L 1.5625 -7.109375 L 0.0625 -7.109375 L 0.0625 -8.1875 L 1.5625 -8.1875 L 1.5625 -10.171875 Z M 2.953125 -10.171875 "/></g></g><g transform="translate(132.310732, 57.500855)"><g><path d="M 2.578125 0 L 1.1875 0 L 1.1875 -8.1875 L 2.578125 -8.1875 Z M 1.0625 -10.359375 C 1.0625 -10.585938 1.128906 -10.78125 1.265625 -10.9375 C 1.410156 -11.09375 1.617188 -11.171875 1.890625 -11.171875 C 2.160156 -11.171875 2.363281 -11.09375 2.5 -10.9375 C 2.644531 -10.78125 2.71875 -10.585938 2.71875 -10.359375 C 2.71875 -10.128906 2.644531 -9.9375 2.5 -9.78125 C 2.363281 -9.632812 2.160156 -9.5625 1.890625 -9.5625 C 1.617188 -9.5625 1.410156 -9.632812 1.265625 -9.78125 C 1.128906 -9.9375 1.0625 -10.128906 1.0625 -10.359375 Z M 1.0625 -10.359375 "/></g></g><g transform="translate(136.072941, 57.500855)"><g><path d="M 0.6875 -4.171875 C 0.6875 -4.972656 0.84375 -5.691406 1.15625 -6.328125 C 1.476562 -6.972656 1.921875 -7.46875 2.484375 -7.8125 C 3.046875 -8.164062 3.6875 -8.34375 4.40625 -8.34375 C 5.519531 -8.34375 6.421875 -7.957031 7.109375 -7.1875 C 7.796875 -6.414062 8.140625 -5.390625 8.140625 -4.109375 L 8.140625 -4 C 8.140625 -3.207031 7.988281 -2.492188 7.6875 -1.859375 C 7.382812 -1.222656 6.945312 -0.726562 6.375 -0.375 C 5.8125 -0.0195312 5.160156 0.15625 4.421875 0.15625 C 3.304688 0.15625 2.40625 -0.226562 1.71875 -1 C 1.03125 -1.78125 0.6875 -2.804688 0.6875 -4.078125 Z M 2.09375 -4 C 2.09375 -3.09375 2.300781 -2.363281 2.71875 -1.8125 C 3.144531 -1.257812 3.710938 -0.984375 4.421875 -0.984375 C 5.128906 -0.984375 5.691406 -1.265625 6.109375 -1.828125 C 6.535156 -2.390625 6.75 -3.171875 6.75 -4.171875 C 6.75 -5.066406 6.535156 -5.789062 6.109375 -6.34375 C 5.679688 -6.90625 5.113281 -7.1875 4.40625 -7.1875 C 3.71875 -7.1875 3.160156 -6.910156 2.734375 -6.359375 C 2.304688 -5.816406 2.09375 -5.03125 2.09375 -4 Z M 2.09375 -4 "/></g></g><g transform="translate(144.914511, 57.500855)"><g><path d="M 2.390625 -8.1875 L 2.421875 -7.15625 C 3.054688 -7.945312 3.875 -8.34375 4.875 -8.34375 C 6.613281 -8.34375 7.488281 -7.363281 7.5 -5.40625 L 7.5 0 L 6.09375 0 L 6.09375 -5.421875 C 6.09375 -6.003906 5.957031 -6.4375 5.6875 -6.71875 C 5.425781 -7.007812 5.015625 -7.15625 4.453125 -7.15625 C 4.003906 -7.15625 3.609375 -7.03125 3.265625 -6.78125 C 2.921875 -6.539062 2.648438 -6.222656 2.453125 -5.828125 L 2.453125 0 L 1.0625 0 L 1.0625 -8.1875 Z M 2.390625 -8.1875 "/></g></g></g></g></g><g transform="matrix(1, 0, 0, 1, 72, 54)"><g clip-path="url(#2cc7d5a87e)"><g fill="#ff99d8" fill-opacity="0.302"><g transform="translate(12.150134, 53.65969)"><g><path d="M 2.140625 -9.390625 L -1.15625 -6.09375 L 1.09375 -3.84375 L 4.96875 -7.71875 L 6.34375 -6.34375 L 0.734375 -0.734375 L -7.625 -9.09375 L -2.03125 -14.6875 L -0.625 -13.28125 L -4.484375 -9.421875 L -2.484375 -7.421875 L 0.8125 -10.71875 Z M 2.140625 -9.390625 "/></g></g></g><g fill="#ff99d8" fill-opacity="0.302"><g transform="translate(18.758186, 47.051638)"><g><path d="M -1.734375 -9.203125 L -3.0625 -13.65625 L -1.078125 -15.640625 L 0.640625 -9.046875 L 7.34375 -7.34375 L 5.34375 -5.34375 L 0.8125 -6.65625 L 2.125 -2.125 L 0.125 -0.125 L -1.578125 -6.828125 L -8.171875 -8.546875 L -6.1875 -10.53125 Z M -1.734375 -9.203125 "/></g></g></g><g fill="#ff99d8" fill-opacity="0.302"><g transform="translate(26.220928, 39.588896)"><g><path d="M 3.734375 -7.171875 L 0.71875 -4.15625 L 1.859375 -1.859375 L 0.046875 -0.046875 L -5.203125 -11.515625 L -3.625 -13.09375 L 7.859375 -7.859375 L 6.046875 -6.046875 Z M -0.203125 -6.015625 L 1.890625 -8.109375 L -2.3125 -10.1875 Z M -0.203125 -6.015625 "/></g></g></g><g fill="#ff99d8" fill-opacity="0.302"><g transform="translate(34.125352, 31.684472)"><g><path d="M -5.359375 -11.359375 L 2.84375 -7.4375 L -1.09375 -15.625 L 1.171875 -17.890625 L 9.53125 -9.53125 L 7.796875 -7.796875 L 5.515625 -10.078125 L 1.765625 -14.203125 L 5.71875 -5.71875 L 4.546875 -4.546875 L -3.921875 -8.515625 L 0.1875 -4.75 L 2.46875 -2.46875 L 0.734375 -0.734375 L -7.625 -9.09375 Z M -5.359375 -11.359375 "/></g></g></g><g fill="#ff99d8" fill-opacity="0.302"><g transform="translate(44.416017, 21.393807)"><g><path d="M 2.890625 -7.265625 C 2.566406 -7.585938 2.203125 -7.722656 1.796875 -7.671875 C 1.390625 -7.617188 0.789062 -7.390625 0 -6.984375 C -0.789062 -6.578125 -1.453125 -6.296875 -1.984375 -6.140625 C -3.441406 -5.703125 -4.601562 -5.914062 -5.46875 -6.78125 C -5.925781 -7.238281 -6.203125 -7.769531 -6.296875 -8.375 C -6.390625 -8.976562 -6.300781 -9.617188 -6.03125 -10.296875 C -5.757812 -10.972656 -5.328125 -11.609375 -4.734375 -12.203125 C -4.140625 -12.796875 -3.5 -13.21875 -2.8125 -13.46875 C -2.125 -13.71875 -1.453125 -13.773438 -0.796875 -13.640625 C -0.148438 -13.515625 0.421875 -13.203125 0.921875 -12.703125 L -0.8125 -10.96875 C -1.1875 -11.34375 -1.597656 -11.515625 -2.046875 -11.484375 C -2.503906 -11.460938 -2.953125 -11.234375 -3.390625 -10.796875 C -3.804688 -10.378906 -4.039062 -9.960938 -4.09375 -9.546875 C -4.15625 -9.140625 -4.039062 -8.789062 -3.75 -8.5 C -3.476562 -8.226562 -3.113281 -8.132812 -2.65625 -8.21875 C -2.207031 -8.3125 -1.632812 -8.539062 -0.9375 -8.90625 C 0.332031 -9.59375 1.410156 -9.945312 2.296875 -9.96875 C 3.179688 -9.988281 3.953125 -9.671875 4.609375 -9.015625 C 5.335938 -8.285156 5.628906 -7.441406 5.484375 -6.484375 C 5.335938 -5.523438 4.804688 -4.585938 3.890625 -3.671875 C 3.242188 -3.023438 2.539062 -2.550781 1.78125 -2.25 C 1.019531 -1.945312 0.296875 -1.863281 -0.390625 -2 C -1.085938 -2.144531 -1.703125 -2.484375 -2.234375 -3.015625 L -0.5 -4.75 C 0.414062 -3.832031 1.425781 -3.925781 2.53125 -5.03125 C 2.9375 -5.4375 3.171875 -5.835938 3.234375 -6.234375 C 3.296875 -6.628906 3.179688 -6.972656 2.890625 -7.265625 Z M 2.890625 -7.265625 "/></g></g></g><g fill="#ff99d8" fill-opacity="0.502"><g transform="translate(12.312623, 52.633726)"><g><path d="M 2.140625 -9.390625 L -1.15625 -6.09375 L 1.09375 -3.84375 L 4.96875 -7.71875 L 6.34375 -6.34375 L 0.734375 -0.734375 L -7.625 -9.09375 L -2.03125 -14.6875 L -0.625 -13.28125 L -4.484375 -9.421875 L -2.484375 -7.421875 L 0.8125 -10.71875 Z M 2.140625 -9.390625 "/></g></g></g><g fill="#ff99d8" fill-opacity="0.502"><g transform="translate(18.920675, 46.025674)"><g><path d="M -1.734375 -9.203125 L -3.0625 -13.65625 L -1.078125 -15.640625 L 0.640625 -9.046875 L 7.34375 -7.34375 L 5.34375 -5.34375 L 0.8125 -6.65625 L 2.125 -2.125 L 0.125 -0.125 L -1.578125 -6.828125 L -8.171875 -8.546875 L -6.1875 -10.53125 Z M -1.734375 -9.203125 "/></g></g></g><g fill="#ff99d8" fill-opacity="0.502"><g transform="translate(26.383417, 38.562932)"><g><path d="M 3.734375 -7.171875 L 0.71875 -4.15625 L 1.859375 -1.859375 L 0.046875 -0.046875 L -5.203125 -11.515625 L -3.625 -13.09375 L 7.859375 -7.859375 L 6.046875 -6.046875 Z M -0.203125 -6.015625 L 1.890625 -8.109375 L -2.3125 -10.1875 Z M -0.203125 -6.015625 "/></g></g></g><g fill="#ff99d8" fill-opacity="0.502"><g transform="translate(34.287841, 30.658508)"><g><path d="M -5.359375 -11.359375 L 2.84375 -7.4375 L -1.09375 -15.625 L 1.171875 -17.890625 L 9.53125 -9.53125 L 7.796875 -7.796875 L 5.515625 -10.078125 L 1.765625 -14.203125 L 5.71875 -5.71875 L 4.546875 -4.546875 L -3.921875 -8.515625 L 0.1875 -4.75 L 2.46875 -2.46875 L 0.734375 -0.734375 L -7.625 -9.09375 Z M -5.359375 -11.359375 "/></g></g></g><g fill="#ff99d8" fill-opacity="0.502"><g transform="translate(44.578506, 20.367843)"><g><path d="M 2.890625 -7.265625 C 2.566406 -7.585938 2.203125 -7.722656 1.796875 -7.671875 C 1.390625 -7.617188 0.789062 -7.390625 0 -6.984375 C -0.789062 -6.578125 -1.453125 -6.296875 -1.984375 -6.140625 C -3.441406 -5.703125 -4.601562 -5.914062 -5.46875 -6.78125 C -5.925781 -7.238281 -6.203125 -7.769531 -6.296875 -8.375 C -6.390625 -8.976562 -6.300781 -9.617188 -6.03125 -10.296875 C -5.757812 -10.972656 -5.328125 -11.609375 -4.734375 -12.203125 C -4.140625 -12.796875 -3.5 -13.21875 -2.8125 -13.46875 C -2.125 -13.71875 -1.453125 -13.773438 -0.796875 -13.640625 C -0.148438 -13.515625 0.421875 -13.203125 0.921875 -12.703125 L -0.8125 -10.96875 C -1.1875 -11.34375 -1.597656 -11.515625 -2.046875 -11.484375 C -2.503906 -11.460938 -2.953125 -11.234375 -3.390625 -10.796875 C -3.804688 -10.378906 -4.039062 -9.960938 -4.09375 -9.546875 C -4.15625 -9.140625 -4.039062 -8.789062 -3.75 -8.5 C -3.476562 -8.226562 -3.113281 -8.132812 -2.65625 -8.21875 C -2.207031 -8.3125 -1.632812 -8.539062 -0.9375 -8.90625 C 0.332031 -9.59375 1.410156 -9.945312 2.296875 -9.96875 C 3.179688 -9.988281 3.953125 -9.671875 4.609375 -9.015625 C 5.335938 -8.285156 5.628906 -7.441406 5.484375 -6.484375 C 5.335938 -5.523438 4.804688 -4.585938 3.890625 -3.671875 C 3.242188 -3.023438 2.539062 -2.550781 1.78125 -2.25 C 1.019531 -1.945312 0.296875 -1.863281 -0.390625 -2 C -1.085938 -2.144531 -1.703125 -2.484375 -2.234375 -3.015625 L -0.5 -4.75 C 0.414062 -3.832031 1.425781 -3.925781 2.53125 -5.03125 C 2.9375 -5.4375 3.171875 -5.835938 3.234375 -6.234375 C 3.296875 -6.628906 3.179688 -6.972656 2.890625 -7.265625 Z M 2.890625 -7.265625 "/></g></g></g><g fill="#ff99d8" fill-opacity="1"><g transform="translate(12.475126, 51.607762)"><g><path d="M 2.140625 -9.390625 L -1.15625 -6.09375 L 1.09375 -3.84375 L 4.96875 -7.71875 L 6.34375 -6.34375 L 0.734375 -0.734375 L -7.625 -9.09375 L -2.03125 -14.6875 L -0.625 -13.28125 L -4.484375 -9.421875 L -2.484375 -7.421875 L 0.8125 -10.71875 Z M 2.140625 -9.390625 "/></g></g></g><g fill="#ff99d8" fill-opacity="1"><g transform="translate(19.083179, 44.99971)"><g><path d="M -1.734375 -9.203125 L -3.0625 -13.65625 L -1.078125 -15.640625 L 0.640625 -9.046875 L 7.34375 -7.34375 L 5.34375 -5.34375 L 0.8125 -6.65625 L 2.125 -2.125 L 0.125 -0.125 L -1.578125 -6.828125 L -8.171875 -8.546875 L -6.1875 -10.53125 Z M -1.734375 -9.203125 "/></g></g></g><g fill="#ff99d8" fill-opacity="1"><g transform="translate(26.545921, 37.536968)"><g><path d="M 3.734375 -7.171875 L 0.71875 -4.15625 L 1.859375 -1.859375 L 0.046875 -0.046875 L -5.203125 -11.515625 L -3.625 -13.09375 L 7.859375 -7.859375 L 6.046875 -6.046875 Z M -0.203125 -6.015625 L 1.890625 -8.109375 L -2.3125 -10.1875 Z M -0.203125 -6.015625 "/></g></g></g><g fill="#ff99d8" fill-opacity="1"><g transform="translate(34.450345, 29.632544)"><g><path d="M -5.359375 -11.359375 L 2.84375 -7.4375 L -1.09375 -15.625 L 1.171875 -17.890625 L 9.53125 -9.53125 L 7.796875 -7.796875 L 5.515625 -10.078125 L 1.765625 -14.203125 L 5.71875 -5.71875 L 4.546875 -4.546875 L -3.921875 -8.515625 L 0.1875 -4.75 L 2.46875 -2.46875 L 0.734375 -0.734375 L -7.625 -9.09375 Z M -5.359375 -11.359375 "/></g></g></g><g fill="#ff99d8" fill-opacity="1"><g transform="translate(44.741009, 19.34188)"><g><path d="M 2.890625 -7.265625 C 2.566406 -7.585938 2.203125 -7.722656 1.796875 -7.671875 C 1.390625 -7.617188 0.789062 -7.390625 0 -6.984375 C -0.789062 -6.578125 -1.453125 -6.296875 -1.984375 -6.140625 C -3.441406 -5.703125 -4.601562 -5.914062 -5.46875 -6.78125 C -5.925781 -7.238281 -6.203125 -7.769531 -6.296875 -8.375 C -6.390625 -8.976562 -6.300781 -9.617188 -6.03125 -10.296875 C -5.757812 -10.972656 -5.328125 -11.609375 -4.734375 -12.203125 C -4.140625 -12.796875 -3.5 -13.21875 -2.8125 -13.46875 C -2.125 -13.71875 -1.453125 -13.773438 -0.796875 -13.640625 C -0.148438 -13.515625 0.421875 -13.203125 0.921875 -12.703125 L -0.8125 -10.96875 C -1.1875 -11.34375 -1.597656 -11.515625 -2.046875 -11.484375 C -2.503906 -11.460938 -2.953125 -11.234375 -3.390625 -10.796875 C -3.804688 -10.378906 -4.039062 -9.960938 -4.09375 -9.546875 C -4.15625 -9.140625 -4.039062 -8.789062 -3.75 -8.5 C -3.476562 -8.226562 -3.113281 -8.132812 -2.65625 -8.21875 C -2.207031 -8.3125 -1.632812 -8.539062 -0.9375 -8.90625 C 0.332031 -9.59375 1.410156 -9.945312 2.296875 -9.96875 C 3.179688 -9.988281 3.953125 -9.671875 4.609375 -9.015625 C 5.335938 -8.285156 5.628906 -7.441406 5.484375 -6.484375 C 5.335938 -5.523438 4.804688 -4.585938 3.890625 -3.671875 C 3.242188 -3.023438 2.539062 -2.550781 1.78125 -2.25 C 1.019531 -1.945312 0.296875 -1.863281 -0.390625 -2 C -1.085938 -2.144531 -1.703125 -2.484375 -2.234375 -3.015625 L -0.5 -4.75 C 0.414062 -3.832031 1.425781 -3.925781 2.53125 -5.03125 C 2.9375 -5.4375 3.171875 -5.835938 3.234375 -6.234375 C 3.296875 -6.628906 3.179688 -6.972656 2.890625 -7.265625 Z M 2.890625 -7.265625 "/></g></g></g></g></g></svg>