<svg xmlns="http://www.w3.org/2000/svg" xmlns:xlink="http://www.w3.org/1999/xlink" width="300" zoomAndPan="magnify" viewBox="0 0 224.87999 374.999991" height="500" preserveAspectRatio="xMidYMid meet" version="1.0"><defs><g/><clipPath id="51daeaf105"><path d="M 0 0.101562 L 224.761719 0.101562 L 224.761719 374.898438 L 0 374.898438 Z M 0 0.101562 " clip-rule="nonzero"/></clipPath><clipPath id="6319c7eb9f"><path d="M 20 106 L 120 106 L 120 207 L 20 207 Z M 20 106 " clip-rule="nonzero"/></clipPath><clipPath id="59b663be03"><path d="M 84.777344 88.46875 L 152.621094 156.316406 L 84.777344 224.160156 L 16.929688 156.316406 Z M 84.777344 88.46875 " clip-rule="nonzero"/></clipPath><clipPath id="e0118631a2"><path d="M 84.777344 88.46875 L 152.621094 156.316406 L 84.777344 224.160156 L 16.929688 156.316406 Z M 84.777344 88.46875 " clip-rule="nonzero"/></clipPath><clipPath id="e3f4cc4eee"><path d="M 72 53 L 173 53 L 173 154 L 72 154 Z M 72 53 " clip-rule="nonzero"/></clipPath><clipPath id="ed15c3edac"><path d="M 137.582031 35.660156 L 205.429688 103.507812 L 137.582031 171.355469 L 69.738281 103.507812 Z M 137.582031 35.660156 " clip-rule="nonzero"/></clipPath><clipPath id="d540295066"><path d="M 137.582031 35.660156 L 205.429688 103.507812 L 137.582031 171.355469 L 69.738281 103.507812 Z M 137.582031 35.660156 " clip-rule="nonzero"/></clipPath><clipPath id="b713c0d947"><path d="M 21 106 L 122 106 L 122 207 L 21 207 Z M 21 106 " clip-rule="nonzero"/></clipPath><clipPath id="687aea4de2"><path d="M 86.234375 88.46875 L 154.078125 156.316406 L 86.234375 224.160156 L 18.386719 156.316406 Z M 86.234375 88.46875 " clip-rule="nonzero"/></clipPath><clipPath id="2904d23b83"><path d="M 86.234375 88.46875 L 154.078125 156.316406 L 86.234375 224.160156 L 18.386719 156.316406 Z M 86.234375 88.46875 " clip-rule="nonzero"/></clipPath><clipPath id="a46cf2d37c"><path d="M 63.4375 141.613281 L 98.667969 141.613281 L 98.667969 168.601562 L 63.4375 168.601562 Z M 63.4375 141.613281 " clip-rule="nonzero"/></clipPath><clipPath id="117ddc1cf9"><path d="M 63.4375 141.613281 L 98.667969 141.613281 L 98.667969 156 L 63.4375 156 Z M 63.4375 141.613281 " clip-rule="nonzero"/></clipPath><clipPath id="c58986f2ea"><path d="M 74 53 L 175 53 L 175 154 L 74 154 Z M 74 53 " clip-rule="nonzero"/></clipPath><clipPath id="169574d955"><path d="M 139.730469 35.660156 L 207.574219 103.507812 L 139.730469 171.355469 L 71.882812 103.507812 Z M 139.730469 35.660156 " clip-rule="nonzero"/></clipPath><clipPath id="e225829b74"><path d="M 139.730469 35.660156 L 207.574219 103.507812 L 139.730469 171.355469 L 71.882812 103.507812 Z M 139.730469 35.660156 " clip-rule="nonzero"/></clipPath><clipPath id="248637961c"><path d="M 113.351562 105 L 159.828125 105 L 159.828125 123.660156 L 113.351562 123.660156 Z M 113.351562 105 " clip-rule="nonzero"/></clipPath><clipPath id="4d0de08781"><path d="M 126 77.183594 L 147 77.183594 L 147 97 L 126 97 Z M 126 77.183594 " clip-rule="nonzero"/></clipPath><clipPath id="edea7fd91b"><path d="M 113.351562 106 L 159.828125 106 L 159.828125 124.472656 L 113.351562 124.472656 Z M 113.351562 106 " clip-rule="nonzero"/></clipPath></defs><g clip-path="url(#51daeaf105)"><path fill="#ffffff" d="M 0 0.101562 L 224.878906 0.101562 L 224.878906 374.898438 L 0 374.898438 Z M 0 0.101562 " fill-opacity="1" fill-rule="nonzero"/><path fill="#ffffff" d="M 0 0.101562 L 224.878906 0.101562 L 224.878906 374.898438 L 0 374.898438 Z M 0 0.101562 " fill-opacity="1" fill-rule="nonzero"/></g><g clip-path="url(#6319c7eb9f)"><g clip-path="url(#59b663be03)"><g clip-path="url(#e0118631a2)"><path fill="#121256" d="M 111.457031 183.816406 C 110.1875 182.550781 108.664062 181.699219 107.046875 181.257812 C 106.429688 181.089844 105.796875 180.980469 105.15625 180.9375 C 103.632812 180.53125 101.660156 179.632812 101.195312 177.65625 L 117.582031 161.269531 C 120.347656 158.503906 120.347656 154.007812 117.582031 151.242188 L 100.988281 134.648438 C 101.558594 133.070312 103.144531 132.261719 104.503906 131.851562 C 106.9375 131.773438 109.347656 130.800781 111.207031 128.945312 C 115.085938 125.066406 115.089844 118.777344 111.207031 114.894531 C 107.324219 111.011719 101.035156 111.015625 97.15625 114.894531 C 95.890625 116.160156 95.039062 117.6875 94.597656 119.300781 C 94.429688 119.921875 94.320312 120.554688 94.273438 121.195312 C 93.898438 122.617188 93.089844 124.421875 91.378906 125.039062 L 74.859375 108.519531 C 72.089844 105.75 67.597656 105.75 64.828125 108.519531 L 48.445312 124.90625 C 48.910156 126.882812 50.882812 127.78125 52.40625 128.1875 C 53.046875 128.230469 53.679688 128.339844 54.300781 128.511719 C 55.914062 128.949219 57.4375 129.796875 58.707031 131.066406 C 62.589844 134.949219 62.585938 141.242188 58.710938 145.121094 C 54.828125 149 48.535156 149.003906 44.652344 145.121094 C 42.792969 143.261719 41.832031 140.851562 41.753906 138.417969 C 41.308594 136.949219 40.402344 135.21875 38.566406 134.78125 L 22.109375 151.242188 C 19.339844 154.007812 19.339844 158.503906 22.109375 161.269531 L 38.496094 177.65625 C 40.46875 177.1875 41.371094 175.21875 41.777344 173.695312 C 41.820312 173.054688 41.925781 172.421875 42.097656 171.800781 C 42.539062 170.1875 43.386719 168.660156 44.65625 167.394531 C 48.535156 163.511719 54.824219 163.511719 58.707031 167.394531 C 62.585938 171.277344 62.585938 177.566406 58.707031 181.445312 C 56.847656 183.304688 54.441406 184.269531 52.003906 184.351562 C 50.539062 184.792969 48.808594 185.695312 48.371094 187.53125 L 64.828125 203.992188 C 67.597656 206.757812 72.089844 206.757812 74.859375 203.992188 L 91.316406 187.53125 C 93.15625 187.96875 94.058594 189.699219 94.503906 191.167969 C 94.582031 193.601562 95.542969 196.011719 97.402344 197.871094 C 101.28125 201.75 107.578125 201.75 111.460938 197.871094 C 115.335938 193.992188 115.335938 187.695312 111.457031 183.816406 " fill-opacity="1" fill-rule="nonzero"/></g></g></g><g clip-path="url(#e3f4cc4eee)"><g clip-path="url(#ed15c3edac)"><g clip-path="url(#d540295066)"><path fill="#121256" d="M 164.265625 131.007812 C 162.996094 129.742188 161.472656 128.890625 159.855469 128.449219 C 159.238281 128.28125 158.605469 128.171875 157.964844 128.128906 C 156.441406 127.722656 154.46875 126.824219 154.003906 124.847656 L 170.386719 108.460938 C 173.15625 105.695312 173.15625 101.203125 170.386719 98.433594 L 153.796875 81.839844 C 154.367188 80.261719 155.953125 79.457031 157.3125 79.042969 C 159.746094 78.964844 162.15625 77.992188 164.015625 76.136719 C 167.894531 72.257812 167.894531 65.96875 164.015625 62.085938 C 160.132812 58.203125 153.839844 58.207031 149.964844 62.085938 C 148.695312 63.351562 147.847656 64.878906 147.40625 66.492188 C 147.234375 67.113281 147.128906 67.746094 147.082031 68.386719 C 146.707031 69.808594 145.898438 71.613281 144.1875 72.230469 L 127.667969 55.710938 C 124.898438 52.945312 120.40625 52.945312 117.636719 55.710938 L 101.25 72.097656 C 101.71875 74.074219 103.6875 74.972656 105.214844 75.378906 C 105.855469 75.421875 106.488281 75.53125 107.109375 75.703125 C 108.722656 76.140625 110.246094 76.992188 111.515625 78.257812 C 115.398438 82.140625 115.394531 88.433594 111.515625 92.3125 C 107.636719 96.191406 101.34375 96.195312 97.460938 92.3125 C 95.601562 90.453125 94.640625 88.042969 94.5625 85.609375 C 94.117188 84.140625 93.210938 82.410156 91.375 81.972656 L 74.917969 98.433594 C 72.148438 101.203125 72.148438 105.695312 74.917969 108.460938 L 91.304688 124.847656 C 93.277344 124.378906 94.179688 122.410156 94.585938 120.886719 C 94.628906 120.246094 94.734375 119.617188 94.90625 118.992188 C 95.347656 117.378906 96.195312 115.851562 97.460938 114.585938 C 101.34375 110.707031 107.632812 110.707031 111.515625 114.585938 C 115.394531 118.46875 115.394531 124.757812 111.515625 128.636719 C 109.65625 130.496094 107.25 131.460938 104.8125 131.542969 C 103.347656 131.984375 101.617188 132.886719 101.179688 134.726562 L 117.636719 151.183594 C 120.40625 153.953125 124.898438 153.953125 127.667969 151.183594 L 144.125 134.726562 C 145.960938 135.160156 146.867188 136.894531 147.3125 138.359375 C 147.390625 140.792969 148.351562 143.203125 150.210938 145.0625 C 154.089844 148.945312 160.386719 148.945312 164.265625 145.0625 C 168.144531 141.183594 168.144531 134.890625 164.265625 131.007812 " fill-opacity="1" fill-rule="nonzero"/></g></g></g><g clip-path="url(#b713c0d947)"><g clip-path="url(#687aea4de2)"><g clip-path="url(#2904d23b83)"><path fill="#5ca3ff" d="M 112.914062 183.816406 C 111.648438 182.550781 110.121094 181.699219 108.507812 181.257812 C 107.886719 181.089844 107.253906 180.980469 106.613281 180.9375 C 105.089844 180.53125 103.121094 179.632812 102.652344 177.65625 L 119.039062 161.269531 C 121.804688 158.503906 121.804688 154.007812 119.039062 151.242188 L 102.445312 134.648438 C 103.015625 133.070312 104.601562 132.261719 105.964844 131.851562 C 108.398438 131.773438 110.808594 130.800781 112.664062 128.945312 C 116.542969 125.066406 116.546875 118.777344 112.664062 114.894531 C 108.78125 111.011719 102.492188 111.015625 98.613281 114.894531 C 97.347656 116.160156 96.496094 117.6875 96.054688 119.300781 C 95.886719 119.921875 95.78125 120.554688 95.730469 121.195312 C 95.355469 122.617188 94.546875 124.421875 92.835938 125.039062 L 76.316406 108.519531 C 73.546875 105.75 69.054688 105.75 66.289062 108.519531 L 49.902344 124.90625 C 50.367188 126.882812 52.339844 127.78125 53.863281 128.1875 C 54.503906 128.230469 55.136719 128.339844 55.757812 128.511719 C 57.371094 128.949219 58.898438 129.796875 60.164062 131.066406 C 64.046875 134.949219 64.042969 141.242188 60.167969 145.121094 C 56.285156 149 49.992188 149.003906 46.109375 145.121094 C 44.25 143.261719 43.289062 140.851562 43.210938 138.417969 C 42.765625 136.949219 41.863281 135.21875 40.023438 134.78125 L 23.566406 151.242188 C 20.796875 154.007812 20.796875 158.503906 23.566406 161.269531 L 39.953125 177.65625 C 41.925781 177.1875 42.828125 175.21875 43.234375 173.695312 C 43.277344 173.054688 43.382812 172.421875 43.554688 171.800781 C 43.996094 170.1875 44.84375 168.660156 46.113281 167.394531 C 49.992188 163.511719 56.28125 163.511719 60.164062 167.394531 C 64.042969 171.277344 64.042969 177.566406 60.164062 181.445312 C 58.304688 183.304688 55.898438 184.269531 53.460938 184.351562 C 51.996094 184.792969 50.265625 185.695312 49.828125 187.53125 L 66.289062 203.992188 C 69.054688 206.757812 73.546875 206.757812 76.316406 203.992188 L 92.777344 187.53125 C 94.613281 187.96875 95.515625 189.699219 95.960938 191.167969 C 96.039062 193.601562 97 196.011719 98.859375 197.871094 C 102.742188 201.75 109.035156 201.75 112.917969 197.871094 C 116.796875 193.992188 116.796875 187.695312 112.914062 183.816406 " fill-opacity="1" fill-rule="nonzero"/></g></g></g><g clip-path="url(#a46cf2d37c)"><path fill="#3679ed" d="M 98.625 155.105469 C 98.625 155.105469 89.210938 168.320312 77.097656 168.355469 C 73.550781 168.601562 69.925781 167.316406 67.21875 164.496094 C 64.722656 161.902344 63.480469 158.503906 63.480469 155.105469 C 63.480469 151.707031 64.722656 148.308594 67.21875 145.714844 C 69.925781 142.894531 73.554688 141.609375 77.097656 141.855469 C 89.222656 141.890625 98.625 155.105469 98.625 155.105469 Z M 98.625 155.105469 " fill-opacity="1" fill-rule="nonzero"/></g><g clip-path="url(#117ddc1cf9)"><path fill="#1d67db" d="M 98.625 155.105469 L 63.480469 155.105469 C 63.480469 151.707031 64.722656 148.308594 67.21875 145.714844 C 69.925781 142.894531 73.554688 141.609375 77.097656 141.855469 C 89.222656 141.890625 98.625 155.105469 98.625 155.105469 Z M 98.625 155.105469 " fill-opacity="1" fill-rule="nonzero"/></g><path fill="#ffffff" d="M 87.6875 155.089844 C 87.6875 155.769531 87.621094 156.441406 87.488281 157.105469 C 87.355469 157.769531 87.160156 158.414062 86.902344 159.039062 C 86.644531 159.667969 86.324219 160.261719 85.949219 160.824219 C 85.574219 161.386719 85.148438 161.910156 84.667969 162.390625 C 84.1875 162.867188 83.667969 163.296875 83.105469 163.671875 C 82.542969 164.050781 81.949219 164.367188 81.324219 164.625 C 80.699219 164.886719 80.054688 165.082031 79.390625 165.214844 C 78.726562 165.347656 78.054688 165.414062 77.378906 165.414062 C 76.699219 165.414062 76.03125 165.347656 75.367188 165.214844 C 74.703125 165.082031 74.058594 164.886719 73.433594 164.625 C 72.804688 164.367188 72.210938 164.050781 71.648438 163.671875 C 71.085938 163.296875 70.566406 162.867188 70.085938 162.390625 C 69.609375 161.910156 69.179688 161.386719 68.804688 160.824219 C 68.429688 160.261719 68.109375 159.667969 67.851562 159.039062 C 67.59375 158.414062 67.398438 157.769531 67.265625 157.105469 C 67.132812 156.441406 67.066406 155.769531 67.066406 155.089844 C 67.066406 154.414062 67.132812 153.742188 67.265625 153.078125 C 67.398438 152.414062 67.59375 151.765625 67.851562 151.140625 C 68.109375 150.515625 68.429688 149.917969 68.804688 149.355469 C 69.179688 148.792969 69.609375 148.269531 70.085938 147.792969 C 70.566406 147.3125 71.085938 146.886719 71.648438 146.507812 C 72.210938 146.132812 72.804688 145.8125 73.433594 145.554688 C 74.058594 145.296875 74.703125 145.097656 75.367188 144.96875 C 76.03125 144.835938 76.699219 144.769531 77.378906 144.769531 C 78.054688 144.769531 78.726562 144.835938 79.390625 144.96875 C 80.054688 145.097656 80.699219 145.296875 81.324219 145.554688 C 81.949219 145.8125 82.542969 146.132812 83.105469 146.507812 C 83.667969 146.886719 84.1875 147.3125 84.667969 147.792969 C 85.148438 148.269531 85.574219 148.792969 85.949219 149.355469 C 86.324219 149.917969 86.644531 150.515625 86.902344 151.140625 C 87.160156 151.765625 87.355469 152.414062 87.488281 153.078125 C 87.621094 153.742188 87.6875 154.414062 87.6875 155.089844 Z M 87.6875 155.089844 " fill-opacity="1" fill-rule="nonzero"/><path fill="#121256" d="M 73.542969 161.140625 L 77.6875 154.246094 C 78.027344 153.671875 78.253906 153.238281 78.359375 152.949219 C 78.464844 152.65625 78.515625 152.367188 78.515625 152.085938 C 78.515625 151.777344 78.429688 151.527344 78.261719 151.339844 C 78.09375 151.152344 77.871094 151.054688 77.59375 151.054688 C 77.257812 151.054688 77 151.191406 76.824219 151.460938 C 76.648438 151.726562 76.558594 152.113281 76.558594 152.613281 L 76.558594 152.875 L 73.984375 152.875 L 73.984375 152.582031 C 73.984375 151.441406 74.296875 150.574219 74.925781 149.96875 C 75.550781 149.371094 76.453125 149.070312 77.632812 149.070312 C 78.8125 149.070312 79.648438 149.332031 80.265625 149.859375 C 80.886719 150.386719 81.195312 151.132812 81.195312 152.101562 C 81.195312 152.617188 81.101562 153.128906 80.917969 153.636719 C 80.730469 154.148438 80.34375 154.84375 79.753906 155.734375 L 77.632812 158.957031 L 80.828125 158.957031 L 80.828125 161.144531 L 73.542969 161.144531 Z M 73.542969 161.140625 " fill-opacity="1" fill-rule="nonzero"/><g clip-path="url(#c58986f2ea)"><g clip-path="url(#169574d955)"><g clip-path="url(#e225829b74)"><path fill="#5ca3ff" d="M 166.410156 131.007812 C 165.144531 129.742188 163.617188 128.890625 162.003906 128.449219 C 161.386719 128.28125 160.75 128.171875 160.113281 128.128906 C 158.585938 127.722656 156.617188 126.824219 156.148438 124.847656 L 172.535156 108.460938 C 175.304688 105.695312 175.304688 101.203125 172.535156 98.433594 L 155.945312 81.839844 C 156.511719 80.261719 158.097656 79.457031 159.460938 79.042969 C 161.894531 78.964844 164.304688 77.992188 166.160156 76.136719 C 170.039062 72.257812 170.042969 65.96875 166.160156 62.085938 C 162.28125 58.203125 155.988281 58.207031 152.109375 62.085938 C 150.84375 63.351562 149.992188 64.878906 149.554688 66.492188 C 149.382812 67.113281 149.277344 67.746094 149.226562 68.386719 C 148.851562 69.808594 148.042969 71.613281 146.332031 72.230469 L 129.8125 55.710938 C 127.046875 52.945312 122.554688 52.945312 119.785156 55.710938 L 103.398438 72.097656 C 103.867188 74.074219 105.835938 74.972656 107.363281 75.378906 C 108 75.421875 108.632812 75.53125 109.257812 75.703125 C 110.867188 76.140625 112.394531 76.992188 113.660156 78.257812 C 117.542969 82.140625 117.542969 88.433594 113.664062 92.3125 C 109.78125 96.191406 103.488281 96.195312 99.605469 92.3125 C 97.75 90.453125 96.785156 88.042969 96.707031 85.609375 C 96.261719 84.140625 95.359375 82.410156 93.523438 81.972656 L 77.0625 98.433594 C 74.296875 101.203125 74.296875 105.695312 77.0625 108.460938 L 93.449219 124.847656 C 95.421875 124.378906 96.324219 122.410156 96.730469 120.886719 C 96.773438 120.246094 96.882812 119.617188 97.050781 118.992188 C 97.492188 117.378906 98.34375 115.851562 99.609375 114.585938 C 103.488281 110.707031 109.777344 110.707031 113.660156 114.585938 C 117.542969 118.46875 117.542969 124.757812 113.660156 128.636719 C 111.804688 130.496094 109.394531 131.460938 106.957031 131.542969 C 105.492188 131.984375 103.761719 132.886719 103.328125 134.726562 L 119.785156 151.183594 C 122.554688 153.953125 127.046875 153.953125 129.8125 151.183594 L 146.273438 134.726562 C 148.109375 135.160156 149.011719 136.894531 149.457031 138.359375 C 149.535156 140.792969 150.5 143.203125 152.355469 145.0625 C 156.238281 148.945312 162.53125 148.945312 166.414062 145.0625 C 170.292969 141.183594 170.292969 134.890625 166.410156 131.007812 " fill-opacity="1" fill-rule="nonzero"/></g></g></g><g clip-path="url(#248637961c)"><path fill="#121256" d="M 159.5 106.960938 C 159.597656 106.722656 159.566406 106.457031 159.425781 106.242188 C 159.28125 106.03125 159.042969 105.902344 158.785156 105.902344 L 114.152344 105.902344 C 113.894531 105.902344 113.65625 106.03125 113.511719 106.242188 C 113.367188 106.457031 113.339844 106.722656 113.433594 106.960938 L 119.8125 122.902344 C 119.925781 123.195312 120.210938 123.386719 120.527344 123.386719 L 152.410156 123.386719 C 152.726562 123.386719 153.007812 123.195312 153.125 122.902344 Z M 115.289062 107.445312 L 121.050781 121.84375 L 151.886719 121.84375 L 157.644531 107.445312 Z M 115.289062 107.445312 " fill-opacity="1" fill-rule="evenodd"/></g><path fill="#121256" d="M 141.058594 113.304688 C 141.140625 113.066406 141.105469 112.808594 140.957031 112.605469 C 140.8125 112.402344 140.582031 112.28125 140.332031 112.28125 L 132.605469 112.28125 C 132.355469 112.28125 132.121094 112.402344 131.976562 112.605469 C 131.832031 112.808594 131.792969 113.066406 131.878906 113.304688 L 132.980469 116.492188 C 133.085938 116.800781 133.378906 117.011719 133.707031 117.011719 L 139.226562 117.011719 C 139.554688 117.011719 139.847656 116.800781 139.957031 116.492188 Z M 133.6875 113.824219 L 134.257812 115.46875 L 138.675781 115.46875 L 139.25 113.824219 Z M 133.6875 113.824219 " fill-opacity="1" fill-rule="evenodd"/><path fill="#121256" d="M 153.179688 106.671875 C 153.179688 100.085938 147.839844 94.746094 141.253906 94.746094 C 138.152344 94.746094 134.785156 94.746094 131.683594 94.746094 C 125.09375 94.746094 119.753906 100.085938 119.753906 106.671875 C 119.753906 106.671875 119.753906 106.675781 119.753906 106.675781 C 119.753906 107.101562 120.101562 107.445312 120.527344 107.445312 L 152.410156 107.445312 C 152.835938 107.445312 153.179688 107.101562 153.179688 106.675781 Z M 151.609375 105.902344 C 151.214844 100.527344 146.730469 96.289062 141.253906 96.289062 C 138.152344 96.289062 134.785156 96.289062 131.683594 96.289062 C 126.207031 96.289062 121.71875 100.527344 121.324219 105.902344 Z M 151.609375 105.902344 " fill-opacity="1" fill-rule="evenodd"/><g clip-path="url(#4d0de08781)"><path fill="#121256" d="M 136.46875 77.210938 C 131.203125 77.210938 126.929688 81.484375 126.929688 86.75 C 126.929688 92.015625 131.203125 96.289062 136.46875 96.289062 C 141.734375 96.289062 146.007812 92.015625 146.007812 86.75 C 146.007812 81.484375 141.734375 77.210938 136.46875 77.210938 Z M 136.46875 78.753906 C 140.882812 78.753906 144.464844 82.335938 144.464844 86.75 C 144.464844 91.164062 140.882812 94.746094 136.46875 94.746094 C 132.054688 94.746094 128.472656 91.164062 128.472656 86.75 C 128.472656 82.335938 132.054688 78.753906 136.46875 78.753906 Z M 136.46875 78.753906 " fill-opacity="1" fill-rule="evenodd"/></g><g clip-path="url(#edea7fd91b)"><path fill="#ffffff" d="M 159.5 107.777344 C 159.597656 107.539062 159.566406 107.269531 159.425781 107.058594 C 159.28125 106.847656 159.042969 106.71875 158.785156 106.71875 L 114.152344 106.71875 C 113.894531 106.71875 113.65625 106.847656 113.511719 107.058594 C 113.367188 107.269531 113.339844 107.539062 113.433594 107.777344 L 119.8125 123.71875 C 119.925781 124.011719 120.210938 124.203125 120.527344 124.203125 L 152.410156 124.203125 C 152.726562 124.203125 153.007812 124.011719 153.125 123.71875 Z M 115.289062 108.261719 L 121.050781 122.660156 L 151.886719 122.660156 L 157.644531 108.261719 Z M 115.289062 108.261719 " fill-opacity="1" fill-rule="evenodd"/></g><path fill="#ffffff" d="M 141.058594 114.117188 C 141.140625 113.882812 141.105469 113.621094 140.957031 113.417969 C 140.8125 113.214844 140.582031 113.09375 140.332031 113.09375 L 132.605469 113.09375 C 132.355469 113.09375 132.121094 113.214844 131.976562 113.417969 C 131.832031 113.621094 131.792969 113.882812 131.878906 114.117188 L 132.980469 117.308594 C 133.085938 117.617188 133.378906 117.828125 133.707031 117.828125 L 139.226562 117.828125 C 139.554688 117.828125 139.847656 117.617188 139.957031 117.308594 Z M 133.6875 114.636719 L 134.257812 116.285156 L 138.675781 116.285156 L 139.25 114.636719 Z M 133.6875 114.636719 " fill-opacity="1" fill-rule="evenodd"/><path fill="#ffffff" d="M 153.179688 107.488281 C 153.179688 100.898438 147.839844 95.558594 141.253906 95.558594 C 138.152344 95.558594 134.785156 95.558594 131.683594 95.558594 C 125.09375 95.558594 119.753906 100.898438 119.753906 107.488281 C 119.753906 107.488281 119.753906 107.492188 119.753906 107.492188 C 119.753906 107.917969 120.101562 108.261719 120.527344 108.261719 L 152.410156 108.261719 C 152.835938 108.261719 153.179688 107.917969 153.179688 107.492188 Z M 151.609375 106.71875 C 151.214844 101.34375 146.730469 97.101562 141.253906 97.101562 C 138.152344 97.101562 134.785156 97.101562 131.683594 97.101562 C 126.207031 97.101562 121.71875 101.34375 121.324219 106.71875 Z M 151.609375 106.71875 " fill-opacity="1" fill-rule="evenodd"/><path fill="#ffffff" d="M 136.46875 78.023438 C 131.203125 78.023438 126.929688 82.296875 126.929688 87.5625 C 126.929688 92.828125 131.203125 97.101562 136.46875 97.101562 C 141.734375 97.101562 146.007812 92.828125 146.007812 87.5625 C 146.007812 82.296875 141.734375 78.023438 136.46875 78.023438 Z M 136.46875 79.566406 C 140.882812 79.566406 144.464844 83.148438 144.464844 87.5625 C 144.464844 91.976562 140.882812 95.558594 136.46875 95.558594 C 132.054688 95.558594 128.472656 91.976562 128.472656 87.5625 C 128.472656 83.148438 132.054688 79.566406 136.46875 79.566406 Z M 136.46875 79.566406 " fill-opacity="1" fill-rule="evenodd"/><g fill="#5170ff" fill-opacity="1"><g transform="translate(20.46293, 279.33775)"><g><path d="M 6.859375 -5.46875 L 4.40625 -5.46875 L 4.40625 0 L 1.328125 0 L 1.328125 -14.921875 L 6.875 -14.921875 C 8.632812 -14.921875 9.992188 -14.523438 10.953125 -13.734375 C 11.910156 -12.953125 12.390625 -11.84375 12.390625 -10.40625 C 12.390625 -9.394531 12.164062 -8.546875 11.71875 -7.859375 C 11.28125 -7.179688 10.613281 -6.640625 9.71875 -6.234375 L 12.953125 -0.140625 L 12.953125 0 L 9.65625 0 Z M 4.40625 -7.953125 L 6.890625 -7.953125 C 7.660156 -7.953125 8.253906 -8.144531 8.671875 -8.53125 C 9.097656 -8.925781 9.3125 -9.472656 9.3125 -10.171875 C 9.3125 -10.867188 9.109375 -11.414062 8.703125 -11.8125 C 8.304688 -12.21875 7.695312 -12.421875 6.875 -12.421875 L 4.40625 -12.421875 Z M 4.40625 -7.953125 "/></g></g><g transform="translate(33.857637, 279.33775)"><g><path d="M 6.234375 0.203125 C 4.609375 0.203125 3.285156 -0.289062 2.265625 -1.28125 C 1.242188 -2.28125 0.734375 -3.613281 0.734375 -5.28125 L 0.734375 -5.5625 C 0.734375 -6.675781 0.945312 -7.671875 1.375 -8.546875 C 1.8125 -9.421875 2.421875 -10.097656 3.203125 -10.578125 C 3.992188 -11.054688 4.894531 -11.296875 5.90625 -11.296875 C 7.425781 -11.296875 8.617188 -10.816406 9.484375 -9.859375 C 10.359375 -8.898438 10.796875 -7.546875 10.796875 -5.796875 L 10.796875 -4.578125 L 3.734375 -4.578125 C 3.835938 -3.859375 4.128906 -3.28125 4.609375 -2.84375 C 5.085938 -2.40625 5.695312 -2.1875 6.4375 -2.1875 C 7.570312 -2.1875 8.460938 -2.597656 9.109375 -3.421875 L 10.5625 -1.796875 C 10.113281 -1.160156 9.507812 -0.664062 8.75 -0.3125 C 8 0.03125 7.160156 0.203125 6.234375 0.203125 Z M 5.90625 -8.890625 C 5.3125 -8.890625 4.832031 -8.691406 4.46875 -8.296875 C 4.101562 -7.898438 3.867188 -7.332031 3.765625 -6.59375 L 7.890625 -6.59375 L 7.890625 -6.828125 C 7.878906 -7.484375 7.703125 -7.988281 7.359375 -8.34375 C 7.015625 -8.707031 6.53125 -8.890625 5.90625 -8.890625 Z M 5.90625 -8.890625 "/></g></g><g transform="translate(45.202656, 279.33775)"><g><path d="M 7.5625 0 C 7.425781 -0.269531 7.328125 -0.601562 7.265625 -1 C 6.546875 -0.195312 5.613281 0.203125 4.46875 0.203125 C 3.382812 0.203125 2.484375 -0.109375 1.765625 -0.734375 C 1.054688 -1.367188 0.703125 -2.160156 0.703125 -3.109375 C 0.703125 -4.285156 1.132812 -5.1875 2 -5.8125 C 2.875 -6.445312 4.132812 -6.765625 5.78125 -6.765625 L 7.140625 -6.765625 L 7.140625 -7.40625 C 7.140625 -7.914062 7.007812 -8.320312 6.75 -8.625 C 6.488281 -8.9375 6.070312 -9.09375 5.5 -9.09375 C 5 -9.09375 4.609375 -8.972656 4.328125 -8.734375 C 4.046875 -8.492188 3.90625 -8.164062 3.90625 -7.75 L 0.9375 -7.75 C 0.9375 -8.394531 1.132812 -8.988281 1.53125 -9.53125 C 1.925781 -10.082031 2.484375 -10.515625 3.203125 -10.828125 C 3.929688 -11.140625 4.75 -11.296875 5.65625 -11.296875 C 7.019531 -11.296875 8.101562 -10.953125 8.90625 -10.265625 C 9.707031 -9.578125 10.109375 -8.609375 10.109375 -7.359375 L 10.109375 -2.5625 C 10.117188 -1.507812 10.265625 -0.710938 10.546875 -0.171875 L 10.546875 0 Z M 5.109375 -2.0625 C 5.546875 -2.0625 5.945312 -2.15625 6.3125 -2.34375 C 6.6875 -2.539062 6.960938 -2.804688 7.140625 -3.140625 L 7.140625 -5.046875 L 6.03125 -5.046875 C 4.550781 -5.046875 3.765625 -4.53125 3.671875 -3.5 L 3.65625 -3.328125 C 3.65625 -2.960938 3.785156 -2.660156 4.046875 -2.421875 C 4.304688 -2.179688 4.660156 -2.0625 5.109375 -2.0625 Z M 5.109375 -2.0625 "/></g></g><g transform="translate(56.45544, 279.33775)"><g><path d="M 4.265625 0 L 1.296875 0 L 1.296875 -15.734375 L 4.265625 -15.734375 Z M 4.265625 0 "/></g></g><g transform="translate(62.020341, 279.33775)"><g><path d="M 6.890625 -5.1875 L 1.125 -5.1875 L 1.125 -7.578125 L 6.890625 -7.578125 Z M 6.890625 -5.1875 "/></g></g><g transform="translate(70.157599, 279.33775)"><g><path d="M 4.265625 0 L 1.296875 0 L 1.296875 -15.734375 L 4.265625 -15.734375 Z M 4.265625 0 "/></g></g><g transform="translate(75.7225, 279.33775)"><g><path d="M 4.265625 0 L 1.296875 0 L 1.296875 -11.09375 L 4.265625 -11.09375 Z M 1.109375 -13.953125 C 1.109375 -14.398438 1.257812 -14.765625 1.5625 -15.046875 C 1.863281 -15.335938 2.269531 -15.484375 2.78125 -15.484375 C 3.28125 -15.484375 3.679688 -15.335938 3.984375 -15.046875 C 4.285156 -14.765625 4.4375 -14.398438 4.4375 -13.953125 C 4.4375 -13.503906 4.285156 -13.132812 3.984375 -12.84375 C 3.679688 -12.5625 3.28125 -12.421875 2.78125 -12.421875 C 2.28125 -12.421875 1.875 -12.5625 1.5625 -12.84375 C 1.257812 -13.132812 1.109375 -13.503906 1.109375 -13.953125 Z M 1.109375 -13.953125 "/></g></g><g transform="translate(81.287402, 279.33775)"><g><path d="M 1.953125 0 L 1.953125 -8.921875 L 0.296875 -8.921875 L 0.296875 -11.09375 L 1.953125 -11.09375 L 1.953125 -12.03125 C 1.953125 -13.269531 2.304688 -14.234375 3.015625 -14.921875 C 3.734375 -15.609375 4.734375 -15.953125 6.015625 -15.953125 C 6.421875 -15.953125 6.921875 -15.882812 7.515625 -15.75 L 7.484375 -13.453125 C 7.242188 -13.515625 6.945312 -13.546875 6.59375 -13.546875 C 5.476562 -13.546875 4.921875 -13.023438 4.921875 -11.984375 L 4.921875 -11.09375 L 7.125 -11.09375 L 7.125 -8.921875 L 4.921875 -8.921875 L 4.921875 0 Z M 1.953125 0 "/></g></g><g transform="translate(88.809754, 279.33775)"><g><path d="M 6.234375 0.203125 C 4.609375 0.203125 3.285156 -0.289062 2.265625 -1.28125 C 1.242188 -2.28125 0.734375 -3.613281 0.734375 -5.28125 L 0.734375 -5.5625 C 0.734375 -6.675781 0.945312 -7.671875 1.375 -8.546875 C 1.8125 -9.421875 2.421875 -10.097656 3.203125 -10.578125 C 3.992188 -11.054688 4.894531 -11.296875 5.90625 -11.296875 C 7.425781 -11.296875 8.617188 -10.816406 9.484375 -9.859375 C 10.359375 -8.898438 10.796875 -7.546875 10.796875 -5.796875 L 10.796875 -4.578125 L 3.734375 -4.578125 C 3.835938 -3.859375 4.128906 -3.28125 4.609375 -2.84375 C 5.085938 -2.40625 5.695312 -2.1875 6.4375 -2.1875 C 7.570312 -2.1875 8.460938 -2.597656 9.109375 -3.421875 L 10.5625 -1.796875 C 10.113281 -1.160156 9.507812 -0.664062 8.75 -0.3125 C 8 0.03125 7.160156 0.203125 6.234375 0.203125 Z M 5.90625 -8.890625 C 5.3125 -8.890625 4.832031 -8.691406 4.46875 -8.296875 C 4.101562 -7.898438 3.867188 -7.332031 3.765625 -6.59375 L 7.890625 -6.59375 L 7.890625 -6.828125 C 7.878906 -7.484375 7.703125 -7.988281 7.359375 -8.34375 C 7.015625 -8.707031 6.53125 -8.890625 5.90625 -8.890625 Z M 5.90625 -8.890625 "/></g></g><g transform="translate(100.154773, 279.33775)"><g/></g><g transform="translate(105.381476, 279.33775)"><g><path d="M 9.0625 -3.921875 C 9.0625 -4.492188 8.859375 -4.9375 8.453125 -5.25 C 8.046875 -5.5625 7.304688 -5.890625 6.234375 -6.234375 C 5.171875 -6.578125 4.328125 -6.914062 3.703125 -7.25 C 2.015625 -8.164062 1.171875 -9.398438 1.171875 -10.953125 C 1.171875 -11.753906 1.394531 -12.472656 1.84375 -13.109375 C 2.300781 -13.742188 2.953125 -14.238281 3.796875 -14.59375 C 4.648438 -14.945312 5.609375 -15.125 6.671875 -15.125 C 7.734375 -15.125 8.679688 -14.929688 9.515625 -14.546875 C 10.347656 -14.160156 10.992188 -13.613281 11.453125 -12.90625 C 11.921875 -12.207031 12.15625 -11.410156 12.15625 -10.515625 L 9.078125 -10.515625 C 9.078125 -11.191406 8.859375 -11.71875 8.421875 -12.09375 C 7.992188 -12.476562 7.394531 -12.671875 6.625 -12.671875 C 5.863281 -12.671875 5.273438 -12.507812 4.859375 -12.1875 C 4.441406 -11.875 4.234375 -11.457031 4.234375 -10.9375 C 4.234375 -10.457031 4.476562 -10.050781 4.96875 -9.71875 C 5.457031 -9.394531 6.175781 -9.085938 7.125 -8.796875 C 8.875 -8.273438 10.148438 -7.625 10.953125 -6.84375 C 11.753906 -6.0625 12.15625 -5.09375 12.15625 -3.9375 C 12.15625 -2.644531 11.664062 -1.628906 10.6875 -0.890625 C 9.707031 -0.160156 8.390625 0.203125 6.734375 0.203125 C 5.585938 0.203125 4.539062 -0.00390625 3.59375 -0.421875 C 2.65625 -0.847656 1.9375 -1.425781 1.4375 -2.15625 C 0.945312 -2.882812 0.703125 -3.726562 0.703125 -4.6875 L 3.796875 -4.6875 C 3.796875 -3.039062 4.773438 -2.21875 6.734375 -2.21875 C 7.472656 -2.21875 8.046875 -2.363281 8.453125 -2.65625 C 8.859375 -2.957031 9.0625 -3.378906 9.0625 -3.921875 Z M 9.0625 -3.921875 "/></g></g><g transform="translate(118.284258, 279.33775)"><g><path d="M 5.75 -2.1875 C 6.289062 -2.1875 6.734375 -2.332031 7.078125 -2.625 C 7.421875 -2.925781 7.597656 -3.328125 7.609375 -3.828125 L 10.390625 -3.828125 C 10.378906 -3.078125 10.171875 -2.390625 9.765625 -1.765625 C 9.367188 -1.140625 8.816406 -0.65625 8.109375 -0.3125 C 7.410156 0.03125 6.640625 0.203125 5.796875 0.203125 C 4.210938 0.203125 2.960938 -0.296875 2.046875 -1.296875 C 1.128906 -2.304688 0.671875 -3.703125 0.671875 -5.484375 L 0.671875 -5.671875 C 0.671875 -7.378906 1.125 -8.742188 2.03125 -9.765625 C 2.945312 -10.785156 4.195312 -11.296875 5.78125 -11.296875 C 7.164062 -11.296875 8.273438 -10.898438 9.109375 -10.109375 C 9.953125 -9.316406 10.378906 -8.265625 10.390625 -6.953125 L 7.609375 -6.953125 C 7.597656 -7.523438 7.421875 -7.988281 7.078125 -8.34375 C 6.734375 -8.707031 6.285156 -8.890625 5.734375 -8.890625 C 5.035156 -8.890625 4.507812 -8.640625 4.15625 -8.140625 C 3.8125 -7.640625 3.640625 -6.828125 3.640625 -5.703125 L 3.640625 -5.390625 C 3.640625 -4.242188 3.8125 -3.421875 4.15625 -2.921875 C 4.507812 -2.429688 5.039062 -2.1875 5.75 -2.1875 Z M 5.75 -2.1875 "/></g></g><g transform="translate(129.229588, 279.33775)"><g><path d="M 6.234375 0.203125 C 4.609375 0.203125 3.285156 -0.289062 2.265625 -1.28125 C 1.242188 -2.28125 0.734375 -3.613281 0.734375 -5.28125 L 0.734375 -5.5625 C 0.734375 -6.675781 0.945312 -7.671875 1.375 -8.546875 C 1.8125 -9.421875 2.421875 -10.097656 3.203125 -10.578125 C 3.992188 -11.054688 4.894531 -11.296875 5.90625 -11.296875 C 7.425781 -11.296875 8.617188 -10.816406 9.484375 -9.859375 C 10.359375 -8.898438 10.796875 -7.546875 10.796875 -5.796875 L 10.796875 -4.578125 L 3.734375 -4.578125 C 3.835938 -3.859375 4.128906 -3.28125 4.609375 -2.84375 C 5.085938 -2.40625 5.695312 -2.1875 6.4375 -2.1875 C 7.570312 -2.1875 8.460938 -2.597656 9.109375 -3.421875 L 10.5625 -1.796875 C 10.113281 -1.160156 9.507812 -0.664062 8.75 -0.3125 C 8 0.03125 7.160156 0.203125 6.234375 0.203125 Z M 5.90625 -8.890625 C 5.3125 -8.890625 4.832031 -8.691406 4.46875 -8.296875 C 4.101562 -7.898438 3.867188 -7.332031 3.765625 -6.59375 L 7.890625 -6.59375 L 7.890625 -6.828125 C 7.878906 -7.484375 7.703125 -7.988281 7.359375 -8.34375 C 7.015625 -8.707031 6.53125 -8.890625 5.90625 -8.890625 Z M 5.90625 -8.890625 "/></g></g><g transform="translate(140.574607, 279.33775)"><g><path d="M 3.859375 -11.09375 L 3.953125 -9.8125 C 4.742188 -10.800781 5.804688 -11.296875 7.140625 -11.296875 C 8.316406 -11.296875 9.191406 -10.945312 9.765625 -10.25 C 10.335938 -9.5625 10.628906 -8.53125 10.640625 -7.15625 L 10.640625 0 L 7.6875 0 L 7.6875 -7.09375 C 7.6875 -7.71875 7.546875 -8.171875 7.265625 -8.453125 C 6.992188 -8.742188 6.539062 -8.890625 5.90625 -8.890625 C 5.070312 -8.890625 4.445312 -8.53125 4.03125 -7.8125 L 4.03125 0 L 1.078125 0 L 1.078125 -11.09375 Z M 3.859375 -11.09375 "/></g></g><g transform="translate(152.329564, 279.33775)"><g><path d="M 7.5625 0 C 7.425781 -0.269531 7.328125 -0.601562 7.265625 -1 C 6.546875 -0.195312 5.613281 0.203125 4.46875 0.203125 C 3.382812 0.203125 2.484375 -0.109375 1.765625 -0.734375 C 1.054688 -1.367188 0.703125 -2.160156 0.703125 -3.109375 C 0.703125 -4.285156 1.132812 -5.1875 2 -5.8125 C 2.875 -6.445312 4.132812 -6.765625 5.78125 -6.765625 L 7.140625 -6.765625 L 7.140625 -7.40625 C 7.140625 -7.914062 7.007812 -8.320312 6.75 -8.625 C 6.488281 -8.9375 6.070312 -9.09375 5.5 -9.09375 C 5 -9.09375 4.609375 -8.972656 4.328125 -8.734375 C 4.046875 -8.492188 3.90625 -8.164062 3.90625 -7.75 L 0.9375 -7.75 C 0.9375 -8.394531 1.132812 -8.988281 1.53125 -9.53125 C 1.925781 -10.082031 2.484375 -10.515625 3.203125 -10.828125 C 3.929688 -11.140625 4.75 -11.296875 5.65625 -11.296875 C 7.019531 -11.296875 8.101562 -10.953125 8.90625 -10.265625 C 9.707031 -9.578125 10.109375 -8.609375 10.109375 -7.359375 L 10.109375 -2.5625 C 10.117188 -1.507812 10.265625 -0.710938 10.546875 -0.171875 L 10.546875 0 Z M 5.109375 -2.0625 C 5.546875 -2.0625 5.945312 -2.15625 6.3125 -2.34375 C 6.6875 -2.539062 6.960938 -2.804688 7.140625 -3.140625 L 7.140625 -5.046875 L 6.03125 -5.046875 C 4.550781 -5.046875 3.765625 -4.53125 3.671875 -3.5 L 3.65625 -3.328125 C 3.65625 -2.960938 3.785156 -2.660156 4.046875 -2.421875 C 4.304688 -2.179688 4.660156 -2.0625 5.109375 -2.0625 Z M 5.109375 -2.0625 "/></g></g><g transform="translate(163.582347, 279.33775)"><g><path d="M 7.359375 -8.3125 C 6.960938 -8.363281 6.609375 -8.390625 6.296875 -8.390625 C 5.179688 -8.390625 4.445312 -8.007812 4.09375 -7.25 L 4.09375 0 L 1.140625 0 L 1.140625 -11.09375 L 3.9375 -11.09375 L 4.015625 -9.765625 C 4.609375 -10.785156 5.429688 -11.296875 6.484375 -11.296875 C 6.816406 -11.296875 7.125 -11.25 7.40625 -11.15625 Z M 7.359375 -8.3125 "/></g></g><g transform="translate(171.237929, 279.33775)"><g><path d="M 4.265625 0 L 1.296875 0 L 1.296875 -11.09375 L 4.265625 -11.09375 Z M 1.109375 -13.953125 C 1.109375 -14.398438 1.257812 -14.765625 1.5625 -15.046875 C 1.863281 -15.335938 2.269531 -15.484375 2.78125 -15.484375 C 3.28125 -15.484375 3.679688 -15.335938 3.984375 -15.046875 C 4.285156 -14.765625 4.4375 -14.398438 4.4375 -13.953125 C 4.4375 -13.503906 4.285156 -13.132812 3.984375 -12.84375 C 3.679688 -12.5625 3.28125 -12.421875 2.78125 -12.421875 C 2.28125 -12.421875 1.875 -12.5625 1.5625 -12.84375 C 1.257812 -13.132812 1.109375 -13.503906 1.109375 -13.953125 Z M 1.109375 -13.953125 "/></g></g><g transform="translate(176.802831, 279.33775)"><g><path d="M 0.671875 -5.640625 C 0.671875 -6.742188 0.882812 -7.722656 1.3125 -8.578125 C 1.738281 -9.441406 2.347656 -10.109375 3.140625 -10.578125 C 3.929688 -11.054688 4.851562 -11.296875 5.90625 -11.296875 C 7.40625 -11.296875 8.628906 -10.835938 9.578125 -9.921875 C 10.523438 -9.003906 11.050781 -7.757812 11.15625 -6.1875 L 11.171875 -5.4375 C 11.171875 -3.726562 10.695312 -2.359375 9.75 -1.328125 C 8.800781 -0.304688 7.523438 0.203125 5.921875 0.203125 C 4.328125 0.203125 3.050781 -0.304688 2.09375 -1.328125 C 1.144531 -2.359375 0.671875 -3.753906 0.671875 -5.515625 Z M 3.640625 -5.4375 C 3.640625 -4.382812 3.835938 -3.578125 4.234375 -3.015625 C 4.628906 -2.460938 5.195312 -2.1875 5.9375 -2.1875 C 6.65625 -2.1875 7.210938 -2.457031 7.609375 -3 C 8.015625 -3.550781 8.21875 -4.429688 8.21875 -5.640625 C 8.21875 -6.671875 8.015625 -7.46875 7.609375 -8.03125 C 7.210938 -8.601562 6.644531 -8.890625 5.90625 -8.890625 C 5.1875 -8.890625 4.628906 -8.609375 4.234375 -8.046875 C 3.835938 -7.484375 3.640625 -6.613281 3.640625 -5.4375 Z M 3.640625 -5.4375 "/></g></g><g transform="translate(188.67052, 279.33775)"><g><path d="M 7.140625 -3.0625 C 7.140625 -3.425781 6.957031 -3.710938 6.59375 -3.921875 C 6.238281 -4.128906 5.664062 -4.316406 4.875 -4.484375 C 2.238281 -5.035156 0.921875 -6.15625 0.921875 -7.84375 C 0.921875 -8.820312 1.328125 -9.640625 2.140625 -10.296875 C 2.960938 -10.960938 4.03125 -11.296875 5.34375 -11.296875 C 6.75 -11.296875 7.875 -10.960938 8.71875 -10.296875 C 9.5625 -9.628906 9.984375 -8.769531 9.984375 -7.71875 L 7.03125 -7.71875 C 7.03125 -8.132812 6.890625 -8.484375 6.609375 -8.765625 C 6.335938 -9.046875 5.914062 -9.1875 5.34375 -9.1875 C 4.84375 -9.1875 4.453125 -9.070312 4.171875 -8.84375 C 3.898438 -8.613281 3.765625 -8.328125 3.765625 -7.984375 C 3.765625 -7.648438 3.921875 -7.382812 4.234375 -7.1875 C 4.546875 -6.988281 5.070312 -6.8125 5.8125 -6.65625 C 6.550781 -6.507812 7.171875 -6.347656 7.671875 -6.171875 C 9.234375 -5.597656 10.015625 -4.601562 10.015625 -3.1875 C 10.015625 -2.175781 9.582031 -1.359375 8.71875 -0.734375 C 7.851562 -0.109375 6.734375 0.203125 5.359375 0.203125 C 4.429688 0.203125 3.601562 0.0390625 2.875 -0.28125 C 2.15625 -0.613281 1.59375 -1.066406 1.1875 -1.640625 C 0.78125 -2.222656 0.578125 -2.851562 0.578125 -3.53125 L 3.375 -3.53125 C 3.40625 -3 3.601562 -2.59375 3.96875 -2.3125 C 4.332031 -2.03125 4.816406 -1.890625 5.421875 -1.890625 C 5.984375 -1.890625 6.410156 -2 6.703125 -2.21875 C 6.992188 -2.4375 7.140625 -2.71875 7.140625 -3.0625 Z M 7.140625 -3.0625 "/></g></g></g><g fill="#5170ff" fill-opacity="1"><g transform="translate(39.542591, 308.572148)"><g><path d="M 7.5625 0 C 7.425781 -0.269531 7.328125 -0.601562 7.265625 -1 C 6.546875 -0.195312 5.613281 0.203125 4.46875 0.203125 C 3.382812 0.203125 2.484375 -0.109375 1.765625 -0.734375 C 1.054688 -1.367188 0.703125 -2.160156 0.703125 -3.109375 C 0.703125 -4.285156 1.132812 -5.1875 2 -5.8125 C 2.875 -6.445312 4.132812 -6.765625 5.78125 -6.765625 L 7.140625 -6.765625 L 7.140625 -7.40625 C 7.140625 -7.914062 7.007812 -8.320312 6.75 -8.625 C 6.488281 -8.9375 6.070312 -9.09375 5.5 -9.09375 C 5 -9.09375 4.609375 -8.972656 4.328125 -8.734375 C 4.046875 -8.492188 3.90625 -8.164062 3.90625 -7.75 L 0.9375 -7.75 C 0.9375 -8.394531 1.132812 -8.988281 1.53125 -9.53125 C 1.925781 -10.082031 2.484375 -10.515625 3.203125 -10.828125 C 3.929688 -11.140625 4.75 -11.296875 5.65625 -11.296875 C 7.019531 -11.296875 8.101562 -10.953125 8.90625 -10.265625 C 9.707031 -9.578125 10.109375 -8.609375 10.109375 -7.359375 L 10.109375 -2.5625 C 10.117188 -1.507812 10.265625 -0.710938 10.546875 -0.171875 L 10.546875 0 Z M 5.109375 -2.0625 C 5.546875 -2.0625 5.945312 -2.15625 6.3125 -2.34375 C 6.6875 -2.539062 6.960938 -2.804688 7.140625 -3.140625 L 7.140625 -5.046875 L 6.03125 -5.046875 C 4.550781 -5.046875 3.765625 -4.53125 3.671875 -3.5 L 3.65625 -3.328125 C 3.65625 -2.960938 3.785156 -2.660156 4.046875 -2.421875 C 4.304688 -2.179688 4.660156 -2.0625 5.109375 -2.0625 Z M 5.109375 -2.0625 "/></g></g><g transform="translate(50.795375, 308.572148)"><g><path d="M 3.859375 -11.09375 L 3.953125 -9.8125 C 4.742188 -10.800781 5.804688 -11.296875 7.140625 -11.296875 C 8.316406 -11.296875 9.191406 -10.945312 9.765625 -10.25 C 10.335938 -9.5625 10.628906 -8.53125 10.640625 -7.15625 L 10.640625 0 L 7.6875 0 L 7.6875 -7.09375 C 7.6875 -7.71875 7.546875 -8.171875 7.265625 -8.453125 C 6.992188 -8.742188 6.539062 -8.890625 5.90625 -8.890625 C 5.070312 -8.890625 4.445312 -8.53125 4.03125 -7.8125 L 4.03125 0 L 1.078125 0 L 1.078125 -11.09375 Z M 3.859375 -11.09375 "/></g></g><g transform="translate(62.550331, 308.572148)"><g><path d="M 0.671875 -5.625 C 0.671875 -7.351562 1.054688 -8.726562 1.828125 -9.75 C 2.609375 -10.78125 3.671875 -11.296875 5.015625 -11.296875 C 6.097656 -11.296875 6.988281 -10.890625 7.6875 -10.078125 L 7.6875 -15.734375 L 10.671875 -15.734375 L 10.671875 0 L 7.984375 0 L 7.84375 -1.171875 C 7.101562 -0.253906 6.15625 0.203125 5 0.203125 C 3.695312 0.203125 2.648438 -0.304688 1.859375 -1.328125 C 1.066406 -2.359375 0.671875 -3.789062 0.671875 -5.625 Z M 3.640625 -5.40625 C 3.640625 -4.375 3.816406 -3.578125 4.171875 -3.015625 C 4.535156 -2.460938 5.066406 -2.1875 5.765625 -2.1875 C 6.671875 -2.1875 7.3125 -2.570312 7.6875 -3.34375 L 7.6875 -7.71875 C 7.320312 -8.5 6.6875 -8.890625 5.78125 -8.890625 C 4.351562 -8.890625 3.640625 -7.726562 3.640625 -5.40625 Z M 3.640625 -5.40625 "/></g></g><g transform="translate(74.377027, 308.572148)"><g/></g><g transform="translate(79.60373, 308.572148)"><g><path d="M 4.59375 0 L 1.53125 0 L 1.53125 -14.921875 L 4.59375 -14.921875 Z M 4.59375 0 "/></g></g><g transform="translate(85.722047, 308.572148)"><g><path d="M 3.859375 -11.09375 L 3.953125 -9.8125 C 4.742188 -10.800781 5.804688 -11.296875 7.140625 -11.296875 C 8.316406 -11.296875 9.191406 -10.945312 9.765625 -10.25 C 10.335938 -9.5625 10.628906 -8.53125 10.640625 -7.15625 L 10.640625 0 L 7.6875 0 L 7.6875 -7.09375 C 7.6875 -7.71875 7.546875 -8.171875 7.265625 -8.453125 C 6.992188 -8.742188 6.539062 -8.890625 5.90625 -8.890625 C 5.070312 -8.890625 4.445312 -8.53125 4.03125 -7.8125 L 4.03125 0 L 1.078125 0 L 1.078125 -11.09375 Z M 3.859375 -11.09375 "/></g></g><g transform="translate(97.477003, 308.572148)"><g><path d="M 4.6875 -13.8125 L 4.6875 -11.09375 L 6.578125 -11.09375 L 6.578125 -8.921875 L 4.6875 -8.921875 L 4.6875 -3.375 C 4.6875 -2.96875 4.765625 -2.675781 4.921875 -2.5 C 5.078125 -2.320312 5.375 -2.234375 5.8125 -2.234375 C 6.144531 -2.234375 6.4375 -2.257812 6.6875 -2.3125 L 6.6875 -0.0625 C 6.101562 0.113281 5.503906 0.203125 4.890625 0.203125 C 2.816406 0.203125 1.757812 -0.84375 1.71875 -2.9375 L 1.71875 -8.921875 L 0.109375 -8.921875 L 0.109375 -11.09375 L 1.71875 -11.09375 L 1.71875 -13.8125 Z M 4.6875 -13.8125 "/></g></g><g transform="translate(104.568922, 308.572148)"><g><path d="M 6.234375 0.203125 C 4.609375 0.203125 3.285156 -0.289062 2.265625 -1.28125 C 1.242188 -2.28125 0.734375 -3.613281 0.734375 -5.28125 L 0.734375 -5.5625 C 0.734375 -6.675781 0.945312 -7.671875 1.375 -8.546875 C 1.8125 -9.421875 2.421875 -10.097656 3.203125 -10.578125 C 3.992188 -11.054688 4.894531 -11.296875 5.90625 -11.296875 C 7.425781 -11.296875 8.617188 -10.816406 9.484375 -9.859375 C 10.359375 -8.898438 10.796875 -7.546875 10.796875 -5.796875 L 10.796875 -4.578125 L 3.734375 -4.578125 C 3.835938 -3.859375 4.128906 -3.28125 4.609375 -2.84375 C 5.085938 -2.40625 5.695312 -2.1875 6.4375 -2.1875 C 7.570312 -2.1875 8.460938 -2.597656 9.109375 -3.421875 L 10.5625 -1.796875 C 10.113281 -1.160156 9.507812 -0.664062 8.75 -0.3125 C 8 0.03125 7.160156 0.203125 6.234375 0.203125 Z M 5.90625 -8.890625 C 5.3125 -8.890625 4.832031 -8.691406 4.46875 -8.296875 C 4.101562 -7.898438 3.867188 -7.332031 3.765625 -6.59375 L 7.890625 -6.59375 L 7.890625 -6.828125 C 7.878906 -7.484375 7.703125 -7.988281 7.359375 -8.34375 C 7.015625 -8.707031 6.53125 -8.890625 5.90625 -8.890625 Z M 5.90625 -8.890625 "/></g></g><g transform="translate(115.913941, 308.572148)"><g><path d="M 7.359375 -8.3125 C 6.960938 -8.363281 6.609375 -8.390625 6.296875 -8.390625 C 5.179688 -8.390625 4.445312 -8.007812 4.09375 -7.25 L 4.09375 0 L 1.140625 0 L 1.140625 -11.09375 L 3.9375 -11.09375 L 4.015625 -9.765625 C 4.609375 -10.785156 5.429688 -11.296875 6.484375 -11.296875 C 6.816406 -11.296875 7.125 -11.25 7.40625 -11.15625 Z M 7.359375 -8.3125 "/></g></g><g transform="translate(123.569523, 308.572148)"><g><path d="M 7.5625 0 C 7.425781 -0.269531 7.328125 -0.601562 7.265625 -1 C 6.546875 -0.195312 5.613281 0.203125 4.46875 0.203125 C 3.382812 0.203125 2.484375 -0.109375 1.765625 -0.734375 C 1.054688 -1.367188 0.703125 -2.160156 0.703125 -3.109375 C 0.703125 -4.285156 1.132812 -5.1875 2 -5.8125 C 2.875 -6.445312 4.132812 -6.765625 5.78125 -6.765625 L 7.140625 -6.765625 L 7.140625 -7.40625 C 7.140625 -7.914062 7.007812 -8.320312 6.75 -8.625 C 6.488281 -8.9375 6.070312 -9.09375 5.5 -9.09375 C 5 -9.09375 4.609375 -8.972656 4.328125 -8.734375 C 4.046875 -8.492188 3.90625 -8.164062 3.90625 -7.75 L 0.9375 -7.75 C 0.9375 -8.394531 1.132812 -8.988281 1.53125 -9.53125 C 1.925781 -10.082031 2.484375 -10.515625 3.203125 -10.828125 C 3.929688 -11.140625 4.75 -11.296875 5.65625 -11.296875 C 7.019531 -11.296875 8.101562 -10.953125 8.90625 -10.265625 C 9.707031 -9.578125 10.109375 -8.609375 10.109375 -7.359375 L 10.109375 -2.5625 C 10.117188 -1.507812 10.265625 -0.710938 10.546875 -0.171875 L 10.546875 0 Z M 5.109375 -2.0625 C 5.546875 -2.0625 5.945312 -2.15625 6.3125 -2.34375 C 6.6875 -2.539062 6.960938 -2.804688 7.140625 -3.140625 L 7.140625 -5.046875 L 6.03125 -5.046875 C 4.550781 -5.046875 3.765625 -4.53125 3.671875 -3.5 L 3.65625 -3.328125 C 3.65625 -2.960938 3.785156 -2.660156 4.046875 -2.421875 C 4.304688 -2.179688 4.660156 -2.0625 5.109375 -2.0625 Z M 5.109375 -2.0625 "/></g></g><g transform="translate(134.822306, 308.572148)"><g><path d="M 5.75 -2.1875 C 6.289062 -2.1875 6.734375 -2.332031 7.078125 -2.625 C 7.421875 -2.925781 7.597656 -3.328125 7.609375 -3.828125 L 10.390625 -3.828125 C 10.378906 -3.078125 10.171875 -2.390625 9.765625 -1.765625 C 9.367188 -1.140625 8.816406 -0.65625 8.109375 -0.3125 C 7.410156 0.03125 6.640625 0.203125 5.796875 0.203125 C 4.210938 0.203125 2.960938 -0.296875 2.046875 -1.296875 C 1.128906 -2.304688 0.671875 -3.703125 0.671875 -5.484375 L 0.671875 -5.671875 C 0.671875 -7.378906 1.125 -8.742188 2.03125 -9.765625 C 2.945312 -10.785156 4.195312 -11.296875 5.78125 -11.296875 C 7.164062 -11.296875 8.273438 -10.898438 9.109375 -10.109375 C 9.953125 -9.316406 10.378906 -8.265625 10.390625 -6.953125 L 7.609375 -6.953125 C 7.597656 -7.523438 7.421875 -7.988281 7.078125 -8.34375 C 6.734375 -8.707031 6.285156 -8.890625 5.734375 -8.890625 C 5.035156 -8.890625 4.507812 -8.640625 4.15625 -8.140625 C 3.8125 -7.640625 3.640625 -6.828125 3.640625 -5.703125 L 3.640625 -5.390625 C 3.640625 -4.242188 3.8125 -3.421875 4.15625 -2.921875 C 4.507812 -2.429688 5.039062 -2.1875 5.75 -2.1875 Z M 5.75 -2.1875 "/></g></g><g transform="translate(145.767637, 308.572148)"><g><path d="M 4.6875 -13.8125 L 4.6875 -11.09375 L 6.578125 -11.09375 L 6.578125 -8.921875 L 4.6875 -8.921875 L 4.6875 -3.375 C 4.6875 -2.96875 4.765625 -2.675781 4.921875 -2.5 C 5.078125 -2.320312 5.375 -2.234375 5.8125 -2.234375 C 6.144531 -2.234375 6.4375 -2.257812 6.6875 -2.3125 L 6.6875 -0.0625 C 6.101562 0.113281 5.503906 0.203125 4.890625 0.203125 C 2.816406 0.203125 1.757812 -0.84375 1.71875 -2.9375 L 1.71875 -8.921875 L 0.109375 -8.921875 L 0.109375 -11.09375 L 1.71875 -11.09375 L 1.71875 -13.8125 Z M 4.6875 -13.8125 "/></g></g><g transform="translate(152.859555, 308.572148)"><g><path d="M 4.265625 0 L 1.296875 0 L 1.296875 -11.09375 L 4.265625 -11.09375 Z M 1.109375 -13.953125 C 1.109375 -14.398438 1.257812 -14.765625 1.5625 -15.046875 C 1.863281 -15.335938 2.269531 -15.484375 2.78125 -15.484375 C 3.28125 -15.484375 3.679688 -15.335938 3.984375 -15.046875 C 4.285156 -14.765625 4.4375 -14.398438 4.4375 -13.953125 C 4.4375 -13.503906 4.285156 -13.132812 3.984375 -12.84375 C 3.679688 -12.5625 3.28125 -12.421875 2.78125 -12.421875 C 2.28125 -12.421875 1.875 -12.5625 1.5625 -12.84375 C 1.257812 -13.132812 1.109375 -13.503906 1.109375 -13.953125 Z M 1.109375 -13.953125 "/></g></g><g transform="translate(158.424456, 308.572148)"><g><path d="M 5.28125 -3.609375 L 7.34375 -11.09375 L 10.4375 -11.09375 L 6.703125 0 L 3.875 0 L 0.140625 -11.09375 L 3.234375 -11.09375 Z M 5.28125 -3.609375 "/></g></g><g transform="translate(169.031588, 308.572148)"><g><path d="M 6.234375 0.203125 C 4.609375 0.203125 3.285156 -0.289062 2.265625 -1.28125 C 1.242188 -2.28125 0.734375 -3.613281 0.734375 -5.28125 L 0.734375 -5.5625 C 0.734375 -6.675781 0.945312 -7.671875 1.375 -8.546875 C 1.8125 -9.421875 2.421875 -10.097656 3.203125 -10.578125 C 3.992188 -11.054688 4.894531 -11.296875 5.90625 -11.296875 C 7.425781 -11.296875 8.617188 -10.816406 9.484375 -9.859375 C 10.359375 -8.898438 10.796875 -7.546875 10.796875 -5.796875 L 10.796875 -4.578125 L 3.734375 -4.578125 C 3.835938 -3.859375 4.128906 -3.28125 4.609375 -2.84375 C 5.085938 -2.40625 5.695312 -2.1875 6.4375 -2.1875 C 7.570312 -2.1875 8.460938 -2.597656 9.109375 -3.421875 L 10.5625 -1.796875 C 10.113281 -1.160156 9.507812 -0.664062 8.75 -0.3125 C 8 0.03125 7.160156 0.203125 6.234375 0.203125 Z M 5.90625 -8.890625 C 5.3125 -8.890625 4.832031 -8.691406 4.46875 -8.296875 C 4.101562 -7.898438 3.867188 -7.332031 3.765625 -6.59375 L 7.890625 -6.59375 L 7.890625 -6.828125 C 7.878906 -7.484375 7.703125 -7.988281 7.359375 -8.34375 C 7.015625 -8.707031 6.53125 -8.890625 5.90625 -8.890625 Z M 5.90625 -8.890625 "/></g></g></g><g fill="#5170ff" fill-opacity="1"><g transform="translate(64.501927, 337.806545)"><g><path d="M 10.3125 -6.46875 L 4.40625 -6.46875 L 4.40625 -2.46875 L 11.328125 -2.46875 L 11.328125 0 L 1.328125 0 L 1.328125 -14.921875 L 11.3125 -14.921875 L 11.3125 -12.421875 L 4.40625 -12.421875 L 4.40625 -8.875 L 10.3125 -8.875 Z M 10.3125 -6.46875 "/></g></g><g transform="translate(76.308126, 337.806545)"><g><path d="M 5.359375 -7.78125 L 7.21875 -11.09375 L 10.390625 -11.09375 L 7.234375 -5.65625 L 10.515625 0 L 7.34375 0 L 5.375 -3.484375 L 3.40625 0 L 0.21875 0 L 3.5 -5.65625 L 0.359375 -11.09375 L 3.53125 -11.09375 Z M 5.359375 -7.78125 "/></g></g><g transform="translate(86.986996, 337.806545)"><g><path d="M 6.234375 0.203125 C 4.609375 0.203125 3.285156 -0.289062 2.265625 -1.28125 C 1.242188 -2.28125 0.734375 -3.613281 0.734375 -5.28125 L 0.734375 -5.5625 C 0.734375 -6.675781 0.945312 -7.671875 1.375 -8.546875 C 1.8125 -9.421875 2.421875 -10.097656 3.203125 -10.578125 C 3.992188 -11.054688 4.894531 -11.296875 5.90625 -11.296875 C 7.425781 -11.296875 8.617188 -10.816406 9.484375 -9.859375 C 10.359375 -8.898438 10.796875 -7.546875 10.796875 -5.796875 L 10.796875 -4.578125 L 3.734375 -4.578125 C 3.835938 -3.859375 4.128906 -3.28125 4.609375 -2.84375 C 5.085938 -2.40625 5.695312 -2.1875 6.4375 -2.1875 C 7.570312 -2.1875 8.460938 -2.597656 9.109375 -3.421875 L 10.5625 -1.796875 C 10.113281 -1.160156 9.507812 -0.664062 8.75 -0.3125 C 8 0.03125 7.160156 0.203125 6.234375 0.203125 Z M 5.90625 -8.890625 C 5.3125 -8.890625 4.832031 -8.691406 4.46875 -8.296875 C 4.101562 -7.898438 3.867188 -7.332031 3.765625 -6.59375 L 7.890625 -6.59375 L 7.890625 -6.828125 C 7.878906 -7.484375 7.703125 -7.988281 7.359375 -8.34375 C 7.015625 -8.707031 6.53125 -8.890625 5.90625 -8.890625 Z M 5.90625 -8.890625 "/></g></g><g transform="translate(98.332016, 337.806545)"><g><path d="M 7.359375 -8.3125 C 6.960938 -8.363281 6.609375 -8.390625 6.296875 -8.390625 C 5.179688 -8.390625 4.445312 -8.007812 4.09375 -7.25 L 4.09375 0 L 1.140625 0 L 1.140625 -11.09375 L 3.9375 -11.09375 L 4.015625 -9.765625 C 4.609375 -10.785156 5.429688 -11.296875 6.484375 -11.296875 C 6.816406 -11.296875 7.125 -11.25 7.40625 -11.15625 Z M 7.359375 -8.3125 "/></g></g><g transform="translate(105.987598, 337.806545)"><g><path d="M 5.75 -2.1875 C 6.289062 -2.1875 6.734375 -2.332031 7.078125 -2.625 C 7.421875 -2.925781 7.597656 -3.328125 7.609375 -3.828125 L 10.390625 -3.828125 C 10.378906 -3.078125 10.171875 -2.390625 9.765625 -1.765625 C 9.367188 -1.140625 8.816406 -0.65625 8.109375 -0.3125 C 7.410156 0.03125 6.640625 0.203125 5.796875 0.203125 C 4.210938 0.203125 2.960938 -0.296875 2.046875 -1.296875 C 1.128906 -2.304688 0.671875 -3.703125 0.671875 -5.484375 L 0.671875 -5.671875 C 0.671875 -7.378906 1.125 -8.742188 2.03125 -9.765625 C 2.945312 -10.785156 4.195312 -11.296875 5.78125 -11.296875 C 7.164062 -11.296875 8.273438 -10.898438 9.109375 -10.109375 C 9.953125 -9.316406 10.378906 -8.265625 10.390625 -6.953125 L 7.609375 -6.953125 C 7.597656 -7.523438 7.421875 -7.988281 7.078125 -8.34375 C 6.734375 -8.707031 6.285156 -8.890625 5.734375 -8.890625 C 5.035156 -8.890625 4.507812 -8.640625 4.15625 -8.140625 C 3.8125 -7.640625 3.640625 -6.828125 3.640625 -5.703125 L 3.640625 -5.390625 C 3.640625 -4.242188 3.8125 -3.421875 4.15625 -2.921875 C 4.507812 -2.429688 5.039062 -2.1875 5.75 -2.1875 Z M 5.75 -2.1875 "/></g></g><g transform="translate(116.932928, 337.806545)"><g><path d="M 4.265625 0 L 1.296875 0 L 1.296875 -11.09375 L 4.265625 -11.09375 Z M 1.109375 -13.953125 C 1.109375 -14.398438 1.257812 -14.765625 1.5625 -15.046875 C 1.863281 -15.335938 2.269531 -15.484375 2.78125 -15.484375 C 3.28125 -15.484375 3.679688 -15.335938 3.984375 -15.046875 C 4.285156 -14.765625 4.4375 -14.398438 4.4375 -13.953125 C 4.4375 -13.503906 4.285156 -13.132812 3.984375 -12.84375 C 3.679688 -12.5625 3.28125 -12.421875 2.78125 -12.421875 C 2.28125 -12.421875 1.875 -12.5625 1.5625 -12.84375 C 1.257812 -13.132812 1.109375 -13.503906 1.109375 -13.953125 Z M 1.109375 -13.953125 "/></g></g><g transform="translate(122.497829, 337.806545)"><g><path d="M 7.140625 -3.0625 C 7.140625 -3.425781 6.957031 -3.710938 6.59375 -3.921875 C 6.238281 -4.128906 5.664062 -4.316406 4.875 -4.484375 C 2.238281 -5.035156 0.921875 -6.15625 0.921875 -7.84375 C 0.921875 -8.820312 1.328125 -9.640625 2.140625 -10.296875 C 2.960938 -10.960938 4.03125 -11.296875 5.34375 -11.296875 C 6.75 -11.296875 7.875 -10.960938 8.71875 -10.296875 C 9.5625 -9.628906 9.984375 -8.769531 9.984375 -7.71875 L 7.03125 -7.71875 C 7.03125 -8.132812 6.890625 -8.484375 6.609375 -8.765625 C 6.335938 -9.046875 5.914062 -9.1875 5.34375 -9.1875 C 4.84375 -9.1875 4.453125 -9.070312 4.171875 -8.84375 C 3.898438 -8.613281 3.765625 -8.328125 3.765625 -7.984375 C 3.765625 -7.648438 3.921875 -7.382812 4.234375 -7.1875 C 4.546875 -6.988281 5.070312 -6.8125 5.8125 -6.65625 C 6.550781 -6.507812 7.171875 -6.347656 7.671875 -6.171875 C 9.234375 -5.597656 10.015625 -4.601562 10.015625 -3.1875 C 10.015625 -2.175781 9.582031 -1.359375 8.71875 -0.734375 C 7.851562 -0.109375 6.734375 0.203125 5.359375 0.203125 C 4.429688 0.203125 3.601562 0.0390625 2.875 -0.28125 C 2.15625 -0.613281 1.59375 -1.066406 1.1875 -1.640625 C 0.78125 -2.222656 0.578125 -2.851562 0.578125 -3.53125 L 3.375 -3.53125 C 3.40625 -3 3.601562 -2.59375 3.96875 -2.3125 C 4.332031 -2.03125 4.816406 -1.890625 5.421875 -1.890625 C 5.984375 -1.890625 6.410156 -2 6.703125 -2.21875 C 6.992188 -2.4375 7.140625 -2.71875 7.140625 -3.0625 Z M 7.140625 -3.0625 "/></g></g><g transform="translate(133.289433, 337.806545)"><g><path d="M 6.234375 0.203125 C 4.609375 0.203125 3.285156 -0.289062 2.265625 -1.28125 C 1.242188 -2.28125 0.734375 -3.613281 0.734375 -5.28125 L 0.734375 -5.5625 C 0.734375 -6.675781 0.945312 -7.671875 1.375 -8.546875 C 1.8125 -9.421875 2.421875 -10.097656 3.203125 -10.578125 C 3.992188 -11.054688 4.894531 -11.296875 5.90625 -11.296875 C 7.425781 -11.296875 8.617188 -10.816406 9.484375 -9.859375 C 10.359375 -8.898438 10.796875 -7.546875 10.796875 -5.796875 L 10.796875 -4.578125 L 3.734375 -4.578125 C 3.835938 -3.859375 4.128906 -3.28125 4.609375 -2.84375 C 5.085938 -2.40625 5.695312 -2.1875 6.4375 -2.1875 C 7.570312 -2.1875 8.460938 -2.597656 9.109375 -3.421875 L 10.5625 -1.796875 C 10.113281 -1.160156 9.507812 -0.664062 8.75 -0.3125 C 8 0.03125 7.160156 0.203125 6.234375 0.203125 Z M 5.90625 -8.890625 C 5.3125 -8.890625 4.832031 -8.691406 4.46875 -8.296875 C 4.101562 -7.898438 3.867188 -7.332031 3.765625 -6.59375 L 7.890625 -6.59375 L 7.890625 -6.828125 C 7.878906 -7.484375 7.703125 -7.988281 7.359375 -8.34375 C 7.015625 -8.707031 6.53125 -8.890625 5.90625 -8.890625 Z M 5.90625 -8.890625 "/></g></g><g transform="translate(144.634452, 337.806545)"><g><path d="M 7.140625 -3.0625 C 7.140625 -3.425781 6.957031 -3.710938 6.59375 -3.921875 C 6.238281 -4.128906 5.664062 -4.316406 4.875 -4.484375 C 2.238281 -5.035156 0.921875 -6.15625 0.921875 -7.84375 C 0.921875 -8.820312 1.328125 -9.640625 2.140625 -10.296875 C 2.960938 -10.960938 4.03125 -11.296875 5.34375 -11.296875 C 6.75 -11.296875 7.875 -10.960938 8.71875 -10.296875 C 9.5625 -9.628906 9.984375 -8.769531 9.984375 -7.71875 L 7.03125 -7.71875 C 7.03125 -8.132812 6.890625 -8.484375 6.609375 -8.765625 C 6.335938 -9.046875 5.914062 -9.1875 5.34375 -9.1875 C 4.84375 -9.1875 4.453125 -9.070312 4.171875 -8.84375 C 3.898438 -8.613281 3.765625 -8.328125 3.765625 -7.984375 C 3.765625 -7.648438 3.921875 -7.382812 4.234375 -7.1875 C 4.546875 -6.988281 5.070312 -6.8125 5.8125 -6.65625 C 6.550781 -6.507812 7.171875 -6.347656 7.671875 -6.171875 C 9.234375 -5.597656 10.015625 -4.601562 10.015625 -3.1875 C 10.015625 -2.175781 9.582031 -1.359375 8.71875 -0.734375 C 7.851562 -0.109375 6.734375 0.203125 5.359375 0.203125 C 4.429688 0.203125 3.601562 0.0390625 2.875 -0.28125 C 2.15625 -0.613281 1.59375 -1.066406 1.1875 -1.640625 C 0.78125 -2.222656 0.578125 -2.851562 0.578125 -3.53125 L 3.375 -3.53125 C 3.40625 -3 3.601562 -2.59375 3.96875 -2.3125 C 4.332031 -2.03125 4.816406 -1.890625 5.421875 -1.890625 C 5.984375 -1.890625 6.410156 -2 6.703125 -2.21875 C 6.992188 -2.4375 7.140625 -2.71875 7.140625 -3.0625 Z M 7.140625 -3.0625 "/></g></g></g><g fill="#ffffff" fill-opacity="0.4"><g transform="translate(67.666691, 88.475649)"><g><path d="M 1.359375 -4.859375 L 5.984375 -9.484375 L 7.734375 -7.734375 L 0.9375 -0.9375 L -9.609375 -11.484375 L -7.4375 -13.65625 Z M 1.359375 -4.859375 "/></g></g><g transform="translate(75.703325, 80.439015)"><g><path d="M 2.71875 -11.875 L -1.46875 -7.6875 L 1.359375 -4.859375 L 6.265625 -9.765625 L 8.015625 -8.015625 L 0.9375 -0.9375 L -9.609375 -11.484375 L -2.546875 -18.546875 L -0.78125 -16.78125 L -5.671875 -11.890625 L -3.171875 -9.390625 L 1.015625 -13.578125 Z M 2.71875 -11.875 "/></g></g><g transform="translate(84.051568, 72.090772)"><g><path d="M 4.71875 -9.0625 L 0.90625 -5.25 L 2.359375 -2.359375 L 0.0625 -0.0625 L -6.5625 -14.53125 L -4.5625 -16.53125 L 9.9375 -9.9375 L 7.640625 -7.640625 Z M -0.265625 -7.609375 L 2.375 -10.25 L -2.890625 -12.859375 Z M -0.265625 -7.609375 "/></g></g><g transform="translate(94.037575, 62.104766)"><g><path d="M 0.984375 -8.703125 L -0.75 -6.96875 L 3.109375 -3.109375 L 0.9375 -0.9375 L -9.609375 -11.484375 L -5.6875 -15.40625 C -4.4375 -16.65625 -3.195312 -17.34375 -1.96875 -17.46875 C -0.738281 -17.59375 0.382812 -17.144531 1.40625 -16.125 C 2.125 -15.40625 2.566406 -14.648438 2.734375 -13.859375 C 2.898438 -13.066406 2.8125 -12.207031 2.46875 -11.28125 L 9.0625 -9.25 L 9.15625 -9.15625 L 6.828125 -6.828125 Z M -2.515625 -8.734375 L -0.75 -10.5 C -0.207031 -11.039062 0.0703125 -11.597656 0.09375 -12.171875 C 0.113281 -12.742188 -0.117188 -13.273438 -0.609375 -13.765625 C -1.109375 -14.265625 -1.640625 -14.515625 -2.203125 -14.515625 C -2.765625 -14.515625 -3.335938 -14.222656 -3.921875 -13.640625 L -5.671875 -11.890625 Z M -2.515625 -8.734375 "/></g></g><g transform="translate(103.509063, 52.633278)"><g><path d="M 9.53125 -9.53125 L 7.34375 -7.34375 L -3.828125 -10.046875 L 3.109375 -3.109375 L 0.9375 -0.9375 L -9.609375 -11.484375 L -7.4375 -13.65625 L 3.765625 -10.953125 L -3.1875 -17.90625 L -1.015625 -20.078125 Z M 9.53125 -9.53125 "/></g></g></g><g fill="#5170ff" fill-opacity="1"><g transform="translate(66.354891, 88.475649)"><g><path d="M 1.359375 -4.859375 L 5.984375 -9.484375 L 7.734375 -7.734375 L 0.9375 -0.9375 L -9.609375 -11.484375 L -7.4375 -13.65625 Z M 1.359375 -4.859375 "/></g></g><g transform="translate(74.391525, 80.439015)"><g><path d="M 2.71875 -11.875 L -1.46875 -7.6875 L 1.359375 -4.859375 L 6.265625 -9.765625 L 8.015625 -8.015625 L 0.9375 -0.9375 L -9.609375 -11.484375 L -2.546875 -18.546875 L -0.78125 -16.78125 L -5.671875 -11.890625 L -3.171875 -9.390625 L 1.015625 -13.578125 Z M 2.71875 -11.875 "/></g></g><g transform="translate(82.739769, 72.090772)"><g><path d="M 4.71875 -9.0625 L 0.90625 -5.25 L 2.359375 -2.359375 L 0.0625 -0.0625 L -6.5625 -14.53125 L -4.5625 -16.53125 L 9.9375 -9.9375 L 7.640625 -7.640625 Z M -0.265625 -7.609375 L 2.375 -10.25 L -2.890625 -12.859375 Z M -0.265625 -7.609375 "/></g></g><g transform="translate(92.725775, 62.104766)"><g><path d="M 0.984375 -8.703125 L -0.75 -6.96875 L 3.109375 -3.109375 L 0.9375 -0.9375 L -9.609375 -11.484375 L -5.6875 -15.40625 C -4.4375 -16.65625 -3.195312 -17.34375 -1.96875 -17.46875 C -0.738281 -17.59375 0.382812 -17.144531 1.40625 -16.125 C 2.125 -15.40625 2.566406 -14.648438 2.734375 -13.859375 C 2.898438 -13.066406 2.8125 -12.207031 2.46875 -11.28125 L 9.0625 -9.25 L 9.15625 -9.15625 L 6.828125 -6.828125 Z M -2.515625 -8.734375 L -0.75 -10.5 C -0.207031 -11.039062 0.0703125 -11.597656 0.09375 -12.171875 C 0.113281 -12.742188 -0.117188 -13.273438 -0.609375 -13.765625 C -1.109375 -14.265625 -1.640625 -14.515625 -2.203125 -14.515625 C -2.765625 -14.515625 -3.335938 -14.222656 -3.921875 -13.640625 L -5.671875 -11.890625 Z M -2.515625 -8.734375 "/></g></g><g transform="translate(102.197263, 52.633278)"><g><path d="M 9.53125 -9.53125 L 7.34375 -7.34375 L -3.828125 -10.046875 L 3.109375 -3.109375 L 0.9375 -0.9375 L -9.609375 -11.484375 L -7.4375 -13.65625 L 3.765625 -10.953125 L -3.1875 -17.90625 L -1.015625 -20.078125 Z M 9.53125 -9.53125 "/></g></g></g><g fill="#1c4790" fill-opacity="1"><g transform="translate(14.710339, 240.489281)"><g><path d="M 8.546875 -3.34375 L 3.1875 -3.34375 L 1.984375 0 L 0.25 0 L 5.125 -12.78125 L 6.609375 -12.78125 L 11.5 0 L 9.765625 0 Z M 3.703125 -4.71875 L 8.046875 -4.71875 L 5.859375 -10.703125 Z M 3.703125 -4.71875 "/></g></g><g transform="translate(26.446263, 240.489281)"><g><path d="M 9.25 -4.640625 C 9.25 -3.191406 8.914062 -2.023438 8.25 -1.140625 C 7.59375 -0.265625 6.703125 0.171875 5.578125 0.171875 C 4.421875 0.171875 3.515625 -0.191406 2.859375 -0.921875 L 2.859375 3.65625 L 1.234375 3.65625 L 1.234375 -9.5 L 2.71875 -9.5 L 2.796875 -8.453125 C 3.453125 -9.265625 4.367188 -9.671875 5.546875 -9.671875 C 6.691406 -9.671875 7.59375 -9.238281 8.25 -8.375 C 8.914062 -7.519531 9.25 -6.328125 9.25 -4.796875 Z M 7.625 -4.828125 C 7.625 -5.898438 7.394531 -6.742188 6.9375 -7.359375 C 6.488281 -7.984375 5.863281 -8.296875 5.0625 -8.296875 C 4.082031 -8.296875 3.347656 -7.859375 2.859375 -6.984375 L 2.859375 -2.453125 C 3.335938 -1.585938 4.078125 -1.15625 5.078125 -1.15625 C 5.859375 -1.15625 6.476562 -1.460938 6.9375 -2.078125 C 7.394531 -2.691406 7.625 -3.609375 7.625 -4.828125 Z M 7.625 -4.828125 "/></g></g><g transform="translate(36.539509, 240.489281)"><g><path d="M 9.25 -4.640625 C 9.25 -3.191406 8.914062 -2.023438 8.25 -1.140625 C 7.59375 -0.265625 6.703125 0.171875 5.578125 0.171875 C 4.421875 0.171875 3.515625 -0.191406 2.859375 -0.921875 L 2.859375 3.65625 L 1.234375 3.65625 L 1.234375 -9.5 L 2.71875 -9.5 L 2.796875 -8.453125 C 3.453125 -9.265625 4.367188 -9.671875 5.546875 -9.671875 C 6.691406 -9.671875 7.59375 -9.238281 8.25 -8.375 C 8.914062 -7.519531 9.25 -6.328125 9.25 -4.796875 Z M 7.625 -4.828125 C 7.625 -5.898438 7.394531 -6.742188 6.9375 -7.359375 C 6.488281 -7.984375 5.863281 -8.296875 5.0625 -8.296875 C 4.082031 -8.296875 3.347656 -7.859375 2.859375 -6.984375 L 2.859375 -2.453125 C 3.335938 -1.585938 4.078125 -1.15625 5.078125 -1.15625 C 5.859375 -1.15625 6.476562 -1.460938 6.9375 -2.078125 C 7.394531 -2.691406 7.625 -3.609375 7.625 -4.828125 Z M 7.625 -4.828125 "/></g></g><g transform="translate(46.632755, 240.489281)"><g><path d="M 3 0 L 1.375 0 L 1.375 -13.484375 L 3 -13.484375 Z M 3 0 "/></g></g><g transform="translate(50.998589, 240.489281)"><g><path d="M 4.34375 -2.375 L 6.546875 -9.5 L 8.296875 -9.5 L 4.46875 1.46875 C 3.875 3.050781 2.9375 3.84375 1.65625 3.84375 L 1.34375 3.8125 L 0.734375 3.703125 L 0.734375 2.375 L 1.171875 2.421875 C 1.722656 2.421875 2.148438 2.304688 2.453125 2.078125 C 2.765625 1.859375 3.019531 1.453125 3.21875 0.859375 L 3.578125 -0.109375 L 0.1875 -9.5 L 1.96875 -9.5 Z M 4.34375 -2.375 "/></g></g><g transform="translate(59.510647, 240.489281)"><g/></g><g transform="translate(63.964325, 240.489281)"><g><path d="M 4.34375 -2.375 L 6.546875 -9.5 L 8.296875 -9.5 L 4.46875 1.46875 C 3.875 3.050781 2.9375 3.84375 1.65625 3.84375 L 1.34375 3.8125 L 0.734375 3.703125 L 0.734375 2.375 L 1.171875 2.421875 C 1.722656 2.421875 2.148438 2.304688 2.453125 2.078125 C 2.765625 1.859375 3.019531 1.453125 3.21875 0.859375 L 3.578125 -0.109375 L 0.1875 -9.5 L 1.96875 -9.5 Z M 4.34375 -2.375 "/></g></g></g><g fill="#1c4790" fill-opacity="1"><g transform="translate(72.344618, 240.489281)"><g><path d="M 0.796875 -4.84375 C 0.796875 -5.769531 0.976562 -6.601562 1.34375 -7.34375 C 1.707031 -8.09375 2.21875 -8.664062 2.875 -9.0625 C 3.53125 -9.46875 4.273438 -9.671875 5.109375 -9.671875 C 6.398438 -9.671875 7.445312 -9.222656 8.25 -8.328125 C 9.050781 -7.429688 9.453125 -6.242188 9.453125 -4.765625 L 9.453125 -4.640625 C 9.453125 -3.722656 9.273438 -2.894531 8.921875 -2.15625 C 8.566406 -1.414062 8.054688 -0.84375 7.390625 -0.4375 C 6.734375 -0.03125 5.976562 0.171875 5.125 0.171875 C 3.84375 0.171875 2.800781 -0.273438 2 -1.171875 C 1.195312 -2.066406 0.796875 -3.25 0.796875 -4.71875 Z M 2.4375 -4.640625 C 2.4375 -3.585938 2.679688 -2.742188 3.171875 -2.109375 C 3.660156 -1.472656 4.3125 -1.15625 5.125 -1.15625 C 5.945312 -1.15625 6.601562 -1.476562 7.09375 -2.125 C 7.582031 -2.769531 7.828125 -3.675781 7.828125 -4.84375 C 7.828125 -5.882812 7.578125 -6.726562 7.078125 -7.375 C 6.585938 -8.019531 5.929688 -8.34375 5.109375 -8.34375 C 4.304688 -8.34375 3.660156 -8.019531 3.171875 -7.375 C 2.679688 -6.738281 2.4375 -5.828125 2.4375 -4.640625 Z M 2.4375 -4.640625 "/></g></g><g transform="translate(82.604767, 240.489281)"><g><path d="M 7.09375 -0.9375 C 6.457031 -0.195312 5.53125 0.171875 4.3125 0.171875 C 3.300781 0.171875 2.53125 -0.117188 2 -0.703125 C 1.46875 -1.296875 1.195312 -2.164062 1.1875 -3.3125 L 1.1875 -9.5 L 2.8125 -9.5 L 2.8125 -3.359375 C 2.8125 -1.921875 3.398438 -1.203125 4.578125 -1.203125 C 5.816406 -1.203125 6.640625 -1.664062 7.046875 -2.59375 L 7.046875 -9.5 L 8.671875 -9.5 L 8.671875 0 L 7.125 0 Z M 7.09375 -0.9375 "/></g></g><g transform="translate(92.522326, 240.489281)"><g><path d="M 5.828125 -8.046875 C 5.578125 -8.085938 5.304688 -8.109375 5.015625 -8.109375 C 3.953125 -8.109375 3.234375 -7.65625 2.859375 -6.75 L 2.859375 0 L 1.234375 0 L 1.234375 -9.5 L 2.8125 -9.5 L 2.84375 -8.40625 C 3.375 -9.25 4.128906 -9.671875 5.109375 -9.671875 C 5.421875 -9.671875 5.660156 -9.628906 5.828125 -9.546875 Z M 5.828125 -8.046875 "/></g></g><g transform="translate(98.609897, 240.489281)"><g/></g><g transform="translate(103.063575, 240.489281)"><g><path d="M 6.765625 -2.515625 C 6.765625 -2.953125 6.597656 -3.289062 6.265625 -3.53125 C 5.929688 -3.78125 5.351562 -3.992188 4.53125 -4.171875 C 3.707031 -4.347656 3.054688 -4.554688 2.578125 -4.796875 C 2.097656 -5.046875 1.738281 -5.335938 1.5 -5.671875 C 1.269531 -6.015625 1.15625 -6.421875 1.15625 -6.890625 C 1.15625 -7.671875 1.484375 -8.328125 2.140625 -8.859375 C 2.804688 -9.398438 3.648438 -9.671875 4.671875 -9.671875 C 5.742188 -9.671875 6.613281 -9.394531 7.28125 -8.84375 C 7.957031 -8.289062 8.296875 -7.578125 8.296875 -6.703125 L 6.671875 -6.703125 C 6.671875 -7.148438 6.476562 -7.535156 6.09375 -7.859375 C 5.71875 -8.179688 5.242188 -8.34375 4.671875 -8.34375 C 4.078125 -8.34375 3.613281 -8.210938 3.28125 -7.953125 C 2.945312 -7.691406 2.78125 -7.359375 2.78125 -6.953125 C 2.78125 -6.554688 2.9375 -6.257812 3.25 -6.0625 C 3.5625 -5.863281 4.117188 -5.671875 4.921875 -5.484375 C 5.734375 -5.304688 6.390625 -5.09375 6.890625 -4.84375 C 7.398438 -4.59375 7.773438 -4.285156 8.015625 -3.921875 C 8.265625 -3.566406 8.390625 -3.140625 8.390625 -2.640625 C 8.390625 -1.785156 8.046875 -1.101562 7.359375 -0.59375 C 6.679688 -0.0820312 5.800781 0.171875 4.71875 0.171875 C 3.957031 0.171875 3.285156 0.0390625 2.703125 -0.21875 C 2.117188 -0.488281 1.660156 -0.863281 1.328125 -1.34375 C 0.992188 -1.832031 0.828125 -2.359375 0.828125 -2.921875 L 2.453125 -2.921875 C 2.484375 -2.378906 2.703125 -1.945312 3.109375 -1.625 C 3.515625 -1.3125 4.050781 -1.15625 4.71875 -1.15625 C 5.332031 -1.15625 5.828125 -1.273438 6.203125 -1.515625 C 6.578125 -1.765625 6.765625 -2.097656 6.765625 -2.515625 Z M 6.765625 -2.515625 "/></g></g><g transform="translate(112.339874, 240.489281)"><g><path d="M 3.875 -4.40625 L 2.859375 -3.34375 L 2.859375 0 L 1.234375 0 L 1.234375 -13.484375 L 2.859375 -13.484375 L 2.859375 -5.328125 L 3.734375 -6.375 L 6.6875 -9.5 L 8.671875 -9.5 L 4.96875 -5.53125 L 9.09375 0 L 7.1875 0 Z M 3.875 -4.40625 "/></g></g><g transform="translate(121.458055, 240.489281)"><g><path d="M 3 0 L 1.375 0 L 1.375 -9.5 L 3 -9.5 Z M 1.234375 -12.015625 C 1.234375 -12.285156 1.3125 -12.507812 1.46875 -12.6875 C 1.632812 -12.875 1.875 -12.96875 2.1875 -12.96875 C 2.507812 -12.96875 2.75 -12.875 2.90625 -12.6875 C 3.070312 -12.507812 3.15625 -12.285156 3.15625 -12.015625 C 3.15625 -11.753906 3.070312 -11.535156 2.90625 -11.359375 C 2.75 -11.179688 2.507812 -11.09375 2.1875 -11.09375 C 1.875 -11.09375 1.632812 -11.179688 1.46875 -11.359375 C 1.3125 -11.535156 1.234375 -11.753906 1.234375 -12.015625 Z M 1.234375 -12.015625 "/></g></g><g transform="translate(125.823889, 240.489281)"><g><path d="M 3 0 L 1.375 0 L 1.375 -13.484375 L 3 -13.484375 Z M 3 0 "/></g></g><g transform="translate(130.189723, 240.489281)"><g><path d="M 3 0 L 1.375 0 L 1.375 -13.484375 L 3 -13.484375 Z M 3 0 "/></g></g><g transform="translate(134.555557, 240.489281)"><g><path d="M 6.765625 -2.515625 C 6.765625 -2.953125 6.597656 -3.289062 6.265625 -3.53125 C 5.929688 -3.78125 5.351562 -3.992188 4.53125 -4.171875 C 3.707031 -4.347656 3.054688 -4.554688 2.578125 -4.796875 C 2.097656 -5.046875 1.738281 -5.335938 1.5 -5.671875 C 1.269531 -6.015625 1.15625 -6.421875 1.15625 -6.890625 C 1.15625 -7.671875 1.484375 -8.328125 2.140625 -8.859375 C 2.804688 -9.398438 3.648438 -9.671875 4.671875 -9.671875 C 5.742188 -9.671875 6.613281 -9.394531 7.28125 -8.84375 C 7.957031 -8.289062 8.296875 -7.578125 8.296875 -6.703125 L 6.671875 -6.703125 C 6.671875 -7.148438 6.476562 -7.535156 6.09375 -7.859375 C 5.71875 -8.179688 5.242188 -8.34375 4.671875 -8.34375 C 4.078125 -8.34375 3.613281 -8.210938 3.28125 -7.953125 C 2.945312 -7.691406 2.78125 -7.359375 2.78125 -6.953125 C 2.78125 -6.554688 2.9375 -6.257812 3.25 -6.0625 C 3.5625 -5.863281 4.117188 -5.671875 4.921875 -5.484375 C 5.734375 -5.304688 6.390625 -5.09375 6.890625 -4.84375 C 7.398438 -4.59375 7.773438 -4.285156 8.015625 -3.921875 C 8.265625 -3.566406 8.390625 -3.140625 8.390625 -2.640625 C 8.390625 -1.785156 8.046875 -1.101562 7.359375 -0.59375 C 6.679688 -0.0820312 5.800781 0.171875 4.71875 0.171875 C 3.957031 0.171875 3.285156 0.0390625 2.703125 -0.21875 C 2.117188 -0.488281 1.660156 -0.863281 1.328125 -1.34375 C 0.992188 -1.832031 0.828125 -2.359375 0.828125 -2.921875 L 2.453125 -2.921875 C 2.484375 -2.378906 2.703125 -1.945312 3.109375 -1.625 C 3.515625 -1.3125 4.050781 -1.15625 4.71875 -1.15625 C 5.332031 -1.15625 5.828125 -1.273438 6.203125 -1.515625 C 6.578125 -1.765625 6.765625 -2.097656 6.765625 -2.515625 Z M 6.765625 -2.515625 "/></g></g><g transform="translate(143.831856, 240.489281)"><g/></g><g transform="translate(148.285534, 240.489281)"><g><path d="M 3.4375 -11.796875 L 3.4375 -9.5 L 5.203125 -9.5 L 5.203125 -8.25 L 3.4375 -8.25 L 3.4375 -2.359375 C 3.4375 -1.972656 3.515625 -1.6875 3.671875 -1.5 C 3.828125 -1.3125 4.097656 -1.21875 4.484375 -1.21875 C 4.671875 -1.21875 4.925781 -1.25 5.25 -1.3125 L 5.25 0 C 4.820312 0.113281 4.40625 0.171875 4 0.171875 C 3.28125 0.171875 2.734375 -0.046875 2.359375 -0.484375 C 1.992188 -0.921875 1.8125 -1.546875 1.8125 -2.359375 L 1.8125 -8.25 L 0.078125 -8.25 L 0.078125 -9.5 L 1.8125 -9.5 L 1.8125 -11.796875 Z M 3.4375 -11.796875 "/></g></g><g transform="translate(154.16228, 240.489281)"><g><path d="M 2.859375 -8.34375 C 3.578125 -9.226562 4.507812 -9.671875 5.65625 -9.671875 C 7.664062 -9.671875 8.679688 -8.539062 8.703125 -6.28125 L 8.703125 0 L 7.078125 0 L 7.078125 -6.28125 C 7.066406 -6.96875 6.90625 -7.472656 6.59375 -7.796875 C 6.289062 -8.128906 5.816406 -8.296875 5.171875 -8.296875 C 4.640625 -8.296875 4.175781 -8.15625 3.78125 -7.875 C 3.382812 -7.59375 3.078125 -7.222656 2.859375 -6.765625 L 2.859375 0 L 1.234375 0 L 1.234375 -13.484375 L 2.859375 -13.484375 Z M 2.859375 -8.34375 "/></g></g><g transform="translate(164.071054, 240.489281)"><g><path d="M 5.828125 -8.046875 C 5.578125 -8.085938 5.304688 -8.109375 5.015625 -8.109375 C 3.953125 -8.109375 3.234375 -7.65625 2.859375 -6.75 L 2.859375 0 L 1.234375 0 L 1.234375 -9.5 L 2.8125 -9.5 L 2.84375 -8.40625 C 3.375 -9.25 4.128906 -9.671875 5.109375 -9.671875 C 5.421875 -9.671875 5.660156 -9.628906 5.828125 -9.546875 Z M 5.828125 -8.046875 "/></g></g></g><g fill="#1c4790" fill-opacity="1"><g transform="translate(169.982938, 240.489281)"><g><path d="M 0.796875 -4.84375 C 0.796875 -5.769531 0.976562 -6.601562 1.34375 -7.34375 C 1.707031 -8.09375 2.21875 -8.664062 2.875 -9.0625 C 3.53125 -9.46875 4.273438 -9.671875 5.109375 -9.671875 C 6.398438 -9.671875 7.445312 -9.222656 8.25 -8.328125 C 9.050781 -7.429688 9.453125 -6.242188 9.453125 -4.765625 L 9.453125 -4.640625 C 9.453125 -3.722656 9.273438 -2.894531 8.921875 -2.15625 C 8.566406 -1.414062 8.054688 -0.84375 7.390625 -0.4375 C 6.734375 -0.03125 5.976562 0.171875 5.125 0.171875 C 3.84375 0.171875 2.800781 -0.273438 2 -1.171875 C 1.195312 -2.066406 0.796875 -3.25 0.796875 -4.71875 Z M 2.4375 -4.640625 C 2.4375 -3.585938 2.679688 -2.742188 3.171875 -2.109375 C 3.660156 -1.472656 4.3125 -1.15625 5.125 -1.15625 C 5.945312 -1.15625 6.601562 -1.476562 7.09375 -2.125 C 7.582031 -2.769531 7.828125 -3.675781 7.828125 -4.84375 C 7.828125 -5.882812 7.578125 -6.726562 7.078125 -7.375 C 6.585938 -8.019531 5.929688 -8.34375 5.109375 -8.34375 C 4.304688 -8.34375 3.660156 -8.019531 3.171875 -7.375 C 2.679688 -6.738281 2.4375 -5.828125 2.4375 -4.640625 Z M 2.4375 -4.640625 "/></g></g><g transform="translate(180.243087, 240.489281)"><g><path d="M 7.09375 -0.9375 C 6.457031 -0.195312 5.53125 0.171875 4.3125 0.171875 C 3.300781 0.171875 2.53125 -0.117188 2 -0.703125 C 1.46875 -1.296875 1.195312 -2.164062 1.1875 -3.3125 L 1.1875 -9.5 L 2.8125 -9.5 L 2.8125 -3.359375 C 2.8125 -1.921875 3.398438 -1.203125 4.578125 -1.203125 C 5.816406 -1.203125 6.640625 -1.664062 7.046875 -2.59375 L 7.046875 -9.5 L 8.671875 -9.5 L 8.671875 0 L 7.125 0 Z M 7.09375 -0.9375 "/></g></g><g transform="translate(190.160645, 240.489281)"><g><path d="M 0.84375 -4.828125 C 0.84375 -6.304688 1.179688 -7.484375 1.859375 -8.359375 C 2.546875 -9.234375 3.457031 -9.671875 4.59375 -9.671875 C 5.75 -9.671875 6.65625 -9.265625 7.3125 -8.453125 L 7.390625 -9.5 L 8.875 -9.5 L 8.875 -0.234375 C 8.875 0.992188 8.507812 1.960938 7.78125 2.671875 C 7.050781 3.378906 6.070312 3.734375 4.84375 3.734375 C 4.15625 3.734375 3.484375 3.585938 2.828125 3.296875 C 2.171875 3.003906 1.671875 2.601562 1.328125 2.09375 L 2.171875 1.125 C 2.867188 1.988281 3.71875 2.421875 4.71875 2.421875 C 5.507812 2.421875 6.125 2.195312 6.5625 1.75 C 7.007812 1.300781 7.234375 0.675781 7.234375 -0.125 L 7.234375 -0.953125 C 6.585938 -0.203125 5.703125 0.171875 4.578125 0.171875 C 3.460938 0.171875 2.5625 -0.273438 1.875 -1.171875 C 1.1875 -2.066406 0.84375 -3.285156 0.84375 -4.828125 Z M 2.46875 -4.640625 C 2.46875 -3.566406 2.6875 -2.722656 3.125 -2.109375 C 3.570312 -1.503906 4.191406 -1.203125 4.984375 -1.203125 C 6.003906 -1.203125 6.753906 -1.664062 7.234375 -2.59375 L 7.234375 -6.9375 C 6.734375 -7.84375 5.988281 -8.296875 5 -8.296875 C 4.207031 -8.296875 3.585938 -7.988281 3.140625 -7.375 C 2.691406 -6.757812 2.46875 -5.847656 2.46875 -4.640625 Z M 2.46875 -4.640625 "/></g></g><g transform="translate(200.253892, 240.489281)"><g><path d="M 2.859375 -8.34375 C 3.578125 -9.226562 4.507812 -9.671875 5.65625 -9.671875 C 7.664062 -9.671875 8.679688 -8.539062 8.703125 -6.28125 L 8.703125 0 L 7.078125 0 L 7.078125 -6.28125 C 7.066406 -6.96875 6.90625 -7.472656 6.59375 -7.796875 C 6.289062 -8.128906 5.816406 -8.296875 5.171875 -8.296875 C 4.640625 -8.296875 4.175781 -8.15625 3.78125 -7.875 C 3.382812 -7.59375 3.078125 -7.222656 2.859375 -6.765625 L 2.859375 0 L 1.234375 0 L 1.234375 -13.484375 L 2.859375 -13.484375 Z M 2.859375 -8.34375 "/></g></g></g></svg>