<svg xmlns="http://www.w3.org/2000/svg" xmlns:xlink="http://www.w3.org/1999/xlink" width="300" zoomAndPan="magnify" viewBox="0 0 224.87999 374.999991" height="500" preserveAspectRatio="xMidYMid meet" version="1.0"><defs><g/><clipPath id="83ea9b6079"><path d="M 0 0.101562 L 224.761719 0.101562 L 224.761719 374.898438 L 0 374.898438 Z M 0 0.101562 " clip-rule="nonzero"/></clipPath><clipPath id="15e06900a9"><path d="M 27 119 L 130 119 L 130 222 L 27 222 Z M 27 119 " clip-rule="nonzero"/></clipPath><clipPath id="d87cf79dfa"><path d="M 93.992188 100.8125 L 163.429688 170.25 L 93.992188 239.683594 L 24.558594 170.25 Z M 93.992188 100.8125 " clip-rule="nonzero"/></clipPath><clipPath id="9a4bf8f5f8"><path d="M 93.992188 100.8125 L 163.429688 170.25 L 93.992188 239.683594 L 24.558594 170.25 Z M 93.992188 100.8125 " clip-rule="nonzero"/></clipPath><clipPath id="65d12e5536"><path d="M 81 65 L 184 65 L 184 168 L 81 168 Z M 81 65 " clip-rule="nonzero"/></clipPath><clipPath id="9afed2976f"><path d="M 147.996094 46.8125 L 217.429688 116.246094 L 147.996094 185.683594 L 78.558594 116.246094 Z M 147.996094 46.8125 " clip-rule="nonzero"/></clipPath><clipPath id="e43528cdb3"><path d="M 147.996094 46.8125 L 217.429688 116.246094 L 147.996094 185.683594 L 78.558594 116.246094 Z M 147.996094 46.8125 " clip-rule="nonzero"/></clipPath><clipPath id="42f09f1ca4"><path d="M 29 119 L 132 119 L 132 222 L 29 222 Z M 29 119 " clip-rule="nonzero"/></clipPath><clipPath id="fc9536e912"><path d="M 96.121094 101.300781 L 165.558594 170.738281 L 96.121094 240.175781 L 26.683594 170.738281 Z M 96.121094 101.300781 " clip-rule="nonzero"/></clipPath><clipPath id="c61053de42"><path d="M 96.121094 101.300781 L 165.558594 170.738281 L 96.121094 240.175781 L 26.683594 170.738281 Z M 96.121094 101.300781 " clip-rule="nonzero"/></clipPath><clipPath id="eb3797b886"><path d="M 71.800781 155 L 107.78125 155 L 107.78125 182.703125 L 71.800781 182.703125 Z M 71.800781 155 " clip-rule="nonzero"/></clipPath><clipPath id="be5ab952b5"><path d="M 71.800781 155 L 107.78125 155 L 107.78125 169 L 71.800781 169 Z M 71.800781 155 " clip-rule="nonzero"/></clipPath><clipPath id="974bd5a845"><path d="M 83 65 L 186 65 L 186 168 L 83 168 Z M 83 65 " clip-rule="nonzero"/></clipPath><clipPath id="9257da3351"><path d="M 149.855469 47.320312 L 219.292969 116.753906 L 149.855469 186.191406 L 80.417969 116.753906 Z M 149.855469 47.320312 " clip-rule="nonzero"/></clipPath><clipPath id="54b0fdb93a"><path d="M 149.855469 47.320312 L 219.292969 116.753906 L 149.855469 186.191406 L 80.417969 116.753906 Z M 149.855469 47.320312 " clip-rule="nonzero"/></clipPath><clipPath id="cc4382dedc"><path d="M 130.027344 92.613281 L 161 92.613281 L 161 137.589844 L 130.027344 137.589844 Z M 130.027344 92.613281 " clip-rule="nonzero"/></clipPath><clipPath id="f8fdec09a9"><path d="M 130.78125 93.257812 L 162 93.257812 L 162 138.234375 L 130.78125 138.234375 Z M 130.78125 93.257812 " clip-rule="nonzero"/></clipPath><clipPath id="5dfbe35216"><path d="M 154 105 L 172.761719 105 L 172.761719 130 L 154 130 Z M 154 105 " clip-rule="nonzero"/></clipPath></defs><g clip-path="url(#83ea9b6079)"><path fill="#ffffff" d="M 0 0.101562 L 224.878906 0.101562 L 224.878906 374.898438 L 0 374.898438 Z M 0 0.101562 " fill-opacity="1" fill-rule="nonzero"/><path fill="#ffffff" d="M 0 0.101562 L 224.878906 0.101562 L 224.878906 374.898438 L 0 374.898438 Z M 0 0.101562 " fill-opacity="1" fill-rule="nonzero"/></g><g clip-path="url(#15e06900a9)"><g clip-path="url(#d87cf79dfa)"><g clip-path="url(#9a4bf8f5f8)"><path fill="#121256" d="M 121.277344 198.308594 C 119.984375 197.011719 118.421875 196.144531 116.769531 195.691406 C 116.140625 195.523438 115.488281 195.410156 114.835938 195.363281 C 113.277344 194.949219 111.261719 194.03125 110.785156 192.011719 L 127.539062 175.253906 C 130.371094 172.425781 130.371094 167.832031 127.539062 165 L 110.574219 148.035156 C 111.160156 146.417969 112.777344 145.597656 114.171875 145.171875 C 116.660156 145.09375 119.125 144.101562 121.023438 142.203125 C 124.988281 138.238281 124.992188 131.804688 121.023438 127.835938 C 117.054688 123.867188 110.621094 123.871094 106.65625 127.835938 C 105.359375 129.128906 104.492188 130.691406 104.039062 132.34375 C 103.867188 132.976562 103.757812 133.621094 103.710938 134.277344 C 103.324219 135.730469 102.5 137.578125 100.75 138.210938 L 83.859375 121.320312 C 81.027344 118.488281 76.433594 118.488281 73.601562 121.320312 L 56.847656 138.074219 C 57.324219 140.09375 59.339844 141.011719 60.898438 141.429688 C 61.554688 141.472656 62.203125 141.585938 62.835938 141.757812 C 64.484375 142.207031 66.046875 143.074219 67.339844 144.371094 C 71.3125 148.34375 71.308594 154.777344 67.34375 158.742188 C 63.375 162.710938 56.941406 162.714844 52.96875 158.742188 C 51.070312 156.84375 50.085938 154.378906 50.007812 151.890625 C 49.550781 150.386719 48.628906 148.617188 46.75 148.171875 L 29.921875 165 C 27.089844 167.832031 27.089844 172.425781 29.921875 175.253906 L 46.675781 192.011719 C 48.695312 191.527344 49.613281 189.519531 50.03125 187.957031 C 50.074219 187.304688 50.183594 186.660156 50.359375 186.023438 C 50.808594 184.375 51.679688 182.8125 52.972656 181.519531 C 56.941406 177.550781 63.371094 177.550781 67.339844 181.519531 C 71.308594 185.488281 71.308594 191.917969 67.339844 195.886719 C 65.441406 197.785156 62.980469 198.773438 60.488281 198.855469 C 58.992188 199.304688 57.222656 200.230469 56.773438 202.109375 L 73.601562 218.9375 C 76.433594 221.769531 81.027344 221.769531 83.859375 218.9375 L 100.6875 202.109375 C 102.5625 202.554688 103.488281 204.324219 103.941406 205.828125 C 104.023438 208.316406 105.007812 210.78125 106.90625 212.679688 C 110.875 216.648438 117.3125 216.648438 121.28125 212.679688 C 125.246094 208.714844 125.246094 202.277344 121.277344 198.308594 " fill-opacity="1" fill-rule="nonzero"/></g></g></g><g clip-path="url(#65d12e5536)"><g clip-path="url(#9afed2976f)"><g clip-path="url(#e43528cdb3)"><path fill="#121256" d="M 175.277344 144.304688 C 173.984375 143.011719 172.421875 142.140625 170.773438 141.691406 C 170.140625 141.519531 169.492188 141.410156 168.839844 141.363281 C 167.277344 140.949219 165.265625 140.03125 164.785156 138.007812 L 181.542969 121.253906 C 184.371094 118.421875 184.371094 113.828125 181.542969 111 L 164.578125 94.035156 C 165.160156 92.417969 166.78125 91.59375 168.171875 91.171875 C 170.660156 91.089844 173.125 90.101562 175.023438 88.203125 C 178.988281 84.234375 178.992188 77.804688 175.023438 73.835938 C 171.054688 69.863281 164.621094 69.867188 160.65625 73.835938 C 159.363281 75.128906 158.492188 76.6875 158.042969 78.339844 C 157.867188 78.976562 157.757812 79.621094 157.710938 80.277344 C 157.328125 81.730469 156.5 83.578125 154.75 84.207031 L 137.859375 67.316406 C 135.027344 64.484375 130.433594 64.484375 127.605469 67.316406 L 110.847656 84.070312 C 111.328125 86.09375 113.339844 87.011719 114.902344 87.425781 C 115.554688 87.472656 116.203125 87.582031 116.839844 87.757812 C 118.488281 88.203125 120.046875 89.074219 121.34375 90.371094 C 125.3125 94.339844 125.3125 100.773438 121.34375 104.738281 C 117.375 108.707031 110.945312 108.710938 106.972656 104.738281 C 105.070312 102.839844 104.085938 100.375 104.007812 97.886719 C 103.554688 96.386719 102.628906 94.617188 100.75 94.171875 L 83.921875 111 C 81.089844 113.828125 81.089844 118.421875 83.921875 121.253906 L 100.675781 138.007812 C 102.695312 137.527344 103.617188 135.515625 104.03125 133.957031 C 104.078125 133.304688 104.1875 132.65625 104.359375 132.023438 C 104.808594 130.371094 105.679688 128.8125 106.972656 127.515625 C 110.945312 123.546875 117.375 123.546875 121.34375 127.515625 C 125.3125 131.484375 125.3125 137.914062 121.34375 141.882812 C 119.441406 143.78125 116.980469 144.769531 114.488281 144.855469 C 112.992188 145.304688 111.222656 146.230469 110.777344 148.109375 L 127.605469 164.9375 C 130.433594 167.765625 135.027344 167.765625 137.859375 164.9375 L 154.6875 148.109375 C 156.566406 148.554688 157.492188 150.324219 157.945312 151.824219 C 158.023438 154.3125 159.007812 156.777344 160.910156 158.675781 C 164.878906 162.644531 171.3125 162.644531 175.28125 158.675781 C 179.246094 154.710938 179.246094 148.273438 175.277344 144.304688 " fill-opacity="1" fill-rule="nonzero"/></g></g></g><g clip-path="url(#42f09f1ca4)"><g clip-path="url(#fc9536e912)"><g clip-path="url(#c61053de42)"><path fill="#99c5ff" d="M 123.40625 198.796875 C 122.109375 197.5 120.550781 196.632812 118.898438 196.183594 C 118.265625 196.011719 117.617188 195.898438 116.964844 195.855469 C 115.40625 195.4375 113.390625 194.519531 112.914062 192.5 L 129.667969 175.746094 C 132.5 172.914062 132.5 168.320312 129.667969 165.488281 L 112.703125 148.523438 C 113.285156 146.910156 114.90625 146.085938 116.296875 145.664062 C 118.789062 145.582031 121.25 144.589844 123.152344 142.691406 C 127.117188 138.726562 127.121094 132.292969 123.152344 128.324219 C 119.183594 124.355469 112.75 124.359375 108.78125 128.324219 C 107.488281 129.621094 106.617188 131.179688 106.167969 132.832031 C 105.996094 133.464844 105.886719 134.113281 105.835938 134.769531 C 105.453125 136.21875 104.625 138.066406 102.878906 138.699219 L 85.984375 121.808594 C 83.15625 118.976562 78.5625 118.976562 75.730469 121.808594 L 58.976562 138.5625 C 59.453125 140.582031 61.46875 141.5 63.027344 141.917969 C 63.679688 141.960938 64.328125 142.074219 64.964844 142.25 C 66.613281 142.695312 68.171875 143.566406 69.46875 144.859375 C 73.441406 148.832031 73.4375 155.265625 69.472656 159.230469 C 65.503906 163.199219 59.070312 163.203125 55.097656 159.230469 C 53.199219 157.332031 52.214844 154.867188 52.132812 152.378906 C 51.679688 150.878906 50.753906 149.109375 48.878906 148.660156 L 32.046875 165.488281 C 29.21875 168.320312 29.21875 172.914062 32.046875 175.746094 L 48.804688 192.5 C 50.820312 192.019531 51.742188 190.007812 52.160156 188.445312 C 52.203125 187.792969 52.3125 187.148438 52.488281 186.511719 C 52.9375 184.863281 53.804688 183.300781 55.101562 182.007812 C 59.070312 178.039062 65.5 178.039062 69.46875 182.007812 C 73.4375 185.976562 73.4375 192.40625 69.46875 196.375 C 67.570312 198.273438 65.109375 199.261719 62.617188 199.34375 C 61.117188 199.796875 59.347656 200.71875 58.902344 202.597656 L 75.730469 219.425781 C 78.5625 222.257812 83.15625 222.257812 85.984375 219.425781 L 102.8125 202.597656 C 104.691406 203.046875 105.617188 204.816406 106.070312 206.316406 C 106.152344 208.804688 107.136719 211.269531 109.035156 213.167969 C 113.003906 217.136719 119.441406 217.136719 123.410156 213.167969 C 127.375 209.203125 127.375 202.765625 123.40625 198.796875 " fill-opacity="1" fill-rule="nonzero"/></g></g></g><g clip-path="url(#eb3797b886)"><path fill="#3679ed" d="M 107.738281 168.832031 C 107.738281 168.832031 98.121094 182.414062 85.75 182.453125 C 82.128906 182.703125 78.429688 181.382812 75.664062 178.484375 C 73.117188 175.820312 71.84375 172.324219 71.84375 168.832031 C 71.84375 165.339844 73.117188 161.847656 75.664062 159.183594 C 78.429688 156.285156 82.132812 154.960938 85.75 155.214844 C 98.132812 155.253906 107.738281 168.835938 107.738281 168.835938 Z M 107.738281 168.832031 " fill-opacity="1" fill-rule="nonzero"/></g><g clip-path="url(#be5ab952b5)"><path fill="#1d67db" d="M 107.738281 168.832031 L 71.84375 168.832031 C 71.84375 165.339844 73.117188 161.847656 75.664062 159.183594 C 78.429688 156.285156 82.132812 154.960938 85.75 155.214844 C 98.132812 155.253906 107.738281 168.835938 107.738281 168.835938 Z M 107.738281 168.832031 " fill-opacity="1" fill-rule="nonzero"/></g><path fill="#ffffff" d="M 96.566406 168.820312 C 96.566406 169.515625 96.5 170.207031 96.363281 170.890625 C 96.230469 171.570312 96.03125 172.234375 95.765625 172.878906 C 95.5 173.523438 95.175781 174.132812 94.792969 174.714844 C 94.410156 175.292969 93.972656 175.828125 93.484375 176.320312 C 92.996094 176.8125 92.460938 177.253906 91.886719 177.640625 C 91.3125 178.027344 90.707031 178.355469 90.066406 178.621094 C 89.429688 178.886719 88.769531 179.089844 88.09375 179.222656 C 87.414062 179.359375 86.730469 179.425781 86.039062 179.425781 C 85.347656 179.425781 84.660156 179.359375 83.984375 179.222656 C 83.304688 179.089844 82.648438 178.886719 82.007812 178.621094 C 81.371094 178.355469 80.761719 178.027344 80.1875 177.640625 C 79.613281 177.253906 79.082031 176.8125 78.59375 176.320312 C 78.105469 175.828125 77.667969 175.292969 77.285156 174.714844 C 76.898438 174.132812 76.574219 173.523438 76.3125 172.878906 C 76.046875 172.234375 75.847656 171.570312 75.710938 170.890625 C 75.578125 170.207031 75.507812 169.515625 75.507812 168.820312 C 75.507812 168.121094 75.578125 167.433594 75.710938 166.75 C 75.847656 166.066406 76.046875 165.402344 76.3125 164.757812 C 76.574219 164.117188 76.898438 163.503906 77.285156 162.925781 C 77.667969 162.347656 78.105469 161.8125 78.59375 161.316406 C 79.082031 160.824219 79.613281 160.386719 80.1875 160 C 80.761719 159.613281 81.371094 159.285156 82.007812 159.019531 C 82.648438 158.75 83.304688 158.550781 83.984375 158.414062 C 84.660156 158.277344 85.347656 158.210938 86.039062 158.210938 C 86.730469 158.210938 87.414062 158.277344 88.09375 158.414062 C 88.769531 158.550781 89.429688 158.75 90.066406 159.019531 C 90.707031 159.285156 91.3125 159.613281 91.886719 160 C 92.460938 160.386719 92.996094 160.824219 93.484375 161.316406 C 93.972656 161.8125 94.410156 162.347656 94.792969 162.925781 C 95.175781 163.503906 95.5 164.117188 95.765625 164.757812 C 96.03125 165.402344 96.230469 166.066406 96.363281 166.75 C 96.5 167.433594 96.566406 168.121094 96.566406 168.820312 Z M 96.566406 168.820312 " fill-opacity="1" fill-rule="nonzero"/><path fill="#121256" d="M 82.0625 170.816406 L 84.679688 170.816406 L 84.679688 171.023438 C 84.679688 171.6875 84.773438 172.183594 84.960938 172.511719 C 85.148438 172.84375 85.425781 173.007812 85.792969 173.007812 C 86.1875 173.007812 86.488281 172.816406 86.703125 172.429688 C 86.914062 172.042969 87.019531 171.496094 87.019531 170.785156 C 87.019531 170.074219 86.921875 169.492188 86.722656 169.136719 C 86.527344 168.78125 86.222656 168.601562 85.8125 168.601562 C 85.660156 168.601562 85.5 168.636719 85.332031 168.703125 C 85.167969 168.769531 84.988281 168.867188 84.800781 169.003906 L 83.667969 167.914062 L 86.0625 164.738281 L 82.625 164.738281 L 82.625 162.605469 L 89.988281 162.605469 L 86.835938 166.90625 C 86.859375 166.90625 86.902344 166.902344 86.957031 166.890625 C 87.171875 166.855469 87.3125 166.839844 87.378906 166.839844 C 88.054688 166.839844 88.613281 167.183594 89.058594 167.867188 C 89.5 168.554688 89.722656 169.445312 89.722656 170.539062 C 89.722656 171.96875 89.363281 173.082031 88.652344 173.871094 C 87.941406 174.660156 86.9375 175.054688 85.648438 175.054688 C 84.507812 175.054688 83.617188 174.722656 82.988281 174.050781 C 82.359375 173.382812 82.042969 172.441406 82.042969 171.226562 C 82.042969 171.175781 82.046875 171.109375 82.054688 171.019531 C 82.058594 170.933594 82.0625 170.863281 82.0625 170.816406 Z M 82.0625 170.816406 " fill-opacity="1" fill-rule="nonzero"/><g clip-path="url(#974bd5a845)"><g clip-path="url(#9257da3351)"><g clip-path="url(#54b0fdb93a)"><path fill="#99c5ff" d="M 177.140625 144.8125 C 175.84375 143.519531 174.285156 142.648438 172.632812 142.199219 C 172.003906 142.027344 171.351562 141.917969 170.699219 141.871094 C 169.140625 141.457031 167.125 140.539062 166.648438 138.515625 L 183.402344 121.761719 C 186.234375 118.929688 186.234375 114.335938 183.402344 111.507812 L 166.4375 94.542969 C 167.019531 92.925781 168.640625 92.101562 170.035156 91.679688 C 172.523438 91.597656 174.988281 90.609375 176.886719 88.707031 C 180.851562 84.742188 180.855469 78.308594 176.886719 74.339844 C 172.917969 70.371094 166.484375 70.375 162.519531 74.339844 C 161.222656 75.636719 160.355469 77.195312 159.902344 78.847656 C 159.730469 79.484375 159.621094 80.128906 159.570312 80.785156 C 159.1875 82.238281 158.359375 84.082031 156.613281 84.714844 L 139.722656 67.824219 C 136.890625 64.992188 132.296875 64.992188 129.464844 67.824219 L 112.710938 84.578125 C 113.1875 86.601562 115.203125 87.519531 116.761719 87.933594 C 117.414062 87.980469 118.066406 88.089844 118.699219 88.265625 C 120.347656 88.710938 121.910156 89.582031 123.203125 90.875 C 127.175781 94.847656 127.171875 101.28125 123.207031 105.246094 C 119.238281 109.214844 112.804688 109.21875 108.832031 105.246094 C 106.933594 103.347656 105.949219 100.882812 105.867188 98.394531 C 105.414062 96.894531 104.488281 95.125 102.613281 94.679688 L 85.785156 111.507812 C 82.953125 114.335938 82.953125 118.929688 85.785156 121.761719 L 102.539062 138.515625 C 104.554688 138.035156 105.476562 136.023438 105.894531 134.464844 C 105.9375 133.8125 106.046875 133.164062 106.222656 132.53125 C 106.671875 130.878906 107.539062 129.320312 108.835938 128.023438 C 112.804688 124.054688 119.234375 124.054688 123.203125 128.023438 C 127.171875 131.992188 127.171875 138.421875 123.203125 142.390625 C 121.304688 144.289062 118.84375 145.277344 116.351562 145.363281 C 114.855469 145.8125 113.082031 146.738281 112.636719 148.613281 L 129.464844 165.441406 C 132.296875 168.273438 136.890625 168.273438 139.722656 165.441406 L 156.550781 148.613281 C 158.425781 149.0625 159.351562 150.832031 159.804688 152.332031 C 159.886719 154.820312 160.871094 157.285156 162.769531 159.183594 C 166.738281 163.152344 173.175781 163.152344 177.144531 159.183594 C 181.109375 155.21875 181.109375 148.78125 177.140625 144.8125 " fill-opacity="1" fill-rule="nonzero"/></g></g></g><g clip-path="url(#cc4382dedc)"><path fill="#121256" d="M 145.441406 92.613281 C 144.007812 92.613281 142.851562 93.695312 142.675781 95.0625 L 137.746094 95.0625 C 136.976562 95.0625 136.34375 95.691406 136.34375 96.460938 L 136.34375 97.511719 L 132.183594 97.511719 C 130.992188 97.511719 130.046875 98.453125 130.046875 99.644531 L 130.046875 135.253906 C 130.046875 136.445312 130.992188 137.390625 132.183594 137.390625 L 158.699219 137.390625 C 159.886719 137.390625 160.832031 136.445312 160.832031 135.253906 L 160.832031 126.40625 C 160.832031 126.40625 160.796875 126.40625 160.796875 126.441406 L 159.433594 127.316406 L 159.433594 135.253906 C 159.433594 135.675781 159.117188 135.988281 158.699219 135.988281 L 132.183594 135.988281 C 131.761719 135.988281 131.449219 135.675781 131.449219 135.253906 L 131.449219 99.644531 C 131.449219 99.222656 131.761719 98.910156 132.183594 98.910156 L 136.34375 98.910156 L 136.34375 99.957031 C 136.34375 100.726562 136.976562 101.359375 137.746094 101.359375 L 153.136719 101.359375 C 153.90625 101.359375 154.535156 100.726562 154.535156 99.957031 L 154.535156 98.910156 L 158.699219 98.910156 C 159.117188 98.910156 159.433594 99.222656 159.433594 99.644531 L 159.433594 113.671875 L 160.832031 111.644531 L 160.832031 99.644531 C 160.832031 98.453125 159.886719 97.511719 158.699219 97.511719 L 154.535156 97.511719 L 154.535156 96.460938 C 154.535156 95.691406 153.90625 95.0625 153.136719 95.0625 L 148.203125 95.0625 C 148.027344 93.695312 146.875 92.613281 145.441406 92.613281 Z M 153.136719 99.957031 L 137.746094 99.957031 L 137.746094 96.460938 L 143.375 96.460938 C 143.585938 96.460938 143.796875 96.355469 143.902344 96.214844 C 144.007812 96.074219 144.074219 95.832031 144.042969 95.65625 C 144.042969 95.550781 144.042969 95.480469 144.042969 95.410156 C 144.042969 94.640625 144.671875 94.011719 145.441406 94.011719 C 146.210938 94.011719 146.839844 94.640625 146.839844 95.410156 C 146.839844 95.480469 146.839844 95.550781 146.804688 95.621094 C 146.769531 95.832031 146.804688 96.039062 146.945312 96.179688 C 147.085938 96.320312 147.257812 96.425781 147.46875 96.425781 L 153.136719 96.460938 Z M 153.136719 99.957031 " fill-opacity="1" fill-rule="nonzero"/></g><path fill="#121256" d="M 170.3125 106.117188 L 169.824219 105.730469 C 169.261719 105.3125 168.597656 105.136719 167.933594 105.242188 C 167.269531 105.347656 166.675781 105.695312 166.21875 106.253906 L 155.796875 121.402344 C 155.796875 121.4375 155.761719 121.4375 155.761719 121.472656 C 155.726562 121.507812 155.726562 121.507812 155.691406 121.542969 C 155.691406 121.542969 155.691406 121.578125 155.65625 121.578125 C 155.585938 121.648438 155.550781 121.71875 155.515625 121.824219 L 153.519531 128.085938 C 153.417969 128.363281 153.519531 128.679688 153.765625 128.855469 C 153.90625 128.957031 154.046875 128.992188 154.1875 128.992188 C 154.324219 128.992188 154.464844 128.957031 154.570312 128.890625 L 160.027344 125.25 C 160.132812 125.179688 160.238281 125.074219 160.273438 124.972656 C 160.308594 124.9375 160.378906 124.902344 160.414062 124.832031 L 170.800781 109.71875 C 171.640625 108.5625 171.433594 106.957031 170.3125 106.117188 Z M 156.949219 125.636719 L 156.003906 124.9375 L 156.667969 122.835938 C 156.703125 122.835938 156.773438 122.835938 156.808594 122.835938 C 156.84375 122.835938 156.914062 122.835938 156.914062 122.835938 L 156.949219 122.871094 C 156.949219 122.871094 156.984375 122.941406 156.984375 122.976562 C 157.054688 123.1875 157.125 123.535156 157.542969 123.851562 C 157.964844 124.167969 158.3125 124.167969 158.523438 124.167969 C 158.558594 124.167969 158.628906 124.167969 158.628906 124.167969 L 158.664062 124.203125 C 158.664062 124.203125 158.699219 124.269531 158.699219 124.304688 C 158.699219 124.339844 158.734375 124.375 158.734375 124.445312 Z M 155.550781 126.335938 L 155.691406 126.441406 L 155.445312 126.613281 Z M 159.746094 123.292969 C 159.679688 123.222656 159.609375 123.117188 159.503906 123.046875 C 159.082031 122.730469 158.734375 122.730469 158.523438 122.730469 C 158.488281 122.730469 158.417969 122.730469 158.417969 122.730469 L 158.382812 122.695312 C 158.382812 122.695312 158.347656 122.628906 158.347656 122.59375 C 158.277344 122.382812 158.207031 122.03125 157.789062 121.71875 C 157.648438 121.613281 157.542969 121.542969 157.402344 121.507812 L 165.066406 110.382812 L 167.375 112.203125 Z M 169.683594 108.878906 L 168.179688 111.082031 L 165.871094 109.265625 L 167.375 107.09375 C 167.550781 106.851562 167.828125 106.675781 168.144531 106.640625 C 168.457031 106.605469 168.738281 106.675781 168.984375 106.851562 L 169.472656 107.234375 C 169.960938 107.585938 170.066406 108.320312 169.683594 108.878906 Z M 169.683594 108.878906 " fill-opacity="1" fill-rule="nonzero"/><path fill="#121256" d="M 136.273438 112.691406 C 136.414062 112.832031 136.589844 112.902344 136.765625 112.902344 C 136.941406 112.902344 137.113281 112.832031 137.253906 112.691406 L 138.164062 111.78125 L 139.074219 112.691406 C 139.214844 112.832031 139.386719 112.902344 139.5625 112.902344 C 139.738281 112.902344 139.914062 112.832031 140.054688 112.691406 C 140.332031 112.414062 140.332031 111.992188 140.054688 111.710938 L 139.179688 110.804688 L 140.089844 109.894531 C 140.367188 109.613281 140.367188 109.195312 140.089844 108.914062 C 139.808594 108.632812 139.386719 108.632812 139.109375 108.914062 L 138.199219 109.824219 L 137.289062 108.914062 C 137.011719 108.632812 136.589844 108.632812 136.308594 108.914062 C 136.03125 109.195312 136.03125 109.613281 136.308594 109.894531 L 137.21875 110.804688 L 136.308594 111.710938 C 136.03125 111.992188 136.03125 112.414062 136.273438 112.691406 Z M 136.273438 112.691406 " fill-opacity="1" fill-rule="nonzero"/><path fill="#121256" d="M 150.582031 120.808594 C 150.304688 120.527344 149.882812 120.527344 149.601562 120.808594 L 148.695312 121.71875 L 147.785156 120.808594 C 147.503906 120.527344 147.085938 120.527344 146.804688 120.808594 C 146.523438 121.085938 146.523438 121.507812 146.804688 121.789062 L 147.714844 122.695312 L 146.804688 123.605469 C 146.523438 123.886719 146.523438 124.304688 146.804688 124.585938 C 146.945312 124.726562 147.121094 124.796875 147.292969 124.796875 C 147.46875 124.796875 147.644531 124.726562 147.785156 124.585938 L 148.695312 123.675781 L 149.601562 124.585938 C 149.742188 124.726562 149.917969 124.796875 150.09375 124.796875 C 150.269531 124.796875 150.441406 124.726562 150.582031 124.585938 C 150.863281 124.304688 150.863281 123.886719 150.582031 123.605469 L 149.671875 122.695312 L 150.582031 121.789062 C 150.828125 121.507812 150.828125 121.085938 150.582031 120.808594 Z M 150.582031 120.808594 " fill-opacity="1" fill-rule="nonzero"/><path fill="#121256" d="M 142.816406 118.394531 C 145.476562 116.644531 148.484375 114.6875 147.925781 109.089844 L 148.796875 109.859375 C 148.9375 109.964844 149.078125 110.035156 149.253906 110.035156 C 149.464844 110.035156 149.636719 109.964844 149.777344 109.789062 C 150.023438 109.507812 149.988281 109.054688 149.707031 108.808594 L 147.46875 106.851562 C 147.398438 106.78125 147.328125 106.746094 147.257812 106.710938 C 147.15625 106.675781 147.050781 106.640625 146.945312 106.675781 C 146.839844 106.675781 146.734375 106.710938 146.628906 106.78125 C 146.558594 106.816406 146.488281 106.851562 146.453125 106.921875 L 144.496094 109.160156 C 144.25 109.4375 144.285156 109.894531 144.566406 110.136719 C 144.707031 110.242188 144.847656 110.3125 145.019531 110.3125 C 145.230469 110.3125 145.40625 110.242188 145.546875 110.070312 L 146.453125 109.019531 C 147.015625 113.917969 144.671875 115.457031 141.976562 117.203125 C 139.492188 118.847656 136.660156 120.703125 136.941406 125.566406 C 135.996094 125.914062 135.296875 126.859375 135.296875 127.945312 C 135.296875 129.308594 136.378906 130.394531 137.746094 130.394531 C 139.109375 130.394531 140.191406 129.308594 140.191406 127.945312 C 140.191406 126.824219 139.421875 125.878906 138.410156 125.601562 C 138.164062 121.472656 140.332031 120.039062 142.816406 118.394531 Z M 138.792969 127.945312 C 138.792969 128.539062 138.339844 128.992188 137.746094 128.992188 C 137.148438 128.992188 136.695312 128.539062 136.695312 127.945312 C 136.695312 127.347656 137.148438 126.894531 137.746094 126.894531 C 138.339844 126.894531 138.792969 127.347656 138.792969 127.945312 Z M 138.792969 127.945312 " fill-opacity="1" fill-rule="nonzero"/><path fill="#121256" d="M 152.4375 106.957031 C 152.4375 108.320312 153.519531 109.402344 154.886719 109.402344 C 156.25 109.402344 157.335938 108.320312 157.335938 106.957031 C 157.335938 105.589844 156.25 104.507812 154.886719 104.507812 C 153.519531 104.507812 152.4375 105.589844 152.4375 106.957031 Z M 155.933594 106.957031 C 155.933594 107.550781 155.480469 108.003906 154.886719 108.003906 C 154.289062 108.003906 153.835938 107.550781 153.835938 106.957031 C 153.835938 106.359375 154.289062 105.90625 154.886719 105.90625 C 155.480469 105.90625 155.933594 106.359375 155.933594 106.957031 Z M 155.933594 106.957031 " fill-opacity="1" fill-rule="nonzero"/><g clip-path="url(#f8fdec09a9)"><path fill="#ffffff" d="M 146.195312 93.257812 C 144.761719 93.257812 143.609375 94.34375 143.433594 95.707031 L 138.5 95.707031 C 137.730469 95.707031 137.101562 96.335938 137.101562 97.105469 L 137.101562 98.15625 L 132.9375 98.15625 C 131.75 98.15625 130.804688 99.101562 130.804688 100.289062 L 130.804688 135.902344 C 130.804688 137.089844 131.75 138.035156 132.9375 138.035156 L 159.457031 138.035156 C 160.644531 138.035156 161.589844 137.089844 161.589844 135.902344 L 161.589844 127.050781 C 161.589844 127.050781 161.554688 127.050781 161.554688 127.085938 L 160.191406 127.960938 L 160.191406 135.902344 C 160.191406 136.320312 159.875 136.636719 159.457031 136.636719 L 132.9375 136.636719 C 132.519531 136.636719 132.203125 136.320312 132.203125 135.902344 L 132.203125 100.289062 C 132.203125 99.871094 132.519531 99.554688 132.9375 99.554688 L 137.101562 99.554688 L 137.101562 100.605469 C 137.101562 101.375 137.730469 102.003906 138.5 102.003906 L 153.894531 102.003906 C 154.664062 102.003906 155.292969 101.375 155.292969 100.605469 L 155.292969 99.554688 L 159.457031 99.554688 C 159.875 99.554688 160.191406 99.871094 160.191406 100.289062 L 160.191406 114.316406 L 161.589844 112.289062 L 161.589844 100.289062 C 161.589844 99.101562 160.644531 98.15625 159.457031 98.15625 L 155.292969 98.15625 L 155.292969 97.105469 C 155.292969 96.335938 154.664062 95.707031 153.894531 95.707031 L 148.960938 95.707031 C 148.785156 94.34375 147.632812 93.257812 146.195312 93.257812 Z M 153.894531 100.605469 L 138.5 100.605469 L 138.5 97.105469 L 144.132812 97.105469 C 144.34375 97.105469 144.554688 97 144.65625 96.863281 C 144.761719 96.722656 144.832031 96.476562 144.796875 96.300781 C 144.796875 96.195312 144.796875 96.125 144.796875 96.058594 C 144.796875 95.289062 145.425781 94.65625 146.195312 94.65625 C 146.96875 94.65625 147.597656 95.289062 147.597656 96.058594 C 147.597656 96.125 147.597656 96.195312 147.5625 96.265625 C 147.527344 96.476562 147.5625 96.6875 147.703125 96.828125 C 147.839844 96.964844 148.015625 97.070312 148.226562 97.070312 L 153.894531 97.105469 Z M 153.894531 100.605469 " fill-opacity="1" fill-rule="nonzero"/></g><g clip-path="url(#5dfbe35216)"><path fill="#ffffff" d="M 171.070312 106.761719 L 170.578125 106.375 C 170.019531 105.957031 169.355469 105.78125 168.691406 105.886719 C 168.027344 105.992188 167.429688 106.339844 166.976562 106.902344 L 156.550781 122.046875 C 156.550781 122.082031 156.515625 122.082031 156.515625 122.117188 C 156.480469 122.152344 156.480469 122.152344 156.445312 122.1875 C 156.445312 122.1875 156.445312 122.222656 156.410156 122.222656 C 156.34375 122.292969 156.308594 122.363281 156.273438 122.46875 L 154.277344 128.730469 C 154.171875 129.011719 154.277344 129.324219 154.523438 129.5 C 154.664062 129.605469 154.804688 129.640625 154.941406 129.640625 C 155.082031 129.640625 155.222656 129.605469 155.328125 129.535156 L 160.785156 125.894531 C 160.890625 125.828125 160.996094 125.722656 161.03125 125.617188 C 161.066406 125.582031 161.132812 125.546875 161.167969 125.476562 L 171.558594 110.363281 C 172.398438 109.210938 172.1875 107.601562 171.070312 106.761719 Z M 157.707031 126.28125 L 156.761719 125.582031 L 157.425781 123.484375 C 157.460938 123.484375 157.53125 123.484375 157.566406 123.484375 C 157.601562 123.484375 157.671875 123.484375 157.671875 123.484375 L 157.707031 123.519531 C 157.707031 123.519531 157.742188 123.585938 157.742188 123.621094 C 157.8125 123.832031 157.882812 124.183594 158.300781 124.496094 C 158.722656 124.8125 159.070312 124.8125 159.28125 124.8125 C 159.316406 124.8125 159.386719 124.8125 159.386719 124.8125 L 159.421875 124.847656 C 159.421875 124.847656 159.457031 124.917969 159.457031 124.953125 C 159.457031 124.988281 159.492188 125.023438 159.492188 125.09375 Z M 156.308594 126.980469 L 156.445312 127.085938 L 156.203125 127.261719 Z M 160.503906 123.9375 C 160.433594 123.867188 160.363281 123.761719 160.261719 123.691406 C 159.839844 123.378906 159.492188 123.378906 159.28125 123.378906 C 159.246094 123.378906 159.175781 123.378906 159.175781 123.378906 L 159.140625 123.34375 C 159.140625 123.34375 159.105469 123.273438 159.105469 123.238281 C 159.035156 123.027344 158.964844 122.679688 158.546875 122.363281 C 158.40625 122.257812 158.300781 122.1875 158.160156 122.152344 L 165.820312 111.027344 L 168.132812 112.847656 Z M 170.441406 109.523438 L 168.933594 111.730469 L 166.625 109.910156 L 168.132812 107.742188 C 168.304688 107.496094 168.585938 107.320312 168.902344 107.285156 C 169.214844 107.25 169.496094 107.320312 169.738281 107.496094 L 170.230469 107.878906 C 170.71875 108.230469 170.824219 108.964844 170.441406 109.523438 Z M 170.441406 109.523438 " fill-opacity="1" fill-rule="nonzero"/></g><path fill="#ffffff" d="M 137.03125 113.339844 C 137.171875 113.476562 137.347656 113.546875 137.523438 113.546875 C 137.695312 113.546875 137.871094 113.476562 138.011719 113.339844 L 138.921875 112.429688 L 139.832031 113.339844 C 139.96875 113.476562 140.144531 113.546875 140.320312 113.546875 C 140.496094 113.546875 140.671875 113.476562 140.808594 113.339844 C 141.089844 113.058594 141.089844 112.636719 140.808594 112.359375 L 139.933594 111.449219 L 140.84375 110.539062 C 141.125 110.257812 141.125 109.839844 140.84375 109.558594 C 140.566406 109.28125 140.144531 109.28125 139.867188 109.558594 L 138.957031 110.46875 L 138.046875 109.558594 C 137.765625 109.28125 137.347656 109.28125 137.066406 109.558594 C 136.785156 109.839844 136.785156 110.257812 137.066406 110.539062 L 137.976562 111.449219 L 137.066406 112.359375 C 136.785156 112.636719 136.785156 113.058594 137.03125 113.339844 Z M 137.03125 113.339844 " fill-opacity="1" fill-rule="nonzero"/><path fill="#ffffff" d="M 151.339844 121.453125 C 151.058594 121.175781 150.640625 121.175781 150.359375 121.453125 L 149.449219 122.363281 L 148.539062 121.453125 C 148.261719 121.175781 147.839844 121.175781 147.5625 121.453125 C 147.28125 121.734375 147.28125 122.152344 147.5625 122.433594 L 148.472656 123.34375 L 147.5625 124.253906 C 147.28125 124.53125 147.28125 124.953125 147.5625 125.230469 C 147.703125 125.371094 147.875 125.441406 148.050781 125.441406 C 148.226562 125.441406 148.402344 125.371094 148.539062 125.230469 L 149.449219 124.320312 L 150.359375 125.230469 C 150.5 125.371094 150.675781 125.441406 150.851562 125.441406 C 151.023438 125.441406 151.199219 125.371094 151.339844 125.230469 C 151.621094 124.953125 151.621094 124.53125 151.339844 124.253906 L 150.429688 123.34375 L 151.339844 122.433594 C 151.585938 122.152344 151.585938 121.734375 151.339844 121.453125 Z M 151.339844 121.453125 " fill-opacity="1" fill-rule="nonzero"/><path fill="#ffffff" d="M 143.574219 119.039062 C 146.230469 117.289062 149.242188 115.332031 148.679688 109.734375 L 149.554688 110.503906 C 149.695312 110.609375 149.835938 110.679688 150.011719 110.679688 C 150.21875 110.679688 150.394531 110.609375 150.535156 110.433594 C 150.78125 110.15625 150.746094 109.699219 150.464844 109.453125 L 148.226562 107.496094 C 148.15625 107.425781 148.085938 107.390625 148.015625 107.355469 C 147.910156 107.320312 147.804688 107.285156 147.703125 107.320312 C 147.597656 107.320312 147.492188 107.355469 147.386719 107.425781 C 147.316406 107.460938 147.246094 107.496094 147.210938 107.566406 L 145.253906 109.804688 C 145.007812 110.085938 145.042969 110.539062 145.324219 110.785156 C 145.460938 110.890625 145.601562 110.960938 145.777344 110.960938 C 145.988281 110.960938 146.164062 110.890625 146.300781 110.714844 L 147.210938 109.664062 C 147.769531 114.5625 145.425781 116.101562 142.734375 117.851562 C 140.25 119.496094 137.417969 121.347656 137.695312 126.210938 C 136.753906 126.5625 136.050781 127.503906 136.050781 128.589844 C 136.050781 129.953125 137.136719 131.039062 138.5 131.039062 C 139.867188 131.039062 140.949219 129.953125 140.949219 128.589844 C 140.949219 127.46875 140.179688 126.527344 139.164062 126.246094 C 138.921875 122.117188 141.089844 120.683594 143.574219 119.039062 Z M 139.550781 128.589844 C 139.550781 129.183594 139.097656 129.640625 138.5 129.640625 C 137.90625 129.640625 137.453125 129.183594 137.453125 128.589844 C 137.453125 127.996094 137.90625 127.539062 138.5 127.539062 C 139.097656 127.539062 139.550781 127.996094 139.550781 128.589844 Z M 139.550781 128.589844 " fill-opacity="1" fill-rule="nonzero"/><path fill="#ffffff" d="M 153.195312 107.601562 C 153.195312 108.964844 154.277344 110.050781 155.640625 110.050781 C 157.007812 110.050781 158.089844 108.964844 158.089844 107.601562 C 158.089844 106.238281 157.007812 105.152344 155.640625 105.152344 C 154.277344 105.152344 153.195312 106.238281 153.195312 107.601562 Z M 156.691406 107.601562 C 156.691406 108.195312 156.238281 108.648438 155.640625 108.648438 C 155.046875 108.648438 154.59375 108.195312 154.59375 107.601562 C 154.59375 107.007812 155.046875 106.550781 155.640625 106.550781 C 156.238281 106.550781 156.691406 107.007812 156.691406 107.601562 Z M 156.691406 107.601562 " fill-opacity="1" fill-rule="nonzero"/><g fill="#000000" fill-opacity="1"><g transform="translate(39.533432, 257.142434)"><g><path d="M 10.921875 -1.671875 C 10.492188 -1.054688 9.890625 -0.59375 9.109375 -0.28125 C 8.335938 0.0195312 7.4375 0.171875 6.40625 0.171875 C 5.363281 0.171875 4.4375 -0.0703125 3.625 -0.5625 C 2.820312 -1.050781 2.195312 -1.742188 1.75 -2.640625 C 1.3125 -3.546875 1.085938 -4.59375 1.078125 -5.78125 L 1.078125 -6.890625 C 1.078125 -8.816406 1.523438 -10.3125 2.421875 -11.375 C 3.316406 -12.4375 4.578125 -12.96875 6.203125 -12.96875 C 7.535156 -12.96875 8.609375 -12.625 9.421875 -11.9375 C 10.242188 -11.257812 10.742188 -10.289062 10.921875 -9.03125 L 9.234375 -9.03125 C 8.921875 -10.726562 7.914062 -11.578125 6.21875 -11.578125 C 5.082031 -11.578125 4.222656 -11.175781 3.640625 -10.375 C 3.066406 -9.582031 2.773438 -8.4375 2.765625 -6.9375 L 2.765625 -5.890625 C 2.765625 -4.453125 3.09375 -3.3125 3.75 -2.46875 C 4.40625 -1.625 5.289062 -1.203125 6.40625 -1.203125 C 7.039062 -1.203125 7.59375 -1.269531 8.0625 -1.40625 C 8.539062 -1.550781 8.9375 -1.789062 9.25 -2.125 L 9.25 -5 L 6.28125 -5 L 6.28125 -6.359375 L 10.921875 -6.359375 Z M 10.921875 -1.671875 "/></g></g><g transform="translate(51.787634, 257.142434)"><g><path d="M 5.171875 0.171875 C 3.878906 0.171875 2.828125 -0.25 2.015625 -1.09375 C 1.210938 -1.9375 0.8125 -3.066406 0.8125 -4.484375 L 0.8125 -4.78125 C 0.8125 -5.726562 0.988281 -6.570312 1.34375 -7.3125 C 1.707031 -8.050781 2.210938 -8.628906 2.859375 -9.046875 C 3.515625 -9.460938 4.21875 -9.671875 4.96875 -9.671875 C 6.207031 -9.671875 7.164062 -9.265625 7.84375 -8.453125 C 8.53125 -7.640625 8.875 -6.476562 8.875 -4.96875 L 8.875 -4.28125 L 2.4375 -4.28125 C 2.457031 -3.34375 2.726562 -2.585938 3.25 -2.015625 C 3.78125 -1.441406 4.453125 -1.15625 5.265625 -1.15625 C 5.835938 -1.15625 6.320312 -1.269531 6.71875 -1.5 C 7.113281 -1.738281 7.460938 -2.050781 7.765625 -2.4375 L 8.75 -1.65625 C 7.957031 -0.4375 6.765625 0.171875 5.171875 0.171875 Z M 4.96875 -8.34375 C 4.3125 -8.34375 3.757812 -8.101562 3.3125 -7.625 C 2.875 -7.144531 2.601562 -6.476562 2.5 -5.625 L 7.25 -5.625 L 7.25 -5.75 C 7.207031 -6.570312 6.984375 -7.207031 6.578125 -7.65625 C 6.179688 -8.113281 5.644531 -8.34375 4.96875 -8.34375 Z M 4.96875 -8.34375 "/></g></g><g transform="translate(61.31868, 257.142434)"><g><path d="M 3.4375 -11.796875 L 3.4375 -9.5 L 5.203125 -9.5 L 5.203125 -8.25 L 3.4375 -8.25 L 3.4375 -2.359375 C 3.4375 -1.972656 3.515625 -1.6875 3.671875 -1.5 C 3.828125 -1.3125 4.097656 -1.21875 4.484375 -1.21875 C 4.671875 -1.21875 4.925781 -1.25 5.25 -1.3125 L 5.25 0 C 4.820312 0.113281 4.40625 0.171875 4 0.171875 C 3.28125 0.171875 2.734375 -0.046875 2.359375 -0.484375 C 1.992188 -0.921875 1.8125 -1.546875 1.8125 -2.359375 L 1.8125 -8.25 L 0.078125 -8.25 L 0.078125 -9.5 L 1.8125 -9.5 L 1.8125 -11.796875 Z M 3.4375 -11.796875 "/></g></g><g transform="translate(67.195427, 257.142434)"><g/></g><g transform="translate(71.649104, 257.142434)"><g><path d="M 7.09375 0 C 7 -0.1875 6.921875 -0.519531 6.859375 -1 C 6.109375 -0.21875 5.207031 0.171875 4.15625 0.171875 C 3.21875 0.171875 2.445312 -0.0859375 1.84375 -0.609375 C 1.25 -1.140625 0.953125 -1.816406 0.953125 -2.640625 C 0.953125 -3.628906 1.328125 -4.394531 2.078125 -4.9375 C 2.835938 -5.488281 3.898438 -5.765625 5.265625 -5.765625 L 6.84375 -5.765625 L 6.84375 -6.5 C 6.84375 -7.070312 6.671875 -7.523438 6.328125 -7.859375 C 5.992188 -8.203125 5.492188 -8.375 4.828125 -8.375 C 4.242188 -8.375 3.753906 -8.222656 3.359375 -7.921875 C 2.972656 -7.628906 2.78125 -7.273438 2.78125 -6.859375 L 1.15625 -6.859375 C 1.15625 -7.335938 1.320312 -7.796875 1.65625 -8.234375 C 1.988281 -8.679688 2.441406 -9.03125 3.015625 -9.28125 C 3.597656 -9.539062 4.234375 -9.671875 4.921875 -9.671875 C 6.015625 -9.671875 6.875 -9.394531 7.5 -8.84375 C 8.125 -8.300781 8.445312 -7.550781 8.46875 -6.59375 L 8.46875 -2.21875 C 8.46875 -1.34375 8.578125 -0.648438 8.796875 -0.140625 L 8.796875 0 Z M 4.40625 -1.234375 C 4.90625 -1.234375 5.382812 -1.363281 5.84375 -1.625 C 6.300781 -1.894531 6.632812 -2.238281 6.84375 -2.65625 L 6.84375 -4.609375 L 5.5625 -4.609375 C 3.570312 -4.609375 2.578125 -4.023438 2.578125 -2.859375 C 2.578125 -2.347656 2.742188 -1.945312 3.078125 -1.65625 C 3.421875 -1.375 3.863281 -1.234375 4.40625 -1.234375 Z M 4.40625 -1.234375 "/></g></g><g transform="translate(81.434897, 257.142434)"><g/></g><g transform="translate(85.888575, 257.142434)"><g><path d="M 6.765625 -2.515625 C 6.765625 -2.953125 6.597656 -3.289062 6.265625 -3.53125 C 5.929688 -3.78125 5.351562 -3.992188 4.53125 -4.171875 C 3.707031 -4.347656 3.054688 -4.554688 2.578125 -4.796875 C 2.097656 -5.046875 1.738281 -5.335938 1.5 -5.671875 C 1.269531 -6.015625 1.15625 -6.421875 1.15625 -6.890625 C 1.15625 -7.671875 1.484375 -8.328125 2.140625 -8.859375 C 2.804688 -9.398438 3.648438 -9.671875 4.671875 -9.671875 C 5.742188 -9.671875 6.613281 -9.394531 7.28125 -8.84375 C 7.957031 -8.289062 8.296875 -7.578125 8.296875 -6.703125 L 6.671875 -6.703125 C 6.671875 -7.148438 6.476562 -7.535156 6.09375 -7.859375 C 5.71875 -8.179688 5.242188 -8.34375 4.671875 -8.34375 C 4.078125 -8.34375 3.613281 -8.210938 3.28125 -7.953125 C 2.945312 -7.691406 2.78125 -7.359375 2.78125 -6.953125 C 2.78125 -6.554688 2.9375 -6.257812 3.25 -6.0625 C 3.5625 -5.863281 4.117188 -5.671875 4.921875 -5.484375 C 5.734375 -5.304688 6.390625 -5.09375 6.890625 -4.84375 C 7.398438 -4.59375 7.773438 -4.285156 8.015625 -3.921875 C 8.265625 -3.566406 8.390625 -3.140625 8.390625 -2.640625 C 8.390625 -1.785156 8.046875 -1.101562 7.359375 -0.59375 C 6.679688 -0.0820312 5.800781 0.171875 4.71875 0.171875 C 3.957031 0.171875 3.285156 0.0390625 2.703125 -0.21875 C 2.117188 -0.488281 1.660156 -0.863281 1.328125 -1.34375 C 0.992188 -1.832031 0.828125 -2.359375 0.828125 -2.921875 L 2.453125 -2.921875 C 2.484375 -2.378906 2.703125 -1.945312 3.109375 -1.625 C 3.515625 -1.3125 4.050781 -1.15625 4.71875 -1.15625 C 5.332031 -1.15625 5.828125 -1.273438 6.203125 -1.515625 C 6.578125 -1.765625 6.765625 -2.097656 6.765625 -2.515625 Z M 6.765625 -2.515625 "/></g></g><g transform="translate(95.164874, 257.142434)"><g><path d="M 2.75 -9.5 L 2.796875 -8.453125 C 3.492188 -9.265625 4.4375 -9.671875 5.625 -9.671875 C 6.945312 -9.671875 7.847656 -9.164062 8.328125 -8.15625 C 8.648438 -8.601562 9.0625 -8.96875 9.5625 -9.25 C 10.070312 -9.53125 10.671875 -9.671875 11.359375 -9.671875 C 13.441406 -9.671875 14.503906 -8.566406 14.546875 -6.359375 L 14.546875 0 L 12.921875 0 L 12.921875 -6.265625 C 12.921875 -6.941406 12.765625 -7.445312 12.453125 -7.78125 C 12.140625 -8.125 11.617188 -8.296875 10.890625 -8.296875 C 10.285156 -8.296875 9.785156 -8.113281 9.390625 -7.75 C 8.992188 -7.394531 8.757812 -6.914062 8.6875 -6.3125 L 8.6875 0 L 7.0625 0 L 7.0625 -6.21875 C 7.0625 -7.601562 6.382812 -8.296875 5.03125 -8.296875 C 3.96875 -8.296875 3.238281 -7.84375 2.84375 -6.9375 L 2.84375 0 L 1.21875 0 L 1.21875 -9.5 Z M 2.75 -9.5 "/></g></g><g transform="translate(110.932826, 257.142434)"><g><path d="M 7.09375 0 C 7 -0.1875 6.921875 -0.519531 6.859375 -1 C 6.109375 -0.21875 5.207031 0.171875 4.15625 0.171875 C 3.21875 0.171875 2.445312 -0.0859375 1.84375 -0.609375 C 1.25 -1.140625 0.953125 -1.816406 0.953125 -2.640625 C 0.953125 -3.628906 1.328125 -4.394531 2.078125 -4.9375 C 2.835938 -5.488281 3.898438 -5.765625 5.265625 -5.765625 L 6.84375 -5.765625 L 6.84375 -6.5 C 6.84375 -7.070312 6.671875 -7.523438 6.328125 -7.859375 C 5.992188 -8.203125 5.492188 -8.375 4.828125 -8.375 C 4.242188 -8.375 3.753906 -8.222656 3.359375 -7.921875 C 2.972656 -7.628906 2.78125 -7.273438 2.78125 -6.859375 L 1.15625 -6.859375 C 1.15625 -7.335938 1.320312 -7.796875 1.65625 -8.234375 C 1.988281 -8.679688 2.441406 -9.03125 3.015625 -9.28125 C 3.597656 -9.539062 4.234375 -9.671875 4.921875 -9.671875 C 6.015625 -9.671875 6.875 -9.394531 7.5 -8.84375 C 8.125 -8.300781 8.445312 -7.550781 8.46875 -6.59375 L 8.46875 -2.21875 C 8.46875 -1.34375 8.578125 -0.648438 8.796875 -0.140625 L 8.796875 0 Z M 4.40625 -1.234375 C 4.90625 -1.234375 5.382812 -1.363281 5.84375 -1.625 C 6.300781 -1.894531 6.632812 -2.238281 6.84375 -2.65625 L 6.84375 -4.609375 L 5.5625 -4.609375 C 3.570312 -4.609375 2.578125 -4.023438 2.578125 -2.859375 C 2.578125 -2.347656 2.742188 -1.945312 3.078125 -1.65625 C 3.421875 -1.375 3.863281 -1.234375 4.40625 -1.234375 Z M 4.40625 -1.234375 "/></g></g><g transform="translate(120.718619, 257.142434)"><g><path d="M 5.828125 -8.046875 C 5.578125 -8.085938 5.304688 -8.109375 5.015625 -8.109375 C 3.953125 -8.109375 3.234375 -7.65625 2.859375 -6.75 L 2.859375 0 L 1.234375 0 L 1.234375 -9.5 L 2.8125 -9.5 L 2.84375 -8.40625 C 3.375 -9.25 4.128906 -9.671875 5.109375 -9.671875 C 5.421875 -9.671875 5.660156 -9.628906 5.828125 -9.546875 Z M 5.828125 -8.046875 "/></g></g><g transform="translate(126.80619, 257.142434)"><g><path d="M 3.4375 -11.796875 L 3.4375 -9.5 L 5.203125 -9.5 L 5.203125 -8.25 L 3.4375 -8.25 L 3.4375 -2.359375 C 3.4375 -1.972656 3.515625 -1.6875 3.671875 -1.5 C 3.828125 -1.3125 4.097656 -1.21875 4.484375 -1.21875 C 4.671875 -1.21875 4.925781 -1.25 5.25 -1.3125 L 5.25 0 C 4.820312 0.113281 4.40625 0.171875 4 0.171875 C 3.28125 0.171875 2.734375 -0.046875 2.359375 -0.484375 C 1.992188 -0.921875 1.8125 -1.546875 1.8125 -2.359375 L 1.8125 -8.25 L 0.078125 -8.25 L 0.078125 -9.5 L 1.8125 -9.5 L 1.8125 -11.796875 Z M 3.4375 -11.796875 "/></g></g><g transform="translate(132.682936, 257.142434)"><g/></g><g transform="translate(137.136614, 257.142434)"><g><path d="M 6.765625 -2.515625 C 6.765625 -2.953125 6.597656 -3.289062 6.265625 -3.53125 C 5.929688 -3.78125 5.351562 -3.992188 4.53125 -4.171875 C 3.707031 -4.347656 3.054688 -4.554688 2.578125 -4.796875 C 2.097656 -5.046875 1.738281 -5.335938 1.5 -5.671875 C 1.269531 -6.015625 1.15625 -6.421875 1.15625 -6.890625 C 1.15625 -7.671875 1.484375 -8.328125 2.140625 -8.859375 C 2.804688 -9.398438 3.648438 -9.671875 4.671875 -9.671875 C 5.742188 -9.671875 6.613281 -9.394531 7.28125 -8.84375 C 7.957031 -8.289062 8.296875 -7.578125 8.296875 -6.703125 L 6.671875 -6.703125 C 6.671875 -7.148438 6.476562 -7.535156 6.09375 -7.859375 C 5.71875 -8.179688 5.242188 -8.34375 4.671875 -8.34375 C 4.078125 -8.34375 3.613281 -8.210938 3.28125 -7.953125 C 2.945312 -7.691406 2.78125 -7.359375 2.78125 -6.953125 C 2.78125 -6.554688 2.9375 -6.257812 3.25 -6.0625 C 3.5625 -5.863281 4.117188 -5.671875 4.921875 -5.484375 C 5.734375 -5.304688 6.390625 -5.09375 6.890625 -4.84375 C 7.398438 -4.59375 7.773438 -4.285156 8.015625 -3.921875 C 8.265625 -3.566406 8.390625 -3.140625 8.390625 -2.640625 C 8.390625 -1.785156 8.046875 -1.101562 7.359375 -0.59375 C 6.679688 -0.0820312 5.800781 0.171875 4.71875 0.171875 C 3.957031 0.171875 3.285156 0.0390625 2.703125 -0.21875 C 2.117188 -0.488281 1.660156 -0.863281 1.328125 -1.34375 C 0.992188 -1.832031 0.828125 -2.359375 0.828125 -2.921875 L 2.453125 -2.921875 C 2.484375 -2.378906 2.703125 -1.945312 3.109375 -1.625 C 3.515625 -1.3125 4.050781 -1.15625 4.71875 -1.15625 C 5.332031 -1.15625 5.828125 -1.273438 6.203125 -1.515625 C 6.578125 -1.765625 6.765625 -2.097656 6.765625 -2.515625 Z M 6.765625 -2.515625 "/></g></g><g transform="translate(146.412913, 257.142434)"><g><path d="M 3.4375 -11.796875 L 3.4375 -9.5 L 5.203125 -9.5 L 5.203125 -8.25 L 3.4375 -8.25 L 3.4375 -2.359375 C 3.4375 -1.972656 3.515625 -1.6875 3.671875 -1.5 C 3.828125 -1.3125 4.097656 -1.21875 4.484375 -1.21875 C 4.671875 -1.21875 4.925781 -1.25 5.25 -1.3125 L 5.25 0 C 4.820312 0.113281 4.40625 0.171875 4 0.171875 C 3.28125 0.171875 2.734375 -0.046875 2.359375 -0.484375 C 1.992188 -0.921875 1.8125 -1.546875 1.8125 -2.359375 L 1.8125 -8.25 L 0.078125 -8.25 L 0.078125 -9.5 L 1.8125 -9.5 L 1.8125 -11.796875 Z M 3.4375 -11.796875 "/></g></g><g transform="translate(152.28966, 257.142434)"><g><path d="M 7.09375 -0.9375 C 6.457031 -0.195312 5.53125 0.171875 4.3125 0.171875 C 3.300781 0.171875 2.53125 -0.117188 2 -0.703125 C 1.46875 -1.296875 1.195312 -2.164062 1.1875 -3.3125 L 1.1875 -9.5 L 2.8125 -9.5 L 2.8125 -3.359375 C 2.8125 -1.921875 3.398438 -1.203125 4.578125 -1.203125 C 5.816406 -1.203125 6.640625 -1.664062 7.046875 -2.59375 L 7.046875 -9.5 L 8.671875 -9.5 L 8.671875 0 L 7.125 0 Z M 7.09375 -0.9375 "/></g></g><g transform="translate(162.207218, 257.142434)"><g><path d="M 0.828125 -4.828125 C 0.828125 -6.285156 1.171875 -7.457031 1.859375 -8.34375 C 2.554688 -9.226562 3.460938 -9.671875 4.578125 -9.671875 C 5.691406 -9.671875 6.578125 -9.289062 7.234375 -8.53125 L 7.234375 -13.484375 L 8.859375 -13.484375 L 8.859375 0 L 7.359375 0 L 7.28125 -1.015625 C 6.632812 -0.222656 5.726562 0.171875 4.5625 0.171875 C 3.46875 0.171875 2.570312 -0.273438 1.875 -1.171875 C 1.175781 -2.078125 0.828125 -3.253906 0.828125 -4.703125 Z M 2.453125 -4.640625 C 2.453125 -3.566406 2.675781 -2.722656 3.125 -2.109375 C 3.570312 -1.503906 4.1875 -1.203125 4.96875 -1.203125 C 6 -1.203125 6.753906 -1.664062 7.234375 -2.59375 L 7.234375 -6.953125 C 6.742188 -7.847656 5.992188 -8.296875 4.984375 -8.296875 C 4.191406 -8.296875 3.570312 -7.988281 3.125 -7.375 C 2.675781 -6.757812 2.453125 -5.847656 2.453125 -4.640625 Z M 2.453125 -4.640625 "/></g></g><g transform="translate(172.35317, 257.142434)"><g><path d="M 4.34375 -2.375 L 6.546875 -9.5 L 8.296875 -9.5 L 4.46875 1.46875 C 3.875 3.050781 2.9375 3.84375 1.65625 3.84375 L 1.34375 3.8125 L 0.734375 3.703125 L 0.734375 2.375 L 1.171875 2.421875 C 1.722656 2.421875 2.148438 2.304688 2.453125 2.078125 C 2.765625 1.859375 3.019531 1.453125 3.21875 0.859375 L 3.578125 -0.109375 L 0.1875 -9.5 L 1.96875 -9.5 Z M 4.34375 -2.375 "/></g></g></g><g fill="#000000" fill-opacity="1"><g transform="translate(180.868157, 257.142434)"><g/></g></g><g fill="#ffffff" fill-opacity="0.4"><g transform="translate(85.929424, 91.745121)"><g><path d="M -0.609375 -6.828125 L 3.109375 -3.109375 L 0.9375 -0.9375 L -9.609375 -11.484375 L -5.484375 -15.609375 C -4.691406 -16.398438 -3.847656 -16.945312 -2.953125 -17.25 C -2.066406 -17.5625 -1.195312 -17.613281 -0.34375 -17.40625 C 0.507812 -17.195312 1.273438 -16.753906 1.953125 -16.078125 C 2.992188 -15.035156 3.457031 -13.863281 3.34375 -12.5625 C 3.226562 -11.257812 2.546875 -9.984375 1.296875 -8.734375 Z M -2.375 -8.59375 L -0.421875 -10.546875 C 0.148438 -11.117188 0.453125 -11.6875 0.484375 -12.25 C 0.523438 -12.820312 0.296875 -13.359375 -0.203125 -13.859375 C -0.734375 -14.390625 -1.304688 -14.65625 -1.921875 -14.65625 C -2.546875 -14.664062 -3.128906 -14.410156 -3.671875 -13.890625 L -5.671875 -11.890625 Z M -2.375 -8.59375 "/></g></g><g transform="translate(95.502366, 82.172179)"><g><path d="M 1.359375 -4.859375 L 5.984375 -9.484375 L 7.734375 -7.734375 L 0.9375 -0.9375 L -9.609375 -11.484375 L -7.4375 -13.65625 Z M 1.359375 -4.859375 "/></g></g><g transform="translate(103.539, 74.135545)"><g><path d="M 4.71875 -9.0625 L 0.90625 -5.25 L 2.359375 -2.359375 L 0.0625 -0.0625 L -6.5625 -14.53125 L -4.5625 -16.53125 L 9.9375 -9.9375 L 7.640625 -7.640625 Z M -0.265625 -7.609375 L 2.375 -10.25 L -2.890625 -12.859375 Z M -0.265625 -7.609375 "/></g></g><g transform="translate(113.525006, 64.149539)"><g><path d="M 9.53125 -9.53125 L 7.34375 -7.34375 L -3.828125 -10.046875 L 3.109375 -3.109375 L 0.9375 -0.9375 L -9.609375 -11.484375 L -7.4375 -13.65625 L 3.765625 -10.953125 L -3.1875 -17.90625 L -1.015625 -20.078125 Z M 9.53125 -9.53125 "/></g></g></g><g fill="#5170ff" fill-opacity="1"><g transform="translate(84.617624, 91.745121)"><g><path d="M -0.609375 -6.828125 L 3.109375 -3.109375 L 0.9375 -0.9375 L -9.609375 -11.484375 L -5.484375 -15.609375 C -4.691406 -16.398438 -3.847656 -16.945312 -2.953125 -17.25 C -2.066406 -17.5625 -1.195312 -17.613281 -0.34375 -17.40625 C 0.507812 -17.195312 1.273438 -16.753906 1.953125 -16.078125 C 2.992188 -15.035156 3.457031 -13.863281 3.34375 -12.5625 C 3.226562 -11.257812 2.546875 -9.984375 1.296875 -8.734375 Z M -2.375 -8.59375 L -0.421875 -10.546875 C 0.148438 -11.117188 0.453125 -11.6875 0.484375 -12.25 C 0.523438 -12.820312 0.296875 -13.359375 -0.203125 -13.859375 C -0.734375 -14.390625 -1.304688 -14.65625 -1.921875 -14.65625 C -2.546875 -14.664062 -3.128906 -14.410156 -3.671875 -13.890625 L -5.671875 -11.890625 Z M -2.375 -8.59375 "/></g></g><g transform="translate(94.190566, 82.172179)"><g><path d="M 1.359375 -4.859375 L 5.984375 -9.484375 L 7.734375 -7.734375 L 0.9375 -0.9375 L -9.609375 -11.484375 L -7.4375 -13.65625 Z M 1.359375 -4.859375 "/></g></g><g transform="translate(102.2272, 74.135545)"><g><path d="M 4.71875 -9.0625 L 0.90625 -5.25 L 2.359375 -2.359375 L 0.0625 -0.0625 L -6.5625 -14.53125 L -4.5625 -16.53125 L 9.9375 -9.9375 L 7.640625 -7.640625 Z M -0.265625 -7.609375 L 2.375 -10.25 L -2.890625 -12.859375 Z M -0.265625 -7.609375 "/></g></g><g transform="translate(112.213206, 64.149539)"><g><path d="M 9.53125 -9.53125 L 7.34375 -7.34375 L -3.828125 -10.046875 L 3.109375 -3.109375 L 0.9375 -0.9375 L -9.609375 -11.484375 L -7.4375 -13.65625 L 3.765625 -10.953125 L -3.1875 -17.90625 L -1.015625 -20.078125 Z M 9.53125 -9.53125 "/></g></g></g><g fill="#5170ff" fill-opacity="1"><g transform="translate(14.570349, 295.971697)"><g><path d="M 4.40625 -5.25 L 4.40625 0 L 1.328125 0 L 1.328125 -14.921875 L 7.15625 -14.921875 C 8.269531 -14.921875 9.253906 -14.710938 10.109375 -14.296875 C 10.960938 -13.890625 11.613281 -13.304688 12.0625 -12.546875 C 12.519531 -11.796875 12.75 -10.941406 12.75 -9.984375 C 12.75 -8.515625 12.25 -7.359375 11.25 -6.515625 C 10.25 -5.671875 8.863281 -5.25 7.09375 -5.25 Z M 4.40625 -7.75 L 7.15625 -7.75 C 7.96875 -7.75 8.585938 -7.9375 9.015625 -8.3125 C 9.441406 -8.695312 9.65625 -9.242188 9.65625 -9.953125 C 9.65625 -10.691406 9.4375 -11.285156 9 -11.734375 C 8.570312 -12.179688 7.976562 -12.410156 7.21875 -12.421875 L 4.40625 -12.421875 Z M 4.40625 -7.75 "/></g></g><g transform="translate(28.108533, 295.971697)"><g><path d="M 4.265625 0 L 1.296875 0 L 1.296875 -15.734375 L 4.265625 -15.734375 Z M 4.265625 0 "/></g></g><g transform="translate(33.673435, 295.971697)"><g><path d="M 7.5625 0 C 7.425781 -0.269531 7.328125 -0.601562 7.265625 -1 C 6.546875 -0.195312 5.613281 0.203125 4.46875 0.203125 C 3.382812 0.203125 2.484375 -0.109375 1.765625 -0.734375 C 1.054688 -1.367188 0.703125 -2.160156 0.703125 -3.109375 C 0.703125 -4.285156 1.132812 -5.1875 2 -5.8125 C 2.875 -6.445312 4.132812 -6.765625 5.78125 -6.765625 L 7.140625 -6.765625 L 7.140625 -7.40625 C 7.140625 -7.914062 7.007812 -8.320312 6.75 -8.625 C 6.488281 -8.9375 6.070312 -9.09375 5.5 -9.09375 C 5 -9.09375 4.609375 -8.972656 4.328125 -8.734375 C 4.046875 -8.492188 3.90625 -8.164062 3.90625 -7.75 L 0.9375 -7.75 C 0.9375 -8.394531 1.132812 -8.988281 1.53125 -9.53125 C 1.925781 -10.082031 2.484375 -10.515625 3.203125 -10.828125 C 3.929688 -11.140625 4.75 -11.296875 5.65625 -11.296875 C 7.019531 -11.296875 8.101562 -10.953125 8.90625 -10.265625 C 9.707031 -9.578125 10.109375 -8.609375 10.109375 -7.359375 L 10.109375 -2.5625 C 10.117188 -1.507812 10.265625 -0.710938 10.546875 -0.171875 L 10.546875 0 Z M 5.109375 -2.0625 C 5.546875 -2.0625 5.945312 -2.15625 6.3125 -2.34375 C 6.6875 -2.539062 6.960938 -2.804688 7.140625 -3.140625 L 7.140625 -5.046875 L 6.03125 -5.046875 C 4.550781 -5.046875 3.765625 -4.53125 3.671875 -3.5 L 3.65625 -3.328125 C 3.65625 -2.960938 3.785156 -2.660156 4.046875 -2.421875 C 4.304688 -2.179688 4.660156 -2.0625 5.109375 -2.0625 Z M 5.109375 -2.0625 "/></g></g><g transform="translate(44.926218, 295.971697)"><g><path d="M 3.859375 -11.09375 L 3.953125 -9.8125 C 4.742188 -10.800781 5.804688 -11.296875 7.140625 -11.296875 C 8.316406 -11.296875 9.191406 -10.945312 9.765625 -10.25 C 10.335938 -9.5625 10.628906 -8.53125 10.640625 -7.15625 L 10.640625 0 L 7.6875 0 L 7.6875 -7.09375 C 7.6875 -7.71875 7.546875 -8.171875 7.265625 -8.453125 C 6.992188 -8.742188 6.539062 -8.890625 5.90625 -8.890625 C 5.070312 -8.890625 4.445312 -8.53125 4.03125 -7.8125 L 4.03125 0 L 1.078125 0 L 1.078125 -11.09375 Z M 3.859375 -11.09375 "/></g></g><g transform="translate(56.681175, 295.971697)"><g/></g></g><g fill="#5170ff" fill-opacity="1"><g transform="translate(61.292971, 295.971697)"><g><path d="M 12.5625 -12.421875 L 7.984375 -12.421875 L 7.984375 0 L 4.921875 0 L 4.921875 -12.421875 L 0.40625 -12.421875 L 0.40625 -14.921875 L 12.5625 -14.921875 Z M 12.5625 -12.421875 "/></g></g></g><g fill="#5170ff" fill-opacity="1"><g transform="translate(72.556003, 295.971697)"><g><path d="M 7.5625 0 C 7.425781 -0.269531 7.328125 -0.601562 7.265625 -1 C 6.546875 -0.195312 5.613281 0.203125 4.46875 0.203125 C 3.382812 0.203125 2.484375 -0.109375 1.765625 -0.734375 C 1.054688 -1.367188 0.703125 -2.160156 0.703125 -3.109375 C 0.703125 -4.285156 1.132812 -5.1875 2 -5.8125 C 2.875 -6.445312 4.132812 -6.765625 5.78125 -6.765625 L 7.140625 -6.765625 L 7.140625 -7.40625 C 7.140625 -7.914062 7.007812 -8.320312 6.75 -8.625 C 6.488281 -8.9375 6.070312 -9.09375 5.5 -9.09375 C 5 -9.09375 4.609375 -8.972656 4.328125 -8.734375 C 4.046875 -8.492188 3.90625 -8.164062 3.90625 -7.75 L 0.9375 -7.75 C 0.9375 -8.394531 1.132812 -8.988281 1.53125 -9.53125 C 1.925781 -10.082031 2.484375 -10.515625 3.203125 -10.828125 C 3.929688 -11.140625 4.75 -11.296875 5.65625 -11.296875 C 7.019531 -11.296875 8.101562 -10.953125 8.90625 -10.265625 C 9.707031 -9.578125 10.109375 -8.609375 10.109375 -7.359375 L 10.109375 -2.5625 C 10.117188 -1.507812 10.265625 -0.710938 10.546875 -0.171875 L 10.546875 0 Z M 5.109375 -2.0625 C 5.546875 -2.0625 5.945312 -2.15625 6.3125 -2.34375 C 6.6875 -2.539062 6.960938 -2.804688 7.140625 -3.140625 L 7.140625 -5.046875 L 6.03125 -5.046875 C 4.550781 -5.046875 3.765625 -4.53125 3.671875 -3.5 L 3.65625 -3.328125 C 3.65625 -2.960938 3.785156 -2.660156 4.046875 -2.421875 C 4.304688 -2.179688 4.660156 -2.0625 5.109375 -2.0625 Z M 5.109375 -2.0625 "/></g></g><g transform="translate(83.808786, 295.971697)"><g><path d="M 4.265625 0 L 1.296875 0 L 1.296875 -11.09375 L 4.265625 -11.09375 Z M 1.109375 -13.953125 C 1.109375 -14.398438 1.257812 -14.765625 1.5625 -15.046875 C 1.863281 -15.335938 2.269531 -15.484375 2.78125 -15.484375 C 3.28125 -15.484375 3.679688 -15.335938 3.984375 -15.046875 C 4.285156 -14.765625 4.4375 -14.398438 4.4375 -13.953125 C 4.4375 -13.503906 4.285156 -13.132812 3.984375 -12.84375 C 3.679688 -12.5625 3.28125 -12.421875 2.78125 -12.421875 C 2.28125 -12.421875 1.875 -12.5625 1.5625 -12.84375 C 1.257812 -13.132812 1.109375 -13.503906 1.109375 -13.953125 Z M 1.109375 -13.953125 "/></g></g><g transform="translate(89.373687, 295.971697)"><g><path d="M 4.265625 0 L 1.296875 0 L 1.296875 -15.734375 L 4.265625 -15.734375 Z M 4.265625 0 "/></g></g><g transform="translate(94.938589, 295.971697)"><g><path d="M 0.671875 -5.640625 C 0.671875 -6.742188 0.882812 -7.722656 1.3125 -8.578125 C 1.738281 -9.441406 2.347656 -10.109375 3.140625 -10.578125 C 3.929688 -11.054688 4.851562 -11.296875 5.90625 -11.296875 C 7.40625 -11.296875 8.628906 -10.835938 9.578125 -9.921875 C 10.523438 -9.003906 11.050781 -7.757812 11.15625 -6.1875 L 11.171875 -5.4375 C 11.171875 -3.726562 10.695312 -2.359375 9.75 -1.328125 C 8.800781 -0.304688 7.523438 0.203125 5.921875 0.203125 C 4.328125 0.203125 3.050781 -0.304688 2.09375 -1.328125 C 1.144531 -2.359375 0.671875 -3.753906 0.671875 -5.515625 Z M 3.640625 -5.4375 C 3.640625 -4.382812 3.835938 -3.578125 4.234375 -3.015625 C 4.628906 -2.460938 5.195312 -2.1875 5.9375 -2.1875 C 6.65625 -2.1875 7.210938 -2.457031 7.609375 -3 C 8.015625 -3.550781 8.21875 -4.429688 8.21875 -5.640625 C 8.21875 -6.671875 8.015625 -7.46875 7.609375 -8.03125 C 7.210938 -8.601562 6.644531 -8.890625 5.90625 -8.890625 C 5.1875 -8.890625 4.628906 -8.609375 4.234375 -8.046875 C 3.835938 -7.484375 3.640625 -6.613281 3.640625 -5.4375 Z M 3.640625 -5.4375 "/></g></g><g transform="translate(106.806278, 295.971697)"><g><path d="M 7.359375 -8.3125 C 6.960938 -8.363281 6.609375 -8.390625 6.296875 -8.390625 C 5.179688 -8.390625 4.445312 -8.007812 4.09375 -7.25 L 4.09375 0 L 1.140625 0 L 1.140625 -11.09375 L 3.9375 -11.09375 L 4.015625 -9.765625 C 4.609375 -10.785156 5.429688 -11.296875 6.484375 -11.296875 C 6.816406 -11.296875 7.125 -11.25 7.40625 -11.15625 Z M 7.359375 -8.3125 "/></g></g></g><g fill="#5170ff" fill-opacity="1"><g transform="translate(114.26714, 295.971697)"><g><path d="M 6.234375 0.203125 C 4.609375 0.203125 3.285156 -0.289062 2.265625 -1.28125 C 1.242188 -2.28125 0.734375 -3.613281 0.734375 -5.28125 L 0.734375 -5.5625 C 0.734375 -6.675781 0.945312 -7.671875 1.375 -8.546875 C 1.8125 -9.421875 2.421875 -10.097656 3.203125 -10.578125 C 3.992188 -11.054688 4.894531 -11.296875 5.90625 -11.296875 C 7.425781 -11.296875 8.617188 -10.816406 9.484375 -9.859375 C 10.359375 -8.898438 10.796875 -7.546875 10.796875 -5.796875 L 10.796875 -4.578125 L 3.734375 -4.578125 C 3.835938 -3.859375 4.128906 -3.28125 4.609375 -2.84375 C 5.085938 -2.40625 5.695312 -2.1875 6.4375 -2.1875 C 7.570312 -2.1875 8.460938 -2.597656 9.109375 -3.421875 L 10.5625 -1.796875 C 10.113281 -1.160156 9.507812 -0.664062 8.75 -0.3125 C 8 0.03125 7.160156 0.203125 6.234375 0.203125 Z M 5.90625 -8.890625 C 5.3125 -8.890625 4.832031 -8.691406 4.46875 -8.296875 C 4.101562 -7.898438 3.867188 -7.332031 3.765625 -6.59375 L 7.890625 -6.59375 L 7.890625 -6.828125 C 7.878906 -7.484375 7.703125 -7.988281 7.359375 -8.34375 C 7.015625 -8.707031 6.53125 -8.890625 5.90625 -8.890625 Z M 5.90625 -8.890625 "/></g></g><g transform="translate(125.612159, 295.971697)"><g><path d="M 0.671875 -5.625 C 0.671875 -7.351562 1.054688 -8.726562 1.828125 -9.75 C 2.609375 -10.78125 3.671875 -11.296875 5.015625 -11.296875 C 6.097656 -11.296875 6.988281 -10.890625 7.6875 -10.078125 L 7.6875 -15.734375 L 10.671875 -15.734375 L 10.671875 0 L 7.984375 0 L 7.84375 -1.171875 C 7.101562 -0.253906 6.15625 0.203125 5 0.203125 C 3.695312 0.203125 2.648438 -0.304688 1.859375 -1.328125 C 1.066406 -2.359375 0.671875 -3.789062 0.671875 -5.625 Z M 3.640625 -5.40625 C 3.640625 -4.375 3.816406 -3.578125 4.171875 -3.015625 C 4.535156 -2.460938 5.066406 -2.1875 5.765625 -2.1875 C 6.671875 -2.1875 7.3125 -2.570312 7.6875 -3.34375 L 7.6875 -7.71875 C 7.320312 -8.5 6.6875 -8.890625 5.78125 -8.890625 C 4.351562 -8.890625 3.640625 -7.726562 3.640625 -5.40625 Z M 3.640625 -5.40625 "/></g></g><g transform="translate(137.438855, 295.971697)"><g/></g><g transform="translate(142.665558, 295.971697)"><g><path d="M 4.6875 -13.8125 L 4.6875 -11.09375 L 6.578125 -11.09375 L 6.578125 -8.921875 L 4.6875 -8.921875 L 4.6875 -3.375 C 4.6875 -2.96875 4.765625 -2.675781 4.921875 -2.5 C 5.078125 -2.320312 5.375 -2.234375 5.8125 -2.234375 C 6.144531 -2.234375 6.4375 -2.257812 6.6875 -2.3125 L 6.6875 -0.0625 C 6.101562 0.113281 5.503906 0.203125 4.890625 0.203125 C 2.816406 0.203125 1.757812 -0.84375 1.71875 -2.9375 L 1.71875 -8.921875 L 0.109375 -8.921875 L 0.109375 -11.09375 L 1.71875 -11.09375 L 1.71875 -13.8125 Z M 4.6875 -13.8125 "/></g></g></g><g fill="#5170ff" fill-opacity="1"><g transform="translate(149.450023, 295.971697)"><g><path d="M 0.671875 -5.640625 C 0.671875 -6.742188 0.882812 -7.722656 1.3125 -8.578125 C 1.738281 -9.441406 2.347656 -10.109375 3.140625 -10.578125 C 3.929688 -11.054688 4.851562 -11.296875 5.90625 -11.296875 C 7.40625 -11.296875 8.628906 -10.835938 9.578125 -9.921875 C 10.523438 -9.003906 11.050781 -7.757812 11.15625 -6.1875 L 11.171875 -5.4375 C 11.171875 -3.726562 10.695312 -2.359375 9.75 -1.328125 C 8.800781 -0.304688 7.523438 0.203125 5.921875 0.203125 C 4.328125 0.203125 3.050781 -0.304688 2.09375 -1.328125 C 1.144531 -2.359375 0.671875 -3.753906 0.671875 -5.515625 Z M 3.640625 -5.4375 C 3.640625 -4.382812 3.835938 -3.578125 4.234375 -3.015625 C 4.628906 -2.460938 5.195312 -2.1875 5.9375 -2.1875 C 6.65625 -2.1875 7.210938 -2.457031 7.609375 -3 C 8.015625 -3.550781 8.21875 -4.429688 8.21875 -5.640625 C 8.21875 -6.671875 8.015625 -7.46875 7.609375 -8.03125 C 7.210938 -8.601562 6.644531 -8.890625 5.90625 -8.890625 C 5.1875 -8.890625 4.628906 -8.609375 4.234375 -8.046875 C 3.835938 -7.484375 3.640625 -6.613281 3.640625 -5.4375 Z M 3.640625 -5.4375 "/></g></g><g transform="translate(161.317713, 295.971697)"><g/></g><g transform="translate(166.544415, 295.971697)"><g><path d="M 5.28125 -4.1875 L 7.328125 -11.09375 L 10.5 -11.09375 L 6.046875 1.71875 L 5.796875 2.3125 C 5.140625 3.757812 4.046875 4.484375 2.515625 4.484375 C 2.085938 4.484375 1.648438 4.414062 1.203125 4.28125 L 1.203125 2.03125 L 1.65625 2.046875 C 2.21875 2.046875 2.632812 1.957031 2.90625 1.78125 C 3.1875 1.613281 3.40625 1.332031 3.5625 0.9375 L 3.921875 0.03125 L 0.03125 -11.09375 L 3.21875 -11.09375 Z M 5.28125 -4.1875 "/></g></g></g><g fill="#5170ff" fill-opacity="1"><g transform="translate(176.926082, 295.971697)"><g><path d="M 0.671875 -5.640625 C 0.671875 -6.742188 0.882812 -7.722656 1.3125 -8.578125 C 1.738281 -9.441406 2.347656 -10.109375 3.140625 -10.578125 C 3.929688 -11.054688 4.851562 -11.296875 5.90625 -11.296875 C 7.40625 -11.296875 8.628906 -10.835938 9.578125 -9.921875 C 10.523438 -9.003906 11.050781 -7.757812 11.15625 -6.1875 L 11.171875 -5.4375 C 11.171875 -3.726562 10.695312 -2.359375 9.75 -1.328125 C 8.800781 -0.304688 7.523438 0.203125 5.921875 0.203125 C 4.328125 0.203125 3.050781 -0.304688 2.09375 -1.328125 C 1.144531 -2.359375 0.671875 -3.753906 0.671875 -5.515625 Z M 3.640625 -5.4375 C 3.640625 -4.382812 3.835938 -3.578125 4.234375 -3.015625 C 4.628906 -2.460938 5.195312 -2.1875 5.9375 -2.1875 C 6.65625 -2.1875 7.210938 -2.457031 7.609375 -3 C 8.015625 -3.550781 8.21875 -4.429688 8.21875 -5.640625 C 8.21875 -6.671875 8.015625 -7.46875 7.609375 -8.03125 C 7.210938 -8.601562 6.644531 -8.890625 5.90625 -8.890625 C 5.1875 -8.890625 4.628906 -8.609375 4.234375 -8.046875 C 3.835938 -7.484375 3.640625 -6.613281 3.640625 -5.4375 Z M 3.640625 -5.4375 "/></g></g><g transform="translate(188.793771, 295.971697)"><g><path d="M 7.78125 -1.125 C 7.050781 -0.238281 6.039062 0.203125 4.75 0.203125 C 3.5625 0.203125 2.65625 -0.132812 2.03125 -0.8125 C 1.40625 -1.5 1.082031 -2.503906 1.0625 -3.828125 L 1.0625 -11.09375 L 4.03125 -11.09375 L 4.03125 -3.921875 C 4.03125 -2.765625 4.554688 -2.1875 5.609375 -2.1875 C 6.609375 -2.1875 7.296875 -2.535156 7.671875 -3.234375 L 7.671875 -11.09375 L 10.640625 -11.09375 L 10.640625 0 L 7.859375 0 Z M 7.78125 -1.125 "/></g></g><g transform="translate(200.538479, 295.971697)"><g><path d="M 7.359375 -8.3125 C 6.960938 -8.363281 6.609375 -8.390625 6.296875 -8.390625 C 5.179688 -8.390625 4.445312 -8.007812 4.09375 -7.25 L 4.09375 0 L 1.140625 0 L 1.140625 -11.09375 L 3.9375 -11.09375 L 4.015625 -9.765625 C 4.609375 -10.785156 5.429688 -11.296875 6.484375 -11.296875 C 6.816406 -11.296875 7.125 -11.25 7.40625 -11.15625 Z M 7.359375 -8.3125 "/></g></g></g><g fill="#5170ff" fill-opacity="1"><g transform="translate(37.819659, 325.206094)"><g><path d="M 12.5625 -12.421875 L 7.984375 -12.421875 L 7.984375 0 L 4.921875 0 L 4.921875 -12.421875 L 0.40625 -12.421875 L 0.40625 -14.921875 L 12.5625 -14.921875 Z M 12.5625 -12.421875 "/></g></g><g transform="translate(50.804428, 325.206094)"><g><path d="M 4.265625 0 L 1.296875 0 L 1.296875 -11.09375 L 4.265625 -11.09375 Z M 1.109375 -13.953125 C 1.109375 -14.398438 1.257812 -14.765625 1.5625 -15.046875 C 1.863281 -15.335938 2.269531 -15.484375 2.78125 -15.484375 C 3.28125 -15.484375 3.679688 -15.335938 3.984375 -15.046875 C 4.285156 -14.765625 4.4375 -14.398438 4.4375 -13.953125 C 4.4375 -13.503906 4.285156 -13.132812 3.984375 -12.84375 C 3.679688 -12.5625 3.28125 -12.421875 2.78125 -12.421875 C 2.28125 -12.421875 1.875 -12.5625 1.5625 -12.84375 C 1.257812 -13.132812 1.109375 -13.503906 1.109375 -13.953125 Z M 1.109375 -13.953125 "/></g></g><g transform="translate(56.369329, 325.206094)"><g><path d="M 3.921875 -11.09375 L 4 -9.84375 C 4.789062 -10.8125 5.851562 -11.296875 7.1875 -11.296875 C 8.613281 -11.296875 9.597656 -10.726562 10.140625 -9.59375 C 10.910156 -10.726562 12.019531 -11.296875 13.46875 -11.296875 C 14.664062 -11.296875 15.554688 -10.941406 16.140625 -10.234375 C 16.734375 -9.535156 17.03125 -8.484375 17.03125 -7.078125 L 17.03125 0 L 14.0625 0 L 14.0625 -7.0625 C 14.0625 -7.695312 13.9375 -8.160156 13.6875 -8.453125 C 13.4375 -8.742188 13.003906 -8.890625 12.390625 -8.890625 C 11.503906 -8.890625 10.890625 -8.460938 10.546875 -7.609375 L 10.546875 0 L 7.59375 0 L 7.59375 -7.0625 C 7.59375 -7.695312 7.460938 -8.160156 7.203125 -8.453125 C 6.953125 -8.742188 6.523438 -8.890625 5.921875 -8.890625 C 5.078125 -8.890625 4.46875 -8.539062 4.09375 -7.84375 L 4.09375 0 L 1.140625 0 L 1.140625 -11.09375 Z M 3.921875 -11.09375 "/></g></g><g transform="translate(74.539808, 325.206094)"><g><path d="M 6.234375 0.203125 C 4.609375 0.203125 3.285156 -0.289062 2.265625 -1.28125 C 1.242188 -2.28125 0.734375 -3.613281 0.734375 -5.28125 L 0.734375 -5.5625 C 0.734375 -6.675781 0.945312 -7.671875 1.375 -8.546875 C 1.8125 -9.421875 2.421875 -10.097656 3.203125 -10.578125 C 3.992188 -11.054688 4.894531 -11.296875 5.90625 -11.296875 C 7.425781 -11.296875 8.617188 -10.816406 9.484375 -9.859375 C 10.359375 -8.898438 10.796875 -7.546875 10.796875 -5.796875 L 10.796875 -4.578125 L 3.734375 -4.578125 C 3.835938 -3.859375 4.128906 -3.28125 4.609375 -2.84375 C 5.085938 -2.40625 5.695312 -2.1875 6.4375 -2.1875 C 7.570312 -2.1875 8.460938 -2.597656 9.109375 -3.421875 L 10.5625 -1.796875 C 10.113281 -1.160156 9.507812 -0.664062 8.75 -0.3125 C 8 0.03125 7.160156 0.203125 6.234375 0.203125 Z M 5.90625 -8.890625 C 5.3125 -8.890625 4.832031 -8.691406 4.46875 -8.296875 C 4.101562 -7.898438 3.867188 -7.332031 3.765625 -6.59375 L 7.890625 -6.59375 L 7.890625 -6.828125 C 7.878906 -7.484375 7.703125 -7.988281 7.359375 -8.34375 C 7.015625 -8.707031 6.53125 -8.890625 5.90625 -8.890625 Z M 5.90625 -8.890625 "/></g></g><g transform="translate(85.884827, 325.206094)"><g/></g><g transform="translate(91.11153, 325.206094)"><g><path d="M 7.5625 0 C 7.425781 -0.269531 7.328125 -0.601562 7.265625 -1 C 6.546875 -0.195312 5.613281 0.203125 4.46875 0.203125 C 3.382812 0.203125 2.484375 -0.109375 1.765625 -0.734375 C 1.054688 -1.367188 0.703125 -2.160156 0.703125 -3.109375 C 0.703125 -4.285156 1.132812 -5.1875 2 -5.8125 C 2.875 -6.445312 4.132812 -6.765625 5.78125 -6.765625 L 7.140625 -6.765625 L 7.140625 -7.40625 C 7.140625 -7.914062 7.007812 -8.320312 6.75 -8.625 C 6.488281 -8.9375 6.070312 -9.09375 5.5 -9.09375 C 5 -9.09375 4.609375 -8.972656 4.328125 -8.734375 C 4.046875 -8.492188 3.90625 -8.164062 3.90625 -7.75 L 0.9375 -7.75 C 0.9375 -8.394531 1.132812 -8.988281 1.53125 -9.53125 C 1.925781 -10.082031 2.484375 -10.515625 3.203125 -10.828125 C 3.929688 -11.140625 4.75 -11.296875 5.65625 -11.296875 C 7.019531 -11.296875 8.101562 -10.953125 8.90625 -10.265625 C 9.707031 -9.578125 10.109375 -8.609375 10.109375 -7.359375 L 10.109375 -2.5625 C 10.117188 -1.507812 10.265625 -0.710938 10.546875 -0.171875 L 10.546875 0 Z M 5.109375 -2.0625 C 5.546875 -2.0625 5.945312 -2.15625 6.3125 -2.34375 C 6.6875 -2.539062 6.960938 -2.804688 7.140625 -3.140625 L 7.140625 -5.046875 L 6.03125 -5.046875 C 4.550781 -5.046875 3.765625 -4.53125 3.671875 -3.5 L 3.65625 -3.328125 C 3.65625 -2.960938 3.785156 -2.660156 4.046875 -2.421875 C 4.304688 -2.179688 4.660156 -2.0625 5.109375 -2.0625 Z M 5.109375 -2.0625 "/></g></g><g transform="translate(102.364313, 325.206094)"><g><path d="M 3.859375 -11.09375 L 3.953125 -9.8125 C 4.742188 -10.800781 5.804688 -11.296875 7.140625 -11.296875 C 8.316406 -11.296875 9.191406 -10.945312 9.765625 -10.25 C 10.335938 -9.5625 10.628906 -8.53125 10.640625 -7.15625 L 10.640625 0 L 7.6875 0 L 7.6875 -7.09375 C 7.6875 -7.71875 7.546875 -8.171875 7.265625 -8.453125 C 6.992188 -8.742188 6.539062 -8.890625 5.90625 -8.890625 C 5.070312 -8.890625 4.445312 -8.53125 4.03125 -7.8125 L 4.03125 0 L 1.078125 0 L 1.078125 -11.09375 Z M 3.859375 -11.09375 "/></g></g><g transform="translate(114.11927, 325.206094)"><g><path d="M 0.671875 -5.625 C 0.671875 -7.351562 1.054688 -8.726562 1.828125 -9.75 C 2.609375 -10.78125 3.671875 -11.296875 5.015625 -11.296875 C 6.097656 -11.296875 6.988281 -10.890625 7.6875 -10.078125 L 7.6875 -15.734375 L 10.671875 -15.734375 L 10.671875 0 L 7.984375 0 L 7.84375 -1.171875 C 7.101562 -0.253906 6.15625 0.203125 5 0.203125 C 3.695312 0.203125 2.648438 -0.304688 1.859375 -1.328125 C 1.066406 -2.359375 0.671875 -3.789062 0.671875 -5.625 Z M 3.640625 -5.40625 C 3.640625 -4.375 3.816406 -3.578125 4.171875 -3.015625 C 4.535156 -2.460938 5.066406 -2.1875 5.765625 -2.1875 C 6.671875 -2.1875 7.3125 -2.570312 7.6875 -3.34375 L 7.6875 -7.71875 C 7.320312 -8.5 6.6875 -8.890625 5.78125 -8.890625 C 4.351562 -8.890625 3.640625 -7.726562 3.640625 -5.40625 Z M 3.640625 -5.40625 "/></g></g><g transform="translate(125.945966, 325.206094)"><g/></g><g transform="translate(131.172668, 325.206094)"><g><path d="M 13.140625 -1.890625 C 12.585938 -1.222656 11.800781 -0.707031 10.78125 -0.34375 C 9.769531 0.0195312 8.648438 0.203125 7.421875 0.203125 C 6.128906 0.203125 5 -0.078125 4.03125 -0.640625 C 3.0625 -1.203125 2.3125 -2.019531 1.78125 -3.09375 C 1.25 -4.164062 0.976562 -5.425781 0.96875 -6.875 L 0.96875 -7.890625 C 0.96875 -9.378906 1.21875 -10.664062 1.71875 -11.75 C 2.21875 -12.84375 2.941406 -13.675781 3.890625 -14.25 C 4.835938 -14.832031 5.945312 -15.125 7.21875 -15.125 C 8.976562 -15.125 10.359375 -14.703125 11.359375 -13.859375 C 12.359375 -13.015625 12.953125 -11.785156 13.140625 -10.171875 L 10.140625 -10.171875 C 10.003906 -11.023438 9.703125 -11.648438 9.234375 -12.046875 C 8.765625 -12.441406 8.125 -12.640625 7.3125 -12.640625 C 6.257812 -12.640625 5.457031 -12.242188 4.90625 -11.453125 C 4.363281 -10.671875 4.09375 -9.507812 4.09375 -7.96875 L 4.09375 -7.015625 C 4.09375 -5.441406 4.390625 -4.253906 4.984375 -3.453125 C 5.578125 -2.660156 6.445312 -2.265625 7.59375 -2.265625 C 8.75 -2.265625 9.570312 -2.507812 10.0625 -3 L 10.0625 -5.578125 L 7.265625 -5.578125 L 7.265625 -7.84375 L 13.140625 -7.84375 Z M 13.140625 -1.890625 "/></g></g><g transform="translate(145.469237, 325.206094)"><g><path d="M 0.671875 -5.640625 C 0.671875 -6.742188 0.882812 -7.722656 1.3125 -8.578125 C 1.738281 -9.441406 2.347656 -10.109375 3.140625 -10.578125 C 3.929688 -11.054688 4.851562 -11.296875 5.90625 -11.296875 C 7.40625 -11.296875 8.628906 -10.835938 9.578125 -9.921875 C 10.523438 -9.003906 11.050781 -7.757812 11.15625 -6.1875 L 11.171875 -5.4375 C 11.171875 -3.726562 10.695312 -2.359375 9.75 -1.328125 C 8.800781 -0.304688 7.523438 0.203125 5.921875 0.203125 C 4.328125 0.203125 3.050781 -0.304688 2.09375 -1.328125 C 1.144531 -2.359375 0.671875 -3.753906 0.671875 -5.515625 Z M 3.640625 -5.4375 C 3.640625 -4.382812 3.835938 -3.578125 4.234375 -3.015625 C 4.628906 -2.460938 5.195312 -2.1875 5.9375 -2.1875 C 6.65625 -2.1875 7.210938 -2.457031 7.609375 -3 C 8.015625 -3.550781 8.21875 -4.429688 8.21875 -5.640625 C 8.21875 -6.671875 8.015625 -7.46875 7.609375 -8.03125 C 7.210938 -8.601562 6.644531 -8.890625 5.90625 -8.890625 C 5.1875 -8.890625 4.628906 -8.609375 4.234375 -8.046875 C 3.835938 -7.484375 3.640625 -6.613281 3.640625 -5.4375 Z M 3.640625 -5.4375 "/></g></g><g transform="translate(157.336927, 325.206094)"><g><path d="M 7.5625 0 C 7.425781 -0.269531 7.328125 -0.601562 7.265625 -1 C 6.546875 -0.195312 5.613281 0.203125 4.46875 0.203125 C 3.382812 0.203125 2.484375 -0.109375 1.765625 -0.734375 C 1.054688 -1.367188 0.703125 -2.160156 0.703125 -3.109375 C 0.703125 -4.285156 1.132812 -5.1875 2 -5.8125 C 2.875 -6.445312 4.132812 -6.765625 5.78125 -6.765625 L 7.140625 -6.765625 L 7.140625 -7.40625 C 7.140625 -7.914062 7.007812 -8.320312 6.75 -8.625 C 6.488281 -8.9375 6.070312 -9.09375 5.5 -9.09375 C 5 -9.09375 4.609375 -8.972656 4.328125 -8.734375 C 4.046875 -8.492188 3.90625 -8.164062 3.90625 -7.75 L 0.9375 -7.75 C 0.9375 -8.394531 1.132812 -8.988281 1.53125 -9.53125 C 1.925781 -10.082031 2.484375 -10.515625 3.203125 -10.828125 C 3.929688 -11.140625 4.75 -11.296875 5.65625 -11.296875 C 7.019531 -11.296875 8.101562 -10.953125 8.90625 -10.265625 C 9.707031 -9.578125 10.109375 -8.609375 10.109375 -7.359375 L 10.109375 -2.5625 C 10.117188 -1.507812 10.265625 -0.710938 10.546875 -0.171875 L 10.546875 0 Z M 5.109375 -2.0625 C 5.546875 -2.0625 5.945312 -2.15625 6.3125 -2.34375 C 6.6875 -2.539062 6.960938 -2.804688 7.140625 -3.140625 L 7.140625 -5.046875 L 6.03125 -5.046875 C 4.550781 -5.046875 3.765625 -4.53125 3.671875 -3.5 L 3.65625 -3.328125 C 3.65625 -2.960938 3.785156 -2.660156 4.046875 -2.421875 C 4.304688 -2.179688 4.660156 -2.0625 5.109375 -2.0625 Z M 5.109375 -2.0625 "/></g></g><g transform="translate(168.58971, 325.206094)"><g><path d="M 4.265625 0 L 1.296875 0 L 1.296875 -15.734375 L 4.265625 -15.734375 Z M 4.265625 0 "/></g></g><g transform="translate(174.154611, 325.206094)"><g><path d="M 7.140625 -3.0625 C 7.140625 -3.425781 6.957031 -3.710938 6.59375 -3.921875 C 6.238281 -4.128906 5.664062 -4.316406 4.875 -4.484375 C 2.238281 -5.035156 0.921875 -6.15625 0.921875 -7.84375 C 0.921875 -8.820312 1.328125 -9.640625 2.140625 -10.296875 C 2.960938 -10.960938 4.03125 -11.296875 5.34375 -11.296875 C 6.75 -11.296875 7.875 -10.960938 8.71875 -10.296875 C 9.5625 -9.628906 9.984375 -8.769531 9.984375 -7.71875 L 7.03125 -7.71875 C 7.03125 -8.132812 6.890625 -8.484375 6.609375 -8.765625 C 6.335938 -9.046875 5.914062 -9.1875 5.34375 -9.1875 C 4.84375 -9.1875 4.453125 -9.070312 4.171875 -8.84375 C 3.898438 -8.613281 3.765625 -8.328125 3.765625 -7.984375 C 3.765625 -7.648438 3.921875 -7.382812 4.234375 -7.1875 C 4.546875 -6.988281 5.070312 -6.8125 5.8125 -6.65625 C 6.550781 -6.507812 7.171875 -6.347656 7.671875 -6.171875 C 9.234375 -5.597656 10.015625 -4.601562 10.015625 -3.1875 C 10.015625 -2.175781 9.582031 -1.359375 8.71875 -0.734375 C 7.851562 -0.109375 6.734375 0.203125 5.359375 0.203125 C 4.429688 0.203125 3.601562 0.0390625 2.875 -0.28125 C 2.15625 -0.613281 1.59375 -1.066406 1.1875 -1.640625 C 0.78125 -2.222656 0.578125 -2.851562 0.578125 -3.53125 L 3.375 -3.53125 C 3.40625 -3 3.601562 -2.59375 3.96875 -2.3125 C 4.332031 -2.03125 4.816406 -1.890625 5.421875 -1.890625 C 5.984375 -1.890625 6.410156 -2 6.703125 -2.21875 C 6.992188 -2.4375 7.140625 -2.71875 7.140625 -3.0625 Z M 7.140625 -3.0625 "/></g></g></g></svg>